<?xml version="1.0" encoding="UTF-8" standalone="no"?>
<svg
   xmlns:dc="http://purl.org/dc/elements/1.1/"
   xmlns:cc="http://creativecommons.org/ns#"
   xmlns:rdf="http://www.w3.org/1999/02/22-rdf-syntax-ns#"
   xmlns:svg="http://www.w3.org/2000/svg"
   xmlns="http://www.w3.org/2000/svg"
   xmlns:sodipodi="http://sodipodi.sourceforge.net/DTD/sodipodi-0.dtd"
   xmlns:inkscape="http://www.inkscape.org/namespaces/inkscape"
   viewBox="0 0 2267.7166 661.89172"
   version="1.1"
   id="svg307"
   sodipodi:docname="CitySkyline.svg"
   inkscape:version="0.92.2 5c3e80d, 2017-08-06"
   width="2267.7166"
   height="661.89172">
  <sodipodi:namedview
     pagecolor="#ffffff"
     bordercolor="#666666"
     borderopacity="1"
     objecttolerance="10"
     gridtolerance="10"
     guidetolerance="10"
     inkscape:pageopacity="0"
     inkscape:pageshadow="2"
     inkscape:window-width="1363"
     inkscape:window-height="840"
     id="namedview309"
     showgrid="false"
     inkscape:zoom="5.792611"
     inkscape:cx="566.23778"
     inkscape:cy="502.39048"
     inkscape:window-x="63"
     inkscape:window-y="13"
     inkscape:window-maximized="0"
     inkscape:current-layer="svg307"
     fit-margin-top="0"
     fit-margin-left="0"
     fit-margin-right="0"
     fit-margin-bottom="0" />
  <defs
     id="defs292">
    <filter
       id="imagebot_11"
       height="1"
       width="1"
       y="0"
       x="0"
       style="color-interpolation-filters:sRGB">
      <feGaussianBlur
         id="imagebot_16"
         stdDeviation="0.4"
         result="result6" />
      <feComposite
         id="imagebot_15"
         operator="in"
         result="result7"
         in2="result6"
         in="SourceGraphic" />
      <feComposite
         id="imagebot_14"
         operator="in"
         result="result8"
         in2="result7"
         in="result7" />
    </filter>
  </defs>
  <rect
     style="fill:#ffffff;stroke-width:0.2;stroke-miterlimit:4;stroke-dasharray:none"
     x="2118.7271"
     y="187.96992"
     width="36.547928"
     height="50.47197"
     id="imagebot_6" />
  <path
     id="imagebot_10"
     d="M -2342.4,1308.4 V 978.86 h 111.5 111.5 v 92.04 92 h 135.5 135.5 v -17.8 l 1,-21.7 1.5,-22.5 1,-38.5 1,-32.5 1,-29.5 3,-95 1.8,-15.74 7.2,-0.84 16.5,-0.5 30,-0.93 31.5,-1.02 23.5,-1 26,-1.14 162.2,-1.14 134.8,-0.23 v -45 -45 h 14.3 14.4 l 0.6,-14.25 0.7,-44 v -29.75 h 7 7 v 45 45 h 7.6 l 24.5,7.26 9.2,19.93 0.2,6.8 h 16.2 16.3 v -35.3 l 1.3,-37.2 -1,-3.77 -2.3,-4.68 24.5,-10.03 28.5,-6.68 15,-3 110.6,12.16 2.8,-26.76 3.5,-159.74 v -8.5 l -19.5,-13.46 -19.4,-16.37 -1,-6.54 -5.1,-46.93 -4,-43.31 7.1,-8.69 11,-13.19 3.9,-4.5 0.1,-26.18 v -26.19 l 5.7,-9.54 5.7,-9.54 17.1,-0.28 17,-0.27 m 0,0 c 7.9028,0.03 15.8009,0.28434 23.7,0.5 h 14.6 l 6.1,10.84 6.1,10.84 v 23.38 23.38 l 10.1,15.27 10.1,15.28 -0.5,6 0.4,5.45 -3.6,39.56 -4.6,39.68 -25.8,17.78 -25.9,16 -2.3,109.25 -1.6,78.5 -0.6,12.29 61.5,7.75 63.19,8.36 1.52,147.25 -1.38,189.68 0.05,45.9 1.39,25.2 v 22.4 h 16.5 16.5 V 985.72 l -1.74,-206.41 0.4,-5.11 c 15.00219,-30.65543 29.2552,-61.65434 43.46,-92.74 l 28.88,-68.6 -30.84833,-67.70281 c 4.5047,-31.30745 387.90519,-1339.32511 350.91833,-149.79419 31.29673,-1.82967 62.55373,0.5 93.93,0.5 2.48951,170.34229 0.88896,340.84945 0.75,511.27 l 1.25,4.63 v 5.1 h 89 89 v -382.42 l 0.61,-384 34.99,-1.58 h 34.38 l 0.26,-43.24 0.26,-43.249 4.5,-0.819 15.5,-3.635 33.5,-8.091 13.46,-3.366 10.85,-2.598 12.043,-2.852 15.149,-3.842 11.5,-2.621 17.219,-4.303 10.23,-3.465 0.609,-19.5 1.1,-18.707 11.52,-25.105 13.172,-26.729 28.094,-18.314 28.702,-19.124 3.115,-2.44 15.268,-19.15 7.721,-5.83 1.048,-2.97 0.161,-4.47 0.746,-40.06 -0.621,-37.52 h 9.456 l 9.456,2 4,2 h 4 l 0.09,90.25 1.253,103.75 1.163,13.502 4.996,-0.3136 6.75,-0.8174 1.75,29.564 v 30.067 h 10.04 10.05 l -0.09,299.25 -0.05,335 0.05,35.75 h 38 38 l 0.02,-219.75 0.01,-219.75 5.24,-3.5 6.23,-3.9 5.18,-3.25 4.85,-2.85 10.61,-7 10.48,-7 13.3,-8.94 15.66,-10.2 12.7,-8.06 10.34,-6.8 13.22,-8.87 16.66,-10.79 17.5,-11.39 18.5,-11.84 17.01,-9.46 9.35,-6.65 11.36,-8.21 30.39,-20.79 5.52,-3.5 5.46,-3.5 15.55,-10.5 15.47,-10.5 4.89,-3 5.06,-3 5.57,-3.5 5.46,-3.498 15.55,-10.5 15.47,-10.5 4.89,-3 5.03,-3 10.61,-7 10.5,-7 10.5,-7 10.46,-7 4.9,-3 5.05,-3 7,-4.5 6.31,-4.5 h 14.07 14.07 v 211 211 h 14.95 l 19.75,0.94 12.8,1.97 16.5,2.16 17,1.91 16,1.9 33.58,4.1 21,2.86 40.42,5.16 16,1.91 33,4.07 16,1.89 33,4.11 21.5,2.84 55.63,-0.54 0.9416,43.82307 5.9584,42.89693 h 10.5 10.5 l 0.1,-26.75 -0.1,-48 -0.2,-21.25 h 4.6 4.6 v -247 -247 l 21,0.002 h 21 v -57 -57.002 h 19 19 v -10 -10 h 160 l 160,2 2.8,0.78 1.2,47.25 -0.1,55.222 0.1,6.75 23.2,0.118 20.3,0.787 6.5,3.775 13.6,3.788 18.1,12.494 3.3,5.45 v 683.8 683.83 h 53.5 53.5 v -342.8 l -1.1,-353.62 -0.5,-11.4 117.4,-31.68 7.9,-3.22 -6.9,-199.32 -2.4,-54.5 -0.9,-21.5 -1,-27.5 -1.4,-26 -0.9,-16 -2.2,-46 -0.8,-15.5 -0.6,-17.5 -1.1,-27.5 -1.4,-26.5 -0.9,-15.5 -2.1,-46.498 -0.9,-15.5 -0.6,-16 -1,-36 -0.3,-22.5 19.2,-18.808 19.1,-18.809 39,-7.38 73.4,-13.895 55.5,-10.514 85.3,-16.146 10.4,-1.92 21.6,8.832 53.2,21.631 69,28.06 37.5,15.265 0.8,7.842 0.7,11.701 1,5.2316 1.4,24.909 -0.4,18 0.9,21.25 2.6,5.25 1,5.759 -2.9,2.443 1.8,40.146 3.2,41.71 0.2,4.64 16.5,392.83 18,390.14 57.7,3.4 57.7,3.34 0.9,7.72 3.2,11.87 4,7.5 11.7,131.54 11,134.8 0.6,6.3 5.7,-0.6 24,-2 18.8,-1.8 -35.2,-639.49 -0.7,-8.25 h 3.9 l 5.3,-3.75 19.1,-19.32 23.5,1.12 15.3,15.22 2.2,4.77 10.7,-0.56 58.3,-2.04 131.5,-4.43 72.5,-2.51 72,-2.49 71.5,-2.48 129.5,-4.54 27.9,-0.98 0.3,-1.16 -0.3,-2.75 -2.9,-51.1 -7.7,-104 2.4,-12.79 2.8,-7.32 2.3,-3.51 4.7,-2.09 25.5,-5.96 103,-2.34 160.5,-4.45 92,-2.56 87,-2.45 49,-1.37 25,4.46 30.2,5.5 5.3,1.02 0.2,20.18 1.2,46.68 1.1,26.5 1,23.5 1,30.5 0.9,31 1,26 1.1,29 8,246.5 4,118.5 9.6,8.47 12.2,6.25 40.7,-3.19 72.7,-4.97 35.2,-1.99 23.3,-16.68 25,-18.34 6.3,-91.6 5,-92.95 19.4,-30.58 29.3,-21.92 1.8,-1.5 0.2,-1.49 27.7,2.5 28.5,2.49 1.4,463.54 0.1,463.5 h -3171 -3170.9 v -329.5 m 601,-356.47 -4.1,-5.07 -0.4,5.04 4.5,0.03 m 17.7,-29.99 3.5,-1.36 1.2,-0.59 -7.4,2 2.7,-0.05 m -15.8,-1.49 0.1,-2.06 -3,2.03 2.9,0.03 m 897,-312.34 -0.93,-0.75 v 3.5 l 0.93,-2.75 m 1929.13,-464.25 -1,-1 -1,1 1,1 1,-1 m 353.5,-286 -1.1,-1 -0.4,1 1,1 0.5,-1"
     inkscape:connector-curvature="0"
     style="fill:none;stroke:#000000;stroke-width:2.11396664;stroke-miterlimit:4;stroke-dasharray:none;stroke-opacity:1;filter:url(#imagebot_11)"
     sodipodi:nodetypes="ccccccccccccccccccccccccccccccccccccccccccccccccccccccccccccccccccccccccccccccccccccccccccccccccccccccccccccccccccccccccccccccccccccccccccccccccccccccccccccccccccccccccccccccccccccccccccccccccccccccccccccccccccccccccccccccccccccccccccccccccccccccccccccccccccccccccccccccccccccccccccccccccccccccccccccccccccccccccccccccccccccccccccccccccccccccccccccccccccccccccccccccccccccccccccccccccccccccccccc"
     transform="matrix(0.35757684,0,0,0.35757684,886.29789,-105.09623)" />
  <rect
     id="imagebot_4"
     height="259.32187"
     width="100.94394"
     y="174.04945"
     x="2148.2986"
     style="fill:#ffffff;stroke-width:0.2;stroke-miterlimit:4;stroke-dasharray:none" />
  <metadata
     id="metadata305">
    <rdf:RDF>
      <cc:Work>
        <dc:format>image/svg+xml</dc:format>
        <dc:type
           rdf:resource="http://purl.org/dc/dcmitype/StillImage" />
        <cc:license
           rdf:resource="http://creativecommons.org/publicdomain/zero/1.0/" />
        <dc:publisher>
          <cc:Agent
             rdf:about="http://openclipart.org/">
            <dc:title>Openclipart</dc:title>
          </cc:Agent>
        </dc:publisher>
        <dc:title>Sydney Skyline</dc:title>
        <dc:date>2012-03-17T03:57:15</dc:date>
        <dc:description>Silhouette of Sydney skyline</dc:description>
        <dc:source>https://openclipart.org/detail/168858/sydney-skyline-by-owencook</dc:source>
        <dc:creator>
          <cc:Agent>
            <dc:title>owencook</dc:title>
          </cc:Agent>
        </dc:creator>
        <dc:subject>
          <rdf:Bag>
            <rdf:li>silhouette</rdf:li>
            <rdf:li>skyline</rdf:li>
            <rdf:li>sydney</rdf:li>
          </rdf:Bag>
        </dc:subject>
      </cc:Work>
      <cc:License
         rdf:about="http://creativecommons.org/publicdomain/zero/1.0/">
        <cc:permits
           rdf:resource="http://creativecommons.org/ns#Reproduction" />
        <cc:permits
           rdf:resource="http://creativecommons.org/ns#Distribution" />
        <cc:permits
           rdf:resource="http://creativecommons.org/ns#DerivativeWorks" />
      </cc:License>
    </rdf:RDF>
  </metadata>
</svg>
