<?xml version="1.0" encoding="UTF-8" standalone="no"?>
<!-- Created with Inkscape (http://www.inkscape.org/) -->

<svg
   xmlns:dc="http://purl.org/dc/elements/1.1/"
   xmlns:cc="http://creativecommons.org/ns#"
   xmlns:rdf="http://www.w3.org/1999/02/22-rdf-syntax-ns#"
   xmlns:svg="http://www.w3.org/2000/svg"
   xmlns="http://www.w3.org/2000/svg"
   xmlns:xlink="http://www.w3.org/1999/xlink"
   xmlns:sodipodi="http://sodipodi.sourceforge.net/DTD/sodipodi-0.dtd"
   xmlns:inkscape="http://www.inkscape.org/namespaces/inkscape"
   width="240.00002mm"
   height="240mm"
   viewBox="0 0 240.00002 240"
   version="1.1"
   id="svg8"
   inkscape:version="0.92.2 5c3e80d, 2017-08-06"
   sodipodi:docname="MainCircle.svg">
  <defs
     id="defs2" />
  <sodipodi:namedview
     id="base"
     pagecolor="#ffffff"
     bordercolor="#666666"
     borderopacity="1.0"
     inkscape:pageopacity="0.0"
     inkscape:pageshadow="2"
     inkscape:zoom="0.63720485"
     inkscape:cx="402.08156"
     inkscape:cy="453.5433"
     inkscape:document-units="mm"
     inkscape:current-layer="layer2"
     showgrid="false"
     fit-margin-top="0"
     fit-margin-left="0"
     fit-margin-right="0"
     fit-margin-bottom="0"
     inkscape:window-width="1247"
     inkscape:window-height="755"
     inkscape:window-x="33"
     inkscape:window-y="281"
     inkscape:window-maximized="1"
     showguides="false"
     inkscape:guide-bbox="true">
    <sodipodi:guide
       position="0,120"
       orientation="0,1"
       id="guide821"
       inkscape:locked="false"
       inkscape:label=""
       inkscape:color="rgb(0,0,255)" />
    <sodipodi:guide
       position="120,120"
       orientation="1,0"
       id="guide823"
       inkscape:locked="false"
       inkscape:label=""
       inkscape:color="rgb(0,0,255)" />
  </sodipodi:namedview>
  <metadata
     id="metadata5">
    <rdf:RDF>
      <cc:Work
         rdf:about="">
        <dc:format>image/svg+xml</dc:format>
        <dc:type
           rdf:resource="http://purl.org/dc/dcmitype/StillImage" />
        <dc:title></dc:title>
      </cc:Work>
    </rdf:RDF>
  </metadata>
  <g
     inkscape:label="Layer 1"
     inkscape:groupmode="layer"
     id="layer1"
     transform="translate(13.727152,-25.369993)">
    <path
       style="fill:none;fill-opacity:1;stroke:#000000;stroke-width:0.38054362;stroke-miterlimit:4;stroke-dasharray:none;stroke-dashoffset:0;stroke-opacity:1"
       d="M 226.0826,145.37 A 119.80974,119.80973 0 0 1 106.27286,265.17973 119.80974,119.80973 0 0 1 -13.53688,145.37 119.80974,119.80973 0 0 1 106.27286,25.560265 119.80974,119.80973 0 0 1 226.0826,145.37 Z"
       id="path815" />
    <path
       style="fill:none;fill-opacity:1;stroke:#000000;stroke-width:0.12684786;stroke-miterlimit:4;stroke-dasharray:none;stroke-dashoffset:0;stroke-opacity:1"
       d="M 146.20943,145.37 A 39.936577,39.936573 0 0 1 106.27286,185.30657 39.936577,39.936573 0 0 1 66.336281,145.37 39.936577,39.936573 0 0 1 106.27286,105.43342 39.936577,39.936573 0 0 1 146.20943,145.37 Z"
       id="ellipse825" />
    <path
       style="fill:none;fill-opacity:1;stroke:#000000;stroke-width:0.0951359;stroke-miterlimit:4;stroke-dasharray:none;stroke-dashoffset:0;stroke-opacity:1"
       d="M 216.22528,145.37 A 29.952433,29.952429 0 0 1 186.27284,175.32242 29.952433,29.952429 0 0 1 156.32041,145.37 29.952433,29.952429 0 0 1 186.27284,115.41757 29.952433,29.952429 0 0 1 216.22528,145.37 Z"
       id="ellipse831" />
    <path
       style="fill:none;fill-opacity:1;stroke:#000000;stroke-width:0.0951359;stroke-miterlimit:4;stroke-dasharray:none;stroke-dashoffset:0;stroke-opacity:1"
       d="M 176.43316,76.321228 A 29.952433,29.952429 0 0 1 146.48073,106.27366 29.952433,29.952429 0 0 1 116.5283,76.321228 29.952433,29.952429 0 0 1 146.48073,46.368799 29.952433,29.952429 0 0 1 176.43316,76.321228 Z"
       id="ellipse4562" />
    <path
       style="fill:none;fill-opacity:1;stroke:#000000;stroke-width:0.0951359;stroke-miterlimit:4;stroke-dasharray:none;stroke-dashoffset:0;stroke-opacity:1"
       d="M 96.398569,76.32122 A 29.952433,29.952429 0 0 1 66.446136,106.27365 29.952433,29.952429 0 0 1 36.493704,76.32122 29.952433,29.952429 0 0 1 66.446136,46.368792 29.952433,29.952429 0 0 1 96.398569,76.32122 Z"
       id="ellipse4564" />
    <path
       style="fill:none;fill-opacity:1;stroke:#000000;stroke-width:0.0951359;stroke-miterlimit:4;stroke-dasharray:none;stroke-dashoffset:0;stroke-opacity:1"
       d="M 56.381252,145.63322 A 29.952433,29.952429 0 0 1 26.42882,175.58565 29.952433,29.952429 0 0 1 -3.523613,145.63322 29.952433,29.952429 0 0 1 26.42882,115.6808 29.952433,29.952429 0 0 1 56.381252,145.63322 Z"
       id="ellipse4566" />
    <path
       style="fill:none;fill-opacity:1;stroke:#000000;stroke-width:0.0951359;stroke-miterlimit:4;stroke-dasharray:none;stroke-dashoffset:0;stroke-opacity:1"
       d="M 96.398554,214.94524 A 29.952433,29.952429 0 0 1 66.446121,244.89767 29.952433,29.952429 0 0 1 36.493689,214.94524 29.952433,29.952429 0 0 1 66.446121,184.99281 29.952433,29.952429 0 0 1 96.398554,214.94524 Z"
       id="ellipse4568" />
    <path
       style="fill:none;fill-opacity:1;stroke:#000000;stroke-width:0.0951359;stroke-miterlimit:4;stroke-dasharray:none;stroke-dashoffset:0;stroke-opacity:1"
       d="m 176.43315,214.94522 a 29.952433,29.952429 0 0 1 -29.95244,29.95243 29.952433,29.952429 0 0 1 -29.95243,-29.95243 29.952433,29.952429 0 0 1 29.95243,-29.95243 29.952433,29.952429 0 0 1 29.95244,29.95243 z"
       id="ellipse4570" />
    <path
       style="fill:#000000;fill-opacity:1;stroke:#000000;stroke-width:0.04519509;stroke-miterlimit:4;stroke-dasharray:none;stroke-dashoffset:0;stroke-opacity:1"
       d="m 107.25026,145.37 a 0.97740245,0.97740245 0 0 1 -0.9774,0.9774 0.97740245,0.97740245 0 0 1 -0.9774,-0.9774 0.97740245,0.97740245 0 0 1 0.9774,-0.97741 0.97740245,0.97740245 0 0 1 0.9774,0.97741 z"
       id="path4581" />
  </g>
  <g
     inkscape:groupmode="layer"
     id="layer2"
     inkscape:label="Construction"
     style="display:inline">
    <ellipse
       transform="translate(13.727152,-25.369993)"
       style="fill:none;fill-opacity:1;stroke:#000000;stroke-width:0.15855983;stroke-miterlimit:4;stroke-dasharray:none;stroke-dashoffset:0;stroke-opacity:1"
       id="ellipse827"
       cx="106.27286"
       cy="145.37"
       rx="49.920719"
       ry="49.920715" />
    <circle
       transform="translate(13.727152,-25.369993)"
       cy="145.37"
       cx="106.27286"
       id="ellipse829"
       style="fill:none;fill-opacity:1;stroke:#000000;stroke-width:0.34883162;stroke-miterlimit:4;stroke-dasharray:none;stroke-dashoffset:0;stroke-opacity:1"
       r="109.82558" />
    <path
       transform="translate(13.727152,-25.369993)"
       style="fill:none;fill-rule:evenodd;stroke:#000000;stroke-width:0.26322064px;stroke-linecap:butt;stroke-linejoin:miter;stroke-opacity:1"
       d="m 156.27284,145.37 h 60"
       id="path834"
       inkscape:connector-curvature="0"
       inkscape:transform-center-x="-80.034605"
       inkscape:transform-center-y="1.3860389e-06"
       inkscape:tile-cx="119.96539"
       inkscape:tile-cy="120.00001"
       inkscape:tile-w="60.000001"
       inkscape:tile-h="0.26322064"
       inkscape:tile-x0="170"
       inkscape:tile-y0="119.8684" />
    <use
       x="0"
       y="0"
       inkscape:tiled-clone-of="#path834"
       xlink:href="#path834"
       transform="rotate(60,119.85002,120.32663)"
       id="use4552"
       inkscape:transform-center-x="-172.36685"
       inkscape:transform-center-y="157.75559"
       width="100%"
       height="100%" />
    <use
       x="0"
       y="0"
       inkscape:tiled-clone-of="#path834"
       xlink:href="#path834"
       transform="rotate(120,120.00199,120.19663)"
       id="use4554"
       inkscape:transform-center-x="-92.332245"
       inkscape:transform-center-y="157.75559"
       width="100%"
       height="100%" />
    <use
       x="0"
       y="0"
       inkscape:tiled-clone-of="#path834"
       xlink:href="#path834"
       transform="rotate(180,120.07798,120.13161)"
       id="use4556"
       inkscape:transform-center-x="-52.31495"
       inkscape:transform-center-y="88.443583"
       width="100%"
       height="100%" />
    <use
       x="0"
       y="0"
       inkscape:tiled-clone-of="#path834"
       xlink:href="#path834"
       transform="rotate(-120,120.15397,120.06661)"
       id="use4558"
       inkscape:transform-center-x="-92.332259"
       inkscape:transform-center-y="19.131586"
       width="100%"
       height="100%" />
    <use
       x="0"
       y="0"
       inkscape:tiled-clone-of="#path834"
       xlink:href="#path834"
       transform="rotate(-60,120.30594,119.93661)"
       id="use4560"
       inkscape:transform-center-x="-172.36685"
       inkscape:transform-center-y="19.131589"
       width="100%"
       height="100%" />
    <text
       xml:space="preserve"
       style="font-style:normal;font-weight:normal;font-size:10.58333302px;line-height:125%;font-family:Sans;letter-spacing:0px;word-spacing:0px;fill:#000000;fill-opacity:1;stroke:none;stroke-width:0.26458332px;stroke-linecap:butt;stroke-linejoin:miter;stroke-opacity:1"
       x="-76.12838"
       y="-5.6446347"
       id="text4632"
       transform="rotate(-90)"><tspan
         sodipodi:role="line"
         id="tspan4630"
         x="-76.12838"
         y="-5.6446347"
         style="stroke-width:0.26458332px">Make 2 copies</tspan></text>
  </g>
</svg>
