<?xml version="1.0" encoding="UTF-8" standalone="no"?>
<!-- Created with Inkscape (http://www.inkscape.org/) -->

<svg
   xmlns:dc="http://purl.org/dc/elements/1.1/"
   xmlns:cc="http://creativecommons.org/ns#"
   xmlns:rdf="http://www.w3.org/1999/02/22-rdf-syntax-ns#"
   xmlns:svg="http://www.w3.org/2000/svg"
   xmlns="http://www.w3.org/2000/svg"
   xmlns:sodipodi="http://sodipodi.sourceforge.net/DTD/sodipodi-0.dtd"
   xmlns:inkscape="http://www.inkscape.org/namespaces/inkscape"
   width="207.53278mm"
   height="59.999992mm"
   viewBox="0 0 207.53278 59.999992"
   version="1.1"
   id="svg8"
   inkscape:version="0.92.2 5c3e80d, 2017-08-06"
   sodipodi:docname="SupportPulleys-C.svg">
  <defs
     id="defs2" />
  <sodipodi:namedview
     id="base"
     pagecolor="#ffffff"
     bordercolor="#666666"
     borderopacity="1.0"
     inkscape:pageopacity="0.0"
     inkscape:pageshadow="2"
     inkscape:zoom="0.49497475"
     inkscape:cx="204.19462"
     inkscape:cy="-176.1291"
     inkscape:document-units="mm"
     inkscape:current-layer="layer1"
     showgrid="false"
     showguides="true"
     inkscape:guide-bbox="true"
     inkscape:window-width="1280"
     inkscape:window-height="756"
     inkscape:window-x="2"
     inkscape:window-y="0"
     inkscape:window-maximized="0"
     fit-margin-top="0"
     fit-margin-left="0"
     fit-margin-right="0"
     fit-margin-bottom="0" />
  <metadata
     id="metadata5">
    <rdf:RDF>
      <cc:Work
         rdf:about="">
        <dc:format>image/svg+xml</dc:format>
        <dc:type
           rdf:resource="http://purl.org/dc/dcmitype/StillImage" />
        <dc:title></dc:title>
      </cc:Work>
    </rdf:RDF>
  </metadata>
  <g
     inkscape:label="Layer 1"
     inkscape:groupmode="layer"
     id="layer1"
     transform="translate(-2.2053292,-4.4369697)">
    <path
       style="fill:none;fill-opacity:1;stroke:#000000;stroke-width:0.47840348;stroke-miterlimit:4;stroke-dasharray:none;stroke-dashoffset:0;stroke-opacity:1"
       d="M 61.966126,34.436961 A 29.760798,29.760798 0 0 1 32.205329,64.197761 29.760798,29.760798 0 0 1 2.4445309,34.436961 29.760798,29.760798 0 0 1 32.205329,4.6761714 29.760798,29.760798 0 0 1 61.966126,34.436961 Z"
       id="circle5221"
       inkscape:connector-curvature="0" />
    <path
       style="fill:#000000;fill-opacity:1;stroke:#000000;stroke-width:0.01594678;stroke-miterlimit:4;stroke-dasharray:none;stroke-dashoffset:0;stroke-opacity:1"
       d="m 33.197355,34.436961 a 0.99202663,0.99202663 0 0 1 -0.992026,0.99203 0.99202663,0.99202663 0 0 1 -0.992027,-0.99203 0.99202663,0.99202663 0 0 1 0.992027,-0.99202 0.99202663,0.99202663 0 0 1 0.992026,0.99202 z"
       id="circle5223"
       inkscape:connector-curvature="0" />
    <path
       style="fill:none;fill-opacity:1;stroke:#000000;stroke-width:0.47840348;stroke-miterlimit:4;stroke-dasharray:none;stroke-dashoffset:0;stroke-opacity:1"
       d="M 135.73251,34.436961 A 29.760798,29.760798 0 0 1 105.97172,64.197761 29.760798,29.760798 0 0 1 76.210919,34.436961 29.760798,29.760798 0 0 1 105.97172,4.6761714 29.760798,29.760798 0 0 1 135.73251,34.436961 Z"
       id="circle5229"
       inkscape:connector-curvature="0" />
    <path
       style="fill:#000000;fill-opacity:1;stroke:#000000;stroke-width:0.01594678;stroke-miterlimit:4;stroke-dasharray:none;stroke-dashoffset:0;stroke-opacity:1"
       d="m 106.96374,34.436961 a 0.99202663,0.99202663 0 0 1 -0.99202,0.99203 0.99202663,0.99202663 0 0 1 -0.99203,-0.99203 0.99202663,0.99202663 0 0 1 0.99203,-0.99202 0.99202663,0.99202663 0 0 1 0.99202,0.99202 z"
       id="circle5231"
       inkscape:connector-curvature="0" />
    <path
       style="fill:none;fill-opacity:1;stroke:#000000;stroke-width:0.47840348;stroke-miterlimit:4;stroke-dasharray:none;stroke-dashoffset:0;stroke-opacity:1"
       d="m 209.4989,34.436961 a 29.760798,29.760798 0 0 1 -29.7608,29.7608 29.760798,29.760798 0 0 1 -29.76079,-29.7608 29.760798,29.760798 0 0 1 29.76079,-29.7607896 29.760798,29.760798 0 0 1 29.7608,29.7607896 z"
       id="circle5235"
       inkscape:connector-curvature="0" />
    <path
       style="fill:#000000;fill-opacity:1;stroke:#000000;stroke-width:0.01594678;stroke-miterlimit:4;stroke-dasharray:none;stroke-dashoffset:0;stroke-opacity:1"
       d="m 180.73013,34.436961 a 0.99202663,0.99202663 0 0 1 -0.99203,0.99203 0.99202663,0.99202663 0 0 1 -0.99202,-0.99203 0.99202663,0.99202663 0 0 1 0.99202,-0.99202 0.99202663,0.99202663 0 0 1 0.99203,0.99202 z"
       id="circle5237"
       inkscape:connector-curvature="0" />
  </g>
</svg>
