  0
SECTION
  2
HEADER
  9
$ACADVER
  1
AC1014
  9
$HANDSEED
  5
FFFF
  9
$MEASUREMENT
 70
     1
  0
ENDSEC
  0
SECTION
  2
TABLES
  0
TABLE
  2
VPORT
  5
8
330
0
100
AcDbSymbolTable
 70
     4
  0
VPORT
  5
2E
330
8
100
AcDbSymbolTableRecord
100
AcDbViewportTableRecord
  2
*ACTIVE
 70
     0
 10
0.0
 20
0.0
 11
1.0
 21
1.0
 12
210.0
 22
148.5
 13
0.0
 23
0.0
 14
10.0
 24
10.0
 15
10.0
 25
10.0
 16
0.0
 26
0.0
 36
1.0
 17
0.0
 27
0.0
 37
0.0
 40
341.0
 41
1.24
 42
50.0
 43
0.0
 44
0.0
 50
0.0
 51
0.0
 71
     0
 72
   100
 73
     1
 74
     3
 75
     0
 76
     0
 77
     0
 78
     0
  0
ENDTAB
  0
TABLE
  2
LTYPE
  5
5
330
0
100
AcDbSymbolTable
 70
     1
  0
LTYPE
  5
14
330
5
100
AcDbSymbolTableRecord
100
AcDbLinetypeTableRecord
  2
BYBLOCK
 70
     0
  3

 72
    65
 73
     0
 40
0.0
  0
LTYPE
  5
15
330
5
100
AcDbSymbolTableRecord
100
AcDbLinetypeTableRecord
  2
BYLAYER
 70
     0
  3

 72
    65
 73
     0
 40
0.0
  0
LTYPE
  5
16
330
5
100
AcDbSymbolTableRecord
100
AcDbLinetypeTableRecord
  2
CONTINUOUS
 70
     0
  3
Solid line
 72
    65
 73
     0
 40
0.0
  0
ENDTAB
  0
TABLE
  2
LAYER
  5
2
100
AcDbSymbolTable
 70
1
  0
LAYER
  5
50
100
AcDbSymbolTableRecord
100
AcDbLayerTableRecord
  2
0
 70
0
  6
CONTINUOUS
  0
ENDTAB
  0
TABLE
  2
STYLE
  5
3
330
0
100
AcDbSymbolTable
 70
     1
  0
STYLE
  5
11
330
3
100
AcDbSymbolTableRecord
100
AcDbTextStyleTableRecord
  2
STANDARD
 70
     0
 40
0.0
 41
1.0
 50
0.0
 71
     0
 42
2.5
  3
txt
  4

  0
ENDTAB
  0
TABLE
  2
VIEW
  5
6
330
0
100
AcDbSymbolTable
 70
     0
  0
ENDTAB
  0
TABLE
  2
UCS
  5
7
330
0
100
AcDbSymbolTable
 70
     0
  0
ENDTAB
  0
TABLE
  2
APPID
  5
9
330
0
100
AcDbSymbolTable
 70
     2
  0
APPID
  5
12
330
9
100
AcDbSymbolTableRecord
100
AcDbRegAppTableRecord
  2
ACAD
 70
     0
  0
ENDTAB
  0
TABLE
  2
DIMSTYLE
  5
A
330
0
100
AcDbSymbolTable
 70
     1
  0
DIMSTYLE
105
27
330
A
100
AcDbSymbolTableRecord
100
AcDbDimStyleTableRecord
  2
ISO-25
 70
     0
  3

  4

  5

  6

  7

 40
1.0
 41
2.5
 42
0.625
 43
3.75
 44
1.25
 45
0.0
 46
0.0
 47
0.0
 48
0.0
140
2.5
141
2.5
142
0.0
143
0.03937007874016
144
1.0
145
0.0
146
1.0
147
0.625
 71
     0
 72
     0
 73
     0
 74
     0
 75
     0
 76
     0
 77
     1
 78
     8
170
     0
171
     3
172
     1
173
     0
174
     0
175
     0
176
     0
177
     0
178
     0
270
     2
271
     2
272
     2
273
     2
274
     3
340
11
275
     0
280
     0
281
     0
282
     0
283
     0
284
     8
285
     0
286
     0
287
     3
288
     0
  0
ENDTAB
  0
TABLE
  2
BLOCK_RECORD
  5
1
330
0
100
AcDbSymbolTable
 70
     1
  0
BLOCK_RECORD
  5
1F
330
1
100
AcDbSymbolTableRecord
100
AcDbBlockTableRecord
  2
*MODEL_SPACE
  0
BLOCK_RECORD
  5
1B
330
1
100
AcDbSymbolTableRecord
100
AcDbBlockTableRecord
  2
*PAPER_SPACE
  0
ENDTAB
  0
ENDSEC
  0
SECTION
  2
BLOCKS
  0
BLOCK
  5
20
330
1F
100
AcDbEntity
  8
0
100
AcDbBlockBegin
  2
*MODEL_SPACE
 70
     0
 10
0.0
 20
0.0
 30
0.0
  3
*MODEL_SPACE
  1

  0
ENDBLK
  5
21
330
1F
100
AcDbEntity
  8
0
100
AcDbBlockEnd
  0
BLOCK
  5
1C
330
1B
100
AcDbEntity
 67
     1
  8
0
100
AcDbBlockBegin
  2
*PAPER_SPACE
  1

  0
ENDBLK
  5
1D
330
1B
100
AcDbEntity
 67
     1
  8
0
100
AcDbBlockEnd
  0
ENDSEC
  0
SECTION
  2
ENTITIES
  0
LINE
  5
100
100
AcDbEntity
  8
0
 62
7
100
AcDbLine
 10
30.135947
 20
290.000003
 30
0.0
 11
60.274583
 21
290.000003
 31
0.0
  0
LINE
  5
101
100
AcDbEntity
  8
0
 62
7
100
AcDbLine
 10
60.274583
 20
290.000003
 30
0.0
 11
60.274583
 21
279.802582
 31
0.0
  0
LINE
  5
102
100
AcDbEntity
  8
0
 62
7
100
AcDbLine
 10
60.274583
 20
279.802582
 30
0.0
 11
60.274583
 21
269.605162
 31
0.0
  0
LINE
  5
103
100
AcDbEntity
  8
0
 62
7
100
AcDbLine
 10
60.274583
 20
269.605162
 30
0.0
 11
51.856910
 21
269.605162
 31
0.0
  0
LINE
  5
104
100
AcDbEntity
  8
0
 62
7
100
AcDbLine
 10
51.856910
 20
269.605162
 30
0.0
 11
43.442895
 21
269.605162
 31
0.0
  0
LINE
  5
105
100
AcDbEntity
  8
0
 62
7
100
AcDbLine
 10
43.442895
 20
269.605162
 30
0.0
 11
43.442895
 21
257.212781
 31
0.0
  0
LINE
  5
106
100
AcDbEntity
  8
0
 62
7
100
AcDbLine
 10
43.442895
 20
257.212781
 30
0.0
 11
43.442895
 21
244.820400
 31
0.0
  0
LINE
  5
107
100
AcDbEntity
  8
0
 62
7
100
AcDbLine
 10
43.442895
 20
244.820400
 30
0.0
 11
45.070824
 21
244.820400
 31
0.0
  0
LINE
  5
108
100
AcDbEntity
  8
0
 62
7
100
AcDbLine
 10
45.070824
 20
244.820400
 30
0.0
 11
47.055434
 21
244.728944
 31
0.0
  0
LINE
  5
109
100
AcDbEntity
  8
0
 62
7
100
AcDbLine
 10
47.055434
 20
244.728944
 30
0.0
 11
49.113209
 21
244.591759
 31
0.0
  0
LINE
  5
10a
100
AcDbEntity
  8
0
 62
7
100
AcDbLine
 10
49.113209
 20
244.591759
 30
0.0
 11
52.634291
 21
244.500302
 31
0.0
  0
LINE
  5
10b
100
AcDbEntity
  8
0
 62
7
100
AcDbLine
 10
52.634291
 20
244.500302
 30
0.0
 11
55.606634
 21
244.408845
 31
0.0
  0
LINE
  5
10c
100
AcDbEntity
  8
0
 62
7
100
AcDbLine
 10
55.606634
 20
244.408845
 30
0.0
 11
58.304606
 21
244.317389
 31
0.0
  0
LINE
  5
10d
100
AcDbEntity
  8
0
 62
7
100
AcDbLine
 10
58.304606
 20
244.317389
 30
0.0
 11
66.992991
 21
244.043019
 31
0.0
  0
LINE
  5
10e
100
AcDbEntity
  8
0
 62
7
100
AcDbLine
 10
66.992991
 20
244.043019
 30
0.0
 11
68.432519
 21
243.878396
 31
0.0
  0
LINE
  5
10f
100
AcDbEntity
  8
0
 62
7
100
AcDbLine
 10
68.432519
 20
243.878396
 30
0.0
 11
68.509343
 21
243.219908
 31
0.0
  0
LINE
  5
110
100
AcDbEntity
  8
0
 62
7
100
AcDbLine
 10
68.509343
 20
243.219908
 30
0.0
 11
68.555071
 21
241.710873
 31
0.0
  0
LINE
  5
111
100
AcDbEntity
  8
0
 62
7
100
AcDbLine
 10
68.555071
 20
241.710873
 30
0.0
 11
68.640126
 21
238.967173
 31
0.0
  0
LINE
  5
112
100
AcDbEntity
  8
0
 62
7
100
AcDbLine
 10
68.640126
 20
238.967173
 30
0.0
 11
68.733412
 21
236.086287
 31
0.0
  0
LINE
  5
113
100
AcDbEntity
  8
0
 62
7
100
AcDbLine
 10
68.733412
 20
236.086287
 30
0.0
 11
68.824868
 21
233.937055
 31
0.0
  0
LINE
  5
114
100
AcDbEntity
  8
0
 62
7
100
AcDbLine
 10
68.824868
 20
233.937055
 30
0.0
 11
68.929129
 21
231.559181
 31
0.0
  0
LINE
  5
115
100
AcDbEntity
  8
0
 62
7
100
AcDbLine
 10
68.929129
 20
231.559181
 30
0.0
 11
69.033390
 21
216.724907
 31
0.0
  0
LINE
  5
116
100
AcDbEntity
  8
0
 62
7
100
AcDbLine
 10
69.033390
 20
216.724907
 30
0.0
 11
69.054425
 21
204.396546
 31
0.0
  0
LINE
  5
117
100
AcDbEntity
  8
0
 62
7
100
AcDbLine
 10
69.054425
 20
204.396546
 30
0.0
 11
73.169975
 21
204.396546
 31
0.0
  0
LINE
  5
118
100
AcDbEntity
  8
0
 62
7
100
AcDbLine
 10
73.169975
 20
204.396546
 30
0.0
 11
77.285526
 21
204.396546
 31
0.0
  0
LINE
  5
119
100
AcDbEntity
  8
0
 62
7
100
AcDbLine
 10
77.285526
 20
204.396546
 30
0.0
 11
77.285526
 21
203.088715
 31
0.0
  0
LINE
  5
11a
100
AcDbEntity
  8
0
 62
7
100
AcDbLine
 10
77.285526
 20
203.088715
 30
0.0
 11
77.285526
 21
201.771739
 31
0.0
  0
LINE
  5
11b
100
AcDbEntity
  8
0
 62
7
100
AcDbLine
 10
77.285526
 20
201.771739
 30
0.0
 11
78.588784
 21
201.716865
 31
0.0
  0
LINE
  5
11c
100
AcDbEntity
  8
0
 62
7
100
AcDbLine
 10
78.588784
 20
201.716865
 30
0.0
 11
82.612878
 21
201.652845
 31
0.0
  0
LINE
  5
11d
100
AcDbEntity
  8
0
 62
7
100
AcDbLine
 10
82.612878
 20
201.652845
 30
0.0
 11
85.333714
 21
201.652845
 31
0.0
  0
LINE
  5
11e
100
AcDbEntity
  8
0
 62
7
100
AcDbLine
 10
85.333714
 20
201.652845
 30
0.0
 11
85.333714
 21
201.012648
 31
0.0
  0
LINE
  5
11f
100
AcDbEntity
  8
0
 62
7
100
AcDbLine
 10
85.333714
 20
201.012648
 30
0.0
 11
85.333714
 21
200.372452
 31
0.0
  0
LINE
  5
120
100
AcDbEntity
  8
0
 62
7
100
AcDbLine
 10
85.333714
 20
200.372452
 30
0.0
 11
81.218164
 21
200.372452
 31
0.0
  0
LINE
  5
121
100
AcDbEntity
  8
0
 62
7
100
AcDbLine
 10
81.218164
 20
200.372452
 30
0.0
 11
77.102613
 21
200.372452
 31
0.0
  0
LINE
  5
122
100
AcDbEntity
  8
0
 62
7
100
AcDbLine
 10
77.102613
 20
200.372452
 30
0.0
 11
77.102613
 21
199.677381
 31
0.0
  0
LINE
  5
123
100
AcDbEntity
  8
0
 62
7
100
AcDbLine
 10
77.102613
 20
199.677381
 30
0.0
 11
76.438637
 21
197.436692
 31
0.0
  0
LINE
  5
124
100
AcDbEntity
  8
0
 62
7
100
AcDbLine
 10
76.438637
 20
197.436692
 30
0.0
 11
74.615906
 21
196.595291
 31
0.0
  0
LINE
  5
125
100
AcDbEntity
  8
0
 62
7
100
AcDbLine
 10
74.615906
 20
196.595291
 30
0.0
 11
73.994000
 21
196.576999
 31
0.0
  0
LINE
  5
126
100
AcDbEntity
  8
0
 62
7
100
AcDbLine
 10
73.994000
 20
196.576999
 30
0.0
 11
73.994000
 21
195.095401
 31
0.0
  0
LINE
  5
127
100
AcDbEntity
  8
0
 62
7
100
AcDbLine
 10
73.994000
 20
195.095401
 30
0.0
 11
73.994000
 21
193.604657
 31
0.0
  0
LINE
  5
128
100
AcDbEntity
  8
0
 62
7
100
AcDbLine
 10
73.994000
 20
193.604657
 30
0.0
 11
77.222421
 21
193.604657
 31
0.0
  0
LINE
  5
129
100
AcDbEntity
  8
0
 62
7
100
AcDbLine
 10
77.222421
 20
193.604657
 30
0.0
 11
80.624610
 21
193.485763
 31
0.0
  0
LINE
  5
12a
100
AcDbEntity
  8
0
 62
7
100
AcDbLine
 10
80.624610
 20
193.485763
 30
0.0
 11
80.969401
 21
193.577220
 31
0.0
  0
LINE
  5
12b
100
AcDbEntity
  8
0
 62
7
100
AcDbLine
 10
80.969401
 20
193.577220
 30
0.0
 11
81.397419
 21
193.787570
 31
0.0
  0
LINE
  5
12c
100
AcDbEntity
  8
0
 62
7
100
AcDbLine
 10
81.397419
 20
193.787570
 30
0.0
 11
82.314729
 21
191.546882
 31
0.0
  0
LINE
  5
12d
100
AcDbEntity
  8
0
 62
7
100
AcDbLine
 10
82.314729
 20
191.546882
 30
0.0
 11
82.925660
 21
188.940366
 31
0.0
  0
LINE
  5
12e
100
AcDbEntity
  8
0
 62
7
100
AcDbLine
 10
82.925660
 20
188.940366
 30
0.0
 11
83.200030
 21
187.568516
 31
0.0
  0
LINE
  5
12f
100
AcDbEntity
  8
0
 62
7
100
AcDbLine
 10
83.200030
 20
187.568516
 30
0.0
 11
82.087917
 21
177.453406
 31
0.0
  0
LINE
  5
130
100
AcDbEntity
  8
0
 62
7
100
AcDbLine
 10
82.087917
 20
177.453406
 30
0.0
 11
84.535298
 21
177.197328
 31
0.0
  0
LINE
  5
131
100
AcDbEntity
  8
0
 62
7
100
AcDbLine
 10
84.535298
 20
177.197328
 30
0.0
 11
99.144588
 21
176.877229
 31
0.0
  0
LINE
  5
132
100
AcDbEntity
  8
0
 62
7
100
AcDbLine
 10
99.144588
 20
176.877229
 30
0.0
 11
99.921970
 21
176.877229
 31
0.0
  0
LINE
  5
133
100
AcDbEntity
  8
0
 62
7
100
AcDbLine
 10
99.921970
 20
176.877229
 30
0.0
 11
101.152977
 21
178.660635
 31
0.0
  0
LINE
  5
134
100
AcDbEntity
  8
0
 62
7
100
AcDbLine
 10
101.152977
 20
178.660635
 30
0.0
 11
102.650123
 21
180.434894
 31
0.0
  0
LINE
  5
135
100
AcDbEntity
  8
0
 62
7
100
AcDbLine
 10
102.650123
 20
180.434894
 30
0.0
 11
103.248250
 21
180.526351
 31
0.0
  0
LINE
  5
136
100
AcDbEntity
  8
0
 62
7
100
AcDbLine
 10
103.248250
 20
180.526351
 30
0.0
 11
107.540312
 21
180.992780
 31
0.0
  0
LINE
  5
137
100
AcDbEntity
  8
0
 62
7
100
AcDbLine
 10
107.540312
 20
180.992780
 30
0.0
 11
111.501301
 21
181.358607
 31
0.0
  0
LINE
  5
138
100
AcDbEntity
  8
0
 62
7
100
AcDbLine
 10
111.501301
 20
181.358607
 30
0.0
 11
112.296060
 21
180.709264
 31
0.0
  0
LINE
  5
139
100
AcDbEntity
  8
0
 62
7
100
AcDbLine
 10
112.296060
 20
180.709264
 30
0.0
 11
113.502373
 21
179.703241
 31
0.0
  0
LINE
  5
13a
100
AcDbEntity
  8
0
 62
7
100
AcDbLine
 10
113.502373
 20
179.703241
 30
0.0
 11
113.913928
 21
179.346560
 31
0.0
  0
LINE
  5
13b
100
AcDbEntity
  8
0
 62
7
100
AcDbLine
 10
113.913928
 20
179.346560
 30
0.0
 11
116.308264
 21
179.337414
 31
0.0
  0
LINE
  5
13c
100
AcDbEntity
  8
0
 62
7
100
AcDbLine
 10
116.308264
 20
179.337414
 30
0.0
 11
118.703515
 21
179.337414
 31
0.0
  0
LINE
  5
13d
100
AcDbEntity
  8
0
 62
7
100
AcDbLine
 10
118.703515
 20
179.337414
 30
0.0
 11
119.576012
 21
178.816111
 31
0.0
  0
LINE
  5
13e
100
AcDbEntity
  8
0
 62
7
100
AcDbLine
 10
119.576012
 20
178.816111
 30
0.0
 11
120.448509
 21
178.294808
 31
0.0
  0
LINE
  5
13f
100
AcDbEntity
  8
0
 62
7
100
AcDbLine
 10
120.448509
 20
178.294808
 30
0.0
 11
120.474116
 21
176.730899
 31
0.0
  0
LINE
  5
140
100
AcDbEntity
  8
0
 62
7
100
AcDbLine
 10
120.474116
 20
176.730899
 30
0.0
 11
120.498810
 21
175.176135
 31
0.0
  0
SPLINE
  5
141
100
AcDbEntity
  8
0
 62
7
100
AcDbSpline
 70
8
 71
3
 72
8
 73
4
 74
0
 40
0
 40
0
 40
0
 40
0
 40
1
 40
1
 40
1
 40
1
 10
120.498810
 20
175.176135
 30
0.0
 10
120.496066
 20
174.453371
 30
0.0
 10
120.472805
 20
173.731037
 30
0.0
 10
120.453081
 20
173.008612
 30
0.0
  0
LINE
  5
142
100
AcDbEntity
  8
0
 62
7
100
AcDbLine
 10
120.453081
 20
173.008612
 30
0.0
 11
120.453081
 21
171.673344
 31
0.0
  0
LINE
  5
143
100
AcDbEntity
  8
0
 62
7
100
AcDbLine
 10
120.453081
 20
171.673344
 30
0.0
 11
119.461691
 21
171.115458
 31
0.0
  0
LINE
  5
144
100
AcDbEntity
  8
0
 62
7
100
AcDbLine
 10
119.461691
 20
171.115458
 30
0.0
 11
118.470300
 21
170.557572
 31
0.0
  0
LINE
  5
145
100
AcDbEntity
  8
0
 62
7
100
AcDbLine
 10
118.470300
 20
170.557572
 30
0.0
 11
116.332043
 21
170.557572
 31
0.0
  0
LINE
  5
146
100
AcDbEntity
  8
0
 62
7
100
AcDbLine
 10
116.332043
 20
170.557572
 30
0.0
 11
114.193786
 21
170.557572
 31
0.0
  0
LINE
  5
147
100
AcDbEntity
  8
0
 62
7
100
AcDbLine
 10
114.193786
 20
170.557572
 30
0.0
 11
112.797242
 21
169.633860
 31
0.0
  0
LINE
  5
148
100
AcDbEntity
  8
0
 62
7
100
AcDbLine
 10
112.797242
 20
169.633860
 30
0.0
 11
111.399784
 21
168.710147
 31
0.0
  0
LINE
  5
149
100
AcDbEntity
  8
0
 62
7
100
AcDbLine
 10
111.399784
 20
168.710147
 30
0.0
 11
110.851044
 21
168.755876
 31
0.0
  0
LINE
  5
14a
100
AcDbEntity
  8
0
 62
7
100
AcDbLine
 10
110.851044
 20
168.755876
 30
0.0
 11
110.352605
 21
168.719293
 31
0.0
  0
LINE
  5
14b
100
AcDbEntity
  8
0
 62
7
100
AcDbLine
 10
110.352605
 20
168.719293
 30
0.0
 11
106.734579
 21
169.048537
 31
0.0
  0
LINE
  5
14c
100
AcDbEntity
  8
0
 62
7
100
AcDbLine
 10
106.734579
 20
169.048537
 30
0.0
 11
103.105577
 21
169.469238
 31
0.0
  0
LINE
  5
14d
100
AcDbEntity
  8
0
 62
7
100
AcDbLine
 10
103.105577
 20
169.469238
 30
0.0
 11
101.479478
 21
171.828820
 31
0.0
  0
LINE
  5
14e
100
AcDbEntity
  8
0
 62
7
100
AcDbLine
 10
101.479478
 20
171.828820
 30
0.0
 11
100.016171
 21
174.197548
 31
0.0
  0
LINE
  5
14f
100
AcDbEntity
  8
0
 62
7
100
AcDbLine
 10
100.016171
 20
174.197548
 30
0.0
 11
90.024528
 21
174.407899
 31
0.0
  0
LINE
  5
150
100
AcDbEntity
  8
0
 62
7
100
AcDbLine
 10
90.024528
 20
174.407899
 30
0.0
 11
82.845178
 21
174.554230
 31
0.0
  0
LINE
  5
151
100
AcDbEntity
  8
0
 62
7
100
AcDbLine
 10
82.845178
 20
174.554230
 30
0.0
 11
81.721175
 21
174.609104
 31
0.0
  0
LINE
  5
152
100
AcDbEntity
  8
0
 62
7
100
AcDbLine
 10
81.721175
 20
174.609104
 30
0.0
 11
81.012386
 21
168.984517
 31
0.0
  0
LINE
  5
153
100
AcDbEntity
  8
0
 62
7
100
AcDbLine
 10
81.012386
 20
168.984517
 30
0.0
 11
80.247808
 21
163.205370
 31
0.0
  0
LINE
  5
154
100
AcDbEntity
  8
0
 62
7
100
AcDbLine
 10
80.247808
 20
163.205370
 30
0.0
 11
66.780811
 21
163.066355
 31
0.0
  0
LINE
  5
155
100
AcDbEntity
  8
0
 62
7
100
AcDbLine
 10
66.780811
 20
163.066355
 30
0.0
 11
49.433307
 21
163.192566
 31
0.0
  0
LINE
  5
156
100
AcDbEntity
  8
0
 62
7
100
AcDbLine
 10
49.433307
 20
163.192566
 30
0.0
 11
45.235446
 21
163.187993
 31
0.0
  0
LINE
  5
157
100
AcDbEntity
  8
0
 62
7
100
AcDbLine
 10
45.235446
 20
163.187993
 30
0.0
 11
42.930737
 21
163.060868
 31
0.0
  0
LINE
  5
158
100
AcDbEntity
  8
0
 62
7
100
AcDbLine
 10
42.930737
 20
163.060868
 30
0.0
 11
40.882107
 21
163.060868
 31
0.0
  0
LINE
  5
159
100
AcDbEntity
  8
0
 62
7
100
AcDbLine
 10
40.882107
 20
163.060868
 30
0.0
 11
40.882107
 21
161.551833
 31
0.0
  0
LINE
  5
15a
100
AcDbEntity
  8
0
 62
7
100
AcDbLine
 10
40.882107
 20
161.551833
 30
0.0
 11
40.882107
 21
160.042797
 31
0.0
  0
LINE
  5
15b
100
AcDbEntity
  8
0
 62
7
100
AcDbLine
 10
40.882107
 20
160.042797
 30
0.0
 11
59.647190
 21
160.042797
 31
0.0
  0
LINE
  5
15c
100
AcDbEntity
  8
0
 62
7
100
AcDbLine
 10
59.647190
 20
160.042797
 30
0.0
 11
78.524764
 21
160.201932
 31
0.0
  0
LINE
  5
15d
100
AcDbEntity
  8
0
 62
7
100
AcDbLine
 10
78.524764
 20
160.201932
 30
0.0
 11
78.992108
 21
160.165349
 31
0.0
  0
SPLINE
  5
15e
100
AcDbEntity
  8
0
 62
7
100
AcDbSpline
 70
8
 71
3
 72
8
 73
4
 74
0
 40
0
 40
0
 40
0
 40
0
 40
1
 40
1
 40
1
 40
1
 10
78.992108
 20
160.165349
 30
0.0
 10
81.795752
 20
158.793299
 30
0.0
 10
84.630809
 20
157.489766
 30
0.0
 10
87.473801
 20
156.190642
 30
0.0
  0
LINE
  5
15f
100
AcDbEntity
  8
0
 62
7
100
AcDbLine
 10
87.473801
 20
156.190642
 30
0.0
 11
93.747729
 21
153.549373
 31
0.0
  0
LINE
  5
160
100
AcDbEntity
  8
0
 62
7
100
AcDbLine
 10
93.747729
 20
153.549373
 30
0.0
 11
99.939604
 21
156.370659
 31
0.0
  0
SPLINE
  5
161
100
AcDbEntity
  8
0
 62
7
100
AcDbSpline
 70
8
 71
3
 72
8
 73
4
 74
0
 40
0
 40
0
 40
0
 40
0
 40
1
 40
1
 40
1
 40
1
 10
99.939604
 20
156.370659
 30
0.0
 10
102.802880
 20
155.958674
 30
0.0
 10
222.429838
 20
120.894136
 30
0.0
 10
113.639284
 20
124.276832
 30
0.0
  0
SPLINE
  5
162
100
AcDbEntity
  8
0
 62
7
100
AcDbSpline
 70
8
 71
3
 72
8
 73
4
 74
0
 40
0
 40
0
 40
0
 40
0
 40
1
 40
1
 40
1
 40
1
 10
113.639284
 20
124.276832
 30
0.0
 10
113.806620
 20
121.414537
 30
0.0
 10
113.593556
 20
118.555875
 30
0.0
 10
113.593556
 20
115.686305
 30
0.0
  0
SPLINE
  5
163
100
AcDbEntity
  8
0
 62
7
100
AcDbSpline
 70
8
 71
3
 72
8
 73
4
 74
0
 40
0
 40
0
 40
0
 40
0
 40
1
 40
1
 40
1
 40
1
 10
113.593556
 20
115.686305
 30
0.0
 10
98.014615
 20
115.458623
 30
0.0
 10
82.420595
 20
115.605004
 30
0.0
 10
66.834496
 20
115.617713
 30
0.0
  0
LINE
  5
164
100
AcDbEntity
  8
0
 62
7
100
AcDbLine
 10
66.834496
 20
115.617713
 30
0.0
 11
66.411052
 21
115.503392
 31
0.0
  0
LINE
  5
165
100
AcDbEntity
  8
0
 62
7
100
AcDbLine
 10
66.411052
 20
115.503392
 30
0.0
 11
65.944623
 21
115.503392
 31
0.0
  0
LINE
  5
166
100
AcDbEntity
  8
0
 62
7
100
AcDbLine
 10
65.944623
 20
115.503392
 30
0.0
 11
65.944623
 21
107.363747
 31
0.0
  0
LINE
  5
167
100
AcDbEntity
  8
0
 62
7
100
AcDbLine
 10
65.944623
 20
107.363747
 30
0.0
 11
65.944623
 21
99.224102
 31
0.0
  0
LINE
  5
168
100
AcDbEntity
  8
0
 62
7
100
AcDbLine
 10
65.944623
 20
99.224102
 30
0.0
 11
100.919488
 21
99.224102
 31
0.0
  0
LINE
  5
169
100
AcDbEntity
  8
0
 62
7
100
AcDbLine
 10
100.919488
 20
99.224102
 30
0.0
 11
136.038855
 21
99.168314
 31
0.0
  0
LINE
  5
16a
100
AcDbEntity
  8
0
 62
7
100
AcDbLine
 10
136.038855
 20
99.168314
 30
0.0
 11
136.183357
 21
95.968244
 31
0.0
  0
LINE
  5
16b
100
AcDbEntity
  8
0
 62
7
100
AcDbLine
 10
136.183357
 20
95.968244
 30
0.0
 11
136.183357
 21
92.823963
 31
0.0
  0
LINE
  5
16c
100
AcDbEntity
  8
0
 62
7
100
AcDbLine
 10
136.183357
 20
92.823963
 30
0.0
 11
140.137944
 21
92.800185
 31
0.0
  0
LINE
  5
16d
100
AcDbEntity
  8
0
 62
7
100
AcDbLine
 10
140.137944
 20
92.800185
 30
0.0
 11
144.093354
 21
92.776406
 31
0.0
  0
LINE
  5
16e
100
AcDbEntity
  8
0
 62
7
100
AcDbLine
 10
144.093354
 20
92.776406
 30
0.0
 11
144.168257
 21
92.364851
 31
0.0
  0
LINE
  5
16f
100
AcDbEntity
  8
0
 62
7
100
AcDbLine
 10
144.168257
 20
92.364851
 30
0.0
 11
144.500702
 21
90.947272
 31
0.0
  0
LINE
  5
170
100
AcDbEntity
  8
0
 62
7
100
AcDbLine
 10
144.500702
 20
90.947272
 30
0.0
 11
145.240678
 21
87.883473
 31
0.0
  0
LINE
  5
171
100
AcDbEntity
  8
0
 62
7
100
AcDbLine
 10
145.240678
 20
87.883473
 30
0.0
 11
145.548521
 21
86.652466
 31
0.0
  0
LINE
  5
172
100
AcDbEntity
  8
0
 62
7
100
AcDbLine
 10
145.548521
 20
86.652466
 30
0.0
 11
145.786126
 21
85.660161
 31
0.0
  0
LINE
  5
173
100
AcDbEntity
  8
0
 62
7
100
AcDbLine
 10
145.786126
 20
85.660161
 30
0.0
 11
146.046960
 21
84.558748
 31
0.0
  0
LINE
  5
174
100
AcDbEntity
  8
0
 62
7
100
AcDbLine
 10
146.046960
 20
84.558748
 30
0.0
 11
146.398337
 21
83.173271
 31
0.0
  0
LINE
  5
175
100
AcDbEntity
  8
0
 62
7
100
AcDbLine
 10
146.398337
 20
83.173271
 30
0.0
 11
146.638045
 21
82.121519
 31
0.0
  0
LINE
  5
176
100
AcDbEntity
  8
0
 62
7
100
AcDbLine
 10
146.638045
 20
82.121519
 30
0.0
 11
147.031583
 21
80.546727
 31
0.0
  0
LINE
  5
177
100
AcDbEntity
  8
0
 62
7
100
AcDbLine
 10
147.031583
 20
80.546727
 30
0.0
 11
147.348480
 21
79.611125
 31
0.0
  0
LINE
  5
178
100
AcDbEntity
  8
0
 62
7
100
AcDbLine
 10
147.348480
 20
79.611125
 30
0.0
 11
149.131886
 21
79.555428
 31
0.0
  0
LINE
  5
179
100
AcDbEntity
  8
0
 62
7
100
AcDbLine
 10
149.131886
 20
79.555428
 30
0.0
 11
150.842766
 21
79.454825
 31
0.0
  0
LINE
  5
17a
100
AcDbEntity
  8
0
 62
7
100
AcDbLine
 10
150.842766
 20
79.454825
 30
0.0
 11
153.138786
 21
78.401244
 31
0.0
  0
LINE
  5
17b
100
AcDbEntity
  8
0
 62
7
100
AcDbLine
 10
153.138786
 20
78.401244
 30
0.0
 11
155.583332
 21
77.196577
 31
0.0
  0
LINE
  5
17c
100
AcDbEntity
  8
0
 62
7
100
AcDbLine
 10
155.583332
 20
77.196577
 30
0.0
 11
157.258269
 21
74.627193
 31
0.0
  0
LINE
  5
17d
100
AcDbEntity
  8
0
 62
7
100
AcDbLine
 10
157.258269
 20
74.627193
 30
0.0
 11
159.007287
 21
72.002203
 31
0.0
  0
LINE
  5
17e
100
AcDbEntity
  8
0
 62
7
100
AcDbLine
 10
159.007287
 20
72.002203
 30
0.0
 11
159.230441
 21
71.717315
 31
0.0
  0
LINE
  5
17f
100
AcDbEntity
  8
0
 62
7
100
AcDbLine
 10
159.230441
 20
71.717315
 30
0.0
 11
160.981837
 21
70.320955
 31
0.0
  0
LINE
  5
180
100
AcDbEntity
  8
0
 62
7
100
AcDbLine
 10
160.981837
 20
70.320955
 30
0.0
 11
161.515029
 21
69.614818
 31
0.0
  0
LINE
  5
181
100
AcDbEntity
  8
0
 62
7
100
AcDbLine
 10
161.515029
 20
69.614818
 30
0.0
 11
161.786656
 21
69.518971
 31
0.0
  0
LINE
  5
182
100
AcDbEntity
  8
0
 62
7
100
AcDbLine
 10
161.786656
 20
69.518971
 30
0.0
 11
162.195467
 21
69.504246
 31
0.0
  0
LINE
  5
183
100
AcDbEntity
  8
0
 62
7
100
AcDbLine
 10
162.195467
 20
69.504246
 30
0.0
 11
165.859222
 21
69.436020
 31
0.0
  0
LINE
  5
184
100
AcDbEntity
  8
0
 62
7
100
AcDbLine
 10
165.859222
 20
69.436020
 30
0.0
 11
169.290677
 21
69.492814
 31
0.0
  0
LINE
  5
185
100
AcDbEntity
  8
0
 62
7
100
AcDbLine
 10
169.290677
 20
69.492814
 30
0.0
 11
169.290677
 21
68.628000
 31
0.0
  0
LINE
  5
186
100
AcDbEntity
  8
0
 62
7
100
AcDbLine
 10
169.290677
 20
68.628000
 30
0.0
 11
169.107763
 21
67.763186
 31
0.0
  0
LINE
  5
187
100
AcDbEntity
  8
0
 62
7
100
AcDbLine
 10
169.107763
 20
67.763186
 30
0.0
 11
168.924850
 21
67.397359
 31
0.0
  0
LINE
  5
188
100
AcDbEntity
  8
0
 62
7
100
AcDbLine
 10
168.924850
 20
67.397359
 30
0.0
 11
168.924850
 21
67.031532
 31
0.0
  0
LINE
  5
189
100
AcDbEntity
  8
0
 62
7
100
AcDbLine
 10
168.924850
 20
67.031532
 30
0.0
 11
160.670884
 21
67.023301
 31
0.0
  0
LINE
  5
18a
100
AcDbEntity
  8
0
 62
7
100
AcDbLine
 10
160.670884
 20
67.023301
 30
0.0
 11
151.182253
 21
66.908706
 31
0.0
  0
LINE
  5
18b
100
AcDbEntity
  8
0
 62
7
100
AcDbLine
 10
151.182253
 20
66.908706
 30
0.0
 11
149.947405
 21
66.802342
 31
0.0
  0
LINE
  5
18c
100
AcDbEntity
  8
0
 62
7
100
AcDbLine
 10
149.947405
 20
66.802342
 30
0.0
 11
149.976086
 21
66.345424
 31
0.0
  0
LINE
  5
18d
100
AcDbEntity
  8
0
 62
7
100
AcDbLine
 10
149.976086
 20
66.345424
 30
0.0
 11
150.050842
 21
65.728091
 31
0.0
  0
LINE
  5
18e
100
AcDbEntity
  8
0
 62
7
100
AcDbLine
 10
150.050842
 20
65.728091
 30
0.0
 11
147.347017
 21
65.568042
 31
0.0
  0
LINE
  5
18f
100
AcDbEntity
  8
0
 62
7
100
AcDbLine
 10
147.347017
 20
65.568042
 30
0.0
 11
144.597189
 21
65.568042
 31
0.0
  0
LINE
  5
190
100
AcDbEntity
  8
0
 62
7
100
AcDbLine
 10
144.597189
 20
65.568042
 30
0.0
 11
144.597189
 21
64.649817
 31
0.0
  0
LINE
  5
191
100
AcDbEntity
  8
0
 62
7
100
AcDbLine
 10
144.597189
 20
64.649817
 30
0.0
 11
144.597189
 21
63.730677
 31
0.0
  0
LINE
  5
192
100
AcDbEntity
  8
0
 62
7
100
AcDbLine
 10
144.597189
 20
63.730677
 30
0.0
 11
117.228776
 21
63.738908
 31
0.0
  0
LINE
  5
193
100
AcDbEntity
  8
0
 62
7
100
AcDbLine
 10
117.228776
 20
63.738908
 30
0.0
 11
86.590787
 21
63.743481
 31
0.0
  0
LINE
  5
194
100
AcDbEntity
  8
0
 62
7
100
AcDbLine
 10
86.590787
 20
63.743481
 30
0.0
 11
83.321210
 21
63.738908
 31
0.0
  0
LINE
  5
195
100
AcDbEntity
  8
0
 62
7
100
AcDbLine
 10
83.321210
 20
63.738908
 30
0.0
 11
83.321210
 21
60.263554
 31
0.0
  0
LINE
  5
196
100
AcDbEntity
  8
0
 62
7
100
AcDbLine
 10
83.321210
 20
60.263554
 30
0.0
 11
83.321210
 21
56.788200
 31
0.0
  0
LINE
  5
197
100
AcDbEntity
  8
0
 62
7
100
AcDbLine
 10
83.321210
 20
56.788200
 30
0.0
 11
103.418817
 21
56.786371
 31
0.0
  0
LINE
  5
198
100
AcDbEntity
  8
0
 62
7
100
AcDbLine
 10
103.418817
 20
56.786371
 30
0.0
 11
123.516423
 21
56.785457
 31
0.0
  0
LINE
  5
199
100
AcDbEntity
  8
0
 62
7
100
AcDbLine
 10
123.516423
 20
56.785457
 30
0.0
 11
123.836521
 21
56.306224
 31
0.0
  0
LINE
  5
19a
100
AcDbEntity
  8
0
 62
7
100
AcDbLine
 10
123.836521
 20
56.306224
 30
0.0
 11
124.193202
 21
55.736449
 31
0.0
  0
LINE
  5
19b
100
AcDbEntity
  8
0
 62
7
100
AcDbLine
 10
124.193202
 20
55.736449
 30
0.0
 11
124.490437
 21
55.262703
 31
0.0
  0
LINE
  5
19c
100
AcDbEntity
  8
0
 62
7
100
AcDbLine
 10
124.490437
 20
55.262703
 30
0.0
 11
124.751088
 21
54.819138
 31
0.0
  0
LINE
  5
19d
100
AcDbEntity
  8
0
 62
7
100
AcDbLine
 10
124.751088
 20
54.819138
 30
0.0
 11
125.391285
 21
53.848783
 31
0.0
  0
LINE
  5
19e
100
AcDbEntity
  8
0
 62
7
100
AcDbLine
 10
125.391285
 20
53.848783
 30
0.0
 11
126.031482
 21
52.890317
 31
0.0
  0
LINE
  5
19f
100
AcDbEntity
  8
0
 62
7
100
AcDbLine
 10
126.031482
 20
52.890317
 30
0.0
 11
126.849105
 21
51.673943
 31
0.0
  0
LINE
  5
1a0
100
AcDbEntity
  8
0
 62
7
100
AcDbLine
 10
126.849105
 20
51.673943
 30
0.0
 11
127.781963
 21
50.241731
 31
0.0
  0
LINE
  5
1a1
100
AcDbEntity
  8
0
 62
7
100
AcDbLine
 10
127.781963
 20
50.241731
 30
0.0
 11
128.519104
 21
49.080231
 31
0.0
  0
LINE
  5
1a2
100
AcDbEntity
  8
0
 62
7
100
AcDbLine
 10
128.519104
 20
49.080231
 30
0.0
 11
129.141009
 21
48.134569
 31
0.0
  0
LINE
  5
1a3
100
AcDbEntity
  8
0
 62
7
100
AcDbLine
 10
129.141009
 20
48.134569
 30
0.0
 11
129.952230
 21
46.925512
 31
0.0
  0
LINE
  5
1a4
100
AcDbEntity
  8
0
 62
7
100
AcDbLine
 10
129.952230
 20
46.925512
 30
0.0
 11
130.939048
 21
45.401843
 31
0.0
  0
LINE
  5
1a5
100
AcDbEntity
  8
0
 62
7
100
AcDbLine
 10
130.939048
 20
45.401843
 30
0.0
 11
131.980739
 21
43.801351
 31
0.0
  0
LINE
  5
1a6
100
AcDbEntity
  8
0
 62
7
100
AcDbLine
 10
131.980739
 20
43.801351
 30
0.0
 11
133.063586
 21
42.109403
 31
0.0
  0
LINE
  5
1a7
100
AcDbEntity
  8
0
 62
7
100
AcDbLine
 10
133.063586
 20
42.109403
 30
0.0
 11
133.928767
 21
40.553724
 31
0.0
  0
LINE
  5
1a8
100
AcDbEntity
  8
0
 62
7
100
AcDbLine
 10
133.928767
 20
40.553724
 30
0.0
 11
134.536954
 21
39.698604
 31
0.0
  0
LINE
  5
1a9
100
AcDbEntity
  8
0
 62
7
100
AcDbLine
 10
134.536954
 20
39.698604
 30
0.0
 11
135.287813
 21
38.659656
 31
0.0
  0
LINE
  5
1aa
100
AcDbEntity
  8
0
 62
7
100
AcDbLine
 10
135.287813
 20
38.659656
 30
0.0
 11
137.189197
 21
35.880288
 31
0.0
  0
LINE
  5
1ab
100
AcDbEntity
  8
0
 62
7
100
AcDbLine
 10
137.189197
 20
35.880288
 30
0.0
 11
137.509296
 21
35.375447
 31
0.0
  0
LINE
  5
1ac
100
AcDbEntity
  8
0
 62
7
100
AcDbLine
 10
137.509296
 20
35.375447
 30
0.0
 11
137.829394
 21
34.876093
 31
0.0
  0
LINE
  5
1ad
100
AcDbEntity
  8
0
 62
7
100
AcDbLine
 10
137.829394
 20
34.876093
 30
0.0
 11
138.789689
 21
33.453942
 31
0.0
  0
LINE
  5
1ae
100
AcDbEntity
  8
0
 62
7
100
AcDbLine
 10
138.789689
 20
33.453942
 30
0.0
 11
139.749985
 21
32.039107
 31
0.0
  0
LINE
  5
1af
100
AcDbEntity
  8
0
 62
7
100
AcDbLine
 10
139.749985
 20
32.039107
 30
0.0
 11
140.024355
 21
31.591884
 31
0.0
  0
LINE
  5
1b0
100
AcDbEntity
  8
0
 62
7
100
AcDbLine
 10
140.024355
 20
31.591884
 30
0.0
 11
140.298725
 21
31.129113
 31
0.0
  0
LINE
  5
1b1
100
AcDbEntity
  8
0
 62
7
100
AcDbLine
 10
140.298725
 20
31.129113
 30
0.0
 11
140.618823
 21
30.619699
 31
0.0
  0
LINE
  5
1b2
100
AcDbEntity
  8
0
 62
7
100
AcDbLine
 10
140.618823
 20
30.619699
 30
0.0
 11
140.938739
 21
30.120346
 31
0.0
  0
LINE
  5
1b3
100
AcDbEntity
  8
0
 62
7
100
AcDbLine
 10
140.938739
 20
30.120346
 30
0.0
 11
141.899034
 21
28.698194
 31
0.0
  0
LINE
  5
1b4
100
AcDbEntity
  8
0
 62
7
100
AcDbLine
 10
141.899034
 20
28.698194
 30
0.0
 11
142.859329
 21
27.283359
 31
0.0
  0
LINE
  5
1b5
100
AcDbEntity
  8
0
 62
7
100
AcDbLine
 10
142.859329
 20
27.283359
 30
0.0
 11
143.133699
 21
26.836136
 31
0.0
  0
LINE
  5
1b6
100
AcDbEntity
  8
0
 62
7
100
AcDbLine
 10
143.133699
 20
26.836136
 30
0.0
 11
143.408069
 21
26.376109
 31
0.0
  0
LINE
  5
1b7
100
AcDbEntity
  8
0
 62
7
100
AcDbLine
 10
143.408069
 20
26.376109
 30
0.0
 11
144.048266
 21
25.405754
 31
0.0
  0
LINE
  5
1b8
100
AcDbEntity
  8
0
 62
7
100
AcDbLine
 10
144.048266
 20
25.405754
 30
0.0
 11
144.688463
 21
24.445459
 31
0.0
  0
LINE
  5
1b9
100
AcDbEntity
  8
0
 62
7
100
AcDbLine
 10
144.688463
 20
24.445459
 30
0.0
 11
145.328659
 21
23.485163
 31
0.0
  0
LINE
  5
1ba
100
AcDbEntity
  8
0
 62
7
100
AcDbLine
 10
145.328659
 20
23.485163
 30
0.0
 11
145.968856
 21
22.528526
 31
0.0
  0
LINE
  5
1bb
100
AcDbEntity
  8
0
 62
7
100
AcDbLine
 10
145.968856
 20
22.528526
 30
0.0
 11
146.243226
 21
22.080389
 31
0.0
  0
LINE
  5
1bc
100
AcDbEntity
  8
0
 62
7
100
AcDbLine
 10
146.243226
 20
22.080389
 30
0.0
 11
146.517596
 21
21.618532
 31
0.0
  0
LINE
  5
1bd
100
AcDbEntity
  8
0
 62
7
100
AcDbLine
 10
146.517596
 20
21.618532
 30
0.0
 11
146.929151
 21
20.978336
 31
0.0
  0
LINE
  5
1be
100
AcDbEntity
  8
0
 62
7
100
AcDbLine
 10
146.929151
 20
20.978336
 30
0.0
 11
147.340706
 21
20.401244
 31
0.0
  0
LINE
  5
1bf
100
AcDbEntity
  8
0
 62
7
100
AcDbLine
 10
147.340706
 20
20.401244
 30
0.0
 11
147.340706
 21
19.114448
 31
0.0
  0
LINE
  5
1c0
100
AcDbEntity
  8
0
 62
7
100
AcDbLine
 10
147.340706
 20
19.114448
 30
0.0
 11
147.340706
 21
17.827653
 31
0.0
  0
LINE
  5
1c1
100
AcDbEntity
  8
0
 62
7
100
AcDbLine
 10
147.340706
 20
17.827653
 30
0.0
 11
128.043346
 21
17.827653
 31
0.0
  0
LINE
  5
1c2
100
AcDbEntity
  8
0
 62
7
100
AcDbLine
 10
128.043346
 20
17.827653
 30
0.0
 11
108.745986
 21
17.827653
 31
0.0
  0
LINE
  5
1c3
100
AcDbEntity
  8
0
 62
7
100
AcDbLine
 10
108.745986
 20
17.827653
 30
0.0
 11
108.745986
 21
16.460375
 31
0.0
  0
LINE
  5
1c4
100
AcDbEntity
  8
0
 62
7
100
AcDbLine
 10
108.745986
 20
16.460375
 30
0.0
 11
108.660016
 21
14.654106
 31
0.0
  0
LINE
  5
1c5
100
AcDbEntity
  8
0
 62
7
100
AcDbLine
 10
108.660016
 20
14.654106
 30
0.0
 11
108.479847
 21
13.483460
 31
0.0
  0
LINE
  5
1c6
100
AcDbEntity
  8
0
 62
7
100
AcDbLine
 10
108.479847
 20
13.483460
 30
0.0
 11
108.282300
 21
11.974425
 31
0.0
  0
LINE
  5
1c7
100
AcDbEntity
  8
0
 62
7
100
AcDbLine
 10
108.282300
 20
11.974425
 30
0.0
 11
108.107618
 21
10.419661
 31
0.0
  0
LINE
  5
1c8
100
AcDbEntity
  8
0
 62
7
100
AcDbLine
 10
108.107618
 20
10.419661
 30
0.0
 11
107.933850
 21
8.956354
 31
0.0
  0
LINE
  5
1c9
100
AcDbEntity
  8
0
 62
7
100
AcDbLine
 10
107.933850
 20
8.956354
 30
0.0
 11
107.558878
 21
5.885239
 31
0.0
  0
LINE
  5
1ca
100
AcDbEntity
  8
0
 62
7
100
AcDbLine
 10
107.558878
 20
5.885239
 30
0.0
 11
107.297312
 21
3.964649
 31
0.0
  0
LINE
  5
1cb
100
AcDbEntity
  8
0
 62
7
100
AcDbLine
 10
107.297312
 20
3.964649
 30
0.0
 11
106.825395
 21
0.267969
 31
0.0
  0
LINE
  5
1cc
100
AcDbEntity
  8
0
 62
7
100
AcDbLine
 10
106.825395
 20
0.267969
 30
0.0
 11
-0.000000
 21
0.000001
 31
0.0
  0
LINE
  5
1cd
100
AcDbEntity
  8
0
 62
7
100
AcDbLine
 10
-0.000000
 20
0.000001
 30
0.0
 11
-0.000000
 21
290.000003
 31
0.0
  0
LINE
  5
1ce
100
AcDbEntity
  8
0
 62
7
100
AcDbLine
 10
-0.000000
 20
290.000003
 30
0.0
 11
30.134978
 21
290.000003
 31
0.0
  0
LINE
  5
1cf
100
AcDbEntity
  8
0
 62
7
100
AcDbLine
 10
94.181179
 20
152.824121
 30
0.0
 11
94.249772
 21
152.909176
 31
0.0
  0
LINE
  5
1d0
100
AcDbEntity
  8
0
 62
7
100
AcDbLine
 10
94.249772
 20
152.909176
 30
0.0
 11
93.929673
 21
152.909176
 31
0.0
  0
LINE
  5
1d1
100
AcDbEntity
  8
0
 62
7
100
AcDbLine
 10
93.929673
 20
152.909176
 30
0.0
 11
94.181179
 21
152.824121
 31
0.0
  0
LINE
  5
1d2
100
AcDbEntity
  8
0
 62
7
100
AcDbLine
 10
76.580193
 20
84.265545
 30
0.0
 11
80.574205
 21
84.265545
 31
0.0
  0
LINE
  5
1d3
100
AcDbEntity
  8
0
 62
7
100
AcDbLine
 10
80.574205
 20
84.265545
 30
0.0
 11
80.574205
 21
82.268542
 31
0.0
  0
LINE
  5
1d4
100
AcDbEntity
  8
0
 62
7
100
AcDbLine
 10
80.574205
 20
82.268542
 30
0.0
 11
76.580193
 21
82.268542
 31
0.0
  0
LINE
  5
1d5
100
AcDbEntity
  8
0
 62
7
100
AcDbLine
 10
76.580193
 20
82.268542
 30
0.0
 11
76.580193
 21
84.265545
 31
0.0
  0
LINE
  5
1d6
100
AcDbEntity
  8
0
 62
7
100
AcDbLine
 10
83.316456
 20
84.265545
 30
0.0
 11
87.310468
 21
84.265545
 31
0.0
  0
LINE
  5
1d7
100
AcDbEntity
  8
0
 62
7
100
AcDbLine
 10
87.310468
 20
84.265545
 30
0.0
 11
87.310468
 21
82.268542
 31
0.0
  0
LINE
  5
1d8
100
AcDbEntity
  8
0
 62
7
100
AcDbLine
 10
87.310468
 20
82.268542
 30
0.0
 11
83.316456
 21
82.268542
 31
0.0
  0
LINE
  5
1d9
100
AcDbEntity
  8
0
 62
7
100
AcDbLine
 10
83.316456
 20
82.268542
 30
0.0
 11
83.316456
 21
84.265545
 31
0.0
  0
LINE
  5
1da
100
AcDbEntity
  8
0
 62
7
100
AcDbLine
 10
90.113739
 20
84.265545
 30
0.0
 11
94.107751
 21
84.265545
 31
0.0
  0
LINE
  5
1db
100
AcDbEntity
  8
0
 62
7
100
AcDbLine
 10
94.107751
 20
84.265545
 30
0.0
 11
94.107751
 21
82.268542
 31
0.0
  0
LINE
  5
1dc
100
AcDbEntity
  8
0
 62
7
100
AcDbLine
 10
94.107751
 20
82.268542
 30
0.0
 11
90.113739
 21
82.268542
 31
0.0
  0
LINE
  5
1dd
100
AcDbEntity
  8
0
 62
7
100
AcDbLine
 10
90.113739
 20
82.268542
 30
0.0
 11
90.113739
 21
84.265545
 31
0.0
  0
LINE
  5
1de
100
AcDbEntity
  8
0
 62
7
100
AcDbLine
 10
96.849999
 20
84.265545
 30
0.0
 11
100.844017
 21
84.265545
 31
0.0
  0
LINE
  5
1df
100
AcDbEntity
  8
0
 62
7
100
AcDbLine
 10
100.844017
 20
84.265545
 30
0.0
 11
100.844017
 21
82.268542
 31
0.0
  0
LINE
  5
1e0
100
AcDbEntity
  8
0
 62
7
100
AcDbLine
 10
100.844017
 20
82.268542
 30
0.0
 11
96.849999
 21
82.268542
 31
0.0
  0
LINE
  5
1e1
100
AcDbEntity
  8
0
 62
7
100
AcDbLine
 10
96.849999
 20
82.268542
 30
0.0
 11
96.849999
 21
84.265545
 31
0.0
  0
LINE
  5
1e2
100
AcDbEntity
  8
0
 62
7
100
AcDbLine
 10
103.647285
 20
84.265545
 30
0.0
 11
107.641292
 21
84.265545
 31
0.0
  0
LINE
  5
1e3
100
AcDbEntity
  8
0
 62
7
100
AcDbLine
 10
107.641292
 20
84.265545
 30
0.0
 11
107.641292
 21
82.268542
 31
0.0
  0
LINE
  5
1e4
100
AcDbEntity
  8
0
 62
7
100
AcDbLine
 10
107.641292
 20
82.268542
 30
0.0
 11
103.647285
 21
82.268542
 31
0.0
  0
LINE
  5
1e5
100
AcDbEntity
  8
0
 62
7
100
AcDbLine
 10
103.647285
 20
82.268542
 30
0.0
 11
103.647285
 21
84.265545
 31
0.0
  0
LINE
  5
1e6
100
AcDbEntity
  8
0
 62
7
100
AcDbLine
 10
110.383555
 20
84.265545
 30
0.0
 11
114.377563
 21
84.265545
 31
0.0
  0
LINE
  5
1e7
100
AcDbEntity
  8
0
 62
7
100
AcDbLine
 10
114.377563
 20
84.265545
 30
0.0
 11
114.377563
 21
82.268542
 31
0.0
  0
LINE
  5
1e8
100
AcDbEntity
  8
0
 62
7
100
AcDbLine
 10
114.377563
 20
82.268542
 30
0.0
 11
110.383555
 21
82.268542
 31
0.0
  0
LINE
  5
1e9
100
AcDbEntity
  8
0
 62
7
100
AcDbLine
 10
110.383555
 20
82.268542
 30
0.0
 11
110.383555
 21
84.265545
 31
0.0
  0
LINE
  5
1ea
100
AcDbEntity
  8
0
 62
7
100
AcDbLine
 10
117.180831
 20
84.265545
 30
0.0
 11
121.174838
 21
84.265545
 31
0.0
  0
LINE
  5
1eb
100
AcDbEntity
  8
0
 62
7
100
AcDbLine
 10
121.174838
 20
84.265545
 30
0.0
 11
121.174838
 21
82.268542
 31
0.0
  0
LINE
  5
1ec
100
AcDbEntity
  8
0
 62
7
100
AcDbLine
 10
121.174838
 20
82.268542
 30
0.0
 11
117.180831
 21
82.268542
 31
0.0
  0
LINE
  5
1ed
100
AcDbEntity
  8
0
 62
7
100
AcDbLine
 10
117.180831
 20
82.268542
 30
0.0
 11
117.180831
 21
84.265545
 31
0.0
  0
LINE
  5
1ee
100
AcDbEntity
  8
0
 62
7
100
AcDbLine
 10
123.917099
 20
84.265545
 30
0.0
 11
127.911106
 21
84.265545
 31
0.0
  0
LINE
  5
1ef
100
AcDbEntity
  8
0
 62
7
100
AcDbLine
 10
127.911106
 20
84.265545
 30
0.0
 11
127.911106
 21
82.268542
 31
0.0
  0
LINE
  5
1f0
100
AcDbEntity
  8
0
 62
7
100
AcDbLine
 10
127.911106
 20
82.268542
 30
0.0
 11
123.917099
 21
82.268542
 31
0.0
  0
LINE
  5
1f1
100
AcDbEntity
  8
0
 62
7
100
AcDbLine
 10
123.917099
 20
82.268542
 30
0.0
 11
123.917099
 21
84.265545
 31
0.0
  0
LINE
  5
1f2
100
AcDbEntity
  8
0
 62
7
100
AcDbLine
 10
76.580193
 20
80.398821
 30
0.0
 11
80.574205
 21
80.398821
 31
0.0
  0
LINE
  5
1f3
100
AcDbEntity
  8
0
 62
7
100
AcDbLine
 10
80.574205
 20
80.398821
 30
0.0
 11
80.574205
 21
78.401807
 31
0.0
  0
LINE
  5
1f4
100
AcDbEntity
  8
0
 62
7
100
AcDbLine
 10
80.574205
 20
78.401807
 30
0.0
 11
76.580193
 21
78.401807
 31
0.0
  0
LINE
  5
1f5
100
AcDbEntity
  8
0
 62
7
100
AcDbLine
 10
76.580193
 20
78.401807
 30
0.0
 11
76.580193
 21
80.398821
 31
0.0
  0
LINE
  5
1f6
100
AcDbEntity
  8
0
 62
7
100
AcDbLine
 10
83.316456
 20
80.398821
 30
0.0
 11
87.310468
 21
80.398821
 31
0.0
  0
LINE
  5
1f7
100
AcDbEntity
  8
0
 62
7
100
AcDbLine
 10
87.310468
 20
80.398821
 30
0.0
 11
87.310468
 21
78.401807
 31
0.0
  0
LINE
  5
1f8
100
AcDbEntity
  8
0
 62
7
100
AcDbLine
 10
87.310468
 20
78.401807
 30
0.0
 11
83.316456
 21
78.401807
 31
0.0
  0
LINE
  5
1f9
100
AcDbEntity
  8
0
 62
7
100
AcDbLine
 10
83.316456
 20
78.401807
 30
0.0
 11
83.316456
 21
80.398821
 31
0.0
  0
LINE
  5
1fa
100
AcDbEntity
  8
0
 62
7
100
AcDbLine
 10
90.113739
 20
80.398821
 30
0.0
 11
94.107751
 21
80.398821
 31
0.0
  0
LINE
  5
1fb
100
AcDbEntity
  8
0
 62
7
100
AcDbLine
 10
94.107751
 20
80.398821
 30
0.0
 11
94.107751
 21
78.401807
 31
0.0
  0
LINE
  5
1fc
100
AcDbEntity
  8
0
 62
7
100
AcDbLine
 10
94.107751
 20
78.401807
 30
0.0
 11
90.113739
 21
78.401807
 31
0.0
  0
LINE
  5
1fd
100
AcDbEntity
  8
0
 62
7
100
AcDbLine
 10
90.113739
 20
78.401807
 30
0.0
 11
90.113739
 21
80.398821
 31
0.0
  0
LINE
  5
1fe
100
AcDbEntity
  8
0
 62
7
100
AcDbLine
 10
96.849999
 20
80.398821
 30
0.0
 11
100.844017
 21
80.398821
 31
0.0
  0
LINE
  5
1ff
100
AcDbEntity
  8
0
 62
7
100
AcDbLine
 10
100.844017
 20
80.398821
 30
0.0
 11
100.844017
 21
78.401807
 31
0.0
  0
LINE
  5
200
100
AcDbEntity
  8
0
 62
7
100
AcDbLine
 10
100.844017
 20
78.401807
 30
0.0
 11
96.849999
 21
78.401807
 31
0.0
  0
LINE
  5
201
100
AcDbEntity
  8
0
 62
7
100
AcDbLine
 10
96.849999
 20
78.401807
 30
0.0
 11
96.849999
 21
80.398821
 31
0.0
  0
LINE
  5
202
100
AcDbEntity
  8
0
 62
7
100
AcDbLine
 10
103.647285
 20
80.398821
 30
0.0
 11
107.641292
 21
80.398821
 31
0.0
  0
LINE
  5
203
100
AcDbEntity
  8
0
 62
7
100
AcDbLine
 10
107.641292
 20
80.398821
 30
0.0
 11
107.641292
 21
78.401807
 31
0.0
  0
LINE
  5
204
100
AcDbEntity
  8
0
 62
7
100
AcDbLine
 10
107.641292
 20
78.401807
 30
0.0
 11
103.647285
 21
78.401807
 31
0.0
  0
LINE
  5
205
100
AcDbEntity
  8
0
 62
7
100
AcDbLine
 10
103.647285
 20
78.401807
 30
0.0
 11
103.647285
 21
80.398821
 31
0.0
  0
LINE
  5
206
100
AcDbEntity
  8
0
 62
7
100
AcDbLine
 10
110.383555
 20
80.398821
 30
0.0
 11
114.377563
 21
80.398821
 31
0.0
  0
LINE
  5
207
100
AcDbEntity
  8
0
 62
7
100
AcDbLine
 10
114.377563
 20
80.398821
 30
0.0
 11
114.377563
 21
78.401807
 31
0.0
  0
LINE
  5
208
100
AcDbEntity
  8
0
 62
7
100
AcDbLine
 10
114.377563
 20
78.401807
 30
0.0
 11
110.383555
 21
78.401807
 31
0.0
  0
LINE
  5
209
100
AcDbEntity
  8
0
 62
7
100
AcDbLine
 10
110.383555
 20
78.401807
 30
0.0
 11
110.383555
 21
80.398821
 31
0.0
  0
LINE
  5
20a
100
AcDbEntity
  8
0
 62
7
100
AcDbLine
 10
117.180831
 20
80.398821
 30
0.0
 11
121.174838
 21
80.398821
 31
0.0
  0
LINE
  5
20b
100
AcDbEntity
  8
0
 62
7
100
AcDbLine
 10
121.174838
 20
80.398821
 30
0.0
 11
121.174838
 21
78.401807
 31
0.0
  0
LINE
  5
20c
100
AcDbEntity
  8
0
 62
7
100
AcDbLine
 10
121.174838
 20
78.401807
 30
0.0
 11
117.180831
 21
78.401807
 31
0.0
  0
LINE
  5
20d
100
AcDbEntity
  8
0
 62
7
100
AcDbLine
 10
117.180831
 20
78.401807
 30
0.0
 11
117.180831
 21
80.398821
 31
0.0
  0
LINE
  5
20e
100
AcDbEntity
  8
0
 62
7
100
AcDbLine
 10
123.917099
 20
80.398821
 30
0.0
 11
127.911106
 21
80.398821
 31
0.0
  0
LINE
  5
20f
100
AcDbEntity
  8
0
 62
7
100
AcDbLine
 10
127.911106
 20
80.398821
 30
0.0
 11
127.911106
 21
78.401807
 31
0.0
  0
LINE
  5
210
100
AcDbEntity
  8
0
 62
7
100
AcDbLine
 10
127.911106
 20
78.401807
 30
0.0
 11
123.917099
 21
78.401807
 31
0.0
  0
LINE
  5
211
100
AcDbEntity
  8
0
 62
7
100
AcDbLine
 10
123.917099
 20
78.401807
 30
0.0
 11
123.917099
 21
80.398821
 31
0.0
  0
LINE
  5
212
100
AcDbEntity
  8
0
 62
7
100
AcDbLine
 10
76.580193
 20
76.532089
 30
0.0
 11
80.574205
 21
76.532089
 31
0.0
  0
LINE
  5
213
100
AcDbEntity
  8
0
 62
7
100
AcDbLine
 10
80.574205
 20
76.532089
 30
0.0
 11
80.574205
 21
74.535086
 31
0.0
  0
LINE
  5
214
100
AcDbEntity
  8
0
 62
7
100
AcDbLine
 10
80.574205
 20
74.535086
 30
0.0
 11
76.580193
 21
74.535086
 31
0.0
  0
LINE
  5
215
100
AcDbEntity
  8
0
 62
7
100
AcDbLine
 10
76.580193
 20
74.535086
 30
0.0
 11
76.580193
 21
76.532089
 31
0.0
  0
LINE
  5
216
100
AcDbEntity
  8
0
 62
7
100
AcDbLine
 10
83.316456
 20
76.532089
 30
0.0
 11
87.310468
 21
76.532089
 31
0.0
  0
LINE
  5
217
100
AcDbEntity
  8
0
 62
7
100
AcDbLine
 10
87.310468
 20
76.532089
 30
0.0
 11
87.310468
 21
74.535086
 31
0.0
  0
LINE
  5
218
100
AcDbEntity
  8
0
 62
7
100
AcDbLine
 10
87.310468
 20
74.535086
 30
0.0
 11
83.316456
 21
74.535086
 31
0.0
  0
LINE
  5
219
100
AcDbEntity
  8
0
 62
7
100
AcDbLine
 10
83.316456
 20
74.535086
 30
0.0
 11
83.316456
 21
76.532089
 31
0.0
  0
LINE
  5
21a
100
AcDbEntity
  8
0
 62
7
100
AcDbLine
 10
90.113739
 20
76.532089
 30
0.0
 11
94.107751
 21
76.532089
 31
0.0
  0
LINE
  5
21b
100
AcDbEntity
  8
0
 62
7
100
AcDbLine
 10
94.107751
 20
76.532089
 30
0.0
 11
94.107751
 21
74.535086
 31
0.0
  0
LINE
  5
21c
100
AcDbEntity
  8
0
 62
7
100
AcDbLine
 10
94.107751
 20
74.535086
 30
0.0
 11
90.113739
 21
74.535086
 31
0.0
  0
LINE
  5
21d
100
AcDbEntity
  8
0
 62
7
100
AcDbLine
 10
90.113739
 20
74.535086
 30
0.0
 11
90.113739
 21
76.532089
 31
0.0
  0
LINE
  5
21e
100
AcDbEntity
  8
0
 62
7
100
AcDbLine
 10
96.849999
 20
76.532089
 30
0.0
 11
100.844017
 21
76.532089
 31
0.0
  0
LINE
  5
21f
100
AcDbEntity
  8
0
 62
7
100
AcDbLine
 10
100.844017
 20
76.532089
 30
0.0
 11
100.844017
 21
74.535086
 31
0.0
  0
LINE
  5
220
100
AcDbEntity
  8
0
 62
7
100
AcDbLine
 10
100.844017
 20
74.535086
 30
0.0
 11
96.849999
 21
74.535086
 31
0.0
  0
LINE
  5
221
100
AcDbEntity
  8
0
 62
7
100
AcDbLine
 10
96.849999
 20
74.535086
 30
0.0
 11
96.849999
 21
76.532089
 31
0.0
  0
LINE
  5
222
100
AcDbEntity
  8
0
 62
7
100
AcDbLine
 10
103.647285
 20
76.532089
 30
0.0
 11
107.641292
 21
76.532089
 31
0.0
  0
LINE
  5
223
100
AcDbEntity
  8
0
 62
7
100
AcDbLine
 10
107.641292
 20
76.532089
 30
0.0
 11
107.641292
 21
74.535086
 31
0.0
  0
LINE
  5
224
100
AcDbEntity
  8
0
 62
7
100
AcDbLine
 10
107.641292
 20
74.535086
 30
0.0
 11
103.647285
 21
74.535086
 31
0.0
  0
LINE
  5
225
100
AcDbEntity
  8
0
 62
7
100
AcDbLine
 10
103.647285
 20
74.535086
 30
0.0
 11
103.647285
 21
76.532089
 31
0.0
  0
LINE
  5
226
100
AcDbEntity
  8
0
 62
7
100
AcDbLine
 10
110.383555
 20
76.532089
 30
0.0
 11
114.377563
 21
76.532089
 31
0.0
  0
LINE
  5
227
100
AcDbEntity
  8
0
 62
7
100
AcDbLine
 10
114.377563
 20
76.532089
 30
0.0
 11
114.377563
 21
74.535086
 31
0.0
  0
LINE
  5
228
100
AcDbEntity
  8
0
 62
7
100
AcDbLine
 10
114.377563
 20
74.535086
 30
0.0
 11
110.383555
 21
74.535086
 31
0.0
  0
LINE
  5
229
100
AcDbEntity
  8
0
 62
7
100
AcDbLine
 10
110.383555
 20
74.535086
 30
0.0
 11
110.383555
 21
76.532089
 31
0.0
  0
LINE
  5
22a
100
AcDbEntity
  8
0
 62
7
100
AcDbLine
 10
117.180831
 20
76.532089
 30
0.0
 11
121.174838
 21
76.532089
 31
0.0
  0
LINE
  5
22b
100
AcDbEntity
  8
0
 62
7
100
AcDbLine
 10
121.174838
 20
76.532089
 30
0.0
 11
121.174838
 21
74.535086
 31
0.0
  0
LINE
  5
22c
100
AcDbEntity
  8
0
 62
7
100
AcDbLine
 10
121.174838
 20
74.535086
 30
0.0
 11
117.180831
 21
74.535086
 31
0.0
  0
LINE
  5
22d
100
AcDbEntity
  8
0
 62
7
100
AcDbLine
 10
117.180831
 20
74.535086
 30
0.0
 11
117.180831
 21
76.532089
 31
0.0
  0
LINE
  5
22e
100
AcDbEntity
  8
0
 62
7
100
AcDbLine
 10
123.917099
 20
76.532089
 30
0.0
 11
127.911106
 21
76.532089
 31
0.0
  0
LINE
  5
22f
100
AcDbEntity
  8
0
 62
7
100
AcDbLine
 10
127.911106
 20
76.532089
 30
0.0
 11
127.911106
 21
74.535086
 31
0.0
  0
LINE
  5
230
100
AcDbEntity
  8
0
 62
7
100
AcDbLine
 10
127.911106
 20
74.535086
 30
0.0
 11
123.917099
 21
74.535086
 31
0.0
  0
LINE
  5
231
100
AcDbEntity
  8
0
 62
7
100
AcDbLine
 10
123.917099
 20
74.535086
 30
0.0
 11
123.917099
 21
76.532089
 31
0.0
  0
LINE
  5
232
100
AcDbEntity
  8
0
 62
7
100
AcDbLine
 10
76.580193
 20
72.665365
 30
0.0
 11
80.574205
 21
72.665365
 31
0.0
  0
LINE
  5
233
100
AcDbEntity
  8
0
 62
7
100
AcDbLine
 10
80.574205
 20
72.665365
 30
0.0
 11
80.574205
 21
70.668351
 31
0.0
  0
LINE
  5
234
100
AcDbEntity
  8
0
 62
7
100
AcDbLine
 10
80.574205
 20
70.668351
 30
0.0
 11
76.580193
 21
70.668351
 31
0.0
  0
LINE
  5
235
100
AcDbEntity
  8
0
 62
7
100
AcDbLine
 10
76.580193
 20
70.668351
 30
0.0
 11
76.580193
 21
72.665365
 31
0.0
  0
LINE
  5
236
100
AcDbEntity
  8
0
 62
7
100
AcDbLine
 10
83.316456
 20
72.665365
 30
0.0
 11
87.310468
 21
72.665365
 31
0.0
  0
LINE
  5
237
100
AcDbEntity
  8
0
 62
7
100
AcDbLine
 10
87.310468
 20
72.665365
 30
0.0
 11
87.310468
 21
70.668351
 31
0.0
  0
LINE
  5
238
100
AcDbEntity
  8
0
 62
7
100
AcDbLine
 10
87.310468
 20
70.668351
 30
0.0
 11
83.316456
 21
70.668351
 31
0.0
  0
LINE
  5
239
100
AcDbEntity
  8
0
 62
7
100
AcDbLine
 10
83.316456
 20
70.668351
 30
0.0
 11
83.316456
 21
72.665365
 31
0.0
  0
LINE
  5
23a
100
AcDbEntity
  8
0
 62
7
100
AcDbLine
 10
90.113739
 20
72.665365
 30
0.0
 11
94.107751
 21
72.665365
 31
0.0
  0
LINE
  5
23b
100
AcDbEntity
  8
0
 62
7
100
AcDbLine
 10
94.107751
 20
72.665365
 30
0.0
 11
94.107751
 21
70.668351
 31
0.0
  0
LINE
  5
23c
100
AcDbEntity
  8
0
 62
7
100
AcDbLine
 10
94.107751
 20
70.668351
 30
0.0
 11
90.113739
 21
70.668351
 31
0.0
  0
LINE
  5
23d
100
AcDbEntity
  8
0
 62
7
100
AcDbLine
 10
90.113739
 20
70.668351
 30
0.0
 11
90.113739
 21
72.665365
 31
0.0
  0
LINE
  5
23e
100
AcDbEntity
  8
0
 62
7
100
AcDbLine
 10
96.849999
 20
72.665365
 30
0.0
 11
100.844017
 21
72.665365
 31
0.0
  0
LINE
  5
23f
100
AcDbEntity
  8
0
 62
7
100
AcDbLine
 10
100.844017
 20
72.665365
 30
0.0
 11
100.844017
 21
70.668351
 31
0.0
  0
LINE
  5
240
100
AcDbEntity
  8
0
 62
7
100
AcDbLine
 10
100.844017
 20
70.668351
 30
0.0
 11
96.849999
 21
70.668351
 31
0.0
  0
LINE
  5
241
100
AcDbEntity
  8
0
 62
7
100
AcDbLine
 10
96.849999
 20
70.668351
 30
0.0
 11
96.849999
 21
72.665365
 31
0.0
  0
LINE
  5
242
100
AcDbEntity
  8
0
 62
7
100
AcDbLine
 10
103.647285
 20
72.665365
 30
0.0
 11
107.641292
 21
72.665365
 31
0.0
  0
LINE
  5
243
100
AcDbEntity
  8
0
 62
7
100
AcDbLine
 10
107.641292
 20
72.665365
 30
0.0
 11
107.641292
 21
70.668351
 31
0.0
  0
LINE
  5
244
100
AcDbEntity
  8
0
 62
7
100
AcDbLine
 10
107.641292
 20
70.668351
 30
0.0
 11
103.647285
 21
70.668351
 31
0.0
  0
LINE
  5
245
100
AcDbEntity
  8
0
 62
7
100
AcDbLine
 10
103.647285
 20
70.668351
 30
0.0
 11
103.647285
 21
72.665365
 31
0.0
  0
LINE
  5
246
100
AcDbEntity
  8
0
 62
7
100
AcDbLine
 10
110.383555
 20
72.665365
 30
0.0
 11
114.377563
 21
72.665365
 31
0.0
  0
LINE
  5
247
100
AcDbEntity
  8
0
 62
7
100
AcDbLine
 10
114.377563
 20
72.665365
 30
0.0
 11
114.377563
 21
70.668351
 31
0.0
  0
LINE
  5
248
100
AcDbEntity
  8
0
 62
7
100
AcDbLine
 10
114.377563
 20
70.668351
 30
0.0
 11
110.383555
 21
70.668351
 31
0.0
  0
LINE
  5
249
100
AcDbEntity
  8
0
 62
7
100
AcDbLine
 10
110.383555
 20
70.668351
 30
0.0
 11
110.383555
 21
72.665365
 31
0.0
  0
LINE
  5
24a
100
AcDbEntity
  8
0
 62
7
100
AcDbLine
 10
117.180831
 20
72.665365
 30
0.0
 11
121.174838
 21
72.665365
 31
0.0
  0
LINE
  5
24b
100
AcDbEntity
  8
0
 62
7
100
AcDbLine
 10
121.174838
 20
72.665365
 30
0.0
 11
121.174838
 21
70.668351
 31
0.0
  0
LINE
  5
24c
100
AcDbEntity
  8
0
 62
7
100
AcDbLine
 10
121.174838
 20
70.668351
 30
0.0
 11
117.180831
 21
70.668351
 31
0.0
  0
LINE
  5
24d
100
AcDbEntity
  8
0
 62
7
100
AcDbLine
 10
117.180831
 20
70.668351
 30
0.0
 11
117.180831
 21
72.665365
 31
0.0
  0
LINE
  5
24e
100
AcDbEntity
  8
0
 62
7
100
AcDbLine
 10
123.917099
 20
72.665365
 30
0.0
 11
127.911106
 21
72.665365
 31
0.0
  0
LINE
  5
24f
100
AcDbEntity
  8
0
 62
7
100
AcDbLine
 10
127.911106
 20
72.665365
 30
0.0
 11
127.911106
 21
70.668351
 31
0.0
  0
LINE
  5
250
100
AcDbEntity
  8
0
 62
7
100
AcDbLine
 10
127.911106
 20
70.668351
 30
0.0
 11
123.917099
 21
70.668351
 31
0.0
  0
LINE
  5
251
100
AcDbEntity
  8
0
 62
7
100
AcDbLine
 10
123.917099
 20
70.668351
 30
0.0
 11
123.917099
 21
72.665365
 31
0.0
  0
LINE
  5
252
100
AcDbEntity
  8
0
 62
7
100
AcDbLine
 10
76.580193
 20
68.798641
 30
0.0
 11
80.574205
 21
68.798641
 31
0.0
  0
LINE
  5
253
100
AcDbEntity
  8
0
 62
7
100
AcDbLine
 10
80.574205
 20
68.798641
 30
0.0
 11
80.574205
 21
66.801630
 31
0.0
  0
LINE
  5
254
100
AcDbEntity
  8
0
 62
7
100
AcDbLine
 10
80.574205
 20
66.801630
 30
0.0
 11
76.580193
 21
66.801630
 31
0.0
  0
LINE
  5
255
100
AcDbEntity
  8
0
 62
7
100
AcDbLine
 10
76.580193
 20
66.801630
 30
0.0
 11
76.580193
 21
68.798641
 31
0.0
  0
LINE
  5
256
100
AcDbEntity
  8
0
 62
7
100
AcDbLine
 10
83.316456
 20
68.798641
 30
0.0
 11
87.310468
 21
68.798641
 31
0.0
  0
LINE
  5
257
100
AcDbEntity
  8
0
 62
7
100
AcDbLine
 10
87.310468
 20
68.798641
 30
0.0
 11
87.310468
 21
66.801630
 31
0.0
  0
LINE
  5
258
100
AcDbEntity
  8
0
 62
7
100
AcDbLine
 10
87.310468
 20
66.801630
 30
0.0
 11
83.316456
 21
66.801630
 31
0.0
  0
LINE
  5
259
100
AcDbEntity
  8
0
 62
7
100
AcDbLine
 10
83.316456
 20
66.801630
 30
0.0
 11
83.316456
 21
68.798641
 31
0.0
  0
LINE
  5
25a
100
AcDbEntity
  8
0
 62
7
100
AcDbLine
 10
90.113739
 20
68.798641
 30
0.0
 11
94.107751
 21
68.798641
 31
0.0
  0
LINE
  5
25b
100
AcDbEntity
  8
0
 62
7
100
AcDbLine
 10
94.107751
 20
68.798641
 30
0.0
 11
94.107751
 21
66.801630
 31
0.0
  0
LINE
  5
25c
100
AcDbEntity
  8
0
 62
7
100
AcDbLine
 10
94.107751
 20
66.801630
 30
0.0
 11
90.113739
 21
66.801630
 31
0.0
  0
LINE
  5
25d
100
AcDbEntity
  8
0
 62
7
100
AcDbLine
 10
90.113739
 20
66.801630
 30
0.0
 11
90.113739
 21
68.798641
 31
0.0
  0
LINE
  5
25e
100
AcDbEntity
  8
0
 62
7
100
AcDbLine
 10
96.849999
 20
68.798641
 30
0.0
 11
100.844017
 21
68.798641
 31
0.0
  0
LINE
  5
25f
100
AcDbEntity
  8
0
 62
7
100
AcDbLine
 10
100.844017
 20
68.798641
 30
0.0
 11
100.844017
 21
66.801630
 31
0.0
  0
LINE
  5
260
100
AcDbEntity
  8
0
 62
7
100
AcDbLine
 10
100.844017
 20
66.801630
 30
0.0
 11
96.849999
 21
66.801630
 31
0.0
  0
LINE
  5
261
100
AcDbEntity
  8
0
 62
7
100
AcDbLine
 10
96.849999
 20
66.801630
 30
0.0
 11
96.849999
 21
68.798641
 31
0.0
  0
LINE
  5
262
100
AcDbEntity
  8
0
 62
7
100
AcDbLine
 10
103.647285
 20
68.798641
 30
0.0
 11
107.641292
 21
68.798641
 31
0.0
  0
LINE
  5
263
100
AcDbEntity
  8
0
 62
7
100
AcDbLine
 10
107.641292
 20
68.798641
 30
0.0
 11
107.641292
 21
66.801630
 31
0.0
  0
LINE
  5
264
100
AcDbEntity
  8
0
 62
7
100
AcDbLine
 10
107.641292
 20
66.801630
 30
0.0
 11
103.647285
 21
66.801630
 31
0.0
  0
LINE
  5
265
100
AcDbEntity
  8
0
 62
7
100
AcDbLine
 10
103.647285
 20
66.801630
 30
0.0
 11
103.647285
 21
68.798641
 31
0.0
  0
LINE
  5
266
100
AcDbEntity
  8
0
 62
7
100
AcDbLine
 10
110.383555
 20
68.798641
 30
0.0
 11
114.377563
 21
68.798641
 31
0.0
  0
LINE
  5
267
100
AcDbEntity
  8
0
 62
7
100
AcDbLine
 10
114.377563
 20
68.798641
 30
0.0
 11
114.377563
 21
66.801630
 31
0.0
  0
LINE
  5
268
100
AcDbEntity
  8
0
 62
7
100
AcDbLine
 10
114.377563
 20
66.801630
 30
0.0
 11
110.383555
 21
66.801630
 31
0.0
  0
LINE
  5
269
100
AcDbEntity
  8
0
 62
7
100
AcDbLine
 10
110.383555
 20
66.801630
 30
0.0
 11
110.383555
 21
68.798641
 31
0.0
  0
LINE
  5
26a
100
AcDbEntity
  8
0
 62
7
100
AcDbLine
 10
117.180831
 20
68.798641
 30
0.0
 11
121.174838
 21
68.798641
 31
0.0
  0
LINE
  5
26b
100
AcDbEntity
  8
0
 62
7
100
AcDbLine
 10
121.174838
 20
68.798641
 30
0.0
 11
121.174838
 21
66.801630
 31
0.0
  0
LINE
  5
26c
100
AcDbEntity
  8
0
 62
7
100
AcDbLine
 10
121.174838
 20
66.801630
 30
0.0
 11
117.180831
 21
66.801630
 31
0.0
  0
LINE
  5
26d
100
AcDbEntity
  8
0
 62
7
100
AcDbLine
 10
117.180831
 20
66.801630
 30
0.0
 11
117.180831
 21
68.798641
 31
0.0
  0
LINE
  5
26e
100
AcDbEntity
  8
0
 62
7
100
AcDbLine
 10
123.917099
 20
68.798641
 30
0.0
 11
127.911106
 21
68.798641
 31
0.0
  0
LINE
  5
26f
100
AcDbEntity
  8
0
 62
7
100
AcDbLine
 10
127.911106
 20
68.798641
 30
0.0
 11
127.911106
 21
66.801630
 31
0.0
  0
LINE
  5
270
100
AcDbEntity
  8
0
 62
7
100
AcDbLine
 10
127.911106
 20
66.801630
 30
0.0
 11
123.917099
 21
66.801630
 31
0.0
  0
LINE
  5
271
100
AcDbEntity
  8
0
 62
7
100
AcDbLine
 10
123.917099
 20
66.801630
 30
0.0
 11
123.917099
 21
68.798641
 31
0.0
  0
LINE
  5
272
100
AcDbEntity
  8
0
 62
7
100
AcDbLine
 10
76.580193
 20
95.865733
 30
0.0
 11
80.574205
 21
95.865733
 31
0.0
  0
LINE
  5
273
100
AcDbEntity
  8
0
 62
7
100
AcDbLine
 10
80.574205
 20
95.865733
 30
0.0
 11
80.574205
 21
93.868719
 31
0.0
  0
LINE
  5
274
100
AcDbEntity
  8
0
 62
7
100
AcDbLine
 10
80.574205
 20
93.868719
 30
0.0
 11
76.580193
 21
93.868719
 31
0.0
  0
LINE
  5
275
100
AcDbEntity
  8
0
 62
7
100
AcDbLine
 10
76.580193
 20
93.868719
 30
0.0
 11
76.580193
 21
95.865733
 31
0.0
  0
LINE
  5
276
100
AcDbEntity
  8
0
 62
7
100
AcDbLine
 10
83.316456
 20
95.865733
 30
0.0
 11
87.310468
 21
95.865733
 31
0.0
  0
LINE
  5
277
100
AcDbEntity
  8
0
 62
7
100
AcDbLine
 10
87.310468
 20
95.865733
 30
0.0
 11
87.310468
 21
93.868719
 31
0.0
  0
LINE
  5
278
100
AcDbEntity
  8
0
 62
7
100
AcDbLine
 10
87.310468
 20
93.868719
 30
0.0
 11
83.316456
 21
93.868719
 31
0.0
  0
LINE
  5
279
100
AcDbEntity
  8
0
 62
7
100
AcDbLine
 10
83.316456
 20
93.868719
 30
0.0
 11
83.316456
 21
95.865733
 31
0.0
  0
LINE
  5
27a
100
AcDbEntity
  8
0
 62
7
100
AcDbLine
 10
90.113739
 20
95.865733
 30
0.0
 11
94.107751
 21
95.865733
 31
0.0
  0
LINE
  5
27b
100
AcDbEntity
  8
0
 62
7
100
AcDbLine
 10
94.107751
 20
95.865733
 30
0.0
 11
94.107751
 21
93.868719
 31
0.0
  0
LINE
  5
27c
100
AcDbEntity
  8
0
 62
7
100
AcDbLine
 10
94.107751
 20
93.868719
 30
0.0
 11
90.113739
 21
93.868719
 31
0.0
  0
LINE
  5
27d
100
AcDbEntity
  8
0
 62
7
100
AcDbLine
 10
90.113739
 20
93.868719
 30
0.0
 11
90.113739
 21
95.865733
 31
0.0
  0
LINE
  5
27e
100
AcDbEntity
  8
0
 62
7
100
AcDbLine
 10
96.849999
 20
95.865733
 30
0.0
 11
100.844017
 21
95.865733
 31
0.0
  0
LINE
  5
27f
100
AcDbEntity
  8
0
 62
7
100
AcDbLine
 10
100.844017
 20
95.865733
 30
0.0
 11
100.844017
 21
93.868719
 31
0.0
  0
LINE
  5
280
100
AcDbEntity
  8
0
 62
7
100
AcDbLine
 10
100.844017
 20
93.868719
 30
0.0
 11
96.849999
 21
93.868719
 31
0.0
  0
LINE
  5
281
100
AcDbEntity
  8
0
 62
7
100
AcDbLine
 10
96.849999
 20
93.868719
 30
0.0
 11
96.849999
 21
95.865733
 31
0.0
  0
LINE
  5
282
100
AcDbEntity
  8
0
 62
7
100
AcDbLine
 10
103.647285
 20
95.865733
 30
0.0
 11
107.641292
 21
95.865733
 31
0.0
  0
LINE
  5
283
100
AcDbEntity
  8
0
 62
7
100
AcDbLine
 10
107.641292
 20
95.865733
 30
0.0
 11
107.641292
 21
93.868719
 31
0.0
  0
LINE
  5
284
100
AcDbEntity
  8
0
 62
7
100
AcDbLine
 10
107.641292
 20
93.868719
 30
0.0
 11
103.647285
 21
93.868719
 31
0.0
  0
LINE
  5
285
100
AcDbEntity
  8
0
 62
7
100
AcDbLine
 10
103.647285
 20
93.868719
 30
0.0
 11
103.647285
 21
95.865733
 31
0.0
  0
LINE
  5
286
100
AcDbEntity
  8
0
 62
7
100
AcDbLine
 10
110.383555
 20
95.865733
 30
0.0
 11
114.377563
 21
95.865733
 31
0.0
  0
LINE
  5
287
100
AcDbEntity
  8
0
 62
7
100
AcDbLine
 10
114.377563
 20
95.865733
 30
0.0
 11
114.377563
 21
93.868719
 31
0.0
  0
LINE
  5
288
100
AcDbEntity
  8
0
 62
7
100
AcDbLine
 10
114.377563
 20
93.868719
 30
0.0
 11
110.383555
 21
93.868719
 31
0.0
  0
LINE
  5
289
100
AcDbEntity
  8
0
 62
7
100
AcDbLine
 10
110.383555
 20
93.868719
 30
0.0
 11
110.383555
 21
95.865733
 31
0.0
  0
LINE
  5
28a
100
AcDbEntity
  8
0
 62
7
100
AcDbLine
 10
117.180831
 20
95.865733
 30
0.0
 11
121.174838
 21
95.865733
 31
0.0
  0
LINE
  5
28b
100
AcDbEntity
  8
0
 62
7
100
AcDbLine
 10
121.174838
 20
95.865733
 30
0.0
 11
121.174838
 21
93.868719
 31
0.0
  0
LINE
  5
28c
100
AcDbEntity
  8
0
 62
7
100
AcDbLine
 10
121.174838
 20
93.868719
 30
0.0
 11
117.180831
 21
93.868719
 31
0.0
  0
LINE
  5
28d
100
AcDbEntity
  8
0
 62
7
100
AcDbLine
 10
117.180831
 20
93.868719
 30
0.0
 11
117.180831
 21
95.865733
 31
0.0
  0
LINE
  5
28e
100
AcDbEntity
  8
0
 62
7
100
AcDbLine
 10
123.917099
 20
95.865733
 30
0.0
 11
127.911106
 21
95.865733
 31
0.0
  0
LINE
  5
28f
100
AcDbEntity
  8
0
 62
7
100
AcDbLine
 10
127.911106
 20
95.865733
 30
0.0
 11
127.911106
 21
93.868719
 31
0.0
  0
LINE
  5
290
100
AcDbEntity
  8
0
 62
7
100
AcDbLine
 10
127.911106
 20
93.868719
 30
0.0
 11
123.917099
 21
93.868719
 31
0.0
  0
LINE
  5
291
100
AcDbEntity
  8
0
 62
7
100
AcDbLine
 10
123.917099
 20
93.868719
 30
0.0
 11
123.917099
 21
95.865733
 31
0.0
  0
LINE
  5
292
100
AcDbEntity
  8
0
 62
7
100
AcDbLine
 10
76.580193
 20
91.999001
 30
0.0
 11
80.574205
 21
91.999001
 31
0.0
  0
LINE
  5
293
100
AcDbEntity
  8
0
 62
7
100
AcDbLine
 10
80.574205
 20
91.999001
 30
0.0
 11
80.574205
 21
90.001998
 31
0.0
  0
LINE
  5
294
100
AcDbEntity
  8
0
 62
7
100
AcDbLine
 10
80.574205
 20
90.001998
 30
0.0
 11
76.580193
 21
90.001998
 31
0.0
  0
LINE
  5
295
100
AcDbEntity
  8
0
 62
7
100
AcDbLine
 10
76.580193
 20
90.001998
 30
0.0
 11
76.580193
 21
91.999001
 31
0.0
  0
LINE
  5
296
100
AcDbEntity
  8
0
 62
7
100
AcDbLine
 10
83.316456
 20
91.999001
 30
0.0
 11
87.310468
 21
91.999001
 31
0.0
  0
LINE
  5
297
100
AcDbEntity
  8
0
 62
7
100
AcDbLine
 10
87.310468
 20
91.999001
 30
0.0
 11
87.310468
 21
90.001998
 31
0.0
  0
LINE
  5
298
100
AcDbEntity
  8
0
 62
7
100
AcDbLine
 10
87.310468
 20
90.001998
 30
0.0
 11
83.316456
 21
90.001998
 31
0.0
  0
LINE
  5
299
100
AcDbEntity
  8
0
 62
7
100
AcDbLine
 10
83.316456
 20
90.001998
 30
0.0
 11
83.316456
 21
91.999001
 31
0.0
  0
LINE
  5
29a
100
AcDbEntity
  8
0
 62
7
100
AcDbLine
 10
90.113739
 20
91.999001
 30
0.0
 11
94.107751
 21
91.999001
 31
0.0
  0
LINE
  5
29b
100
AcDbEntity
  8
0
 62
7
100
AcDbLine
 10
94.107751
 20
91.999001
 30
0.0
 11
94.107751
 21
90.001998
 31
0.0
  0
LINE
  5
29c
100
AcDbEntity
  8
0
 62
7
100
AcDbLine
 10
94.107751
 20
90.001998
 30
0.0
 11
90.113739
 21
90.001998
 31
0.0
  0
LINE
  5
29d
100
AcDbEntity
  8
0
 62
7
100
AcDbLine
 10
90.113739
 20
90.001998
 30
0.0
 11
90.113739
 21
91.999001
 31
0.0
  0
LINE
  5
29e
100
AcDbEntity
  8
0
 62
7
100
AcDbLine
 10
96.849999
 20
91.999001
 30
0.0
 11
100.844017
 21
91.999001
 31
0.0
  0
LINE
  5
29f
100
AcDbEntity
  8
0
 62
7
100
AcDbLine
 10
100.844017
 20
91.999001
 30
0.0
 11
100.844017
 21
90.001998
 31
0.0
  0
LINE
  5
2a0
100
AcDbEntity
  8
0
 62
7
100
AcDbLine
 10
100.844017
 20
90.001998
 30
0.0
 11
96.849999
 21
90.001998
 31
0.0
  0
LINE
  5
2a1
100
AcDbEntity
  8
0
 62
7
100
AcDbLine
 10
96.849999
 20
90.001998
 30
0.0
 11
96.849999
 21
91.999001
 31
0.0
  0
LINE
  5
2a2
100
AcDbEntity
  8
0
 62
7
100
AcDbLine
 10
103.647285
 20
91.999001
 30
0.0
 11
107.641292
 21
91.999001
 31
0.0
  0
LINE
  5
2a3
100
AcDbEntity
  8
0
 62
7
100
AcDbLine
 10
107.641292
 20
91.999001
 30
0.0
 11
107.641292
 21
90.001998
 31
0.0
  0
LINE
  5
2a4
100
AcDbEntity
  8
0
 62
7
100
AcDbLine
 10
107.641292
 20
90.001998
 30
0.0
 11
103.647285
 21
90.001998
 31
0.0
  0
LINE
  5
2a5
100
AcDbEntity
  8
0
 62
7
100
AcDbLine
 10
103.647285
 20
90.001998
 30
0.0
 11
103.647285
 21
91.999001
 31
0.0
  0
LINE
  5
2a6
100
AcDbEntity
  8
0
 62
7
100
AcDbLine
 10
110.383555
 20
91.999001
 30
0.0
 11
114.377563
 21
91.999001
 31
0.0
  0
LINE
  5
2a7
100
AcDbEntity
  8
0
 62
7
100
AcDbLine
 10
114.377563
 20
91.999001
 30
0.0
 11
114.377563
 21
90.001998
 31
0.0
  0
LINE
  5
2a8
100
AcDbEntity
  8
0
 62
7
100
AcDbLine
 10
114.377563
 20
90.001998
 30
0.0
 11
110.383555
 21
90.001998
 31
0.0
  0
LINE
  5
2a9
100
AcDbEntity
  8
0
 62
7
100
AcDbLine
 10
110.383555
 20
90.001998
 30
0.0
 11
110.383555
 21
91.999001
 31
0.0
  0
LINE
  5
2aa
100
AcDbEntity
  8
0
 62
7
100
AcDbLine
 10
117.180831
 20
91.999001
 30
0.0
 11
121.174838
 21
91.999001
 31
0.0
  0
LINE
  5
2ab
100
AcDbEntity
  8
0
 62
7
100
AcDbLine
 10
121.174838
 20
91.999001
 30
0.0
 11
121.174838
 21
90.001998
 31
0.0
  0
LINE
  5
2ac
100
AcDbEntity
  8
0
 62
7
100
AcDbLine
 10
121.174838
 20
90.001998
 30
0.0
 11
117.180831
 21
90.001998
 31
0.0
  0
LINE
  5
2ad
100
AcDbEntity
  8
0
 62
7
100
AcDbLine
 10
117.180831
 20
90.001998
 30
0.0
 11
117.180831
 21
91.999001
 31
0.0
  0
LINE
  5
2ae
100
AcDbEntity
  8
0
 62
7
100
AcDbLine
 10
123.917099
 20
91.999001
 30
0.0
 11
127.911106
 21
91.999001
 31
0.0
  0
LINE
  5
2af
100
AcDbEntity
  8
0
 62
7
100
AcDbLine
 10
127.911106
 20
91.999001
 30
0.0
 11
127.911106
 21
90.001998
 31
0.0
  0
LINE
  5
2b0
100
AcDbEntity
  8
0
 62
7
100
AcDbLine
 10
127.911106
 20
90.001998
 30
0.0
 11
123.917099
 21
90.001998
 31
0.0
  0
LINE
  5
2b1
100
AcDbEntity
  8
0
 62
7
100
AcDbLine
 10
123.917099
 20
90.001998
 30
0.0
 11
123.917099
 21
91.999001
 31
0.0
  0
LINE
  5
2b2
100
AcDbEntity
  8
0
 62
7
100
AcDbLine
 10
76.580193
 20
88.132277
 30
0.0
 11
80.574205
 21
88.132277
 31
0.0
  0
LINE
  5
2b3
100
AcDbEntity
  8
0
 62
7
100
AcDbLine
 10
80.574205
 20
88.132277
 30
0.0
 11
80.574205
 21
86.135263
 31
0.0
  0
LINE
  5
2b4
100
AcDbEntity
  8
0
 62
7
100
AcDbLine
 10
80.574205
 20
86.135263
 30
0.0
 11
76.580193
 21
86.135263
 31
0.0
  0
LINE
  5
2b5
100
AcDbEntity
  8
0
 62
7
100
AcDbLine
 10
76.580193
 20
86.135263
 30
0.0
 11
76.580193
 21
88.132277
 31
0.0
  0
LINE
  5
2b6
100
AcDbEntity
  8
0
 62
7
100
AcDbLine
 10
83.316456
 20
88.132277
 30
0.0
 11
87.310468
 21
88.132277
 31
0.0
  0
LINE
  5
2b7
100
AcDbEntity
  8
0
 62
7
100
AcDbLine
 10
87.310468
 20
88.132277
 30
0.0
 11
87.310468
 21
86.135263
 31
0.0
  0
LINE
  5
2b8
100
AcDbEntity
  8
0
 62
7
100
AcDbLine
 10
87.310468
 20
86.135263
 30
0.0
 11
83.316456
 21
86.135263
 31
0.0
  0
LINE
  5
2b9
100
AcDbEntity
  8
0
 62
7
100
AcDbLine
 10
83.316456
 20
86.135263
 30
0.0
 11
83.316456
 21
88.132277
 31
0.0
  0
LINE
  5
2ba
100
AcDbEntity
  8
0
 62
7
100
AcDbLine
 10
90.113739
 20
88.132277
 30
0.0
 11
94.107751
 21
88.132277
 31
0.0
  0
LINE
  5
2bb
100
AcDbEntity
  8
0
 62
7
100
AcDbLine
 10
94.107751
 20
88.132277
 30
0.0
 11
94.107751
 21
86.135263
 31
0.0
  0
LINE
  5
2bc
100
AcDbEntity
  8
0
 62
7
100
AcDbLine
 10
94.107751
 20
86.135263
 30
0.0
 11
90.113739
 21
86.135263
 31
0.0
  0
LINE
  5
2bd
100
AcDbEntity
  8
0
 62
7
100
AcDbLine
 10
90.113739
 20
86.135263
 30
0.0
 11
90.113739
 21
88.132277
 31
0.0
  0
LINE
  5
2be
100
AcDbEntity
  8
0
 62
7
100
AcDbLine
 10
96.849999
 20
88.132277
 30
0.0
 11
100.844017
 21
88.132277
 31
0.0
  0
LINE
  5
2bf
100
AcDbEntity
  8
0
 62
7
100
AcDbLine
 10
100.844017
 20
88.132277
 30
0.0
 11
100.844017
 21
86.135263
 31
0.0
  0
LINE
  5
2c0
100
AcDbEntity
  8
0
 62
7
100
AcDbLine
 10
100.844017
 20
86.135263
 30
0.0
 11
96.849999
 21
86.135263
 31
0.0
  0
LINE
  5
2c1
100
AcDbEntity
  8
0
 62
7
100
AcDbLine
 10
96.849999
 20
86.135263
 30
0.0
 11
96.849999
 21
88.132277
 31
0.0
  0
LINE
  5
2c2
100
AcDbEntity
  8
0
 62
7
100
AcDbLine
 10
103.647285
 20
88.132277
 30
0.0
 11
107.641292
 21
88.132277
 31
0.0
  0
LINE
  5
2c3
100
AcDbEntity
  8
0
 62
7
100
AcDbLine
 10
107.641292
 20
88.132277
 30
0.0
 11
107.641292
 21
86.135263
 31
0.0
  0
LINE
  5
2c4
100
AcDbEntity
  8
0
 62
7
100
AcDbLine
 10
107.641292
 20
86.135263
 30
0.0
 11
103.647285
 21
86.135263
 31
0.0
  0
LINE
  5
2c5
100
AcDbEntity
  8
0
 62
7
100
AcDbLine
 10
103.647285
 20
86.135263
 30
0.0
 11
103.647285
 21
88.132277
 31
0.0
  0
LINE
  5
2c6
100
AcDbEntity
  8
0
 62
7
100
AcDbLine
 10
110.383555
 20
88.132277
 30
0.0
 11
114.377563
 21
88.132277
 31
0.0
  0
LINE
  5
2c7
100
AcDbEntity
  8
0
 62
7
100
AcDbLine
 10
114.377563
 20
88.132277
 30
0.0
 11
114.377563
 21
86.135263
 31
0.0
  0
LINE
  5
2c8
100
AcDbEntity
  8
0
 62
7
100
AcDbLine
 10
114.377563
 20
86.135263
 30
0.0
 11
110.383555
 21
86.135263
 31
0.0
  0
LINE
  5
2c9
100
AcDbEntity
  8
0
 62
7
100
AcDbLine
 10
110.383555
 20
86.135263
 30
0.0
 11
110.383555
 21
88.132277
 31
0.0
  0
LINE
  5
2ca
100
AcDbEntity
  8
0
 62
7
100
AcDbLine
 10
117.180831
 20
88.132277
 30
0.0
 11
121.174838
 21
88.132277
 31
0.0
  0
LINE
  5
2cb
100
AcDbEntity
  8
0
 62
7
100
AcDbLine
 10
121.174838
 20
88.132277
 30
0.0
 11
121.174838
 21
86.135263
 31
0.0
  0
LINE
  5
2cc
100
AcDbEntity
  8
0
 62
7
100
AcDbLine
 10
121.174838
 20
86.135263
 30
0.0
 11
117.180831
 21
86.135263
 31
0.0
  0
LINE
  5
2cd
100
AcDbEntity
  8
0
 62
7
100
AcDbLine
 10
117.180831
 20
86.135263
 30
0.0
 11
117.180831
 21
88.132277
 31
0.0
  0
LINE
  5
2ce
100
AcDbEntity
  8
0
 62
7
100
AcDbLine
 10
123.917099
 20
88.132277
 30
0.0
 11
127.911106
 21
88.132277
 31
0.0
  0
LINE
  5
2cf
100
AcDbEntity
  8
0
 62
7
100
AcDbLine
 10
127.911106
 20
88.132277
 30
0.0
 11
127.911106
 21
86.135263
 31
0.0
  0
LINE
  5
2d0
100
AcDbEntity
  8
0
 62
7
100
AcDbLine
 10
127.911106
 20
86.135263
 30
0.0
 11
123.917099
 21
86.135263
 31
0.0
  0
LINE
  5
2d1
100
AcDbEntity
  8
0
 62
7
100
AcDbLine
 10
123.917099
 20
86.135263
 30
0.0
 11
123.917099
 21
88.132277
 31
0.0
  0
LINE
  5
2d2
100
AcDbEntity
  8
0
 62
7
100
AcDbLine
 10
129.717189
 20
84.265545
 30
0.0
 11
133.711196
 21
84.265545
 31
0.0
  0
LINE
  5
2d3
100
AcDbEntity
  8
0
 62
7
100
AcDbLine
 10
133.711196
 20
84.265545
 30
0.0
 11
133.711196
 21
82.268542
 31
0.0
  0
LINE
  5
2d4
100
AcDbEntity
  8
0
 62
7
100
AcDbLine
 10
133.711196
 20
82.268542
 30
0.0
 11
129.717189
 21
82.268542
 31
0.0
  0
LINE
  5
2d5
100
AcDbEntity
  8
0
 62
7
100
AcDbLine
 10
129.717189
 20
82.268542
 30
0.0
 11
129.717189
 21
84.265545
 31
0.0
  0
LINE
  5
2d6
100
AcDbEntity
  8
0
 62
7
100
AcDbLine
 10
129.717189
 20
80.398821
 30
0.0
 11
133.711196
 21
80.398821
 31
0.0
  0
LINE
  5
2d7
100
AcDbEntity
  8
0
 62
7
100
AcDbLine
 10
133.711196
 20
80.398821
 30
0.0
 11
133.711196
 21
78.401807
 31
0.0
  0
LINE
  5
2d8
100
AcDbEntity
  8
0
 62
7
100
AcDbLine
 10
133.711196
 20
78.401807
 30
0.0
 11
129.717189
 21
78.401807
 31
0.0
  0
LINE
  5
2d9
100
AcDbEntity
  8
0
 62
7
100
AcDbLine
 10
129.717189
 20
78.401807
 30
0.0
 11
129.717189
 21
80.398821
 31
0.0
  0
LINE
  5
2da
100
AcDbEntity
  8
0
 62
7
100
AcDbLine
 10
129.717189
 20
76.532089
 30
0.0
 11
133.711196
 21
76.532089
 31
0.0
  0
LINE
  5
2db
100
AcDbEntity
  8
0
 62
7
100
AcDbLine
 10
133.711196
 20
76.532089
 30
0.0
 11
133.711196
 21
74.535086
 31
0.0
  0
LINE
  5
2dc
100
AcDbEntity
  8
0
 62
7
100
AcDbLine
 10
133.711196
 20
74.535086
 30
0.0
 11
129.717189
 21
74.535086
 31
0.0
  0
LINE
  5
2dd
100
AcDbEntity
  8
0
 62
7
100
AcDbLine
 10
129.717189
 20
74.535086
 30
0.0
 11
129.717189
 21
76.532089
 31
0.0
  0
LINE
  5
2de
100
AcDbEntity
  8
0
 62
7
100
AcDbLine
 10
129.717189
 20
72.665365
 30
0.0
 11
133.711196
 21
72.665365
 31
0.0
  0
LINE
  5
2df
100
AcDbEntity
  8
0
 62
7
100
AcDbLine
 10
133.711196
 20
72.665365
 30
0.0
 11
133.711196
 21
70.668351
 31
0.0
  0
LINE
  5
2e0
100
AcDbEntity
  8
0
 62
7
100
AcDbLine
 10
133.711196
 20
70.668351
 30
0.0
 11
129.717189
 21
70.668351
 31
0.0
  0
LINE
  5
2e1
100
AcDbEntity
  8
0
 62
7
100
AcDbLine
 10
129.717189
 20
70.668351
 30
0.0
 11
129.717189
 21
72.665365
 31
0.0
  0
LINE
  5
2e2
100
AcDbEntity
  8
0
 62
7
100
AcDbLine
 10
129.717189
 20
68.798641
 30
0.0
 11
133.711196
 21
68.798641
 31
0.0
  0
LINE
  5
2e3
100
AcDbEntity
  8
0
 62
7
100
AcDbLine
 10
133.711196
 20
68.798641
 30
0.0
 11
133.711196
 21
66.801630
 31
0.0
  0
LINE
  5
2e4
100
AcDbEntity
  8
0
 62
7
100
AcDbLine
 10
133.711196
 20
66.801630
 30
0.0
 11
129.717189
 21
66.801630
 31
0.0
  0
LINE
  5
2e5
100
AcDbEntity
  8
0
 62
7
100
AcDbLine
 10
129.717189
 20
66.801630
 30
0.0
 11
129.717189
 21
68.798641
 31
0.0
  0
LINE
  5
2e6
100
AcDbEntity
  8
0
 62
7
100
AcDbLine
 10
129.717189
 20
91.999001
 30
0.0
 11
133.711196
 21
91.999001
 31
0.0
  0
LINE
  5
2e7
100
AcDbEntity
  8
0
 62
7
100
AcDbLine
 10
133.711196
 20
91.999001
 30
0.0
 11
133.711196
 21
90.001998
 31
0.0
  0
LINE
  5
2e8
100
AcDbEntity
  8
0
 62
7
100
AcDbLine
 10
133.711196
 20
90.001998
 30
0.0
 11
129.717189
 21
90.001998
 31
0.0
  0
LINE
  5
2e9
100
AcDbEntity
  8
0
 62
7
100
AcDbLine
 10
129.717189
 20
90.001998
 30
0.0
 11
129.717189
 21
91.999001
 31
0.0
  0
LINE
  5
2ea
100
AcDbEntity
  8
0
 62
7
100
AcDbLine
 10
129.717189
 20
88.132277
 30
0.0
 11
133.711196
 21
88.132277
 31
0.0
  0
LINE
  5
2eb
100
AcDbEntity
  8
0
 62
7
100
AcDbLine
 10
133.711196
 20
88.132277
 30
0.0
 11
133.711196
 21
86.135263
 31
0.0
  0
LINE
  5
2ec
100
AcDbEntity
  8
0
 62
7
100
AcDbLine
 10
133.711196
 20
86.135263
 30
0.0
 11
129.717189
 21
86.135263
 31
0.0
  0
LINE
  5
2ed
100
AcDbEntity
  8
0
 62
7
100
AcDbLine
 10
129.717189
 20
86.135263
 30
0.0
 11
129.717189
 21
88.132277
 31
0.0
  0
LINE
  5
2ee
100
AcDbEntity
  8
0
 62
7
100
AcDbLine
 10
135.517279
 20
84.265545
 30
0.0
 11
139.511286
 21
84.265545
 31
0.0
  0
LINE
  5
2ef
100
AcDbEntity
  8
0
 62
7
100
AcDbLine
 10
139.511286
 20
84.265545
 30
0.0
 11
139.511286
 21
82.268542
 31
0.0
  0
LINE
  5
2f0
100
AcDbEntity
  8
0
 62
7
100
AcDbLine
 10
139.511286
 20
82.268542
 30
0.0
 11
135.517279
 21
82.268542
 31
0.0
  0
LINE
  5
2f1
100
AcDbEntity
  8
0
 62
7
100
AcDbLine
 10
135.517279
 20
82.268542
 30
0.0
 11
135.517279
 21
84.265545
 31
0.0
  0
LINE
  5
2f2
100
AcDbEntity
  8
0
 62
7
100
AcDbLine
 10
135.517279
 20
80.398821
 30
0.0
 11
139.511286
 21
80.398821
 31
0.0
  0
LINE
  5
2f3
100
AcDbEntity
  8
0
 62
7
100
AcDbLine
 10
139.511286
 20
80.398821
 30
0.0
 11
139.511286
 21
78.401807
 31
0.0
  0
LINE
  5
2f4
100
AcDbEntity
  8
0
 62
7
100
AcDbLine
 10
139.511286
 20
78.401807
 30
0.0
 11
135.517279
 21
78.401807
 31
0.0
  0
LINE
  5
2f5
100
AcDbEntity
  8
0
 62
7
100
AcDbLine
 10
135.517279
 20
78.401807
 30
0.0
 11
135.517279
 21
80.398821
 31
0.0
  0
LINE
  5
2f6
100
AcDbEntity
  8
0
 62
7
100
AcDbLine
 10
135.517279
 20
76.532089
 30
0.0
 11
139.511286
 21
76.532089
 31
0.0
  0
LINE
  5
2f7
100
AcDbEntity
  8
0
 62
7
100
AcDbLine
 10
139.511286
 20
76.532089
 30
0.0
 11
139.511286
 21
74.535086
 31
0.0
  0
LINE
  5
2f8
100
AcDbEntity
  8
0
 62
7
100
AcDbLine
 10
139.511286
 20
74.535086
 30
0.0
 11
135.517279
 21
74.535086
 31
0.0
  0
LINE
  5
2f9
100
AcDbEntity
  8
0
 62
7
100
AcDbLine
 10
135.517279
 20
74.535086
 30
0.0
 11
135.517279
 21
76.532089
 31
0.0
  0
LINE
  5
2fa
100
AcDbEntity
  8
0
 62
7
100
AcDbLine
 10
135.517279
 20
72.665365
 30
0.0
 11
139.511286
 21
72.665365
 31
0.0
  0
LINE
  5
2fb
100
AcDbEntity
  8
0
 62
7
100
AcDbLine
 10
139.511286
 20
72.665365
 30
0.0
 11
139.511286
 21
70.668351
 31
0.0
  0
LINE
  5
2fc
100
AcDbEntity
  8
0
 62
7
100
AcDbLine
 10
139.511286
 20
70.668351
 30
0.0
 11
135.517279
 21
70.668351
 31
0.0
  0
LINE
  5
2fd
100
AcDbEntity
  8
0
 62
7
100
AcDbLine
 10
135.517279
 20
70.668351
 30
0.0
 11
135.517279
 21
72.665365
 31
0.0
  0
LINE
  5
2fe
100
AcDbEntity
  8
0
 62
7
100
AcDbLine
 10
135.517279
 20
68.798641
 30
0.0
 11
139.511286
 21
68.798641
 31
0.0
  0
LINE
  5
2ff
100
AcDbEntity
  8
0
 62
7
100
AcDbLine
 10
139.511286
 20
68.798641
 30
0.0
 11
139.511286
 21
66.801630
 31
0.0
  0
LINE
  5
300
100
AcDbEntity
  8
0
 62
7
100
AcDbLine
 10
139.511286
 20
66.801630
 30
0.0
 11
135.517279
 21
66.801630
 31
0.0
  0
LINE
  5
301
100
AcDbEntity
  8
0
 62
7
100
AcDbLine
 10
135.517279
 20
66.801630
 30
0.0
 11
135.517279
 21
68.798641
 31
0.0
  0
LINE
  5
302
100
AcDbEntity
  8
0
 62
7
100
AcDbLine
 10
135.517279
 20
88.132277
 30
0.0
 11
139.511286
 21
88.132277
 31
0.0
  0
LINE
  5
303
100
AcDbEntity
  8
0
 62
7
100
AcDbLine
 10
139.511286
 20
88.132277
 30
0.0
 11
139.511286
 21
86.135263
 31
0.0
  0
LINE
  5
304
100
AcDbEntity
  8
0
 62
7
100
AcDbLine
 10
139.511286
 20
86.135263
 30
0.0
 11
135.517279
 21
86.135263
 31
0.0
  0
LINE
  5
305
100
AcDbEntity
  8
0
 62
7
100
AcDbLine
 10
135.517279
 20
86.135263
 30
0.0
 11
135.517279
 21
88.132277
 31
0.0
  0
LINE
  5
306
100
AcDbEntity
  8
0
 62
7
100
AcDbLine
 10
141.317369
 20
76.532089
 30
0.0
 11
145.311387
 21
76.532089
 31
0.0
  0
LINE
  5
307
100
AcDbEntity
  8
0
 62
7
100
AcDbLine
 10
145.311387
 20
76.532089
 30
0.0
 11
145.311387
 21
74.535086
 31
0.0
  0
LINE
  5
308
100
AcDbEntity
  8
0
 62
7
100
AcDbLine
 10
145.311387
 20
74.535086
 30
0.0
 11
141.317369
 21
74.535086
 31
0.0
  0
LINE
  5
309
100
AcDbEntity
  8
0
 62
7
100
AcDbLine
 10
141.317369
 20
74.535086
 30
0.0
 11
141.317369
 21
76.532089
 31
0.0
  0
LINE
  5
30a
100
AcDbEntity
  8
0
 62
7
100
AcDbLine
 10
141.317369
 20
72.665365
 30
0.0
 11
145.311387
 21
72.665365
 31
0.0
  0
LINE
  5
30b
100
AcDbEntity
  8
0
 62
7
100
AcDbLine
 10
145.311387
 20
72.665365
 30
0.0
 11
145.311387
 21
70.668351
 31
0.0
  0
LINE
  5
30c
100
AcDbEntity
  8
0
 62
7
100
AcDbLine
 10
145.311387
 20
70.668351
 30
0.0
 11
141.317369
 21
70.668351
 31
0.0
  0
LINE
  5
30d
100
AcDbEntity
  8
0
 62
7
100
AcDbLine
 10
141.317369
 20
70.668351
 30
0.0
 11
141.317369
 21
72.665365
 31
0.0
  0
LINE
  5
30e
100
AcDbEntity
  8
0
 62
7
100
AcDbLine
 10
147.117459
 20
76.532089
 30
0.0
 11
151.111474
 21
76.532089
 31
0.0
  0
LINE
  5
30f
100
AcDbEntity
  8
0
 62
7
100
AcDbLine
 10
151.111474
 20
76.532089
 30
0.0
 11
151.111474
 21
74.535086
 31
0.0
  0
LINE
  5
310
100
AcDbEntity
  8
0
 62
7
100
AcDbLine
 10
151.111474
 20
74.535086
 30
0.0
 11
147.117459
 21
74.535086
 31
0.0
  0
LINE
  5
311
100
AcDbEntity
  8
0
 62
7
100
AcDbLine
 10
147.117459
 20
74.535086
 30
0.0
 11
147.117459
 21
76.532089
 31
0.0
  0
LINE
  5
312
100
AcDbEntity
  8
0
 62
7
100
AcDbLine
 10
147.117459
 20
72.665365
 30
0.0
 11
151.111474
 21
72.665365
 31
0.0
  0
LINE
  5
313
100
AcDbEntity
  8
0
 62
7
100
AcDbLine
 10
151.111474
 20
72.665365
 30
0.0
 11
151.111474
 21
70.668351
 31
0.0
  0
LINE
  5
314
100
AcDbEntity
  8
0
 62
7
100
AcDbLine
 10
151.111474
 20
70.668351
 30
0.0
 11
147.117459
 21
70.668351
 31
0.0
  0
LINE
  5
315
100
AcDbEntity
  8
0
 62
7
100
AcDbLine
 10
147.117459
 20
70.668351
 30
0.0
 11
147.117459
 21
72.665365
 31
0.0
  0
LINE
  5
316
100
AcDbEntity
  8
0
 62
7
100
AcDbLine
 10
22.446007
 20
84.265545
 30
0.0
 11
26.440019
 21
84.265545
 31
0.0
  0
LINE
  5
317
100
AcDbEntity
  8
0
 62
7
100
AcDbLine
 10
26.440019
 20
84.265545
 30
0.0
 11
26.440019
 21
82.268542
 31
0.0
  0
LINE
  5
318
100
AcDbEntity
  8
0
 62
7
100
AcDbLine
 10
26.440019
 20
82.268542
 30
0.0
 11
22.446007
 21
82.268542
 31
0.0
  0
LINE
  5
319
100
AcDbEntity
  8
0
 62
7
100
AcDbLine
 10
22.446007
 20
82.268542
 30
0.0
 11
22.446007
 21
84.265545
 31
0.0
  0
LINE
  5
31a
100
AcDbEntity
  8
0
 62
7
100
AcDbLine
 10
29.182269
 20
84.265545
 30
0.0
 11
33.176279
 21
84.265545
 31
0.0
  0
LINE
  5
31b
100
AcDbEntity
  8
0
 62
7
100
AcDbLine
 10
33.176279
 20
84.265545
 30
0.0
 11
33.176279
 21
82.268542
 31
0.0
  0
LINE
  5
31c
100
AcDbEntity
  8
0
 62
7
100
AcDbLine
 10
33.176279
 20
82.268542
 30
0.0
 11
29.182269
 21
82.268542
 31
0.0
  0
LINE
  5
31d
100
AcDbEntity
  8
0
 62
7
100
AcDbLine
 10
29.182269
 20
82.268542
 30
0.0
 11
29.182269
 21
84.265545
 31
0.0
  0
LINE
  5
31e
100
AcDbEntity
  8
0
 62
7
100
AcDbLine
 10
35.979552
 20
84.265545
 30
0.0
 11
39.973565
 21
84.265545
 31
0.0
  0
LINE
  5
31f
100
AcDbEntity
  8
0
 62
7
100
AcDbLine
 10
39.973565
 20
84.265545
 30
0.0
 11
39.973565
 21
82.268542
 31
0.0
  0
LINE
  5
320
100
AcDbEntity
  8
0
 62
7
100
AcDbLine
 10
39.973565
 20
82.268542
 30
0.0
 11
35.979552
 21
82.268542
 31
0.0
  0
LINE
  5
321
100
AcDbEntity
  8
0
 62
7
100
AcDbLine
 10
35.979552
 20
82.268542
 30
0.0
 11
35.979552
 21
84.265545
 31
0.0
  0
LINE
  5
322
100
AcDbEntity
  8
0
 62
7
100
AcDbLine
 10
42.715815
 20
84.265545
 30
0.0
 11
46.709827
 21
84.265545
 31
0.0
  0
LINE
  5
323
100
AcDbEntity
  8
0
 62
7
100
AcDbLine
 10
46.709827
 20
84.265545
 30
0.0
 11
46.709827
 21
82.268542
 31
0.0
  0
LINE
  5
324
100
AcDbEntity
  8
0
 62
7
100
AcDbLine
 10
46.709827
 20
82.268542
 30
0.0
 11
42.715815
 21
82.268542
 31
0.0
  0
LINE
  5
325
100
AcDbEntity
  8
0
 62
7
100
AcDbLine
 10
42.715815
 20
82.268542
 30
0.0
 11
42.715815
 21
84.265545
 31
0.0
  0
LINE
  5
326
100
AcDbEntity
  8
0
 62
7
100
AcDbLine
 10
49.513101
 20
84.265545
 30
0.0
 11
53.507111
 21
84.265545
 31
0.0
  0
LINE
  5
327
100
AcDbEntity
  8
0
 62
7
100
AcDbLine
 10
53.507111
 20
84.265545
 30
0.0
 11
53.507111
 21
82.268542
 31
0.0
  0
LINE
  5
328
100
AcDbEntity
  8
0
 62
7
100
AcDbLine
 10
53.507111
 20
82.268542
 30
0.0
 11
49.513101
 21
82.268542
 31
0.0
  0
LINE
  5
329
100
AcDbEntity
  8
0
 62
7
100
AcDbLine
 10
49.513101
 20
82.268542
 30
0.0
 11
49.513101
 21
84.265545
 31
0.0
  0
LINE
  5
32a
100
AcDbEntity
  8
0
 62
7
100
AcDbLine
 10
56.249364
 20
84.265545
 30
0.0
 11
60.243376
 21
84.265545
 31
0.0
  0
LINE
  5
32b
100
AcDbEntity
  8
0
 62
7
100
AcDbLine
 10
60.243376
 20
84.265545
 30
0.0
 11
60.243376
 21
82.268542
 31
0.0
  0
LINE
  5
32c
100
AcDbEntity
  8
0
 62
7
100
AcDbLine
 10
60.243376
 20
82.268542
 30
0.0
 11
56.249364
 21
82.268542
 31
0.0
  0
LINE
  5
32d
100
AcDbEntity
  8
0
 62
7
100
AcDbLine
 10
56.249364
 20
82.268542
 30
0.0
 11
56.249364
 21
84.265545
 31
0.0
  0
LINE
  5
32e
100
AcDbEntity
  8
0
 62
7
100
AcDbLine
 10
63.046647
 20
84.265545
 30
0.0
 11
67.040659
 21
84.265545
 31
0.0
  0
LINE
  5
32f
100
AcDbEntity
  8
0
 62
7
100
AcDbLine
 10
67.040659
 20
84.265545
 30
0.0
 11
67.040659
 21
82.268542
 31
0.0
  0
LINE
  5
330
100
AcDbEntity
  8
0
 62
7
100
AcDbLine
 10
67.040659
 20
82.268542
 30
0.0
 11
63.046647
 21
82.268542
 31
0.0
  0
LINE
  5
331
100
AcDbEntity
  8
0
 62
7
100
AcDbLine
 10
63.046647
 20
82.268542
 30
0.0
 11
63.046647
 21
84.265545
 31
0.0
  0
LINE
  5
332
100
AcDbEntity
  8
0
 62
7
100
AcDbLine
 10
69.782910
 20
84.265545
 30
0.0
 11
73.776922
 21
84.265545
 31
0.0
  0
LINE
  5
333
100
AcDbEntity
  8
0
 62
7
100
AcDbLine
 10
73.776922
 20
84.265545
 30
0.0
 11
73.776922
 21
82.268542
 31
0.0
  0
LINE
  5
334
100
AcDbEntity
  8
0
 62
7
100
AcDbLine
 10
73.776922
 20
82.268542
 30
0.0
 11
69.782910
 21
82.268542
 31
0.0
  0
LINE
  5
335
100
AcDbEntity
  8
0
 62
7
100
AcDbLine
 10
69.782910
 20
82.268542
 30
0.0
 11
69.782910
 21
84.265545
 31
0.0
  0
LINE
  5
336
100
AcDbEntity
  8
0
 62
7
100
AcDbLine
 10
22.446007
 20
80.398821
 30
0.0
 11
26.440019
 21
80.398821
 31
0.0
  0
LINE
  5
337
100
AcDbEntity
  8
0
 62
7
100
AcDbLine
 10
26.440019
 20
80.398821
 30
0.0
 11
26.440019
 21
78.401807
 31
0.0
  0
LINE
  5
338
100
AcDbEntity
  8
0
 62
7
100
AcDbLine
 10
26.440019
 20
78.401807
 30
0.0
 11
22.446007
 21
78.401807
 31
0.0
  0
LINE
  5
339
100
AcDbEntity
  8
0
 62
7
100
AcDbLine
 10
22.446007
 20
78.401807
 30
0.0
 11
22.446007
 21
80.398821
 31
0.0
  0
LINE
  5
33a
100
AcDbEntity
  8
0
 62
7
100
AcDbLine
 10
29.182269
 20
80.398821
 30
0.0
 11
33.176279
 21
80.398821
 31
0.0
  0
LINE
  5
33b
100
AcDbEntity
  8
0
 62
7
100
AcDbLine
 10
33.176279
 20
80.398821
 30
0.0
 11
33.176279
 21
78.401807
 31
0.0
  0
LINE
  5
33c
100
AcDbEntity
  8
0
 62
7
100
AcDbLine
 10
33.176279
 20
78.401807
 30
0.0
 11
29.182269
 21
78.401807
 31
0.0
  0
LINE
  5
33d
100
AcDbEntity
  8
0
 62
7
100
AcDbLine
 10
29.182269
 20
78.401807
 30
0.0
 11
29.182269
 21
80.398821
 31
0.0
  0
LINE
  5
33e
100
AcDbEntity
  8
0
 62
7
100
AcDbLine
 10
35.979552
 20
80.398821
 30
0.0
 11
39.973565
 21
80.398821
 31
0.0
  0
LINE
  5
33f
100
AcDbEntity
  8
0
 62
7
100
AcDbLine
 10
39.973565
 20
80.398821
 30
0.0
 11
39.973565
 21
78.401807
 31
0.0
  0
LINE
  5
340
100
AcDbEntity
  8
0
 62
7
100
AcDbLine
 10
39.973565
 20
78.401807
 30
0.0
 11
35.979552
 21
78.401807
 31
0.0
  0
LINE
  5
341
100
AcDbEntity
  8
0
 62
7
100
AcDbLine
 10
35.979552
 20
78.401807
 30
0.0
 11
35.979552
 21
80.398821
 31
0.0
  0
LINE
  5
342
100
AcDbEntity
  8
0
 62
7
100
AcDbLine
 10
42.715815
 20
80.398821
 30
0.0
 11
46.709827
 21
80.398821
 31
0.0
  0
LINE
  5
343
100
AcDbEntity
  8
0
 62
7
100
AcDbLine
 10
46.709827
 20
80.398821
 30
0.0
 11
46.709827
 21
78.401807
 31
0.0
  0
LINE
  5
344
100
AcDbEntity
  8
0
 62
7
100
AcDbLine
 10
46.709827
 20
78.401807
 30
0.0
 11
42.715815
 21
78.401807
 31
0.0
  0
LINE
  5
345
100
AcDbEntity
  8
0
 62
7
100
AcDbLine
 10
42.715815
 20
78.401807
 30
0.0
 11
42.715815
 21
80.398821
 31
0.0
  0
LINE
  5
346
100
AcDbEntity
  8
0
 62
7
100
AcDbLine
 10
49.513101
 20
80.398821
 30
0.0
 11
53.507111
 21
80.398821
 31
0.0
  0
LINE
  5
347
100
AcDbEntity
  8
0
 62
7
100
AcDbLine
 10
53.507111
 20
80.398821
 30
0.0
 11
53.507111
 21
78.401807
 31
0.0
  0
LINE
  5
348
100
AcDbEntity
  8
0
 62
7
100
AcDbLine
 10
53.507111
 20
78.401807
 30
0.0
 11
49.513101
 21
78.401807
 31
0.0
  0
LINE
  5
349
100
AcDbEntity
  8
0
 62
7
100
AcDbLine
 10
49.513101
 20
78.401807
 30
0.0
 11
49.513101
 21
80.398821
 31
0.0
  0
LINE
  5
34a
100
AcDbEntity
  8
0
 62
7
100
AcDbLine
 10
56.249364
 20
80.398821
 30
0.0
 11
60.243376
 21
80.398821
 31
0.0
  0
LINE
  5
34b
100
AcDbEntity
  8
0
 62
7
100
AcDbLine
 10
60.243376
 20
80.398821
 30
0.0
 11
60.243376
 21
78.401807
 31
0.0
  0
LINE
  5
34c
100
AcDbEntity
  8
0
 62
7
100
AcDbLine
 10
60.243376
 20
78.401807
 30
0.0
 11
56.249364
 21
78.401807
 31
0.0
  0
LINE
  5
34d
100
AcDbEntity
  8
0
 62
7
100
AcDbLine
 10
56.249364
 20
78.401807
 30
0.0
 11
56.249364
 21
80.398821
 31
0.0
  0
LINE
  5
34e
100
AcDbEntity
  8
0
 62
7
100
AcDbLine
 10
63.046647
 20
80.398821
 30
0.0
 11
67.040659
 21
80.398821
 31
0.0
  0
LINE
  5
34f
100
AcDbEntity
  8
0
 62
7
100
AcDbLine
 10
67.040659
 20
80.398821
 30
0.0
 11
67.040659
 21
78.401807
 31
0.0
  0
LINE
  5
350
100
AcDbEntity
  8
0
 62
7
100
AcDbLine
 10
67.040659
 20
78.401807
 30
0.0
 11
63.046647
 21
78.401807
 31
0.0
  0
LINE
  5
351
100
AcDbEntity
  8
0
 62
7
100
AcDbLine
 10
63.046647
 20
78.401807
 30
0.0
 11
63.046647
 21
80.398821
 31
0.0
  0
LINE
  5
352
100
AcDbEntity
  8
0
 62
7
100
AcDbLine
 10
69.782910
 20
80.398821
 30
0.0
 11
73.776922
 21
80.398821
 31
0.0
  0
LINE
  5
353
100
AcDbEntity
  8
0
 62
7
100
AcDbLine
 10
73.776922
 20
80.398821
 30
0.0
 11
73.776922
 21
78.401807
 31
0.0
  0
LINE
  5
354
100
AcDbEntity
  8
0
 62
7
100
AcDbLine
 10
73.776922
 20
78.401807
 30
0.0
 11
69.782910
 21
78.401807
 31
0.0
  0
LINE
  5
355
100
AcDbEntity
  8
0
 62
7
100
AcDbLine
 10
69.782910
 20
78.401807
 30
0.0
 11
69.782910
 21
80.398821
 31
0.0
  0
LINE
  5
356
100
AcDbEntity
  8
0
 62
7
100
AcDbLine
 10
22.446007
 20
76.532089
 30
0.0
 11
26.440019
 21
76.532089
 31
0.0
  0
LINE
  5
357
100
AcDbEntity
  8
0
 62
7
100
AcDbLine
 10
26.440019
 20
76.532089
 30
0.0
 11
26.440019
 21
74.535086
 31
0.0
  0
LINE
  5
358
100
AcDbEntity
  8
0
 62
7
100
AcDbLine
 10
26.440019
 20
74.535086
 30
0.0
 11
22.446007
 21
74.535086
 31
0.0
  0
LINE
  5
359
100
AcDbEntity
  8
0
 62
7
100
AcDbLine
 10
22.446007
 20
74.535086
 30
0.0
 11
22.446007
 21
76.532089
 31
0.0
  0
LINE
  5
35a
100
AcDbEntity
  8
0
 62
7
100
AcDbLine
 10
29.182269
 20
76.532089
 30
0.0
 11
33.176279
 21
76.532089
 31
0.0
  0
LINE
  5
35b
100
AcDbEntity
  8
0
 62
7
100
AcDbLine
 10
33.176279
 20
76.532089
 30
0.0
 11
33.176279
 21
74.535086
 31
0.0
  0
LINE
  5
35c
100
AcDbEntity
  8
0
 62
7
100
AcDbLine
 10
33.176279
 20
74.535086
 30
0.0
 11
29.182269
 21
74.535086
 31
0.0
  0
LINE
  5
35d
100
AcDbEntity
  8
0
 62
7
100
AcDbLine
 10
29.182269
 20
74.535086
 30
0.0
 11
29.182269
 21
76.532089
 31
0.0
  0
LINE
  5
35e
100
AcDbEntity
  8
0
 62
7
100
AcDbLine
 10
35.979552
 20
76.532089
 30
0.0
 11
39.973565
 21
76.532089
 31
0.0
  0
LINE
  5
35f
100
AcDbEntity
  8
0
 62
7
100
AcDbLine
 10
39.973565
 20
76.532089
 30
0.0
 11
39.973565
 21
74.535086
 31
0.0
  0
LINE
  5
360
100
AcDbEntity
  8
0
 62
7
100
AcDbLine
 10
39.973565
 20
74.535086
 30
0.0
 11
35.979552
 21
74.535086
 31
0.0
  0
LINE
  5
361
100
AcDbEntity
  8
0
 62
7
100
AcDbLine
 10
35.979552
 20
74.535086
 30
0.0
 11
35.979552
 21
76.532089
 31
0.0
  0
LINE
  5
362
100
AcDbEntity
  8
0
 62
7
100
AcDbLine
 10
42.715815
 20
76.532089
 30
0.0
 11
46.709827
 21
76.532089
 31
0.0
  0
LINE
  5
363
100
AcDbEntity
  8
0
 62
7
100
AcDbLine
 10
46.709827
 20
76.532089
 30
0.0
 11
46.709827
 21
74.535086
 31
0.0
  0
LINE
  5
364
100
AcDbEntity
  8
0
 62
7
100
AcDbLine
 10
46.709827
 20
74.535086
 30
0.0
 11
42.715815
 21
74.535086
 31
0.0
  0
LINE
  5
365
100
AcDbEntity
  8
0
 62
7
100
AcDbLine
 10
42.715815
 20
74.535086
 30
0.0
 11
42.715815
 21
76.532089
 31
0.0
  0
LINE
  5
366
100
AcDbEntity
  8
0
 62
7
100
AcDbLine
 10
49.513101
 20
76.532089
 30
0.0
 11
53.507111
 21
76.532089
 31
0.0
  0
LINE
  5
367
100
AcDbEntity
  8
0
 62
7
100
AcDbLine
 10
53.507111
 20
76.532089
 30
0.0
 11
53.507111
 21
74.535086
 31
0.0
  0
LINE
  5
368
100
AcDbEntity
  8
0
 62
7
100
AcDbLine
 10
53.507111
 20
74.535086
 30
0.0
 11
49.513101
 21
74.535086
 31
0.0
  0
LINE
  5
369
100
AcDbEntity
  8
0
 62
7
100
AcDbLine
 10
49.513101
 20
74.535086
 30
0.0
 11
49.513101
 21
76.532089
 31
0.0
  0
LINE
  5
36a
100
AcDbEntity
  8
0
 62
7
100
AcDbLine
 10
56.249364
 20
76.532089
 30
0.0
 11
60.243376
 21
76.532089
 31
0.0
  0
LINE
  5
36b
100
AcDbEntity
  8
0
 62
7
100
AcDbLine
 10
60.243376
 20
76.532089
 30
0.0
 11
60.243376
 21
74.535086
 31
0.0
  0
LINE
  5
36c
100
AcDbEntity
  8
0
 62
7
100
AcDbLine
 10
60.243376
 20
74.535086
 30
0.0
 11
56.249364
 21
74.535086
 31
0.0
  0
LINE
  5
36d
100
AcDbEntity
  8
0
 62
7
100
AcDbLine
 10
56.249364
 20
74.535086
 30
0.0
 11
56.249364
 21
76.532089
 31
0.0
  0
LINE
  5
36e
100
AcDbEntity
  8
0
 62
7
100
AcDbLine
 10
63.046647
 20
76.532089
 30
0.0
 11
67.040659
 21
76.532089
 31
0.0
  0
LINE
  5
36f
100
AcDbEntity
  8
0
 62
7
100
AcDbLine
 10
67.040659
 20
76.532089
 30
0.0
 11
67.040659
 21
74.535086
 31
0.0
  0
LINE
  5
370
100
AcDbEntity
  8
0
 62
7
100
AcDbLine
 10
67.040659
 20
74.535086
 30
0.0
 11
63.046647
 21
74.535086
 31
0.0
  0
LINE
  5
371
100
AcDbEntity
  8
0
 62
7
100
AcDbLine
 10
63.046647
 20
74.535086
 30
0.0
 11
63.046647
 21
76.532089
 31
0.0
  0
LINE
  5
372
100
AcDbEntity
  8
0
 62
7
100
AcDbLine
 10
69.782910
 20
76.532089
 30
0.0
 11
73.776922
 21
76.532089
 31
0.0
  0
LINE
  5
373
100
AcDbEntity
  8
0
 62
7
100
AcDbLine
 10
73.776922
 20
76.532089
 30
0.0
 11
73.776922
 21
74.535086
 31
0.0
  0
LINE
  5
374
100
AcDbEntity
  8
0
 62
7
100
AcDbLine
 10
73.776922
 20
74.535086
 30
0.0
 11
69.782910
 21
74.535086
 31
0.0
  0
LINE
  5
375
100
AcDbEntity
  8
0
 62
7
100
AcDbLine
 10
69.782910
 20
74.535086
 30
0.0
 11
69.782910
 21
76.532089
 31
0.0
  0
LINE
  5
376
100
AcDbEntity
  8
0
 62
7
100
AcDbLine
 10
22.446007
 20
72.665365
 30
0.0
 11
26.440019
 21
72.665365
 31
0.0
  0
LINE
  5
377
100
AcDbEntity
  8
0
 62
7
100
AcDbLine
 10
26.440019
 20
72.665365
 30
0.0
 11
26.440019
 21
70.668351
 31
0.0
  0
LINE
  5
378
100
AcDbEntity
  8
0
 62
7
100
AcDbLine
 10
26.440019
 20
70.668351
 30
0.0
 11
22.446007
 21
70.668351
 31
0.0
  0
LINE
  5
379
100
AcDbEntity
  8
0
 62
7
100
AcDbLine
 10
22.446007
 20
70.668351
 30
0.0
 11
22.446007
 21
72.665365
 31
0.0
  0
LINE
  5
37a
100
AcDbEntity
  8
0
 62
7
100
AcDbLine
 10
29.182269
 20
72.665365
 30
0.0
 11
33.176279
 21
72.665365
 31
0.0
  0
LINE
  5
37b
100
AcDbEntity
  8
0
 62
7
100
AcDbLine
 10
33.176279
 20
72.665365
 30
0.0
 11
33.176279
 21
70.668351
 31
0.0
  0
LINE
  5
37c
100
AcDbEntity
  8
0
 62
7
100
AcDbLine
 10
33.176279
 20
70.668351
 30
0.0
 11
29.182269
 21
70.668351
 31
0.0
  0
LINE
  5
37d
100
AcDbEntity
  8
0
 62
7
100
AcDbLine
 10
29.182269
 20
70.668351
 30
0.0
 11
29.182269
 21
72.665365
 31
0.0
  0
LINE
  5
37e
100
AcDbEntity
  8
0
 62
7
100
AcDbLine
 10
35.979552
 20
72.665365
 30
0.0
 11
39.973565
 21
72.665365
 31
0.0
  0
LINE
  5
37f
100
AcDbEntity
  8
0
 62
7
100
AcDbLine
 10
39.973565
 20
72.665365
 30
0.0
 11
39.973565
 21
70.668351
 31
0.0
  0
LINE
  5
380
100
AcDbEntity
  8
0
 62
7
100
AcDbLine
 10
39.973565
 20
70.668351
 30
0.0
 11
35.979552
 21
70.668351
 31
0.0
  0
LINE
  5
381
100
AcDbEntity
  8
0
 62
7
100
AcDbLine
 10
35.979552
 20
70.668351
 30
0.0
 11
35.979552
 21
72.665365
 31
0.0
  0
LINE
  5
382
100
AcDbEntity
  8
0
 62
7
100
AcDbLine
 10
42.715815
 20
72.665365
 30
0.0
 11
46.709827
 21
72.665365
 31
0.0
  0
LINE
  5
383
100
AcDbEntity
  8
0
 62
7
100
AcDbLine
 10
46.709827
 20
72.665365
 30
0.0
 11
46.709827
 21
70.668351
 31
0.0
  0
LINE
  5
384
100
AcDbEntity
  8
0
 62
7
100
AcDbLine
 10
46.709827
 20
70.668351
 30
0.0
 11
42.715815
 21
70.668351
 31
0.0
  0
LINE
  5
385
100
AcDbEntity
  8
0
 62
7
100
AcDbLine
 10
42.715815
 20
70.668351
 30
0.0
 11
42.715815
 21
72.665365
 31
0.0
  0
LINE
  5
386
100
AcDbEntity
  8
0
 62
7
100
AcDbLine
 10
49.513101
 20
72.665365
 30
0.0
 11
53.507111
 21
72.665365
 31
0.0
  0
LINE
  5
387
100
AcDbEntity
  8
0
 62
7
100
AcDbLine
 10
53.507111
 20
72.665365
 30
0.0
 11
53.507111
 21
70.668351
 31
0.0
  0
LINE
  5
388
100
AcDbEntity
  8
0
 62
7
100
AcDbLine
 10
53.507111
 20
70.668351
 30
0.0
 11
49.513101
 21
70.668351
 31
0.0
  0
LINE
  5
389
100
AcDbEntity
  8
0
 62
7
100
AcDbLine
 10
49.513101
 20
70.668351
 30
0.0
 11
49.513101
 21
72.665365
 31
0.0
  0
LINE
  5
38a
100
AcDbEntity
  8
0
 62
7
100
AcDbLine
 10
56.249364
 20
72.665365
 30
0.0
 11
60.243376
 21
72.665365
 31
0.0
  0
LINE
  5
38b
100
AcDbEntity
  8
0
 62
7
100
AcDbLine
 10
60.243376
 20
72.665365
 30
0.0
 11
60.243376
 21
70.668351
 31
0.0
  0
LINE
  5
38c
100
AcDbEntity
  8
0
 62
7
100
AcDbLine
 10
60.243376
 20
70.668351
 30
0.0
 11
56.249364
 21
70.668351
 31
0.0
  0
LINE
  5
38d
100
AcDbEntity
  8
0
 62
7
100
AcDbLine
 10
56.249364
 20
70.668351
 30
0.0
 11
56.249364
 21
72.665365
 31
0.0
  0
LINE
  5
38e
100
AcDbEntity
  8
0
 62
7
100
AcDbLine
 10
63.046647
 20
72.665365
 30
0.0
 11
67.040659
 21
72.665365
 31
0.0
  0
LINE
  5
38f
100
AcDbEntity
  8
0
 62
7
100
AcDbLine
 10
67.040659
 20
72.665365
 30
0.0
 11
67.040659
 21
70.668351
 31
0.0
  0
LINE
  5
390
100
AcDbEntity
  8
0
 62
7
100
AcDbLine
 10
67.040659
 20
70.668351
 30
0.0
 11
63.046647
 21
70.668351
 31
0.0
  0
LINE
  5
391
100
AcDbEntity
  8
0
 62
7
100
AcDbLine
 10
63.046647
 20
70.668351
 30
0.0
 11
63.046647
 21
72.665365
 31
0.0
  0
LINE
  5
392
100
AcDbEntity
  8
0
 62
7
100
AcDbLine
 10
69.782910
 20
72.665365
 30
0.0
 11
73.776922
 21
72.665365
 31
0.0
  0
LINE
  5
393
100
AcDbEntity
  8
0
 62
7
100
AcDbLine
 10
73.776922
 20
72.665365
 30
0.0
 11
73.776922
 21
70.668351
 31
0.0
  0
LINE
  5
394
100
AcDbEntity
  8
0
 62
7
100
AcDbLine
 10
73.776922
 20
70.668351
 30
0.0
 11
69.782910
 21
70.668351
 31
0.0
  0
LINE
  5
395
100
AcDbEntity
  8
0
 62
7
100
AcDbLine
 10
69.782910
 20
70.668351
 30
0.0
 11
69.782910
 21
72.665365
 31
0.0
  0
LINE
  5
396
100
AcDbEntity
  8
0
 62
7
100
AcDbLine
 10
22.446007
 20
68.798641
 30
0.0
 11
26.440019
 21
68.798641
 31
0.0
  0
LINE
  5
397
100
AcDbEntity
  8
0
 62
7
100
AcDbLine
 10
26.440019
 20
68.798641
 30
0.0
 11
26.440019
 21
66.801630
 31
0.0
  0
LINE
  5
398
100
AcDbEntity
  8
0
 62
7
100
AcDbLine
 10
26.440019
 20
66.801630
 30
0.0
 11
22.446007
 21
66.801630
 31
0.0
  0
LINE
  5
399
100
AcDbEntity
  8
0
 62
7
100
AcDbLine
 10
22.446007
 20
66.801630
 30
0.0
 11
22.446007
 21
68.798641
 31
0.0
  0
LINE
  5
39a
100
AcDbEntity
  8
0
 62
7
100
AcDbLine
 10
29.182269
 20
68.798641
 30
0.0
 11
33.176279
 21
68.798641
 31
0.0
  0
LINE
  5
39b
100
AcDbEntity
  8
0
 62
7
100
AcDbLine
 10
33.176279
 20
68.798641
 30
0.0
 11
33.176279
 21
66.801630
 31
0.0
  0
LINE
  5
39c
100
AcDbEntity
  8
0
 62
7
100
AcDbLine
 10
33.176279
 20
66.801630
 30
0.0
 11
29.182269
 21
66.801630
 31
0.0
  0
LINE
  5
39d
100
AcDbEntity
  8
0
 62
7
100
AcDbLine
 10
29.182269
 20
66.801630
 30
0.0
 11
29.182269
 21
68.798641
 31
0.0
  0
LINE
  5
39e
100
AcDbEntity
  8
0
 62
7
100
AcDbLine
 10
35.979552
 20
68.798641
 30
0.0
 11
39.973565
 21
68.798641
 31
0.0
  0
LINE
  5
39f
100
AcDbEntity
  8
0
 62
7
100
AcDbLine
 10
39.973565
 20
68.798641
 30
0.0
 11
39.973565
 21
66.801630
 31
0.0
  0
LINE
  5
3a0
100
AcDbEntity
  8
0
 62
7
100
AcDbLine
 10
39.973565
 20
66.801630
 30
0.0
 11
35.979552
 21
66.801630
 31
0.0
  0
LINE
  5
3a1
100
AcDbEntity
  8
0
 62
7
100
AcDbLine
 10
35.979552
 20
66.801630
 30
0.0
 11
35.979552
 21
68.798641
 31
0.0
  0
LINE
  5
3a2
100
AcDbEntity
  8
0
 62
7
100
AcDbLine
 10
42.715815
 20
68.798641
 30
0.0
 11
46.709827
 21
68.798641
 31
0.0
  0
LINE
  5
3a3
100
AcDbEntity
  8
0
 62
7
100
AcDbLine
 10
46.709827
 20
68.798641
 30
0.0
 11
46.709827
 21
66.801630
 31
0.0
  0
LINE
  5
3a4
100
AcDbEntity
  8
0
 62
7
100
AcDbLine
 10
46.709827
 20
66.801630
 30
0.0
 11
42.715815
 21
66.801630
 31
0.0
  0
LINE
  5
3a5
100
AcDbEntity
  8
0
 62
7
100
AcDbLine
 10
42.715815
 20
66.801630
 30
0.0
 11
42.715815
 21
68.798641
 31
0.0
  0
LINE
  5
3a6
100
AcDbEntity
  8
0
 62
7
100
AcDbLine
 10
49.513101
 20
68.798641
 30
0.0
 11
53.507111
 21
68.798641
 31
0.0
  0
LINE
  5
3a7
100
AcDbEntity
  8
0
 62
7
100
AcDbLine
 10
53.507111
 20
68.798641
 30
0.0
 11
53.507111
 21
66.801630
 31
0.0
  0
LINE
  5
3a8
100
AcDbEntity
  8
0
 62
7
100
AcDbLine
 10
53.507111
 20
66.801630
 30
0.0
 11
49.513101
 21
66.801630
 31
0.0
  0
LINE
  5
3a9
100
AcDbEntity
  8
0
 62
7
100
AcDbLine
 10
49.513101
 20
66.801630
 30
0.0
 11
49.513101
 21
68.798641
 31
0.0
  0
LINE
  5
3aa
100
AcDbEntity
  8
0
 62
7
100
AcDbLine
 10
56.249364
 20
68.798641
 30
0.0
 11
60.243376
 21
68.798641
 31
0.0
  0
LINE
  5
3ab
100
AcDbEntity
  8
0
 62
7
100
AcDbLine
 10
60.243376
 20
68.798641
 30
0.0
 11
60.243376
 21
66.801630
 31
0.0
  0
LINE
  5
3ac
100
AcDbEntity
  8
0
 62
7
100
AcDbLine
 10
60.243376
 20
66.801630
 30
0.0
 11
56.249364
 21
66.801630
 31
0.0
  0
LINE
  5
3ad
100
AcDbEntity
  8
0
 62
7
100
AcDbLine
 10
56.249364
 20
66.801630
 30
0.0
 11
56.249364
 21
68.798641
 31
0.0
  0
LINE
  5
3ae
100
AcDbEntity
  8
0
 62
7
100
AcDbLine
 10
63.046647
 20
68.798641
 30
0.0
 11
67.040659
 21
68.798641
 31
0.0
  0
LINE
  5
3af
100
AcDbEntity
  8
0
 62
7
100
AcDbLine
 10
67.040659
 20
68.798641
 30
0.0
 11
67.040659
 21
66.801630
 31
0.0
  0
LINE
  5
3b0
100
AcDbEntity
  8
0
 62
7
100
AcDbLine
 10
67.040659
 20
66.801630
 30
0.0
 11
63.046647
 21
66.801630
 31
0.0
  0
LINE
  5
3b1
100
AcDbEntity
  8
0
 62
7
100
AcDbLine
 10
63.046647
 20
66.801630
 30
0.0
 11
63.046647
 21
68.798641
 31
0.0
  0
LINE
  5
3b2
100
AcDbEntity
  8
0
 62
7
100
AcDbLine
 10
69.782910
 20
68.798641
 30
0.0
 11
73.776922
 21
68.798641
 31
0.0
  0
LINE
  5
3b3
100
AcDbEntity
  8
0
 62
7
100
AcDbLine
 10
73.776922
 20
68.798641
 30
0.0
 11
73.776922
 21
66.801630
 31
0.0
  0
LINE
  5
3b4
100
AcDbEntity
  8
0
 62
7
100
AcDbLine
 10
73.776922
 20
66.801630
 30
0.0
 11
69.782910
 21
66.801630
 31
0.0
  0
LINE
  5
3b5
100
AcDbEntity
  8
0
 62
7
100
AcDbLine
 10
69.782910
 20
66.801630
 30
0.0
 11
69.782910
 21
68.798641
 31
0.0
  0
LINE
  5
3b6
100
AcDbEntity
  8
0
 62
7
100
AcDbLine
 10
22.446007
 20
95.865733
 30
0.0
 11
26.440019
 21
95.865733
 31
0.0
  0
LINE
  5
3b7
100
AcDbEntity
  8
0
 62
7
100
AcDbLine
 10
26.440019
 20
95.865733
 30
0.0
 11
26.440019
 21
93.868719
 31
0.0
  0
LINE
  5
3b8
100
AcDbEntity
  8
0
 62
7
100
AcDbLine
 10
26.440019
 20
93.868719
 30
0.0
 11
22.446007
 21
93.868719
 31
0.0
  0
LINE
  5
3b9
100
AcDbEntity
  8
0
 62
7
100
AcDbLine
 10
22.446007
 20
93.868719
 30
0.0
 11
22.446007
 21
95.865733
 31
0.0
  0
LINE
  5
3ba
100
AcDbEntity
  8
0
 62
7
100
AcDbLine
 10
29.182269
 20
95.865733
 30
0.0
 11
33.176279
 21
95.865733
 31
0.0
  0
LINE
  5
3bb
100
AcDbEntity
  8
0
 62
7
100
AcDbLine
 10
33.176279
 20
95.865733
 30
0.0
 11
33.176279
 21
93.868719
 31
0.0
  0
LINE
  5
3bc
100
AcDbEntity
  8
0
 62
7
100
AcDbLine
 10
33.176279
 20
93.868719
 30
0.0
 11
29.182269
 21
93.868719
 31
0.0
  0
LINE
  5
3bd
100
AcDbEntity
  8
0
 62
7
100
AcDbLine
 10
29.182269
 20
93.868719
 30
0.0
 11
29.182269
 21
95.865733
 31
0.0
  0
LINE
  5
3be
100
AcDbEntity
  8
0
 62
7
100
AcDbLine
 10
35.979552
 20
95.865733
 30
0.0
 11
39.973565
 21
95.865733
 31
0.0
  0
LINE
  5
3bf
100
AcDbEntity
  8
0
 62
7
100
AcDbLine
 10
39.973565
 20
95.865733
 30
0.0
 11
39.973565
 21
93.868719
 31
0.0
  0
LINE
  5
3c0
100
AcDbEntity
  8
0
 62
7
100
AcDbLine
 10
39.973565
 20
93.868719
 30
0.0
 11
35.979552
 21
93.868719
 31
0.0
  0
LINE
  5
3c1
100
AcDbEntity
  8
0
 62
7
100
AcDbLine
 10
35.979552
 20
93.868719
 30
0.0
 11
35.979552
 21
95.865733
 31
0.0
  0
LINE
  5
3c2
100
AcDbEntity
  8
0
 62
7
100
AcDbLine
 10
42.715815
 20
95.865733
 30
0.0
 11
46.709827
 21
95.865733
 31
0.0
  0
LINE
  5
3c3
100
AcDbEntity
  8
0
 62
7
100
AcDbLine
 10
46.709827
 20
95.865733
 30
0.0
 11
46.709827
 21
93.868719
 31
0.0
  0
LINE
  5
3c4
100
AcDbEntity
  8
0
 62
7
100
AcDbLine
 10
46.709827
 20
93.868719
 30
0.0
 11
42.715815
 21
93.868719
 31
0.0
  0
LINE
  5
3c5
100
AcDbEntity
  8
0
 62
7
100
AcDbLine
 10
42.715815
 20
93.868719
 30
0.0
 11
42.715815
 21
95.865733
 31
0.0
  0
LINE
  5
3c6
100
AcDbEntity
  8
0
 62
7
100
AcDbLine
 10
49.513101
 20
95.865733
 30
0.0
 11
53.507111
 21
95.865733
 31
0.0
  0
LINE
  5
3c7
100
AcDbEntity
  8
0
 62
7
100
AcDbLine
 10
53.507111
 20
95.865733
 30
0.0
 11
53.507111
 21
93.868719
 31
0.0
  0
LINE
  5
3c8
100
AcDbEntity
  8
0
 62
7
100
AcDbLine
 10
53.507111
 20
93.868719
 30
0.0
 11
49.513101
 21
93.868719
 31
0.0
  0
LINE
  5
3c9
100
AcDbEntity
  8
0
 62
7
100
AcDbLine
 10
49.513101
 20
93.868719
 30
0.0
 11
49.513101
 21
95.865733
 31
0.0
  0
LINE
  5
3ca
100
AcDbEntity
  8
0
 62
7
100
AcDbLine
 10
56.249364
 20
95.865733
 30
0.0
 11
60.243376
 21
95.865733
 31
0.0
  0
LINE
  5
3cb
100
AcDbEntity
  8
0
 62
7
100
AcDbLine
 10
60.243376
 20
95.865733
 30
0.0
 11
60.243376
 21
93.868719
 31
0.0
  0
LINE
  5
3cc
100
AcDbEntity
  8
0
 62
7
100
AcDbLine
 10
60.243376
 20
93.868719
 30
0.0
 11
56.249364
 21
93.868719
 31
0.0
  0
LINE
  5
3cd
100
AcDbEntity
  8
0
 62
7
100
AcDbLine
 10
56.249364
 20
93.868719
 30
0.0
 11
56.249364
 21
95.865733
 31
0.0
  0
LINE
  5
3ce
100
AcDbEntity
  8
0
 62
7
100
AcDbLine
 10
63.046647
 20
95.865733
 30
0.0
 11
67.040659
 21
95.865733
 31
0.0
  0
LINE
  5
3cf
100
AcDbEntity
  8
0
 62
7
100
AcDbLine
 10
67.040659
 20
95.865733
 30
0.0
 11
67.040659
 21
93.868719
 31
0.0
  0
LINE
  5
3d0
100
AcDbEntity
  8
0
 62
7
100
AcDbLine
 10
67.040659
 20
93.868719
 30
0.0
 11
63.046647
 21
93.868719
 31
0.0
  0
LINE
  5
3d1
100
AcDbEntity
  8
0
 62
7
100
AcDbLine
 10
63.046647
 20
93.868719
 30
0.0
 11
63.046647
 21
95.865733
 31
0.0
  0
LINE
  5
3d2
100
AcDbEntity
  8
0
 62
7
100
AcDbLine
 10
69.782910
 20
95.865733
 30
0.0
 11
73.776922
 21
95.865733
 31
0.0
  0
LINE
  5
3d3
100
AcDbEntity
  8
0
 62
7
100
AcDbLine
 10
73.776922
 20
95.865733
 30
0.0
 11
73.776922
 21
93.868719
 31
0.0
  0
LINE
  5
3d4
100
AcDbEntity
  8
0
 62
7
100
AcDbLine
 10
73.776922
 20
93.868719
 30
0.0
 11
69.782910
 21
93.868719
 31
0.0
  0
LINE
  5
3d5
100
AcDbEntity
  8
0
 62
7
100
AcDbLine
 10
69.782910
 20
93.868719
 30
0.0
 11
69.782910
 21
95.865733
 31
0.0
  0
LINE
  5
3d6
100
AcDbEntity
  8
0
 62
7
100
AcDbLine
 10
22.446007
 20
91.999001
 30
0.0
 11
26.440019
 21
91.999001
 31
0.0
  0
LINE
  5
3d7
100
AcDbEntity
  8
0
 62
7
100
AcDbLine
 10
26.440019
 20
91.999001
 30
0.0
 11
26.440019
 21
90.001998
 31
0.0
  0
LINE
  5
3d8
100
AcDbEntity
  8
0
 62
7
100
AcDbLine
 10
26.440019
 20
90.001998
 30
0.0
 11
22.446007
 21
90.001998
 31
0.0
  0
LINE
  5
3d9
100
AcDbEntity
  8
0
 62
7
100
AcDbLine
 10
22.446007
 20
90.001998
 30
0.0
 11
22.446007
 21
91.999001
 31
0.0
  0
LINE
  5
3da
100
AcDbEntity
  8
0
 62
7
100
AcDbLine
 10
29.182269
 20
91.999001
 30
0.0
 11
33.176279
 21
91.999001
 31
0.0
  0
LINE
  5
3db
100
AcDbEntity
  8
0
 62
7
100
AcDbLine
 10
33.176279
 20
91.999001
 30
0.0
 11
33.176279
 21
90.001998
 31
0.0
  0
LINE
  5
3dc
100
AcDbEntity
  8
0
 62
7
100
AcDbLine
 10
33.176279
 20
90.001998
 30
0.0
 11
29.182269
 21
90.001998
 31
0.0
  0
LINE
  5
3dd
100
AcDbEntity
  8
0
 62
7
100
AcDbLine
 10
29.182269
 20
90.001998
 30
0.0
 11
29.182269
 21
91.999001
 31
0.0
  0
LINE
  5
3de
100
AcDbEntity
  8
0
 62
7
100
AcDbLine
 10
35.979552
 20
91.999001
 30
0.0
 11
39.973565
 21
91.999001
 31
0.0
  0
LINE
  5
3df
100
AcDbEntity
  8
0
 62
7
100
AcDbLine
 10
39.973565
 20
91.999001
 30
0.0
 11
39.973565
 21
90.001998
 31
0.0
  0
LINE
  5
3e0
100
AcDbEntity
  8
0
 62
7
100
AcDbLine
 10
39.973565
 20
90.001998
 30
0.0
 11
35.979552
 21
90.001998
 31
0.0
  0
LINE
  5
3e1
100
AcDbEntity
  8
0
 62
7
100
AcDbLine
 10
35.979552
 20
90.001998
 30
0.0
 11
35.979552
 21
91.999001
 31
0.0
  0
LINE
  5
3e2
100
AcDbEntity
  8
0
 62
7
100
AcDbLine
 10
42.715815
 20
91.999001
 30
0.0
 11
46.709827
 21
91.999001
 31
0.0
  0
LINE
  5
3e3
100
AcDbEntity
  8
0
 62
7
100
AcDbLine
 10
46.709827
 20
91.999001
 30
0.0
 11
46.709827
 21
90.001998
 31
0.0
  0
LINE
  5
3e4
100
AcDbEntity
  8
0
 62
7
100
AcDbLine
 10
46.709827
 20
90.001998
 30
0.0
 11
42.715815
 21
90.001998
 31
0.0
  0
LINE
  5
3e5
100
AcDbEntity
  8
0
 62
7
100
AcDbLine
 10
42.715815
 20
90.001998
 30
0.0
 11
42.715815
 21
91.999001
 31
0.0
  0
LINE
  5
3e6
100
AcDbEntity
  8
0
 62
7
100
AcDbLine
 10
49.513101
 20
91.999001
 30
0.0
 11
53.507111
 21
91.999001
 31
0.0
  0
LINE
  5
3e7
100
AcDbEntity
  8
0
 62
7
100
AcDbLine
 10
53.507111
 20
91.999001
 30
0.0
 11
53.507111
 21
90.001998
 31
0.0
  0
LINE
  5
3e8
100
AcDbEntity
  8
0
 62
7
100
AcDbLine
 10
53.507111
 20
90.001998
 30
0.0
 11
49.513101
 21
90.001998
 31
0.0
  0
LINE
  5
3e9
100
AcDbEntity
  8
0
 62
7
100
AcDbLine
 10
49.513101
 20
90.001998
 30
0.0
 11
49.513101
 21
91.999001
 31
0.0
  0
LINE
  5
3ea
100
AcDbEntity
  8
0
 62
7
100
AcDbLine
 10
56.249364
 20
91.999001
 30
0.0
 11
60.243376
 21
91.999001
 31
0.0
  0
LINE
  5
3eb
100
AcDbEntity
  8
0
 62
7
100
AcDbLine
 10
60.243376
 20
91.999001
 30
0.0
 11
60.243376
 21
90.001998
 31
0.0
  0
LINE
  5
3ec
100
AcDbEntity
  8
0
 62
7
100
AcDbLine
 10
60.243376
 20
90.001998
 30
0.0
 11
56.249364
 21
90.001998
 31
0.0
  0
LINE
  5
3ed
100
AcDbEntity
  8
0
 62
7
100
AcDbLine
 10
56.249364
 20
90.001998
 30
0.0
 11
56.249364
 21
91.999001
 31
0.0
  0
LINE
  5
3ee
100
AcDbEntity
  8
0
 62
7
100
AcDbLine
 10
63.046647
 20
91.999001
 30
0.0
 11
67.040659
 21
91.999001
 31
0.0
  0
LINE
  5
3ef
100
AcDbEntity
  8
0
 62
7
100
AcDbLine
 10
67.040659
 20
91.999001
 30
0.0
 11
67.040659
 21
90.001998
 31
0.0
  0
LINE
  5
3f0
100
AcDbEntity
  8
0
 62
7
100
AcDbLine
 10
67.040659
 20
90.001998
 30
0.0
 11
63.046647
 21
90.001998
 31
0.0
  0
LINE
  5
3f1
100
AcDbEntity
  8
0
 62
7
100
AcDbLine
 10
63.046647
 20
90.001998
 30
0.0
 11
63.046647
 21
91.999001
 31
0.0
  0
LINE
  5
3f2
100
AcDbEntity
  8
0
 62
7
100
AcDbLine
 10
69.782910
 20
91.999001
 30
0.0
 11
73.776922
 21
91.999001
 31
0.0
  0
LINE
  5
3f3
100
AcDbEntity
  8
0
 62
7
100
AcDbLine
 10
73.776922
 20
91.999001
 30
0.0
 11
73.776922
 21
90.001998
 31
0.0
  0
LINE
  5
3f4
100
AcDbEntity
  8
0
 62
7
100
AcDbLine
 10
73.776922
 20
90.001998
 30
0.0
 11
69.782910
 21
90.001998
 31
0.0
  0
LINE
  5
3f5
100
AcDbEntity
  8
0
 62
7
100
AcDbLine
 10
69.782910
 20
90.001998
 30
0.0
 11
69.782910
 21
91.999001
 31
0.0
  0
LINE
  5
3f6
100
AcDbEntity
  8
0
 62
7
100
AcDbLine
 10
22.446007
 20
88.132277
 30
0.0
 11
26.440019
 21
88.132277
 31
0.0
  0
LINE
  5
3f7
100
AcDbEntity
  8
0
 62
7
100
AcDbLine
 10
26.440019
 20
88.132277
 30
0.0
 11
26.440019
 21
86.135263
 31
0.0
  0
LINE
  5
3f8
100
AcDbEntity
  8
0
 62
7
100
AcDbLine
 10
26.440019
 20
86.135263
 30
0.0
 11
22.446007
 21
86.135263
 31
0.0
  0
LINE
  5
3f9
100
AcDbEntity
  8
0
 62
7
100
AcDbLine
 10
22.446007
 20
86.135263
 30
0.0
 11
22.446007
 21
88.132277
 31
0.0
  0
LINE
  5
3fa
100
AcDbEntity
  8
0
 62
7
100
AcDbLine
 10
29.182269
 20
88.132277
 30
0.0
 11
33.176279
 21
88.132277
 31
0.0
  0
LINE
  5
3fb
100
AcDbEntity
  8
0
 62
7
100
AcDbLine
 10
33.176279
 20
88.132277
 30
0.0
 11
33.176279
 21
86.135263
 31
0.0
  0
LINE
  5
3fc
100
AcDbEntity
  8
0
 62
7
100
AcDbLine
 10
33.176279
 20
86.135263
 30
0.0
 11
29.182269
 21
86.135263
 31
0.0
  0
LINE
  5
3fd
100
AcDbEntity
  8
0
 62
7
100
AcDbLine
 10
29.182269
 20
86.135263
 30
0.0
 11
29.182269
 21
88.132277
 31
0.0
  0
LINE
  5
3fe
100
AcDbEntity
  8
0
 62
7
100
AcDbLine
 10
35.979552
 20
88.132277
 30
0.0
 11
39.973565
 21
88.132277
 31
0.0
  0
LINE
  5
3ff
100
AcDbEntity
  8
0
 62
7
100
AcDbLine
 10
39.973565
 20
88.132277
 30
0.0
 11
39.973565
 21
86.135263
 31
0.0
  0
LINE
  5
400
100
AcDbEntity
  8
0
 62
7
100
AcDbLine
 10
39.973565
 20
86.135263
 30
0.0
 11
35.979552
 21
86.135263
 31
0.0
  0
LINE
  5
401
100
AcDbEntity
  8
0
 62
7
100
AcDbLine
 10
35.979552
 20
86.135263
 30
0.0
 11
35.979552
 21
88.132277
 31
0.0
  0
LINE
  5
402
100
AcDbEntity
  8
0
 62
7
100
AcDbLine
 10
42.715815
 20
88.132277
 30
0.0
 11
46.709827
 21
88.132277
 31
0.0
  0
LINE
  5
403
100
AcDbEntity
  8
0
 62
7
100
AcDbLine
 10
46.709827
 20
88.132277
 30
0.0
 11
46.709827
 21
86.135263
 31
0.0
  0
LINE
  5
404
100
AcDbEntity
  8
0
 62
7
100
AcDbLine
 10
46.709827
 20
86.135263
 30
0.0
 11
42.715815
 21
86.135263
 31
0.0
  0
LINE
  5
405
100
AcDbEntity
  8
0
 62
7
100
AcDbLine
 10
42.715815
 20
86.135263
 30
0.0
 11
42.715815
 21
88.132277
 31
0.0
  0
LINE
  5
406
100
AcDbEntity
  8
0
 62
7
100
AcDbLine
 10
49.513101
 20
88.132277
 30
0.0
 11
53.507111
 21
88.132277
 31
0.0
  0
LINE
  5
407
100
AcDbEntity
  8
0
 62
7
100
AcDbLine
 10
53.507111
 20
88.132277
 30
0.0
 11
53.507111
 21
86.135263
 31
0.0
  0
LINE
  5
408
100
AcDbEntity
  8
0
 62
7
100
AcDbLine
 10
53.507111
 20
86.135263
 30
0.0
 11
49.513101
 21
86.135263
 31
0.0
  0
LINE
  5
409
100
AcDbEntity
  8
0
 62
7
100
AcDbLine
 10
49.513101
 20
86.135263
 30
0.0
 11
49.513101
 21
88.132277
 31
0.0
  0
LINE
  5
40a
100
AcDbEntity
  8
0
 62
7
100
AcDbLine
 10
56.249364
 20
88.132277
 30
0.0
 11
60.243376
 21
88.132277
 31
0.0
  0
LINE
  5
40b
100
AcDbEntity
  8
0
 62
7
100
AcDbLine
 10
60.243376
 20
88.132277
 30
0.0
 11
60.243376
 21
86.135263
 31
0.0
  0
LINE
  5
40c
100
AcDbEntity
  8
0
 62
7
100
AcDbLine
 10
60.243376
 20
86.135263
 30
0.0
 11
56.249364
 21
86.135263
 31
0.0
  0
LINE
  5
40d
100
AcDbEntity
  8
0
 62
7
100
AcDbLine
 10
56.249364
 20
86.135263
 30
0.0
 11
56.249364
 21
88.132277
 31
0.0
  0
LINE
  5
40e
100
AcDbEntity
  8
0
 62
7
100
AcDbLine
 10
63.046647
 20
88.132277
 30
0.0
 11
67.040659
 21
88.132277
 31
0.0
  0
LINE
  5
40f
100
AcDbEntity
  8
0
 62
7
100
AcDbLine
 10
67.040659
 20
88.132277
 30
0.0
 11
67.040659
 21
86.135263
 31
0.0
  0
LINE
  5
410
100
AcDbEntity
  8
0
 62
7
100
AcDbLine
 10
67.040659
 20
86.135263
 30
0.0
 11
63.046647
 21
86.135263
 31
0.0
  0
LINE
  5
411
100
AcDbEntity
  8
0
 62
7
100
AcDbLine
 10
63.046647
 20
86.135263
 30
0.0
 11
63.046647
 21
88.132277
 31
0.0
  0
LINE
  5
412
100
AcDbEntity
  8
0
 62
7
100
AcDbLine
 10
69.782910
 20
88.132277
 30
0.0
 11
73.776922
 21
88.132277
 31
0.0
  0
LINE
  5
413
100
AcDbEntity
  8
0
 62
7
100
AcDbLine
 10
73.776922
 20
88.132277
 30
0.0
 11
73.776922
 21
86.135263
 31
0.0
  0
LINE
  5
414
100
AcDbEntity
  8
0
 62
7
100
AcDbLine
 10
73.776922
 20
86.135263
 30
0.0
 11
69.782910
 21
86.135263
 31
0.0
  0
LINE
  5
415
100
AcDbEntity
  8
0
 62
7
100
AcDbLine
 10
69.782910
 20
86.135263
 30
0.0
 11
69.782910
 21
88.132277
 31
0.0
  0
LINE
  5
416
100
AcDbEntity
  8
0
 62
7
100
AcDbLine
 10
8.912460
 20
84.265545
 30
0.0
 11
12.906471
 21
84.265545
 31
0.0
  0
LINE
  5
417
100
AcDbEntity
  8
0
 62
7
100
AcDbLine
 10
12.906471
 20
84.265545
 30
0.0
 11
12.906471
 21
82.268542
 31
0.0
  0
LINE
  5
418
100
AcDbEntity
  8
0
 62
7
100
AcDbLine
 10
12.906471
 20
82.268542
 30
0.0
 11
8.912460
 21
82.268542
 31
0.0
  0
LINE
  5
419
100
AcDbEntity
  8
0
 62
7
100
AcDbLine
 10
8.912460
 20
82.268542
 30
0.0
 11
8.912460
 21
84.265545
 31
0.0
  0
LINE
  5
41a
100
AcDbEntity
  8
0
 62
7
100
AcDbLine
 10
15.648723
 20
84.265545
 30
0.0
 11
19.642733
 21
84.265545
 31
0.0
  0
LINE
  5
41b
100
AcDbEntity
  8
0
 62
7
100
AcDbLine
 10
19.642733
 20
84.265545
 30
0.0
 11
19.642733
 21
82.268542
 31
0.0
  0
LINE
  5
41c
100
AcDbEntity
  8
0
 62
7
100
AcDbLine
 10
19.642733
 20
82.268542
 30
0.0
 11
15.648723
 21
82.268542
 31
0.0
  0
LINE
  5
41d
100
AcDbEntity
  8
0
 62
7
100
AcDbLine
 10
15.648723
 20
82.268542
 30
0.0
 11
15.648723
 21
84.265545
 31
0.0
  0
LINE
  5
41e
100
AcDbEntity
  8
0
 62
7
100
AcDbLine
 10
8.912460
 20
80.398821
 30
0.0
 11
12.906471
 21
80.398821
 31
0.0
  0
LINE
  5
41f
100
AcDbEntity
  8
0
 62
7
100
AcDbLine
 10
12.906471
 20
80.398821
 30
0.0
 11
12.906471
 21
78.401807
 31
0.0
  0
LINE
  5
420
100
AcDbEntity
  8
0
 62
7
100
AcDbLine
 10
12.906471
 20
78.401807
 30
0.0
 11
8.912460
 21
78.401807
 31
0.0
  0
LINE
  5
421
100
AcDbEntity
  8
0
 62
7
100
AcDbLine
 10
8.912460
 20
78.401807
 30
0.0
 11
8.912460
 21
80.398821
 31
0.0
  0
LINE
  5
422
100
AcDbEntity
  8
0
 62
7
100
AcDbLine
 10
15.648723
 20
80.398821
 30
0.0
 11
19.642733
 21
80.398821
 31
0.0
  0
LINE
  5
423
100
AcDbEntity
  8
0
 62
7
100
AcDbLine
 10
19.642733
 20
80.398821
 30
0.0
 11
19.642733
 21
78.401807
 31
0.0
  0
LINE
  5
424
100
AcDbEntity
  8
0
 62
7
100
AcDbLine
 10
19.642733
 20
78.401807
 30
0.0
 11
15.648723
 21
78.401807
 31
0.0
  0
LINE
  5
425
100
AcDbEntity
  8
0
 62
7
100
AcDbLine
 10
15.648723
 20
78.401807
 30
0.0
 11
15.648723
 21
80.398821
 31
0.0
  0
LINE
  5
426
100
AcDbEntity
  8
0
 62
7
100
AcDbLine
 10
8.912460
 20
76.532089
 30
0.0
 11
12.906471
 21
76.532089
 31
0.0
  0
LINE
  5
427
100
AcDbEntity
  8
0
 62
7
100
AcDbLine
 10
12.906471
 20
76.532089
 30
0.0
 11
12.906471
 21
74.535086
 31
0.0
  0
LINE
  5
428
100
AcDbEntity
  8
0
 62
7
100
AcDbLine
 10
12.906471
 20
74.535086
 30
0.0
 11
8.912460
 21
74.535086
 31
0.0
  0
LINE
  5
429
100
AcDbEntity
  8
0
 62
7
100
AcDbLine
 10
8.912460
 20
74.535086
 30
0.0
 11
8.912460
 21
76.532089
 31
0.0
  0
LINE
  5
42a
100
AcDbEntity
  8
0
 62
7
100
AcDbLine
 10
15.648723
 20
76.532089
 30
0.0
 11
19.642733
 21
76.532089
 31
0.0
  0
LINE
  5
42b
100
AcDbEntity
  8
0
 62
7
100
AcDbLine
 10
19.642733
 20
76.532089
 30
0.0
 11
19.642733
 21
74.535086
 31
0.0
  0
LINE
  5
42c
100
AcDbEntity
  8
0
 62
7
100
AcDbLine
 10
19.642733
 20
74.535086
 30
0.0
 11
15.648723
 21
74.535086
 31
0.0
  0
LINE
  5
42d
100
AcDbEntity
  8
0
 62
7
100
AcDbLine
 10
15.648723
 20
74.535086
 30
0.0
 11
15.648723
 21
76.532089
 31
0.0
  0
LINE
  5
42e
100
AcDbEntity
  8
0
 62
7
100
AcDbLine
 10
8.912460
 20
72.665365
 30
0.0
 11
12.906471
 21
72.665365
 31
0.0
  0
LINE
  5
42f
100
AcDbEntity
  8
0
 62
7
100
AcDbLine
 10
12.906471
 20
72.665365
 30
0.0
 11
12.906471
 21
70.668351
 31
0.0
  0
LINE
  5
430
100
AcDbEntity
  8
0
 62
7
100
AcDbLine
 10
12.906471
 20
70.668351
 30
0.0
 11
8.912460
 21
70.668351
 31
0.0
  0
LINE
  5
431
100
AcDbEntity
  8
0
 62
7
100
AcDbLine
 10
8.912460
 20
70.668351
 30
0.0
 11
8.912460
 21
72.665365
 31
0.0
  0
LINE
  5
432
100
AcDbEntity
  8
0
 62
7
100
AcDbLine
 10
15.648723
 20
72.665365
 30
0.0
 11
19.642733
 21
72.665365
 31
0.0
  0
LINE
  5
433
100
AcDbEntity
  8
0
 62
7
100
AcDbLine
 10
19.642733
 20
72.665365
 30
0.0
 11
19.642733
 21
70.668351
 31
0.0
  0
LINE
  5
434
100
AcDbEntity
  8
0
 62
7
100
AcDbLine
 10
19.642733
 20
70.668351
 30
0.0
 11
15.648723
 21
70.668351
 31
0.0
  0
LINE
  5
435
100
AcDbEntity
  8
0
 62
7
100
AcDbLine
 10
15.648723
 20
70.668351
 30
0.0
 11
15.648723
 21
72.665365
 31
0.0
  0
LINE
  5
436
100
AcDbEntity
  8
0
 62
7
100
AcDbLine
 10
8.912460
 20
68.798641
 30
0.0
 11
12.906471
 21
68.798641
 31
0.0
  0
LINE
  5
437
100
AcDbEntity
  8
0
 62
7
100
AcDbLine
 10
12.906471
 20
68.798641
 30
0.0
 11
12.906471
 21
66.801630
 31
0.0
  0
LINE
  5
438
100
AcDbEntity
  8
0
 62
7
100
AcDbLine
 10
12.906471
 20
66.801630
 30
0.0
 11
8.912460
 21
66.801630
 31
0.0
  0
LINE
  5
439
100
AcDbEntity
  8
0
 62
7
100
AcDbLine
 10
8.912460
 20
66.801630
 30
0.0
 11
8.912460
 21
68.798641
 31
0.0
  0
LINE
  5
43a
100
AcDbEntity
  8
0
 62
7
100
AcDbLine
 10
15.648723
 20
68.798641
 30
0.0
 11
19.642733
 21
68.798641
 31
0.0
  0
LINE
  5
43b
100
AcDbEntity
  8
0
 62
7
100
AcDbLine
 10
19.642733
 20
68.798641
 30
0.0
 11
19.642733
 21
66.801630
 31
0.0
  0
LINE
  5
43c
100
AcDbEntity
  8
0
 62
7
100
AcDbLine
 10
19.642733
 20
66.801630
 30
0.0
 11
15.648723
 21
66.801630
 31
0.0
  0
LINE
  5
43d
100
AcDbEntity
  8
0
 62
7
100
AcDbLine
 10
15.648723
 20
66.801630
 30
0.0
 11
15.648723
 21
68.798641
 31
0.0
  0
LINE
  5
43e
100
AcDbEntity
  8
0
 62
7
100
AcDbLine
 10
8.912460
 20
95.865733
 30
0.0
 11
12.906471
 21
95.865733
 31
0.0
  0
LINE
  5
43f
100
AcDbEntity
  8
0
 62
7
100
AcDbLine
 10
12.906471
 20
95.865733
 30
0.0
 11
12.906471
 21
93.868719
 31
0.0
  0
LINE
  5
440
100
AcDbEntity
  8
0
 62
7
100
AcDbLine
 10
12.906471
 20
93.868719
 30
0.0
 11
8.912460
 21
93.868719
 31
0.0
  0
LINE
  5
441
100
AcDbEntity
  8
0
 62
7
100
AcDbLine
 10
8.912460
 20
93.868719
 30
0.0
 11
8.912460
 21
95.865733
 31
0.0
  0
LINE
  5
442
100
AcDbEntity
  8
0
 62
7
100
AcDbLine
 10
15.648723
 20
95.865733
 30
0.0
 11
19.642733
 21
95.865733
 31
0.0
  0
LINE
  5
443
100
AcDbEntity
  8
0
 62
7
100
AcDbLine
 10
19.642733
 20
95.865733
 30
0.0
 11
19.642733
 21
93.868719
 31
0.0
  0
LINE
  5
444
100
AcDbEntity
  8
0
 62
7
100
AcDbLine
 10
19.642733
 20
93.868719
 30
0.0
 11
15.648723
 21
93.868719
 31
0.0
  0
LINE
  5
445
100
AcDbEntity
  8
0
 62
7
100
AcDbLine
 10
15.648723
 20
93.868719
 30
0.0
 11
15.648723
 21
95.865733
 31
0.0
  0
LINE
  5
446
100
AcDbEntity
  8
0
 62
7
100
AcDbLine
 10
8.912460
 20
91.999001
 30
0.0
 11
12.906471
 21
91.999001
 31
0.0
  0
LINE
  5
447
100
AcDbEntity
  8
0
 62
7
100
AcDbLine
 10
12.906471
 20
91.999001
 30
0.0
 11
12.906471
 21
90.001998
 31
0.0
  0
LINE
  5
448
100
AcDbEntity
  8
0
 62
7
100
AcDbLine
 10
12.906471
 20
90.001998
 30
0.0
 11
8.912460
 21
90.001998
 31
0.0
  0
LINE
  5
449
100
AcDbEntity
  8
0
 62
7
100
AcDbLine
 10
8.912460
 20
90.001998
 30
0.0
 11
8.912460
 21
91.999001
 31
0.0
  0
LINE
  5
44a
100
AcDbEntity
  8
0
 62
7
100
AcDbLine
 10
15.648723
 20
91.999001
 30
0.0
 11
19.642733
 21
91.999001
 31
0.0
  0
LINE
  5
44b
100
AcDbEntity
  8
0
 62
7
100
AcDbLine
 10
19.642733
 20
91.999001
 30
0.0
 11
19.642733
 21
90.001998
 31
0.0
  0
LINE
  5
44c
100
AcDbEntity
  8
0
 62
7
100
AcDbLine
 10
19.642733
 20
90.001998
 30
0.0
 11
15.648723
 21
90.001998
 31
0.0
  0
LINE
  5
44d
100
AcDbEntity
  8
0
 62
7
100
AcDbLine
 10
15.648723
 20
90.001998
 30
0.0
 11
15.648723
 21
91.999001
 31
0.0
  0
LINE
  5
44e
100
AcDbEntity
  8
0
 62
7
100
AcDbLine
 10
8.912460
 20
88.132277
 30
0.0
 11
12.906471
 21
88.132277
 31
0.0
  0
LINE
  5
44f
100
AcDbEntity
  8
0
 62
7
100
AcDbLine
 10
12.906471
 20
88.132277
 30
0.0
 11
12.906471
 21
86.135263
 31
0.0
  0
LINE
  5
450
100
AcDbEntity
  8
0
 62
7
100
AcDbLine
 10
12.906471
 20
86.135263
 30
0.0
 11
8.912460
 21
86.135263
 31
0.0
  0
LINE
  5
451
100
AcDbEntity
  8
0
 62
7
100
AcDbLine
 10
8.912460
 20
86.135263
 30
0.0
 11
8.912460
 21
88.132277
 31
0.0
  0
LINE
  5
452
100
AcDbEntity
  8
0
 62
7
100
AcDbLine
 10
15.648723
 20
88.132277
 30
0.0
 11
19.642733
 21
88.132277
 31
0.0
  0
LINE
  5
453
100
AcDbEntity
  8
0
 62
7
100
AcDbLine
 10
19.642733
 20
88.132277
 30
0.0
 11
19.642733
 21
86.135263
 31
0.0
  0
LINE
  5
454
100
AcDbEntity
  8
0
 62
7
100
AcDbLine
 10
19.642733
 20
86.135263
 30
0.0
 11
15.648723
 21
86.135263
 31
0.0
  0
LINE
  5
455
100
AcDbEntity
  8
0
 62
7
100
AcDbLine
 10
15.648723
 20
86.135263
 30
0.0
 11
15.648723
 21
88.132277
 31
0.0
  0
LINE
  5
456
100
AcDbEntity
  8
0
 62
7
100
AcDbLine
 10
56.249364
 20
39.798194
 30
0.0
 11
60.243376
 21
39.798194
 31
0.0
  0
LINE
  5
457
100
AcDbEntity
  8
0
 62
7
100
AcDbLine
 10
60.243376
 20
39.798194
 30
0.0
 11
60.243376
 21
37.801190
 31
0.0
  0
LINE
  5
458
100
AcDbEntity
  8
0
 62
7
100
AcDbLine
 10
60.243376
 20
37.801190
 30
0.0
 11
56.249364
 21
37.801190
 31
0.0
  0
LINE
  5
459
100
AcDbEntity
  8
0
 62
7
100
AcDbLine
 10
56.249364
 20
37.801190
 30
0.0
 11
56.249364
 21
39.798194
 31
0.0
  0
LINE
  5
45a
100
AcDbEntity
  8
0
 62
7
100
AcDbLine
 10
56.249364
 20
35.931462
 30
0.0
 11
60.243376
 21
35.931462
 31
0.0
  0
LINE
  5
45b
100
AcDbEntity
  8
0
 62
7
100
AcDbLine
 10
60.243376
 20
35.931462
 30
0.0
 11
60.243376
 21
33.934458
 31
0.0
  0
LINE
  5
45c
100
AcDbEntity
  8
0
 62
7
100
AcDbLine
 10
60.243376
 20
33.934458
 30
0.0
 11
56.249364
 21
33.934458
 31
0.0
  0
LINE
  5
45d
100
AcDbEntity
  8
0
 62
7
100
AcDbLine
 10
56.249364
 20
33.934458
 30
0.0
 11
56.249364
 21
35.931462
 31
0.0
  0
LINE
  5
45e
100
AcDbEntity
  8
0
 62
7
100
AcDbLine
 10
56.249364
 20
32.064738
 30
0.0
 11
60.243376
 21
32.064738
 31
0.0
  0
LINE
  5
45f
100
AcDbEntity
  8
0
 62
7
100
AcDbLine
 10
60.243376
 20
32.064738
 30
0.0
 11
60.243376
 21
30.067734
 31
0.0
  0
LINE
  5
460
100
AcDbEntity
  8
0
 62
7
100
AcDbLine
 10
60.243376
 20
30.067734
 30
0.0
 11
56.249364
 21
30.067734
 31
0.0
  0
LINE
  5
461
100
AcDbEntity
  8
0
 62
7
100
AcDbLine
 10
56.249364
 20
30.067734
 30
0.0
 11
56.249364
 21
32.064738
 31
0.0
  0
LINE
  5
462
100
AcDbEntity
  8
0
 62
7
100
AcDbLine
 10
56.249364
 20
43.664918
 30
0.0
 11
60.243376
 21
43.664918
 31
0.0
  0
LINE
  5
463
100
AcDbEntity
  8
0
 62
7
100
AcDbLine
 10
60.243376
 20
43.664918
 30
0.0
 11
60.243376
 21
41.667914
 31
0.0
  0
LINE
  5
464
100
AcDbEntity
  8
0
 62
7
100
AcDbLine
 10
60.243376
 20
41.667914
 30
0.0
 11
56.249364
 21
41.667914
 31
0.0
  0
LINE
  5
465
100
AcDbEntity
  8
0
 62
7
100
AcDbLine
 10
56.249364
 20
41.667914
 30
0.0
 11
56.249364
 21
43.664918
 31
0.0
  0
LINE
  5
466
100
AcDbEntity
  8
0
 62
7
100
AcDbLine
 10
8.912460
 20
39.798194
 30
0.0
 11
12.906471
 21
39.798194
 31
0.0
  0
LINE
  5
467
100
AcDbEntity
  8
0
 62
7
100
AcDbLine
 10
12.906471
 20
39.798194
 30
0.0
 11
12.906471
 21
37.801190
 31
0.0
  0
LINE
  5
468
100
AcDbEntity
  8
0
 62
7
100
AcDbLine
 10
12.906471
 20
37.801190
 30
0.0
 11
8.912460
 21
37.801190
 31
0.0
  0
LINE
  5
469
100
AcDbEntity
  8
0
 62
7
100
AcDbLine
 10
8.912460
 20
37.801190
 30
0.0
 11
8.912460
 21
39.798194
 31
0.0
  0
LINE
  5
46a
100
AcDbEntity
  8
0
 62
7
100
AcDbLine
 10
8.912460
 20
35.931462
 30
0.0
 11
12.906471
 21
35.931462
 31
0.0
  0
LINE
  5
46b
100
AcDbEntity
  8
0
 62
7
100
AcDbLine
 10
12.906471
 20
35.931462
 30
0.0
 11
12.906471
 21
33.934458
 31
0.0
  0
LINE
  5
46c
100
AcDbEntity
  8
0
 62
7
100
AcDbLine
 10
12.906471
 20
33.934458
 30
0.0
 11
8.912460
 21
33.934458
 31
0.0
  0
LINE
  5
46d
100
AcDbEntity
  8
0
 62
7
100
AcDbLine
 10
8.912460
 20
33.934458
 30
0.0
 11
8.912460
 21
35.931462
 31
0.0
  0
LINE
  5
46e
100
AcDbEntity
  8
0
 62
7
100
AcDbLine
 10
8.912460
 20
32.064738
 30
0.0
 11
12.906471
 21
32.064738
 31
0.0
  0
LINE
  5
46f
100
AcDbEntity
  8
0
 62
7
100
AcDbLine
 10
12.906471
 20
32.064738
 30
0.0
 11
12.906471
 21
30.067734
 31
0.0
  0
LINE
  5
470
100
AcDbEntity
  8
0
 62
7
100
AcDbLine
 10
12.906471
 20
30.067734
 30
0.0
 11
8.912460
 21
30.067734
 31
0.0
  0
LINE
  5
471
100
AcDbEntity
  8
0
 62
7
100
AcDbLine
 10
8.912460
 20
30.067734
 30
0.0
 11
8.912460
 21
32.064738
 31
0.0
  0
LINE
  5
472
100
AcDbEntity
  8
0
 62
7
100
AcDbLine
 10
8.912460
 20
43.664918
 30
0.0
 11
12.906471
 21
43.664918
 31
0.0
  0
LINE
  5
473
100
AcDbEntity
  8
0
 62
7
100
AcDbLine
 10
12.906471
 20
43.664918
 30
0.0
 11
12.906471
 21
41.667914
 31
0.0
  0
LINE
  5
474
100
AcDbEntity
  8
0
 62
7
100
AcDbLine
 10
12.906471
 20
41.667914
 30
0.0
 11
8.912460
 21
41.667914
 31
0.0
  0
LINE
  5
475
100
AcDbEntity
  8
0
 62
7
100
AcDbLine
 10
8.912460
 20
41.667914
 30
0.0
 11
8.912460
 21
43.664918
 31
0.0
  0
LINE
  5
476
100
AcDbEntity
  8
0
 62
7
100
AcDbLine
 10
83.316456
 20
39.798194
 30
0.0
 11
87.310468
 21
39.798194
 31
0.0
  0
LINE
  5
477
100
AcDbEntity
  8
0
 62
7
100
AcDbLine
 10
87.310468
 20
39.798194
 30
0.0
 11
87.310468
 21
37.801190
 31
0.0
  0
LINE
  5
478
100
AcDbEntity
  8
0
 62
7
100
AcDbLine
 10
87.310468
 20
37.801190
 30
0.0
 11
83.316456
 21
37.801190
 31
0.0
  0
LINE
  5
479
100
AcDbEntity
  8
0
 62
7
100
AcDbLine
 10
83.316456
 20
37.801190
 30
0.0
 11
83.316456
 21
39.798194
 31
0.0
  0
LINE
  5
47a
100
AcDbEntity
  8
0
 62
7
100
AcDbLine
 10
90.113739
 20
39.798194
 30
0.0
 11
94.107751
 21
39.798194
 31
0.0
  0
LINE
  5
47b
100
AcDbEntity
  8
0
 62
7
100
AcDbLine
 10
94.107751
 20
39.798194
 30
0.0
 11
94.107751
 21
37.801190
 31
0.0
  0
LINE
  5
47c
100
AcDbEntity
  8
0
 62
7
100
AcDbLine
 10
94.107751
 20
37.801190
 30
0.0
 11
90.113739
 21
37.801190
 31
0.0
  0
LINE
  5
47d
100
AcDbEntity
  8
0
 62
7
100
AcDbLine
 10
90.113739
 20
37.801190
 30
0.0
 11
90.113739
 21
39.798194
 31
0.0
  0
LINE
  5
47e
100
AcDbEntity
  8
0
 62
7
100
AcDbLine
 10
96.849999
 20
39.798194
 30
0.0
 11
100.844017
 21
39.798194
 31
0.0
  0
LINE
  5
47f
100
AcDbEntity
  8
0
 62
7
100
AcDbLine
 10
100.844017
 20
39.798194
 30
0.0
 11
100.844017
 21
37.801190
 31
0.0
  0
LINE
  5
480
100
AcDbEntity
  8
0
 62
7
100
AcDbLine
 10
100.844017
 20
37.801190
 30
0.0
 11
96.849999
 21
37.801190
 31
0.0
  0
LINE
  5
481
100
AcDbEntity
  8
0
 62
7
100
AcDbLine
 10
96.849999
 20
37.801190
 30
0.0
 11
96.849999
 21
39.798194
 31
0.0
  0
LINE
  5
482
100
AcDbEntity
  8
0
 62
7
100
AcDbLine
 10
110.383555
 20
39.798194
 30
0.0
 11
114.377563
 21
39.798194
 31
0.0
  0
LINE
  5
483
100
AcDbEntity
  8
0
 62
7
100
AcDbLine
 10
114.377563
 20
39.798194
 30
0.0
 11
114.377563
 21
37.801190
 31
0.0
  0
LINE
  5
484
100
AcDbEntity
  8
0
 62
7
100
AcDbLine
 10
114.377563
 20
37.801190
 30
0.0
 11
110.383555
 21
37.801190
 31
0.0
  0
LINE
  5
485
100
AcDbEntity
  8
0
 62
7
100
AcDbLine
 10
110.383555
 20
37.801190
 30
0.0
 11
110.383555
 21
39.798194
 31
0.0
  0
LINE
  5
486
100
AcDbEntity
  8
0
 62
7
100
AcDbLine
 10
83.316456
 20
35.931462
 30
0.0
 11
87.310468
 21
35.931462
 31
0.0
  0
LINE
  5
487
100
AcDbEntity
  8
0
 62
7
100
AcDbLine
 10
87.310468
 20
35.931462
 30
0.0
 11
87.310468
 21
33.934458
 31
0.0
  0
LINE
  5
488
100
AcDbEntity
  8
0
 62
7
100
AcDbLine
 10
87.310468
 20
33.934458
 30
0.0
 11
83.316456
 21
33.934458
 31
0.0
  0
LINE
  5
489
100
AcDbEntity
  8
0
 62
7
100
AcDbLine
 10
83.316456
 20
33.934458
 30
0.0
 11
83.316456
 21
35.931462
 31
0.0
  0
LINE
  5
48a
100
AcDbEntity
  8
0
 62
7
100
AcDbLine
 10
90.113739
 20
35.931462
 30
0.0
 11
94.107751
 21
35.931462
 31
0.0
  0
LINE
  5
48b
100
AcDbEntity
  8
0
 62
7
100
AcDbLine
 10
94.107751
 20
35.931462
 30
0.0
 11
94.107751
 21
33.934458
 31
0.0
  0
LINE
  5
48c
100
AcDbEntity
  8
0
 62
7
100
AcDbLine
 10
94.107751
 20
33.934458
 30
0.0
 11
90.113739
 21
33.934458
 31
0.0
  0
LINE
  5
48d
100
AcDbEntity
  8
0
 62
7
100
AcDbLine
 10
90.113739
 20
33.934458
 30
0.0
 11
90.113739
 21
35.931462
 31
0.0
  0
LINE
  5
48e
100
AcDbEntity
  8
0
 62
7
100
AcDbLine
 10
96.849999
 20
35.931462
 30
0.0
 11
100.844017
 21
35.931462
 31
0.0
  0
LINE
  5
48f
100
AcDbEntity
  8
0
 62
7
100
AcDbLine
 10
100.844017
 20
35.931462
 30
0.0
 11
100.844017
 21
33.934458
 31
0.0
  0
LINE
  5
490
100
AcDbEntity
  8
0
 62
7
100
AcDbLine
 10
100.844017
 20
33.934458
 30
0.0
 11
96.849999
 21
33.934458
 31
0.0
  0
LINE
  5
491
100
AcDbEntity
  8
0
 62
7
100
AcDbLine
 10
96.849999
 20
33.934458
 30
0.0
 11
96.849999
 21
35.931462
 31
0.0
  0
LINE
  5
492
100
AcDbEntity
  8
0
 62
7
100
AcDbLine
 10
110.383555
 20
35.931462
 30
0.0
 11
114.377563
 21
35.931462
 31
0.0
  0
LINE
  5
493
100
AcDbEntity
  8
0
 62
7
100
AcDbLine
 10
114.377563
 20
35.931462
 30
0.0
 11
114.377563
 21
33.934458
 31
0.0
  0
LINE
  5
494
100
AcDbEntity
  8
0
 62
7
100
AcDbLine
 10
114.377563
 20
33.934458
 30
0.0
 11
110.383555
 21
33.934458
 31
0.0
  0
LINE
  5
495
100
AcDbEntity
  8
0
 62
7
100
AcDbLine
 10
110.383555
 20
33.934458
 30
0.0
 11
110.383555
 21
35.931462
 31
0.0
  0
LINE
  5
496
100
AcDbEntity
  8
0
 62
7
100
AcDbLine
 10
83.316456
 20
32.064738
 30
0.0
 11
87.310468
 21
32.064738
 31
0.0
  0
LINE
  5
497
100
AcDbEntity
  8
0
 62
7
100
AcDbLine
 10
87.310468
 20
32.064738
 30
0.0
 11
87.310468
 21
30.067734
 31
0.0
  0
LINE
  5
498
100
AcDbEntity
  8
0
 62
7
100
AcDbLine
 10
87.310468
 20
30.067734
 30
0.0
 11
83.316456
 21
30.067734
 31
0.0
  0
LINE
  5
499
100
AcDbEntity
  8
0
 62
7
100
AcDbLine
 10
83.316456
 20
30.067734
 30
0.0
 11
83.316456
 21
32.064738
 31
0.0
  0
LINE
  5
49a
100
AcDbEntity
  8
0
 62
7
100
AcDbLine
 10
90.113739
 20
32.064738
 30
0.0
 11
94.107751
 21
32.064738
 31
0.0
  0
LINE
  5
49b
100
AcDbEntity
  8
0
 62
7
100
AcDbLine
 10
94.107751
 20
32.064738
 30
0.0
 11
94.107751
 21
30.067734
 31
0.0
  0
LINE
  5
49c
100
AcDbEntity
  8
0
 62
7
100
AcDbLine
 10
94.107751
 20
30.067734
 30
0.0
 11
90.113739
 21
30.067734
 31
0.0
  0
LINE
  5
49d
100
AcDbEntity
  8
0
 62
7
100
AcDbLine
 10
90.113739
 20
30.067734
 30
0.0
 11
90.113739
 21
32.064738
 31
0.0
  0
LINE
  5
49e
100
AcDbEntity
  8
0
 62
7
100
AcDbLine
 10
96.849999
 20
32.064738
 30
0.0
 11
100.844017
 21
32.064738
 31
0.0
  0
LINE
  5
49f
100
AcDbEntity
  8
0
 62
7
100
AcDbLine
 10
100.844017
 20
32.064738
 30
0.0
 11
100.844017
 21
30.067734
 31
0.0
  0
LINE
  5
4a0
100
AcDbEntity
  8
0
 62
7
100
AcDbLine
 10
100.844017
 20
30.067734
 30
0.0
 11
96.849999
 21
30.067734
 31
0.0
  0
LINE
  5
4a1
100
AcDbEntity
  8
0
 62
7
100
AcDbLine
 10
96.849999
 20
30.067734
 30
0.0
 11
96.849999
 21
32.064738
 31
0.0
  0
LINE
  5
4a2
100
AcDbEntity
  8
0
 62
7
100
AcDbLine
 10
110.383555
 20
32.064738
 30
0.0
 11
114.377563
 21
32.064738
 31
0.0
  0
LINE
  5
4a3
100
AcDbEntity
  8
0
 62
7
100
AcDbLine
 10
114.377563
 20
32.064738
 30
0.0
 11
114.377563
 21
30.067734
 31
0.0
  0
LINE
  5
4a4
100
AcDbEntity
  8
0
 62
7
100
AcDbLine
 10
114.377563
 20
30.067734
 30
0.0
 11
110.383555
 21
30.067734
 31
0.0
  0
LINE
  5
4a5
100
AcDbEntity
  8
0
 62
7
100
AcDbLine
 10
110.383555
 20
30.067734
 30
0.0
 11
110.383555
 21
32.064738
 31
0.0
  0
LINE
  5
4a6
100
AcDbEntity
  8
0
 62
7
100
AcDbLine
 10
83.316456
 20
43.664918
 30
0.0
 11
87.310468
 21
43.664918
 31
0.0
  0
LINE
  5
4a7
100
AcDbEntity
  8
0
 62
7
100
AcDbLine
 10
87.310468
 20
43.664918
 30
0.0
 11
87.310468
 21
41.667914
 31
0.0
  0
LINE
  5
4a8
100
AcDbEntity
  8
0
 62
7
100
AcDbLine
 10
87.310468
 20
41.667914
 30
0.0
 11
83.316456
 21
41.667914
 31
0.0
  0
LINE
  5
4a9
100
AcDbEntity
  8
0
 62
7
100
AcDbLine
 10
83.316456
 20
41.667914
 30
0.0
 11
83.316456
 21
43.664918
 31
0.0
  0
LINE
  5
4aa
100
AcDbEntity
  8
0
 62
7
100
AcDbLine
 10
90.113739
 20
43.664918
 30
0.0
 11
94.107751
 21
43.664918
 31
0.0
  0
LINE
  5
4ab
100
AcDbEntity
  8
0
 62
7
100
AcDbLine
 10
94.107751
 20
43.664918
 30
0.0
 11
94.107751
 21
41.667914
 31
0.0
  0
LINE
  5
4ac
100
AcDbEntity
  8
0
 62
7
100
AcDbLine
 10
94.107751
 20
41.667914
 30
0.0
 11
90.113739
 21
41.667914
 31
0.0
  0
LINE
  5
4ad
100
AcDbEntity
  8
0
 62
7
100
AcDbLine
 10
90.113739
 20
41.667914
 30
0.0
 11
90.113739
 21
43.664918
 31
0.0
  0
LINE
  5
4ae
100
AcDbEntity
  8
0
 62
7
100
AcDbLine
 10
96.849999
 20
43.664918
 30
0.0
 11
100.844017
 21
43.664918
 31
0.0
  0
LINE
  5
4af
100
AcDbEntity
  8
0
 62
7
100
AcDbLine
 10
100.844017
 20
43.664918
 30
0.0
 11
100.844017
 21
41.667914
 31
0.0
  0
LINE
  5
4b0
100
AcDbEntity
  8
0
 62
7
100
AcDbLine
 10
100.844017
 20
41.667914
 30
0.0
 11
96.849999
 21
41.667914
 31
0.0
  0
LINE
  5
4b1
100
AcDbEntity
  8
0
 62
7
100
AcDbLine
 10
96.849999
 20
41.667914
 30
0.0
 11
96.849999
 21
43.664918
 31
0.0
  0
LINE
  5
4b2
100
AcDbEntity
  8
0
 62
7
100
AcDbLine
 10
110.383555
 20
43.664918
 30
0.0
 11
114.377563
 21
43.664918
 31
0.0
  0
LINE
  5
4b3
100
AcDbEntity
  8
0
 62
7
100
AcDbLine
 10
114.377563
 20
43.664918
 30
0.0
 11
114.377563
 21
41.667914
 31
0.0
  0
LINE
  5
4b4
100
AcDbEntity
  8
0
 62
7
100
AcDbLine
 10
114.377563
 20
41.667914
 30
0.0
 11
110.383555
 21
41.667914
 31
0.0
  0
LINE
  5
4b5
100
AcDbEntity
  8
0
 62
7
100
AcDbLine
 10
110.383555
 20
41.667914
 30
0.0
 11
110.383555
 21
43.664918
 31
0.0
  0
LINE
  5
4b6
100
AcDbEntity
  8
0
 62
7
100
AcDbLine
 10
63.046647
 20
39.798194
 30
0.0
 11
67.040659
 21
39.798194
 31
0.0
  0
LINE
  5
4b7
100
AcDbEntity
  8
0
 62
7
100
AcDbLine
 10
67.040659
 20
39.798194
 30
0.0
 11
67.040659
 21
37.801190
 31
0.0
  0
LINE
  5
4b8
100
AcDbEntity
  8
0
 62
7
100
AcDbLine
 10
67.040659
 20
37.801190
 30
0.0
 11
63.046647
 21
37.801190
 31
0.0
  0
LINE
  5
4b9
100
AcDbEntity
  8
0
 62
7
100
AcDbLine
 10
63.046647
 20
37.801190
 30
0.0
 11
63.046647
 21
39.798194
 31
0.0
  0
LINE
  5
4ba
100
AcDbEntity
  8
0
 62
7
100
AcDbLine
 10
69.782910
 20
39.798194
 30
0.0
 11
73.776922
 21
39.798194
 31
0.0
  0
LINE
  5
4bb
100
AcDbEntity
  8
0
 62
7
100
AcDbLine
 10
73.776922
 20
39.798194
 30
0.0
 11
73.776922
 21
37.801190
 31
0.0
  0
LINE
  5
4bc
100
AcDbEntity
  8
0
 62
7
100
AcDbLine
 10
73.776922
 20
37.801190
 30
0.0
 11
69.782910
 21
37.801190
 31
0.0
  0
LINE
  5
4bd
100
AcDbEntity
  8
0
 62
7
100
AcDbLine
 10
69.782910
 20
37.801190
 30
0.0
 11
69.782910
 21
39.798194
 31
0.0
  0
LINE
  5
4be
100
AcDbEntity
  8
0
 62
7
100
AcDbLine
 10
63.046647
 20
35.931462
 30
0.0
 11
67.040659
 21
35.931462
 31
0.0
  0
LINE
  5
4bf
100
AcDbEntity
  8
0
 62
7
100
AcDbLine
 10
67.040659
 20
35.931462
 30
0.0
 11
67.040659
 21
33.934458
 31
0.0
  0
LINE
  5
4c0
100
AcDbEntity
  8
0
 62
7
100
AcDbLine
 10
67.040659
 20
33.934458
 30
0.0
 11
63.046647
 21
33.934458
 31
0.0
  0
LINE
  5
4c1
100
AcDbEntity
  8
0
 62
7
100
AcDbLine
 10
63.046647
 20
33.934458
 30
0.0
 11
63.046647
 21
35.931462
 31
0.0
  0
LINE
  5
4c2
100
AcDbEntity
  8
0
 62
7
100
AcDbLine
 10
69.782910
 20
35.931462
 30
0.0
 11
73.776922
 21
35.931462
 31
0.0
  0
LINE
  5
4c3
100
AcDbEntity
  8
0
 62
7
100
AcDbLine
 10
73.776922
 20
35.931462
 30
0.0
 11
73.776922
 21
33.934458
 31
0.0
  0
LINE
  5
4c4
100
AcDbEntity
  8
0
 62
7
100
AcDbLine
 10
73.776922
 20
33.934458
 30
0.0
 11
69.782910
 21
33.934458
 31
0.0
  0
LINE
  5
4c5
100
AcDbEntity
  8
0
 62
7
100
AcDbLine
 10
69.782910
 20
33.934458
 30
0.0
 11
69.782910
 21
35.931462
 31
0.0
  0
LINE
  5
4c6
100
AcDbEntity
  8
0
 62
7
100
AcDbLine
 10
63.046647
 20
32.064738
 30
0.0
 11
67.040659
 21
32.064738
 31
0.0
  0
LINE
  5
4c7
100
AcDbEntity
  8
0
 62
7
100
AcDbLine
 10
67.040659
 20
32.064738
 30
0.0
 11
67.040659
 21
30.067734
 31
0.0
  0
LINE
  5
4c8
100
AcDbEntity
  8
0
 62
7
100
AcDbLine
 10
67.040659
 20
30.067734
 30
0.0
 11
63.046647
 21
30.067734
 31
0.0
  0
LINE
  5
4c9
100
AcDbEntity
  8
0
 62
7
100
AcDbLine
 10
63.046647
 20
30.067734
 30
0.0
 11
63.046647
 21
32.064738
 31
0.0
  0
LINE
  5
4ca
100
AcDbEntity
  8
0
 62
7
100
AcDbLine
 10
69.782910
 20
32.064738
 30
0.0
 11
73.776922
 21
32.064738
 31
0.0
  0
LINE
  5
4cb
100
AcDbEntity
  8
0
 62
7
100
AcDbLine
 10
73.776922
 20
32.064738
 30
0.0
 11
73.776922
 21
30.067734
 31
0.0
  0
LINE
  5
4cc
100
AcDbEntity
  8
0
 62
7
100
AcDbLine
 10
73.776922
 20
30.067734
 30
0.0
 11
69.782910
 21
30.067734
 31
0.0
  0
LINE
  5
4cd
100
AcDbEntity
  8
0
 62
7
100
AcDbLine
 10
69.782910
 20
30.067734
 30
0.0
 11
69.782910
 21
32.064738
 31
0.0
  0
LINE
  5
4ce
100
AcDbEntity
  8
0
 62
7
100
AcDbLine
 10
63.046647
 20
43.664918
 30
0.0
 11
67.040659
 21
43.664918
 31
0.0
  0
LINE
  5
4cf
100
AcDbEntity
  8
0
 62
7
100
AcDbLine
 10
67.040659
 20
43.664918
 30
0.0
 11
67.040659
 21
41.667914
 31
0.0
  0
LINE
  5
4d0
100
AcDbEntity
  8
0
 62
7
100
AcDbLine
 10
67.040659
 20
41.667914
 30
0.0
 11
63.046647
 21
41.667914
 31
0.0
  0
LINE
  5
4d1
100
AcDbEntity
  8
0
 62
7
100
AcDbLine
 10
63.046647
 20
41.667914
 30
0.0
 11
63.046647
 21
43.664918
 31
0.0
  0
LINE
  5
4d2
100
AcDbEntity
  8
0
 62
7
100
AcDbLine
 10
69.782910
 20
43.664918
 30
0.0
 11
73.776922
 21
43.664918
 31
0.0
  0
LINE
  5
4d3
100
AcDbEntity
  8
0
 62
7
100
AcDbLine
 10
73.776922
 20
43.664918
 30
0.0
 11
73.776922
 21
41.667914
 31
0.0
  0
LINE
  5
4d4
100
AcDbEntity
  8
0
 62
7
100
AcDbLine
 10
73.776922
 20
41.667914
 30
0.0
 11
69.782910
 21
41.667914
 31
0.0
  0
LINE
  5
4d5
100
AcDbEntity
  8
0
 62
7
100
AcDbLine
 10
69.782910
 20
41.667914
 30
0.0
 11
69.782910
 21
43.664918
 31
0.0
  0
LINE
  5
4d6
100
AcDbEntity
  8
0
 62
7
100
AcDbLine
 10
123.917099
 20
35.931462
 30
0.0
 11
127.911106
 21
35.931462
 31
0.0
  0
LINE
  5
4d7
100
AcDbEntity
  8
0
 62
7
100
AcDbLine
 10
127.911106
 20
35.931462
 30
0.0
 11
127.911106
 21
33.934458
 31
0.0
  0
LINE
  5
4d8
100
AcDbEntity
  8
0
 62
7
100
AcDbLine
 10
127.911106
 20
33.934458
 30
0.0
 11
123.917099
 21
33.934458
 31
0.0
  0
LINE
  5
4d9
100
AcDbEntity
  8
0
 62
7
100
AcDbLine
 10
123.917099
 20
33.934458
 30
0.0
 11
123.917099
 21
35.931462
 31
0.0
  0
LINE
  5
4da
100
AcDbEntity
  8
0
 62
7
100
AcDbLine
 10
123.917099
 20
32.064738
 30
0.0
 11
127.911106
 21
32.064738
 31
0.0
  0
LINE
  5
4db
100
AcDbEntity
  8
0
 62
7
100
AcDbLine
 10
127.911106
 20
32.064738
 30
0.0
 11
127.911106
 21
30.067734
 31
0.0
  0
LINE
  5
4dc
100
AcDbEntity
  8
0
 62
7
100
AcDbLine
 10
127.911106
 20
30.067734
 30
0.0
 11
123.917099
 21
30.067734
 31
0.0
  0
LINE
  5
4dd
100
AcDbEntity
  8
0
 62
7
100
AcDbLine
 10
123.917099
 20
30.067734
 30
0.0
 11
123.917099
 21
32.064738
 31
0.0
  0
LINE
  5
4de
100
AcDbEntity
  8
0
 62
7
100
AcDbLine
 10
123.917099
 20
28.198006
 30
0.0
 11
127.911106
 21
28.198006
 31
0.0
  0
LINE
  5
4df
100
AcDbEntity
  8
0
 62
7
100
AcDbLine
 10
127.911106
 20
28.198006
 30
0.0
 11
127.911106
 21
26.201013
 31
0.0
  0
LINE
  5
4e0
100
AcDbEntity
  8
0
 62
7
100
AcDbLine
 10
127.911106
 20
26.201013
 30
0.0
 11
123.917099
 21
26.201013
 31
0.0
  0
LINE
  5
4e1
100
AcDbEntity
  8
0
 62
7
100
AcDbLine
 10
123.917099
 20
26.201013
 30
0.0
 11
123.917099
 21
28.198006
 31
0.0
  0
LINE
  5
4e2
100
AcDbEntity
  8
0
 62
7
100
AcDbLine
 10
123.917099
 20
24.331269
 30
0.0
 11
127.911106
 21
24.331269
 31
0.0
  0
LINE
  5
4e3
100
AcDbEntity
  8
0
 62
7
100
AcDbLine
 10
127.911106
 20
24.331269
 30
0.0
 11
127.911106
 21
22.334273
 31
0.0
  0
LINE
  5
4e4
100
AcDbEntity
  8
0
 62
7
100
AcDbLine
 10
127.911106
 20
22.334273
 30
0.0
 11
123.917099
 21
22.334273
 31
0.0
  0
LINE
  5
4e5
100
AcDbEntity
  8
0
 62
7
100
AcDbLine
 10
123.917099
 20
22.334273
 30
0.0
 11
123.917099
 21
24.331269
 31
0.0
  0
LINE
  5
4e6
100
AcDbEntity
  8
0
 62
7
100
AcDbLine
 10
48.919151
 20
131.018021
 30
0.0
 11
56.602077
 21
131.018021
 31
0.0
  0
LINE
  5
4e7
100
AcDbEntity
  8
0
 62
7
100
AcDbLine
 10
56.602077
 20
131.018021
 30
0.0
 11
56.602077
 21
127.170873
 31
0.0
  0
LINE
  5
4e8
100
AcDbEntity
  8
0
 62
7
100
AcDbLine
 10
56.602077
 20
127.170873
 30
0.0
 11
48.919151
 21
127.170873
 31
0.0
  0
LINE
  5
4e9
100
AcDbEntity
  8
0
 62
7
100
AcDbLine
 10
48.919151
 20
127.170873
 30
0.0
 11
48.919151
 21
131.018021
 31
0.0
  0
LINE
  5
4ea
100
AcDbEntity
  8
0
 62
7
100
AcDbLine
 10
69.610552
 20
131.018021
 30
0.0
 11
77.293475
 21
131.018021
 31
0.0
  0
LINE
  5
4eb
100
AcDbEntity
  8
0
 62
7
100
AcDbLine
 10
77.293475
 20
131.018021
 30
0.0
 11
77.293475
 21
127.170873
 31
0.0
  0
LINE
  5
4ec
100
AcDbEntity
  8
0
 62
7
100
AcDbLine
 10
77.293475
 20
127.170873
 30
0.0
 11
69.610552
 21
127.170873
 31
0.0
  0
LINE
  5
4ed
100
AcDbEntity
  8
0
 62
7
100
AcDbLine
 10
69.610552
 20
127.170873
 30
0.0
 11
69.610552
 21
131.018021
 31
0.0
  0
LINE
  5
4ee
100
AcDbEntity
  8
0
 62
7
100
AcDbLine
 10
48.919151
 20
123.568934
 30
0.0
 11
56.602077
 21
123.568934
 31
0.0
  0
LINE
  5
4ef
100
AcDbEntity
  8
0
 62
7
100
AcDbLine
 10
56.602077
 20
123.568934
 30
0.0
 11
56.602077
 21
119.721786
 31
0.0
  0
LINE
  5
4f0
100
AcDbEntity
  8
0
 62
7
100
AcDbLine
 10
56.602077
 20
119.721786
 30
0.0
 11
48.919151
 21
119.721786
 31
0.0
  0
LINE
  5
4f1
100
AcDbEntity
  8
0
 62
7
100
AcDbLine
 10
48.919151
 20
119.721786
 30
0.0
 11
48.919151
 21
123.568934
 31
0.0
  0
LINE
  5
4f2
100
AcDbEntity
  8
0
 62
7
100
AcDbLine
 10
69.610552
 20
123.568934
 30
0.0
 11
77.293475
 21
123.568934
 31
0.0
  0
LINE
  5
4f3
100
AcDbEntity
  8
0
 62
7
100
AcDbLine
 10
77.293475
 20
123.568934
 30
0.0
 11
77.293475
 21
119.721786
 31
0.0
  0
LINE
  5
4f4
100
AcDbEntity
  8
0
 62
7
100
AcDbLine
 10
77.293475
 20
119.721786
 30
0.0
 11
69.610552
 21
119.721786
 31
0.0
  0
LINE
  5
4f5
100
AcDbEntity
  8
0
 62
7
100
AcDbLine
 10
69.610552
 20
119.721786
 30
0.0
 11
69.610552
 21
123.568934
 31
0.0
  0
LINE
  5
4f6
100
AcDbEntity
  8
0
 62
7
100
AcDbLine
 10
48.919151
 20
153.365219
 30
0.0
 11
56.602077
 21
153.365219
 31
0.0
  0
LINE
  5
4f7
100
AcDbEntity
  8
0
 62
7
100
AcDbLine
 10
56.602077
 20
153.365219
 30
0.0
 11
56.602077
 21
149.518071
 31
0.0
  0
LINE
  5
4f8
100
AcDbEntity
  8
0
 62
7
100
AcDbLine
 10
56.602077
 20
149.518071
 30
0.0
 11
48.919151
 21
149.518071
 31
0.0
  0
LINE
  5
4f9
100
AcDbEntity
  8
0
 62
7
100
AcDbLine
 10
48.919151
 20
149.518071
 30
0.0
 11
48.919151
 21
153.365219
 31
0.0
  0
LINE
  5
4fa
100
AcDbEntity
  8
0
 62
7
100
AcDbLine
 10
69.610552
 20
153.365219
 30
0.0
 11
77.293475
 21
153.365219
 31
0.0
  0
LINE
  5
4fb
100
AcDbEntity
  8
0
 62
7
100
AcDbLine
 10
77.293475
 20
153.365219
 30
0.0
 11
77.293475
 21
149.518071
 31
0.0
  0
LINE
  5
4fc
100
AcDbEntity
  8
0
 62
7
100
AcDbLine
 10
77.293475
 20
149.518071
 30
0.0
 11
69.610552
 21
149.518071
 31
0.0
  0
LINE
  5
4fd
100
AcDbEntity
  8
0
 62
7
100
AcDbLine
 10
69.610552
 20
149.518071
 30
0.0
 11
69.610552
 21
153.365219
 31
0.0
  0
LINE
  5
4fe
100
AcDbEntity
  8
0
 62
7
100
AcDbLine
 10
48.919151
 20
145.916153
 30
0.0
 11
56.602077
 21
145.916153
 31
0.0
  0
LINE
  5
4ff
100
AcDbEntity
  8
0
 62
7
100
AcDbLine
 10
56.602077
 20
145.916153
 30
0.0
 11
56.602077
 21
142.069005
 31
0.0
  0
LINE
  5
500
100
AcDbEntity
  8
0
 62
7
100
AcDbLine
 10
56.602077
 20
142.069005
 30
0.0
 11
48.919151
 21
142.069005
 31
0.0
  0
LINE
  5
501
100
AcDbEntity
  8
0
 62
7
100
AcDbLine
 10
48.919151
 20
142.069005
 30
0.0
 11
48.919151
 21
145.916153
 31
0.0
  0
LINE
  5
502
100
AcDbEntity
  8
0
 62
7
100
AcDbLine
 10
69.610552
 20
145.916153
 30
0.0
 11
77.293475
 21
145.916153
 31
0.0
  0
LINE
  5
503
100
AcDbEntity
  8
0
 62
7
100
AcDbLine
 10
77.293475
 20
145.916153
 30
0.0
 11
77.293475
 21
142.069005
 31
0.0
  0
LINE
  5
504
100
AcDbEntity
  8
0
 62
7
100
AcDbLine
 10
77.293475
 20
142.069005
 30
0.0
 11
69.610552
 21
142.069005
 31
0.0
  0
LINE
  5
505
100
AcDbEntity
  8
0
 62
7
100
AcDbLine
 10
69.610552
 20
142.069005
 30
0.0
 11
69.610552
 21
145.916153
 31
0.0
  0
LINE
  5
506
100
AcDbEntity
  8
0
 62
7
100
AcDbLine
 10
48.919151
 20
138.467087
 30
0.0
 11
56.602077
 21
138.467087
 31
0.0
  0
LINE
  5
507
100
AcDbEntity
  8
0
 62
7
100
AcDbLine
 10
56.602077
 20
138.467087
 30
0.0
 11
56.602077
 21
134.619939
 31
0.0
  0
LINE
  5
508
100
AcDbEntity
  8
0
 62
7
100
AcDbLine
 10
56.602077
 20
134.619939
 30
0.0
 11
48.919151
 21
134.619939
 31
0.0
  0
LINE
  5
509
100
AcDbEntity
  8
0
 62
7
100
AcDbLine
 10
48.919151
 20
134.619939
 30
0.0
 11
48.919151
 21
138.467087
 31
0.0
  0
LINE
  5
50a
100
AcDbEntity
  8
0
 62
7
100
AcDbLine
 10
69.610552
 20
138.467087
 30
0.0
 11
77.293475
 21
138.467087
 31
0.0
  0
LINE
  5
50b
100
AcDbEntity
  8
0
 62
7
100
AcDbLine
 10
77.293475
 20
138.467087
 30
0.0
 11
77.293475
 21
134.619939
 31
0.0
  0
LINE
  5
50c
100
AcDbEntity
  8
0
 62
7
100
AcDbLine
 10
77.293475
 20
134.619939
 30
0.0
 11
69.610552
 21
134.619939
 31
0.0
  0
LINE
  5
50d
100
AcDbEntity
  8
0
 62
7
100
AcDbLine
 10
69.610552
 20
134.619939
 30
0.0
 11
69.610552
 21
138.467087
 31
0.0
  0
LINE
  5
50e
100
AcDbEntity
  8
0
 62
7
100
AcDbLine
 10
7.418966
 20
131.018021
 30
0.0
 11
15.101890
 21
131.018021
 31
0.0
  0
LINE
  5
50f
100
AcDbEntity
  8
0
 62
7
100
AcDbLine
 10
15.101890
 20
131.018021
 30
0.0
 11
15.101890
 21
127.170873
 31
0.0
  0
LINE
  5
510
100
AcDbEntity
  8
0
 62
7
100
AcDbLine
 10
15.101890
 20
127.170873
 30
0.0
 11
7.418966
 21
127.170873
 31
0.0
  0
LINE
  5
511
100
AcDbEntity
  8
0
 62
7
100
AcDbLine
 10
7.418966
 20
127.170873
 30
0.0
 11
7.418966
 21
131.018021
 31
0.0
  0
LINE
  5
512
100
AcDbEntity
  8
0
 62
7
100
AcDbLine
 10
28.110368
 20
131.018021
 30
0.0
 11
35.793294
 21
131.018021
 31
0.0
  0
LINE
  5
513
100
AcDbEntity
  8
0
 62
7
100
AcDbLine
 10
35.793294
 20
131.018021
 30
0.0
 11
35.793294
 21
127.170873
 31
0.0
  0
LINE
  5
514
100
AcDbEntity
  8
0
 62
7
100
AcDbLine
 10
35.793294
 20
127.170873
 30
0.0
 11
28.110368
 21
127.170873
 31
0.0
  0
LINE
  5
515
100
AcDbEntity
  8
0
 62
7
100
AcDbLine
 10
28.110368
 20
127.170873
 30
0.0
 11
28.110368
 21
131.018021
 31
0.0
  0
LINE
  5
516
100
AcDbEntity
  8
0
 62
7
100
AcDbLine
 10
7.418966
 20
123.568934
 30
0.0
 11
15.101890
 21
123.568934
 31
0.0
  0
LINE
  5
517
100
AcDbEntity
  8
0
 62
7
100
AcDbLine
 10
15.101890
 20
123.568934
 30
0.0
 11
15.101890
 21
119.721786
 31
0.0
  0
LINE
  5
518
100
AcDbEntity
  8
0
 62
7
100
AcDbLine
 10
15.101890
 20
119.721786
 30
0.0
 11
7.418966
 21
119.721786
 31
0.0
  0
LINE
  5
519
100
AcDbEntity
  8
0
 62
7
100
AcDbLine
 10
7.418966
 20
119.721786
 30
0.0
 11
7.418966
 21
123.568934
 31
0.0
  0
LINE
  5
51a
100
AcDbEntity
  8
0
 62
7
100
AcDbLine
 10
28.110368
 20
123.568934
 30
0.0
 11
35.793294
 21
123.568934
 31
0.0
  0
LINE
  5
51b
100
AcDbEntity
  8
0
 62
7
100
AcDbLine
 10
35.793294
 20
123.568934
 30
0.0
 11
35.793294
 21
119.721786
 31
0.0
  0
LINE
  5
51c
100
AcDbEntity
  8
0
 62
7
100
AcDbLine
 10
35.793294
 20
119.721786
 30
0.0
 11
28.110368
 21
119.721786
 31
0.0
  0
LINE
  5
51d
100
AcDbEntity
  8
0
 62
7
100
AcDbLine
 10
28.110368
 20
119.721786
 30
0.0
 11
28.110368
 21
123.568934
 31
0.0
  0
LINE
  5
51e
100
AcDbEntity
  8
0
 62
7
100
AcDbLine
 10
7.418966
 20
153.365219
 30
0.0
 11
15.101890
 21
153.365219
 31
0.0
  0
LINE
  5
51f
100
AcDbEntity
  8
0
 62
7
100
AcDbLine
 10
15.101890
 20
153.365219
 30
0.0
 11
15.101890
 21
149.518071
 31
0.0
  0
LINE
  5
520
100
AcDbEntity
  8
0
 62
7
100
AcDbLine
 10
15.101890
 20
149.518071
 30
0.0
 11
7.418966
 21
149.518071
 31
0.0
  0
LINE
  5
521
100
AcDbEntity
  8
0
 62
7
100
AcDbLine
 10
7.418966
 20
149.518071
 30
0.0
 11
7.418966
 21
153.365219
 31
0.0
  0
LINE
  5
522
100
AcDbEntity
  8
0
 62
7
100
AcDbLine
 10
28.110368
 20
153.365219
 30
0.0
 11
35.793294
 21
153.365219
 31
0.0
  0
LINE
  5
523
100
AcDbEntity
  8
0
 62
7
100
AcDbLine
 10
35.793294
 20
153.365219
 30
0.0
 11
35.793294
 21
149.518071
 31
0.0
  0
LINE
  5
524
100
AcDbEntity
  8
0
 62
7
100
AcDbLine
 10
35.793294
 20
149.518071
 30
0.0
 11
28.110368
 21
149.518071
 31
0.0
  0
LINE
  5
525
100
AcDbEntity
  8
0
 62
7
100
AcDbLine
 10
28.110368
 20
149.518071
 30
0.0
 11
28.110368
 21
153.365219
 31
0.0
  0
LINE
  5
526
100
AcDbEntity
  8
0
 62
7
100
AcDbLine
 10
7.418966
 20
145.916153
 30
0.0
 11
15.101890
 21
145.916153
 31
0.0
  0
LINE
  5
527
100
AcDbEntity
  8
0
 62
7
100
AcDbLine
 10
15.101890
 20
145.916153
 30
0.0
 11
15.101890
 21
142.069005
 31
0.0
  0
LINE
  5
528
100
AcDbEntity
  8
0
 62
7
100
AcDbLine
 10
15.101890
 20
142.069005
 30
0.0
 11
7.418966
 21
142.069005
 31
0.0
  0
LINE
  5
529
100
AcDbEntity
  8
0
 62
7
100
AcDbLine
 10
7.418966
 20
142.069005
 30
0.0
 11
7.418966
 21
145.916153
 31
0.0
  0
LINE
  5
52a
100
AcDbEntity
  8
0
 62
7
100
AcDbLine
 10
28.110368
 20
145.916153
 30
0.0
 11
35.793294
 21
145.916153
 31
0.0
  0
LINE
  5
52b
100
AcDbEntity
  8
0
 62
7
100
AcDbLine
 10
35.793294
 20
145.916153
 30
0.0
 11
35.793294
 21
142.069005
 31
0.0
  0
LINE
  5
52c
100
AcDbEntity
  8
0
 62
7
100
AcDbLine
 10
35.793294
 20
142.069005
 30
0.0
 11
28.110368
 21
142.069005
 31
0.0
  0
LINE
  5
52d
100
AcDbEntity
  8
0
 62
7
100
AcDbLine
 10
28.110368
 20
142.069005
 30
0.0
 11
28.110368
 21
145.916153
 31
0.0
  0
LINE
  5
52e
100
AcDbEntity
  8
0
 62
7
100
AcDbLine
 10
7.418966
 20
138.467087
 30
0.0
 11
15.101890
 21
138.467087
 31
0.0
  0
LINE
  5
52f
100
AcDbEntity
  8
0
 62
7
100
AcDbLine
 10
15.101890
 20
138.467087
 30
0.0
 11
15.101890
 21
134.619939
 31
0.0
  0
LINE
  5
530
100
AcDbEntity
  8
0
 62
7
100
AcDbLine
 10
15.101890
 20
134.619939
 30
0.0
 11
7.418966
 21
134.619939
 31
0.0
  0
LINE
  5
531
100
AcDbEntity
  8
0
 62
7
100
AcDbLine
 10
7.418966
 20
134.619939
 30
0.0
 11
7.418966
 21
138.467087
 31
0.0
  0
LINE
  5
532
100
AcDbEntity
  8
0
 62
7
100
AcDbLine
 10
28.110368
 20
138.467087
 30
0.0
 11
35.793294
 21
138.467087
 31
0.0
  0
LINE
  5
533
100
AcDbEntity
  8
0
 62
7
100
AcDbLine
 10
35.793294
 20
138.467087
 30
0.0
 11
35.793294
 21
134.619939
 31
0.0
  0
LINE
  5
534
100
AcDbEntity
  8
0
 62
7
100
AcDbLine
 10
35.793294
 20
134.619939
 30
0.0
 11
28.110368
 21
134.619939
 31
0.0
  0
LINE
  5
535
100
AcDbEntity
  8
0
 62
7
100
AcDbLine
 10
28.110368
 20
134.619939
 30
0.0
 11
28.110368
 21
138.467087
 31
0.0
  0
LINE
  5
536
100
AcDbEntity
  8
0
 62
7
100
AcDbLine
 10
89.519794
 20
145.916153
 30
0.0
 11
97.202715
 21
145.916153
 31
0.0
  0
LINE
  5
537
100
AcDbEntity
  8
0
 62
7
100
AcDbLine
 10
97.202715
 20
145.916153
 30
0.0
 11
97.202715
 21
142.069005
 31
0.0
  0
LINE
  5
538
100
AcDbEntity
  8
0
 62
7
100
AcDbLine
 10
97.202715
 20
142.069005
 30
0.0
 11
89.519794
 21
142.069005
 31
0.0
  0
LINE
  5
539
100
AcDbEntity
  8
0
 62
7
100
AcDbLine
 10
89.519794
 20
142.069005
 30
0.0
 11
89.519794
 21
145.916153
 31
0.0
  0
LINE
  5
53a
100
AcDbEntity
  8
0
 62
7
100
AcDbLine
 10
110.211193
 20
145.916153
 30
0.0
 11
117.894121
 21
145.916153
 31
0.0
  0
LINE
  5
53b
100
AcDbEntity
  8
0
 62
7
100
AcDbLine
 10
117.894121
 20
145.916153
 30
0.0
 11
117.894121
 21
142.069005
 31
0.0
  0
LINE
  5
53c
100
AcDbEntity
  8
0
 62
7
100
AcDbLine
 10
117.894121
 20
142.069005
 30
0.0
 11
110.211193
 21
142.069005
 31
0.0
  0
LINE
  5
53d
100
AcDbEntity
  8
0
 62
7
100
AcDbLine
 10
110.211193
 20
142.069005
 30
0.0
 11
110.211193
 21
145.916153
 31
0.0
  0
LINE
  5
53e
100
AcDbEntity
  8
0
 62
7
100
AcDbLine
 10
89.519794
 20
138.467087
 30
0.0
 11
97.202715
 21
138.467087
 31
0.0
  0
LINE
  5
53f
100
AcDbEntity
  8
0
 62
7
100
AcDbLine
 10
97.202715
 20
138.467087
 30
0.0
 11
97.202715
 21
134.619939
 31
0.0
  0
LINE
  5
540
100
AcDbEntity
  8
0
 62
7
100
AcDbLine
 10
97.202715
 20
134.619939
 30
0.0
 11
89.519794
 21
134.619939
 31
0.0
  0
LINE
  5
541
100
AcDbEntity
  8
0
 62
7
100
AcDbLine
 10
89.519794
 20
134.619939
 30
0.0
 11
89.519794
 21
138.467087
 31
0.0
  0
LINE
  5
542
100
AcDbEntity
  8
0
 62
7
100
AcDbLine
 10
110.211193
 20
138.467087
 30
0.0
 11
117.894121
 21
138.467087
 31
0.0
  0
LINE
  5
543
100
AcDbEntity
  8
0
 62
7
100
AcDbLine
 10
117.894121
 20
138.467087
 30
0.0
 11
117.894121
 21
134.619939
 31
0.0
  0
LINE
  5
544
100
AcDbEntity
  8
0
 62
7
100
AcDbLine
 10
117.894121
 20
134.619939
 30
0.0
 11
110.211193
 21
134.619939
 31
0.0
  0
LINE
  5
545
100
AcDbEntity
  8
0
 62
7
100
AcDbLine
 10
110.211193
 20
134.619939
 30
0.0
 11
110.211193
 21
138.467087
 31
0.0
  0
LINE
  5
546
100
AcDbEntity
  8
0
 62
7
100
AcDbLine
 10
114.375869
 20
177.051917
 30
0.0
 11
118.455459
 21
177.051917
 31
0.0
  0
LINE
  5
547
100
AcDbEntity
  8
0
 62
7
100
AcDbLine
 10
118.455459
 20
177.051917
 30
0.0
 11
118.455459
 21
173.204780
 31
0.0
  0
LINE
  5
548
100
AcDbEntity
  8
0
 62
7
100
AcDbLine
 10
118.455459
 20
173.204780
 30
0.0
 11
114.375869
 21
173.204780
 31
0.0
  0
LINE
  5
549
100
AcDbEntity
  8
0
 62
7
100
AcDbLine
 10
114.375869
 20
173.204780
 30
0.0
 11
114.375869
 21
177.051917
 31
0.0
  0
LINE
  5
54a
100
AcDbEntity
  8
0
 62
7
100
AcDbLine
 10
106.146029
 20
174.071386
 30
0.0
 11
110.225626
 21
174.071386
 31
0.0
  0
LINE
  5
54b
100
AcDbEntity
  8
0
 62
7
100
AcDbLine
 10
110.225626
 20
174.071386
 30
0.0
 11
110.225626
 21
170.224249
 31
0.0
  0
LINE
  5
54c
100
AcDbEntity
  8
0
 62
7
100
AcDbLine
 10
110.225626
 20
170.224249
 30
0.0
 11
106.146029
 21
170.224249
 31
0.0
  0
LINE
  5
54d
100
AcDbEntity
  8
0
 62
7
100
AcDbLine
 10
106.146029
 20
170.224249
 30
0.0
 11
106.146029
 21
174.071386
 31
0.0
  0
LINE
  5
54e
100
AcDbEntity
  8
0
 62
7
100
AcDbLine
 10
106.146029
 20
179.871486
 30
0.0
 11
110.225626
 21
179.871486
 31
0.0
  0
LINE
  5
54f
100
AcDbEntity
  8
0
 62
7
100
AcDbLine
 10
110.225626
 20
179.871486
 30
0.0
 11
110.225626
 21
176.024339
 31
0.0
  0
LINE
  5
550
100
AcDbEntity
  8
0
 62
7
100
AcDbLine
 10
110.225626
 20
176.024339
 30
0.0
 11
106.146029
 21
176.024339
 31
0.0
  0
LINE
  5
551
100
AcDbEntity
  8
0
 62
7
100
AcDbLine
 10
106.146029
 20
176.024339
 30
0.0
 11
106.146029
 21
179.871486
 31
0.0
  0
LINE
  5
552
100
AcDbEntity
  8
0
 62
7
100
AcDbLine
 10
64.386066
 20
177.418746
 30
0.0
 11
72.068989
 21
177.418746
 31
0.0
  0
LINE
  5
553
100
AcDbEntity
  8
0
 62
7
100
AcDbLine
 10
72.068989
 20
177.418746
 30
0.0
 11
72.068989
 21
173.571609
 31
0.0
  0
LINE
  5
554
100
AcDbEntity
  8
0
 62
7
100
AcDbLine
 10
72.068989
 20
173.571609
 30
0.0
 11
64.386066
 21
173.571609
 31
0.0
  0
LINE
  5
555
100
AcDbEntity
  8
0
 62
7
100
AcDbLine
 10
64.386066
 20
173.571609
 30
0.0
 11
64.386066
 21
177.418746
 31
0.0
  0
LINE
  5
556
100
AcDbEntity
  8
0
 62
7
100
AcDbLine
 10
64.386066
 20
169.969662
 30
0.0
 11
72.068989
 21
169.969662
 31
0.0
  0
LINE
  5
557
100
AcDbEntity
  8
0
 62
7
100
AcDbLine
 10
72.068989
 20
169.969662
 30
0.0
 11
72.068989
 21
166.122522
 31
0.0
  0
LINE
  5
558
100
AcDbEntity
  8
0
 62
7
100
AcDbLine
 10
72.068989
 20
166.122522
 30
0.0
 11
64.386066
 21
166.122522
 31
0.0
  0
LINE
  5
559
100
AcDbEntity
  8
0
 62
7
100
AcDbLine
 10
64.386066
 20
166.122522
 30
0.0
 11
64.386066
 21
169.969662
 31
0.0
  0
LINE
  5
55a
100
AcDbEntity
  8
0
 62
7
100
AcDbLine
 10
64.386066
 20
201.699315
 30
0.0
 11
72.068989
 21
201.699315
 31
0.0
  0
LINE
  5
55b
100
AcDbEntity
  8
0
 62
7
100
AcDbLine
 10
72.068989
 20
201.699315
 30
0.0
 11
72.068989
 21
197.852173
 31
0.0
  0
LINE
  5
55c
100
AcDbEntity
  8
0
 62
7
100
AcDbLine
 10
72.068989
 20
197.852173
 30
0.0
 11
64.386066
 21
197.852173
 31
0.0
  0
LINE
  5
55d
100
AcDbEntity
  8
0
 62
7
100
AcDbLine
 10
64.386066
 20
197.852173
 30
0.0
 11
64.386066
 21
201.699315
 31
0.0
  0
LINE
  5
55e
100
AcDbEntity
  8
0
 62
7
100
AcDbLine
 10
64.386066
 20
192.316878
 30
0.0
 11
72.068989
 21
192.316878
 31
0.0
  0
LINE
  5
55f
100
AcDbEntity
  8
0
 62
7
100
AcDbLine
 10
72.068989
 20
192.316878
 30
0.0
 11
72.068989
 21
188.469741
 31
0.0
  0
LINE
  5
560
100
AcDbEntity
  8
0
 62
7
100
AcDbLine
 10
72.068989
 20
188.469741
 30
0.0
 11
64.386066
 21
188.469741
 31
0.0
  0
LINE
  5
561
100
AcDbEntity
  8
0
 62
7
100
AcDbLine
 10
64.386066
 20
188.469741
 30
0.0
 11
64.386066
 21
192.316878
 31
0.0
  0
LINE
  5
562
100
AcDbEntity
  8
0
 62
7
100
AcDbLine
 10
64.386066
 20
184.867812
 30
0.0
 11
72.068989
 21
184.867812
 31
0.0
  0
LINE
  5
563
100
AcDbEntity
  8
0
 62
7
100
AcDbLine
 10
72.068989
 20
184.867812
 30
0.0
 11
72.068989
 21
181.020675
 31
0.0
  0
LINE
  5
564
100
AcDbEntity
  8
0
 62
7
100
AcDbLine
 10
72.068989
 20
181.020675
 30
0.0
 11
64.386066
 21
181.020675
 31
0.0
  0
LINE
  5
565
100
AcDbEntity
  8
0
 62
7
100
AcDbLine
 10
64.386066
 20
181.020675
 30
0.0
 11
64.386066
 21
184.867812
 31
0.0
  0
LINE
  5
566
100
AcDbEntity
  8
0
 62
7
100
AcDbLine
 10
19.064805
 20
271.904171
 30
0.0
 11
23.058817
 21
271.904171
 31
0.0
  0
LINE
  5
567
100
AcDbEntity
  8
0
 62
7
100
AcDbLine
 10
23.058817
 20
271.904171
 30
0.0
 11
23.058817
 21
269.907167
 31
0.0
  0
LINE
  5
568
100
AcDbEntity
  8
0
 62
7
100
AcDbLine
 10
23.058817
 20
269.907167
 30
0.0
 11
19.064805
 21
269.907167
 31
0.0
  0
LINE
  5
569
100
AcDbEntity
  8
0
 62
7
100
AcDbLine
 10
19.064805
 20
269.907167
 30
0.0
 11
19.064805
 21
271.904171
 31
0.0
  0
LINE
  5
56a
100
AcDbEntity
  8
0
 62
7
100
AcDbLine
 10
32.598349
 20
271.904171
 30
0.0
 11
36.592362
 21
271.904171
 31
0.0
  0
LINE
  5
56b
100
AcDbEntity
  8
0
 62
7
100
AcDbLine
 10
36.592362
 20
271.904171
 30
0.0
 11
36.592362
 21
269.907167
 31
0.0
  0
LINE
  5
56c
100
AcDbEntity
  8
0
 62
7
100
AcDbLine
 10
36.592362
 20
269.907167
 30
0.0
 11
32.598349
 21
269.907167
 31
0.0
  0
LINE
  5
56d
100
AcDbEntity
  8
0
 62
7
100
AcDbLine
 10
32.598349
 20
269.907167
 30
0.0
 11
32.598349
 21
271.904171
 31
0.0
  0
LINE
  5
56e
100
AcDbEntity
  8
0
 62
7
100
AcDbLine
 10
19.064805
 20
268.037444
 30
0.0
 11
23.058817
 21
268.037444
 31
0.0
  0
LINE
  5
56f
100
AcDbEntity
  8
0
 62
7
100
AcDbLine
 10
23.058817
 20
268.037444
 30
0.0
 11
23.058817
 21
266.040438
 31
0.0
  0
LINE
  5
570
100
AcDbEntity
  8
0
 62
7
100
AcDbLine
 10
23.058817
 20
266.040438
 30
0.0
 11
19.064805
 21
266.040438
 31
0.0
  0
LINE
  5
571
100
AcDbEntity
  8
0
 62
7
100
AcDbLine
 10
19.064805
 20
266.040438
 30
0.0
 11
19.064805
 21
268.037444
 31
0.0
  0
LINE
  5
572
100
AcDbEntity
  8
0
 62
7
100
AcDbLine
 10
32.598349
 20
268.037444
 30
0.0
 11
36.592362
 21
268.037444
 31
0.0
  0
LINE
  5
573
100
AcDbEntity
  8
0
 62
7
100
AcDbLine
 10
36.592362
 20
268.037444
 30
0.0
 11
36.592362
 21
266.040438
 31
0.0
  0
LINE
  5
574
100
AcDbEntity
  8
0
 62
7
100
AcDbLine
 10
36.592362
 20
266.040438
 30
0.0
 11
32.598349
 21
266.040438
 31
0.0
  0
LINE
  5
575
100
AcDbEntity
  8
0
 62
7
100
AcDbLine
 10
32.598349
 20
266.040438
 30
0.0
 11
32.598349
 21
268.037444
 31
0.0
  0
LINE
  5
576
100
AcDbEntity
  8
0
 62
7
100
AcDbLine
 10
19.064805
 20
264.170717
 30
0.0
 11
23.058817
 21
264.170717
 31
0.0
  0
LINE
  5
577
100
AcDbEntity
  8
0
 62
7
100
AcDbLine
 10
23.058817
 20
264.170717
 30
0.0
 11
23.058817
 21
262.173712
 31
0.0
  0
LINE
  5
578
100
AcDbEntity
  8
0
 62
7
100
AcDbLine
 10
23.058817
 20
262.173712
 30
0.0
 11
19.064805
 21
262.173712
 31
0.0
  0
LINE
  5
579
100
AcDbEntity
  8
0
 62
7
100
AcDbLine
 10
19.064805
 20
262.173712
 30
0.0
 11
19.064805
 21
264.170717
 31
0.0
  0
LINE
  5
57a
100
AcDbEntity
  8
0
 62
7
100
AcDbLine
 10
32.598349
 20
264.170717
 30
0.0
 11
36.592362
 21
264.170717
 31
0.0
  0
LINE
  5
57b
100
AcDbEntity
  8
0
 62
7
100
AcDbLine
 10
36.592362
 20
264.170717
 30
0.0
 11
36.592362
 21
262.173712
 31
0.0
  0
LINE
  5
57c
100
AcDbEntity
  8
0
 62
7
100
AcDbLine
 10
36.592362
 20
262.173712
 30
0.0
 11
32.598349
 21
262.173712
 31
0.0
  0
LINE
  5
57d
100
AcDbEntity
  8
0
 62
7
100
AcDbLine
 10
32.598349
 20
262.173712
 30
0.0
 11
32.598349
 21
264.170717
 31
0.0
  0
LINE
  5
57e
100
AcDbEntity
  8
0
 62
7
100
AcDbLine
 10
19.064805
 20
260.303989
 30
0.0
 11
23.058817
 21
260.303989
 31
0.0
  0
LINE
  5
57f
100
AcDbEntity
  8
0
 62
7
100
AcDbLine
 10
23.058817
 20
260.303989
 30
0.0
 11
23.058817
 21
258.306983
 31
0.0
  0
LINE
  5
580
100
AcDbEntity
  8
0
 62
7
100
AcDbLine
 10
23.058817
 20
258.306983
 30
0.0
 11
19.064805
 21
258.306983
 31
0.0
  0
LINE
  5
581
100
AcDbEntity
  8
0
 62
7
100
AcDbLine
 10
19.064805
 20
258.306983
 30
0.0
 11
19.064805
 21
260.303989
 31
0.0
  0
LINE
  5
582
100
AcDbEntity
  8
0
 62
7
100
AcDbLine
 10
32.598349
 20
260.303989
 30
0.0
 11
36.592362
 21
260.303989
 31
0.0
  0
LINE
  5
583
100
AcDbEntity
  8
0
 62
7
100
AcDbLine
 10
36.592362
 20
260.303989
 30
0.0
 11
36.592362
 21
258.306983
 31
0.0
  0
LINE
  5
584
100
AcDbEntity
  8
0
 62
7
100
AcDbLine
 10
36.592362
 20
258.306983
 30
0.0
 11
32.598349
 21
258.306983
 31
0.0
  0
LINE
  5
585
100
AcDbEntity
  8
0
 62
7
100
AcDbLine
 10
32.598349
 20
258.306983
 30
0.0
 11
32.598349
 21
260.303989
 31
0.0
  0
LINE
  5
586
100
AcDbEntity
  8
0
 62
7
100
AcDbLine
 10
19.064805
 20
256.437260
 30
0.0
 11
23.058817
 21
256.437260
 31
0.0
  0
LINE
  5
587
100
AcDbEntity
  8
0
 62
7
100
AcDbLine
 10
23.058817
 20
256.437260
 30
0.0
 11
23.058817
 21
254.440253
 31
0.0
  0
LINE
  5
588
100
AcDbEntity
  8
0
 62
7
100
AcDbLine
 10
23.058817
 20
254.440253
 30
0.0
 11
19.064805
 21
254.440253
 31
0.0
  0
LINE
  5
589
100
AcDbEntity
  8
0
 62
7
100
AcDbLine
 10
19.064805
 20
254.440253
 30
0.0
 11
19.064805
 21
256.437260
 31
0.0
  0
LINE
  5
58a
100
AcDbEntity
  8
0
 62
7
100
AcDbLine
 10
32.598349
 20
256.437260
 30
0.0
 11
36.592362
 21
256.437260
 31
0.0
  0
LINE
  5
58b
100
AcDbEntity
  8
0
 62
7
100
AcDbLine
 10
36.592362
 20
256.437260
 30
0.0
 11
36.592362
 21
254.440253
 31
0.0
  0
LINE
  5
58c
100
AcDbEntity
  8
0
 62
7
100
AcDbLine
 10
36.592362
 20
254.440253
 30
0.0
 11
32.598349
 21
254.440253
 31
0.0
  0
LINE
  5
58d
100
AcDbEntity
  8
0
 62
7
100
AcDbLine
 10
32.598349
 20
254.440253
 30
0.0
 11
32.598349
 21
256.437260
 31
0.0
  0
LINE
  5
58e
100
AcDbEntity
  8
0
 62
7
100
AcDbLine
 10
19.064805
 20
283.504353
 30
0.0
 11
23.058817
 21
283.504353
 31
0.0
  0
LINE
  5
58f
100
AcDbEntity
  8
0
 62
7
100
AcDbLine
 10
23.058817
 20
283.504353
 30
0.0
 11
23.058817
 21
281.507347
 31
0.0
  0
LINE
  5
590
100
AcDbEntity
  8
0
 62
7
100
AcDbLine
 10
23.058817
 20
281.507347
 30
0.0
 11
19.064805
 21
281.507347
 31
0.0
  0
LINE
  5
591
100
AcDbEntity
  8
0
 62
7
100
AcDbLine
 10
19.064805
 20
281.507347
 30
0.0
 11
19.064805
 21
283.504353
 31
0.0
  0
LINE
  5
592
100
AcDbEntity
  8
0
 62
7
100
AcDbLine
 10
32.598349
 20
283.504353
 30
0.0
 11
36.592362
 21
283.504353
 31
0.0
  0
LINE
  5
593
100
AcDbEntity
  8
0
 62
7
100
AcDbLine
 10
36.592362
 20
283.504353
 30
0.0
 11
36.592362
 21
281.507347
 31
0.0
  0
LINE
  5
594
100
AcDbEntity
  8
0
 62
7
100
AcDbLine
 10
36.592362
 20
281.507347
 30
0.0
 11
32.598349
 21
281.507347
 31
0.0
  0
LINE
  5
595
100
AcDbEntity
  8
0
 62
7
100
AcDbLine
 10
32.598349
 20
281.507347
 30
0.0
 11
32.598349
 21
283.504353
 31
0.0
  0
LINE
  5
596
100
AcDbEntity
  8
0
 62
7
100
AcDbLine
 10
19.064805
 20
279.637627
 30
0.0
 11
23.058817
 21
279.637627
 31
0.0
  0
LINE
  5
597
100
AcDbEntity
  8
0
 62
7
100
AcDbLine
 10
23.058817
 20
279.637627
 30
0.0
 11
23.058817
 21
277.640620
 31
0.0
  0
LINE
  5
598
100
AcDbEntity
  8
0
 62
7
100
AcDbLine
 10
23.058817
 20
277.640620
 30
0.0
 11
19.064805
 21
277.640620
 31
0.0
  0
LINE
  5
599
100
AcDbEntity
  8
0
 62
7
100
AcDbLine
 10
19.064805
 20
277.640620
 30
0.0
 11
19.064805
 21
279.637627
 31
0.0
  0
LINE
  5
59a
100
AcDbEntity
  8
0
 62
7
100
AcDbLine
 10
32.598349
 20
279.637627
 30
0.0
 11
36.592362
 21
279.637627
 31
0.0
  0
LINE
  5
59b
100
AcDbEntity
  8
0
 62
7
100
AcDbLine
 10
36.592362
 20
279.637627
 30
0.0
 11
36.592362
 21
277.640620
 31
0.0
  0
LINE
  5
59c
100
AcDbEntity
  8
0
 62
7
100
AcDbLine
 10
36.592362
 20
277.640620
 30
0.0
 11
32.598349
 21
277.640620
 31
0.0
  0
LINE
  5
59d
100
AcDbEntity
  8
0
 62
7
100
AcDbLine
 10
32.598349
 20
277.640620
 30
0.0
 11
32.598349
 21
279.637627
 31
0.0
  0
LINE
  5
59e
100
AcDbEntity
  8
0
 62
7
100
AcDbLine
 10
19.064805
 20
275.770897
 30
0.0
 11
23.058817
 21
275.770897
 31
0.0
  0
LINE
  5
59f
100
AcDbEntity
  8
0
 62
7
100
AcDbLine
 10
23.058817
 20
275.770897
 30
0.0
 11
23.058817
 21
273.773894
 31
0.0
  0
LINE
  5
5a0
100
AcDbEntity
  8
0
 62
7
100
AcDbLine
 10
23.058817
 20
273.773894
 30
0.0
 11
19.064805
 21
273.773894
 31
0.0
  0
LINE
  5
5a1
100
AcDbEntity
  8
0
 62
7
100
AcDbLine
 10
19.064805
 20
273.773894
 30
0.0
 11
19.064805
 21
275.770897
 31
0.0
  0
LINE
  5
5a2
100
AcDbEntity
  8
0
 62
7
100
AcDbLine
 10
32.598349
 20
275.770897
 30
0.0
 11
36.592362
 21
275.770897
 31
0.0
  0
LINE
  5
5a3
100
AcDbEntity
  8
0
 62
7
100
AcDbLine
 10
36.592362
 20
275.770897
 30
0.0
 11
36.592362
 21
273.773894
 31
0.0
  0
LINE
  5
5a4
100
AcDbEntity
  8
0
 62
7
100
AcDbLine
 10
36.592362
 20
273.773894
 30
0.0
 11
32.598349
 21
273.773894
 31
0.0
  0
LINE
  5
5a5
100
AcDbEntity
  8
0
 62
7
100
AcDbLine
 10
32.598349
 20
273.773894
 30
0.0
 11
32.598349
 21
275.770897
 31
0.0
  0
LINE
  5
5a6
100
AcDbEntity
  8
0
 62
7
100
AcDbLine
 10
5.531257
 20
271.904171
 30
0.0
 11
9.525270
 21
271.904171
 31
0.0
  0
LINE
  5
5a7
100
AcDbEntity
  8
0
 62
7
100
AcDbLine
 10
9.525270
 20
271.904171
 30
0.0
 11
9.525270
 21
269.907167
 31
0.0
  0
LINE
  5
5a8
100
AcDbEntity
  8
0
 62
7
100
AcDbLine
 10
9.525270
 20
269.907167
 30
0.0
 11
5.531257
 21
269.907167
 31
0.0
  0
LINE
  5
5a9
100
AcDbEntity
  8
0
 62
7
100
AcDbLine
 10
5.531257
 20
269.907167
 30
0.0
 11
5.531257
 21
271.904171
 31
0.0
  0
LINE
  5
5aa
100
AcDbEntity
  8
0
 62
7
100
AcDbLine
 10
5.531257
 20
268.037444
 30
0.0
 11
9.525270
 21
268.037444
 31
0.0
  0
LINE
  5
5ab
100
AcDbEntity
  8
0
 62
7
100
AcDbLine
 10
9.525270
 20
268.037444
 30
0.0
 11
9.525270
 21
266.040438
 31
0.0
  0
LINE
  5
5ac
100
AcDbEntity
  8
0
 62
7
100
AcDbLine
 10
9.525270
 20
266.040438
 30
0.0
 11
5.531257
 21
266.040438
 31
0.0
  0
LINE
  5
5ad
100
AcDbEntity
  8
0
 62
7
100
AcDbLine
 10
5.531257
 20
266.040438
 30
0.0
 11
5.531257
 21
268.037444
 31
0.0
  0
LINE
  5
5ae
100
AcDbEntity
  8
0
 62
7
100
AcDbLine
 10
5.531257
 20
264.170717
 30
0.0
 11
9.525270
 21
264.170717
 31
0.0
  0
LINE
  5
5af
100
AcDbEntity
  8
0
 62
7
100
AcDbLine
 10
9.525270
 20
264.170717
 30
0.0
 11
9.525270
 21
262.173712
 31
0.0
  0
LINE
  5
5b0
100
AcDbEntity
  8
0
 62
7
100
AcDbLine
 10
9.525270
 20
262.173712
 30
0.0
 11
5.531257
 21
262.173712
 31
0.0
  0
LINE
  5
5b1
100
AcDbEntity
  8
0
 62
7
100
AcDbLine
 10
5.531257
 20
262.173712
 30
0.0
 11
5.531257
 21
264.170717
 31
0.0
  0
LINE
  5
5b2
100
AcDbEntity
  8
0
 62
7
100
AcDbLine
 10
5.531257
 20
260.303989
 30
0.0
 11
9.525270
 21
260.303989
 31
0.0
  0
LINE
  5
5b3
100
AcDbEntity
  8
0
 62
7
100
AcDbLine
 10
9.525270
 20
260.303989
 30
0.0
 11
9.525270
 21
258.306983
 31
0.0
  0
LINE
  5
5b4
100
AcDbEntity
  8
0
 62
7
100
AcDbLine
 10
9.525270
 20
258.306983
 30
0.0
 11
5.531257
 21
258.306983
 31
0.0
  0
LINE
  5
5b5
100
AcDbEntity
  8
0
 62
7
100
AcDbLine
 10
5.531257
 20
258.306983
 30
0.0
 11
5.531257
 21
260.303989
 31
0.0
  0
LINE
  5
5b6
100
AcDbEntity
  8
0
 62
7
100
AcDbLine
 10
5.531257
 20
256.437260
 30
0.0
 11
9.525270
 21
256.437260
 31
0.0
  0
LINE
  5
5b7
100
AcDbEntity
  8
0
 62
7
100
AcDbLine
 10
9.525270
 20
256.437260
 30
0.0
 11
9.525270
 21
254.440253
 31
0.0
  0
LINE
  5
5b8
100
AcDbEntity
  8
0
 62
7
100
AcDbLine
 10
9.525270
 20
254.440253
 30
0.0
 11
5.531257
 21
254.440253
 31
0.0
  0
LINE
  5
5b9
100
AcDbEntity
  8
0
 62
7
100
AcDbLine
 10
5.531257
 20
254.440253
 30
0.0
 11
5.531257
 21
256.437260
 31
0.0
  0
LINE
  5
5ba
100
AcDbEntity
  8
0
 62
7
100
AcDbLine
 10
5.531257
 20
283.504353
 30
0.0
 11
9.525270
 21
283.504353
 31
0.0
  0
LINE
  5
5bb
100
AcDbEntity
  8
0
 62
7
100
AcDbLine
 10
9.525270
 20
283.504353
 30
0.0
 11
9.525270
 21
281.507347
 31
0.0
  0
LINE
  5
5bc
100
AcDbEntity
  8
0
 62
7
100
AcDbLine
 10
9.525270
 20
281.507347
 30
0.0
 11
5.531257
 21
281.507347
 31
0.0
  0
LINE
  5
5bd
100
AcDbEntity
  8
0
 62
7
100
AcDbLine
 10
5.531257
 20
281.507347
 30
0.0
 11
5.531257
 21
283.504353
 31
0.0
  0
LINE
  5
5be
100
AcDbEntity
  8
0
 62
7
100
AcDbLine
 10
5.531257
 20
279.637627
 30
0.0
 11
9.525270
 21
279.637627
 31
0.0
  0
LINE
  5
5bf
100
AcDbEntity
  8
0
 62
7
100
AcDbLine
 10
9.525270
 20
279.637627
 30
0.0
 11
9.525270
 21
277.640620
 31
0.0
  0
LINE
  5
5c0
100
AcDbEntity
  8
0
 62
7
100
AcDbLine
 10
9.525270
 20
277.640620
 30
0.0
 11
5.531257
 21
277.640620
 31
0.0
  0
LINE
  5
5c1
100
AcDbEntity
  8
0
 62
7
100
AcDbLine
 10
5.531257
 20
277.640620
 30
0.0
 11
5.531257
 21
279.637627
 31
0.0
  0
LINE
  5
5c2
100
AcDbEntity
  8
0
 62
7
100
AcDbLine
 10
5.531257
 20
275.770897
 30
0.0
 11
9.525270
 21
275.770897
 31
0.0
  0
LINE
  5
5c3
100
AcDbEntity
  8
0
 62
7
100
AcDbLine
 10
9.525270
 20
275.770897
 30
0.0
 11
9.525270
 21
273.773894
 31
0.0
  0
LINE
  5
5c4
100
AcDbEntity
  8
0
 62
7
100
AcDbLine
 10
9.525270
 20
273.773894
 30
0.0
 11
5.531257
 21
273.773894
 31
0.0
  0
LINE
  5
5c5
100
AcDbEntity
  8
0
 62
7
100
AcDbLine
 10
5.531257
 20
273.773894
 30
0.0
 11
5.531257
 21
275.770897
 31
0.0
  0
ENDSEC
  0
SECTION
  2
OBJECTS
  0
DICTIONARY
  5
C
330
0
100
AcDbDictionary
  3
ACAD_GROUP
350
D
  3
ACAD_MLINESTYLE
350
17
  0
DICTIONARY
  5
D
330
C
100
AcDbDictionary
  0
DICTIONARY
  5
1A
330
C
100
AcDbDictionary
  0
DICTIONARY
  5
17
330
C
100
AcDbDictionary
  3
STANDARD
350
18
  0
DICTIONARY
  5
19
330
C
100
AcDbDictionary
  0
ENDSEC
  0
EOF
