  0
SECTION
  2
HEADER
  9
$ACADVER
  1
AC1014
  9
$HANDSEED
  5
FFFF
  9
$MEASUREMENT
 70
     1
  0
ENDSEC
  0
SECTION
  2
TABLES
  0
TABLE
  2
VPORT
  5
8
330
0
100
AcDbSymbolTable
 70
     4
  0
VPORT
  5
2E
330
8
100
AcDbSymbolTableRecord
100
AcDbViewportTableRecord
  2
*ACTIVE
 70
     0
 10
0.0
 20
0.0
 11
1.0
 21
1.0
 12
210.0
 22
148.5
 13
0.0
 23
0.0
 14
10.0
 24
10.0
 15
10.0
 25
10.0
 16
0.0
 26
0.0
 36
1.0
 17
0.0
 27
0.0
 37
0.0
 40
341.0
 41
1.24
 42
50.0
 43
0.0
 44
0.0
 50
0.0
 51
0.0
 71
     0
 72
   100
 73
     1
 74
     3
 75
     0
 76
     0
 77
     0
 78
     0
  0
ENDTAB
  0
TABLE
  2
LTYPE
  5
5
330
0
100
AcDbSymbolTable
 70
     1
  0
LTYPE
  5
14
330
5
100
AcDbSymbolTableRecord
100
AcDbLinetypeTableRecord
  2
BYBLOCK
 70
     0
  3

 72
    65
 73
     0
 40
0.0
  0
LTYPE
  5
15
330
5
100
AcDbSymbolTableRecord
100
AcDbLinetypeTableRecord
  2
BYLAYER
 70
     0
  3

 72
    65
 73
     0
 40
0.0
  0
LTYPE
  5
16
330
5
100
AcDbSymbolTableRecord
100
AcDbLinetypeTableRecord
  2
CONTINUOUS
 70
     0
  3
Solid line
 72
    65
 73
     0
 40
0.0
  0
ENDTAB
  0
TABLE
  2
LAYER
  5
2
100
AcDbSymbolTable
 70
1
  0
LAYER
  5
50
100
AcDbSymbolTableRecord
100
AcDbLayerTableRecord
  2
0
 70
0
  6
CONTINUOUS
  0
ENDTAB
  0
TABLE
  2
STYLE
  5
3
330
0
100
AcDbSymbolTable
 70
     1
  0
STYLE
  5
11
330
3
100
AcDbSymbolTableRecord
100
AcDbTextStyleTableRecord
  2
STANDARD
 70
     0
 40
0.0
 41
1.0
 50
0.0
 71
     0
 42
2.5
  3
txt
  4

  0
ENDTAB
  0
TABLE
  2
VIEW
  5
6
330
0
100
AcDbSymbolTable
 70
     0
  0
ENDTAB
  0
TABLE
  2
UCS
  5
7
330
0
100
AcDbSymbolTable
 70
     0
  0
ENDTAB
  0
TABLE
  2
APPID
  5
9
330
0
100
AcDbSymbolTable
 70
     2
  0
APPID
  5
12
330
9
100
AcDbSymbolTableRecord
100
AcDbRegAppTableRecord
  2
ACAD
 70
     0
  0
ENDTAB
  0
TABLE
  2
DIMSTYLE
  5
A
330
0
100
AcDbSymbolTable
 70
     1
  0
DIMSTYLE
105
27
330
A
100
AcDbSymbolTableRecord
100
AcDbDimStyleTableRecord
  2
ISO-25
 70
     0
  3

  4

  5

  6

  7

 40
1.0
 41
2.5
 42
0.625
 43
3.75
 44
1.25
 45
0.0
 46
0.0
 47
0.0
 48
0.0
140
2.5
141
2.5
142
0.0
143
0.03937007874016
144
1.0
145
0.0
146
1.0
147
0.625
 71
     0
 72
     0
 73
     0
 74
     0
 75
     0
 76
     0
 77
     1
 78
     8
170
     0
171
     3
172
     1
173
     0
174
     0
175
     0
176
     0
177
     0
178
     0
270
     2
271
     2
272
     2
273
     2
274
     3
340
11
275
     0
280
     0
281
     0
282
     0
283
     0
284
     8
285
     0
286
     0
287
     3
288
     0
  0
ENDTAB
  0
TABLE
  2
BLOCK_RECORD
  5
1
330
0
100
AcDbSymbolTable
 70
     1
  0
BLOCK_RECORD
  5
1F
330
1
100
AcDbSymbolTableRecord
100
AcDbBlockTableRecord
  2
*MODEL_SPACE
  0
BLOCK_RECORD
  5
1B
330
1
100
AcDbSymbolTableRecord
100
AcDbBlockTableRecord
  2
*PAPER_SPACE
  0
ENDTAB
  0
ENDSEC
  0
SECTION
  2
BLOCKS
  0
BLOCK
  5
20
330
1F
100
AcDbEntity
  8
0
100
AcDbBlockBegin
  2
*MODEL_SPACE
 70
     0
 10
0.0
 20
0.0
 30
0.0
  3
*MODEL_SPACE
  1

  0
ENDBLK
  5
21
330
1F
100
AcDbEntity
  8
0
100
AcDbBlockEnd
  0
BLOCK
  5
1C
330
1B
100
AcDbEntity
 67
     1
  8
0
100
AcDbBlockBegin
  2
*PAPER_SPACE
  1

  0
ENDBLK
  5
1D
330
1B
100
AcDbEntity
 67
     1
  8
0
100
AcDbBlockEnd
  0
ENDSEC
  0
SECTION
  2
ENTITIES
  0
LINE
  5
100
100
AcDbEntity
  8
0
 62
7
100
AcDbLine
 10
0.292264
 20
106.980805
 30
0.0
 11
3.319676
 21
106.607425
 31
0.0
  0
LINE
  5
101
100
AcDbEntity
  8
0
 62
7
100
AcDbLine
 10
3.319676
 20
106.607425
 30
0.0
 11
4.787512
 21
106.434036
 31
0.0
  0
LINE
  5
102
100
AcDbEntity
  8
0
 62
7
100
AcDbLine
 10
4.787512
 20
106.434036
 30
0.0
 11
7.814924
 21
106.056986
 31
0.0
  0
LINE
  5
103
100
AcDbEntity
  8
0
 62
7
100
AcDbLine
 10
7.814924
 20
106.056986
 30
0.0
 11
9.787329
 21
105.796445
 31
0.0
  0
LINE
  5
104
100
AcDbEntity
  8
0
 62
7
100
AcDbLine
 10
9.787329
 20
105.796445
 30
0.0
 11
14.890812
 21
105.845985
 31
0.0
  0
LINE
  5
105
100
AcDbEntity
  8
0
 62
7
100
AcDbLine
 10
14.890812
 20
105.845985
 30
0.0
 11
14.977194
 21
101.825667
 31
0.0
  0
LINE
  5
106
100
AcDbEntity
  8
0
 62
7
100
AcDbLine
 10
14.977194
 20
101.825667
 30
0.0
 11
15.523816
 21
97.890313
 31
0.0
  0
LINE
  5
107
100
AcDbEntity
  8
0
 62
7
100
AcDbLine
 10
15.523816
 20
97.890313
 30
0.0
 11
16.487083
 21
97.890313
 31
0.0
  0
LINE
  5
108
100
AcDbEntity
  8
0
 62
7
100
AcDbLine
 10
16.487083
 20
97.890313
 30
0.0
 11
17.450351
 21
97.890313
 31
0.0
  0
LINE
  5
109
100
AcDbEntity
  8
0
 62
7
100
AcDbLine
 10
17.450351
 20
97.890313
 30
0.0
 11
17.459525
 21
100.344351
 31
0.0
  0
LINE
  5
10a
100
AcDbEntity
  8
0
 62
7
100
AcDbLine
 10
17.459525
 20
100.344351
 30
0.0
 11
17.450351
 21
104.747860
 31
0.0
  0
LINE
  5
10b
100
AcDbEntity
  8
0
 62
7
100
AcDbLine
 10
17.450351
 20
104.747860
 30
0.0
 11
17.432003
 21
106.697329
 31
0.0
  0
LINE
  5
10c
100
AcDbEntity
  8
0
 62
7
100
AcDbLine
 10
17.432003
 20
106.697329
 30
0.0
 11
17.854006
 21
106.697329
 31
0.0
  0
LINE
  5
10d
100
AcDbEntity
  8
0
 62
7
100
AcDbLine
 10
17.854006
 20
106.697329
 30
0.0
 11
18.276009
 21
106.697329
 31
0.0
  0
LINE
  5
10e
100
AcDbEntity
  8
0
 62
7
100
AcDbLine
 10
18.276009
 20
106.697329
 30
0.0
 11
18.276009
 21
129.357050
 31
0.0
  0
LINE
  5
10f
100
AcDbEntity
  8
0
 62
7
100
AcDbLine
 10
18.276009
 20
129.357050
 30
0.0
 11
18.276009
 21
152.016771
 31
0.0
  0
LINE
  5
110
100
AcDbEntity
  8
0
 62
7
100
AcDbLine
 10
18.276009
 20
152.016771
 30
0.0
 11
20.202544
 21
152.016587
 31
0.0
  0
LINE
  5
111
100
AcDbEntity
  8
0
 62
7
100
AcDbLine
 10
20.202544
 20
152.016587
 30
0.0
 11
22.129079
 21
152.016587
 31
0.0
  0
LINE
  5
112
100
AcDbEntity
  8
0
 62
7
100
AcDbLine
 10
22.129079
 20
152.016587
 30
0.0
 11
22.129079
 21
157.245754
 31
0.0
  0
LINE
  5
113
100
AcDbEntity
  8
0
 62
7
100
AcDbLine
 10
22.129079
 20
157.245754
 30
0.0
 11
22.129079
 21
162.475103
 31
0.0
  0
LINE
  5
114
100
AcDbEntity
  8
0
 62
7
100
AcDbLine
 10
22.129079
 20
162.475103
 30
0.0
 11
23.872134
 21
162.475103
 31
0.0
  0
LINE
  5
115
100
AcDbEntity
  8
0
 62
7
100
AcDbLine
 10
23.872134
 20
162.475103
 30
0.0
 11
25.615190
 21
162.475103
 31
0.0
  0
LINE
  5
116
100
AcDbEntity
  8
0
 62
7
100
AcDbLine
 10
25.615190
 20
162.475103
 30
0.0
 11
25.615190
 21
163.392501
 31
0.0
  0
LINE
  5
117
100
AcDbEntity
  8
0
 62
7
100
AcDbLine
 10
25.615190
 20
163.392501
 30
0.0
 11
25.615190
 21
164.309899
 31
0.0
  0
LINE
  5
118
100
AcDbEntity
  8
0
 62
7
100
AcDbLine
 10
25.615190
 20
164.309899
 30
0.0
 11
40.293551
 21
164.309899
 31
0.0
  0
LINE
  5
119
100
AcDbEntity
  8
0
 62
7
100
AcDbLine
 10
40.293551
 20
164.309899
 30
0.0
 11
54.971913
 21
164.126419
 31
0.0
  0
LINE
  5
11a
100
AcDbEntity
  8
0
 62
7
100
AcDbLine
 10
54.971913
 20
164.126419
 30
0.0
 11
55.228784
 21
164.054862
 31
0.0
  0
LINE
  5
11b
100
AcDbEntity
  8
0
 62
7
100
AcDbLine
 10
55.228784
 20
164.054862
 30
0.0
 11
55.338872
 21
159.720158
 31
0.0
  0
LINE
  5
11c
100
AcDbEntity
  8
0
 62
7
100
AcDbLine
 10
55.338872
 20
159.720158
 30
0.0
 11
55.329698
 21
154.654105
 31
0.0
  0
LINE
  5
11d
100
AcDbEntity
  8
0
 62
7
100
AcDbLine
 10
55.329698
 20
154.654105
 30
0.0
 11
55.338872
 21
154.034862
 31
0.0
  0
LINE
  5
11e
100
AcDbEntity
  8
0
 62
7
100
AcDbLine
 10
55.338872
 20
154.034862
 30
0.0
 11
57.467234
 21
154.024037
 31
0.0
  0
LINE
  5
11f
100
AcDbEntity
  8
0
 62
7
100
AcDbLine
 10
57.467234
 20
154.024037
 30
0.0
 11
59.329551
 21
153.951838
 31
0.0
  0
LINE
  5
120
100
AcDbEntity
  8
0
 62
7
100
AcDbLine
 10
59.329551
 20
153.951838
 30
0.0
 11
59.925860
 21
153.605520
 31
0.0
  0
LINE
  5
121
100
AcDbEntity
  8
0
 62
7
100
AcDbLine
 10
59.925860
 20
153.605520
 30
0.0
 11
61.173520
 21
153.258010
 31
0.0
  0
LINE
  5
122
100
AcDbEntity
  8
0
 62
7
100
AcDbLine
 10
61.173520
 20
153.258010
 30
0.0
 11
62.834010
 21
152.111813
 31
0.0
  0
LINE
  5
123
100
AcDbEntity
  8
0
 62
7
100
AcDbLine
 10
62.834010
 20
152.111813
 30
0.0
 11
63.136751
 21
151.611831
 31
0.0
  0
LINE
  5
124
100
AcDbEntity
  8
0
 62
7
100
AcDbLine
 10
63.136751
 20
151.611831
 30
0.0
 11
63.136751
 21
88.880184
 31
0.0
  0
LINE
  5
125
100
AcDbEntity
  8
0
 62
7
100
AcDbLine
 10
63.136751
 20
88.880184
 30
0.0
 11
63.136751
 21
26.145784
 31
0.0
  0
LINE
  5
126
100
AcDbEntity
  8
0
 62
7
100
AcDbLine
 10
63.136751
 20
26.145784
 30
0.0
 11
68.044828
 21
26.145784
 31
0.0
  0
LINE
  5
127
100
AcDbEntity
  8
0
 62
7
100
AcDbLine
 10
68.044828
 20
26.145784
 30
0.0
 11
72.952906
 21
26.145784
 31
0.0
  0
LINE
  5
128
100
AcDbEntity
  8
0
 62
7
100
AcDbLine
 10
72.952906
 20
26.145784
 30
0.0
 11
72.952906
 21
57.594174
 31
0.0
  0
LINE
  5
129
100
AcDbEntity
  8
0
 62
7
100
AcDbLine
 10
72.952906
 20
57.594174
 30
0.0
 11
72.851992
 21
90.035187
 31
0.0
  0
LINE
  5
12a
100
AcDbEntity
  8
0
 62
7
100
AcDbLine
 10
72.851992
 20
90.035187
 30
0.0
 11
72.806122
 21
91.081021
 31
0.0
  0
LINE
  5
12b
100
AcDbEntity
  8
0
 62
7
100
AcDbLine
 10
72.806122
 20
91.081021
 30
0.0
 11
83.576370
 21
93.987336
 31
0.0
  0
LINE
  5
12c
100
AcDbEntity
  8
0
 62
7
100
AcDbLine
 10
83.576370
 20
93.987336
 30
0.0
 11
84.301114
 21
94.282738
 31
0.0
  0
LINE
  5
12d
100
AcDbEntity
  8
0
 62
7
100
AcDbLine
 10
84.301114
 20
94.282738
 30
0.0
 11
83.668110
 21
112.568307
 31
0.0
  0
LINE
  5
12e
100
AcDbEntity
  8
0
 62
7
100
AcDbLine
 10
83.668110
 20
112.568307
 30
0.0
 11
83.447934
 21
117.568124
 31
0.0
  0
LINE
  5
12f
100
AcDbEntity
  8
0
 62
7
100
AcDbLine
 10
83.447934
 20
117.568124
 30
0.0
 11
83.365368
 21
119.540529
 31
0.0
  0
LINE
  5
130
100
AcDbEntity
  8
0
 62
7
100
AcDbLine
 10
83.365368
 20
119.540529
 30
0.0
 11
83.273629
 21
122.063372
 31
0.0
  0
LINE
  5
131
100
AcDbEntity
  8
0
 62
7
100
AcDbLine
 10
83.273629
 20
122.063372
 30
0.0
 11
83.145193
 21
124.448606
 31
0.0
  0
LINE
  5
132
100
AcDbEntity
  8
0
 62
7
100
AcDbLine
 10
83.145193
 20
124.448606
 30
0.0
 11
83.062627
 21
125.916442
 31
0.0
  0
LINE
  5
133
100
AcDbEntity
  8
0
 62
7
100
AcDbLine
 10
83.062627
 20
125.916442
 30
0.0
 11
82.860800
 21
130.136471
 31
0.0
  0
LINE
  5
134
100
AcDbEntity
  8
0
 62
7
100
AcDbLine
 10
82.860800
 20
130.136471
 30
0.0
 11
82.787408
 21
131.558437
 31
0.0
  0
LINE
  5
135
100
AcDbEntity
  8
0
 62
7
100
AcDbLine
 10
82.787408
 20
131.558437
 30
0.0
 11
82.732364
 21
133.163883
 31
0.0
  0
LINE
  5
136
100
AcDbEntity
  8
0
 62
7
100
AcDbLine
 10
82.732364
 20
133.163883
 30
0.0
 11
82.631450
 21
135.686727
 31
0.0
  0
LINE
  5
137
100
AcDbEntity
  8
0
 62
7
100
AcDbLine
 10
82.631450
 20
135.686727
 30
0.0
 11
82.503015
 21
138.117830
 31
0.0
  0
LINE
  5
138
100
AcDbEntity
  8
0
 62
7
100
AcDbLine
 10
82.503015
 20
138.117830
 30
0.0
 11
82.420449
 21
139.539796
 31
0.0
  0
LINE
  5
139
100
AcDbEntity
  8
0
 62
7
100
AcDbLine
 10
82.420449
 20
139.539796
 30
0.0
 11
82.227795
 21
143.805512
 31
0.0
  0
LINE
  5
13a
100
AcDbEntity
  8
0
 62
7
100
AcDbLine
 10
82.227795
 20
143.805512
 30
0.0
 11
82.145229
 21
145.227478
 31
0.0
  0
LINE
  5
13b
100
AcDbEntity
  8
0
 62
7
100
AcDbLine
 10
82.145229
 20
145.227478
 30
0.0
 11
82.090186
 21
146.695314
 31
0.0
  0
LINE
  5
13c
100
AcDbEntity
  8
0
 62
7
100
AcDbLine
 10
82.090186
 20
146.695314
 30
0.0
 11
81.998446
 21
149.997946
 31
0.0
  0
LINE
  5
13d
100
AcDbEntity
  8
0
 62
7
100
AcDbLine
 10
81.998446
 20
149.997946
 30
0.0
 11
81.970924
 21
152.062090
 31
0.0
  0
LINE
  5
13e
100
AcDbEntity
  8
0
 62
7
100
AcDbLine
 10
81.970924
 20
152.062090
 30
0.0
 11
83.732327
 21
153.787532
 31
0.0
  0
LINE
  5
13f
100
AcDbEntity
  8
0
 62
7
100
AcDbLine
 10
83.732327
 20
153.787532
 30
0.0
 11
85.484557
 21
155.513065
 31
0.0
  0
LINE
  5
140
100
AcDbEntity
  8
0
 62
7
100
AcDbLine
 10
85.484557
 20
155.513065
 30
0.0
 11
89.062407
 21
156.190104
 31
0.0
  0
LINE
  5
141
100
AcDbEntity
  8
0
 62
7
100
AcDbLine
 10
89.062407
 20
156.190104
 30
0.0
 11
95.796106
 21
157.464828
 31
0.0
  0
LINE
  5
142
100
AcDbEntity
  8
0
 62
7
100
AcDbLine
 10
95.796106
 20
157.464828
 30
0.0
 11
100.887662
 21
158.429380
 31
0.0
  0
LINE
  5
143
100
AcDbEntity
  8
0
 62
7
100
AcDbLine
 10
100.887662
 20
158.429380
 30
0.0
 11
108.713064
 21
159.910610
 31
0.0
  0
LINE
  5
144
100
AcDbEntity
  8
0
 62
7
100
AcDbLine
 10
108.713064
 20
159.910610
 30
0.0
 11
109.667157
 21
160.086750
 31
0.0
  0
LINE
  5
145
100
AcDbEntity
  8
0
 62
7
100
AcDbLine
 10
109.667157
 20
160.086750
 30
0.0
 11
111.648736
 21
159.276505
 31
0.0
  0
LINE
  5
146
100
AcDbEntity
  8
0
 62
7
100
AcDbLine
 10
111.648736
 20
159.276505
 30
0.0
 11
116.529291
 21
157.292082
 31
0.0
  0
LINE
  5
147
100
AcDbEntity
  8
0
 62
7
100
AcDbLine
 10
116.529291
 20
157.292082
 30
0.0
 11
122.859335
 21
154.717865
 31
0.0
  0
LINE
  5
148
100
AcDbEntity
  8
0
 62
7
100
AcDbLine
 10
122.859335
 20
154.717865
 30
0.0
 11
126.299576
 21
153.317457
 31
0.0
  0
LINE
  5
149
100
AcDbEntity
  8
0
 62
7
100
AcDbLine
 10
126.299576
 20
153.317457
 30
0.0
 11
126.372968
 21
152.598034
 31
0.0
  0
LINE
  5
14a
100
AcDbEntity
  8
0
 62
7
100
AcDbLine
 10
126.372968
 20
152.598034
 30
0.0
 11
126.437185
 21
151.524587
 31
0.0
  0
LINE
  5
14b
100
AcDbEntity
  8
0
 62
7
100
AcDbLine
 10
126.437185
 20
151.524587
 30
0.0
 11
126.528925
 21
151.044641
 31
0.0
  0
LINE
  5
14c
100
AcDbEntity
  8
0
 62
7
100
AcDbLine
 10
126.528925
 20
151.044641
 30
0.0
 11
126.657361
 21
148.759496
 31
0.0
  0
LINE
  5
14d
100
AcDbEntity
  8
0
 62
7
100
AcDbLine
 10
126.657361
 20
148.759496
 30
0.0
 11
126.620665
 21
147.108180
 31
0.0
  0
LINE
  5
14e
100
AcDbEntity
  8
0
 62
7
100
AcDbLine
 10
126.620665
 20
147.108180
 30
0.0
 11
126.703231
 21
145.158710
 31
0.0
  0
LINE
  5
14f
100
AcDbEntity
  8
0
 62
7
100
AcDbLine
 10
126.703231
 20
145.158710
 30
0.0
 11
126.941754
 21
144.677076
 31
0.0
  0
LINE
  5
150
100
AcDbEntity
  8
0
 62
7
100
AcDbLine
 10
126.941754
 20
144.677076
 30
0.0
 11
127.033494
 21
144.148747
 31
0.0
  0
LINE
  5
151
100
AcDbEntity
  8
0
 62
7
100
AcDbLine
 10
127.033494
 20
144.148747
 30
0.0
 11
126.767449
 21
143.924627
 31
0.0
  0
LINE
  5
152
100
AcDbEntity
  8
0
 62
7
100
AcDbLine
 10
126.767449
 20
143.924627
 30
0.0
 11
126.932580
 21
140.241642
 31
0.0
  0
LINE
  5
153
100
AcDbEntity
  8
0
 62
7
100
AcDbLine
 10
126.932580
 20
140.241642
 30
0.0
 11
127.226147
 21
136.415177
 31
0.0
  0
LINE
  5
154
100
AcDbEntity
  8
0
 62
7
100
AcDbLine
 10
127.226147
 20
136.415177
 30
0.0
 11
127.244495
 21
135.989504
 31
0.0
  0
LINE
  5
155
100
AcDbEntity
  8
0
 62
7
100
AcDbLine
 10
127.244495
 20
135.989504
 30
0.0
 11
128.758201
 21
99.951375
 31
0.0
  0
LINE
  5
156
100
AcDbEntity
  8
0
 62
7
100
AcDbLine
 10
128.758201
 20
99.951375
 30
0.0
 11
130.409517
 21
64.160025
 31
0.0
  0
LINE
  5
157
100
AcDbEntity
  8
0
 62
7
100
AcDbLine
 10
130.409517
 20
64.160025
 30
0.0
 11
135.702901
 21
63.848110
 31
0.0
  0
LINE
  5
158
100
AcDbEntity
  8
0
 62
7
100
AcDbLine
 10
135.702901
 20
63.848110
 30
0.0
 11
140.996285
 21
63.541699
 31
0.0
  0
LINE
  5
159
100
AcDbEntity
  8
0
 62
7
100
AcDbLine
 10
140.996285
 20
63.541699
 30
0.0
 11
141.078851
 21
62.833468
 31
0.0
  0
LINE
  5
15a
100
AcDbEntity
  8
0
 62
7
100
AcDbLine
 10
141.078851
 20
62.833468
 30
0.0
 11
141.372418
 21
61.744517
 31
0.0
  0
LINE
  5
15b
100
AcDbEntity
  8
0
 62
7
100
AcDbLine
 10
141.372418
 20
61.744517
 30
0.0
 11
141.739377
 21
61.056469
 31
0.0
  0
LINE
  5
15c
100
AcDbEntity
  8
0
 62
7
100
AcDbLine
 10
141.739377
 20
61.056469
 30
0.0
 11
142.812733
 21
48.989021
 31
0.0
  0
LINE
  5
15d
100
AcDbEntity
  8
0
 62
7
100
AcDbLine
 10
142.812733
 20
48.989021
 30
0.0
 11
143.821870
 21
36.622501
 31
0.0
  0
LINE
  5
15e
100
AcDbEntity
  8
0
 62
7
100
AcDbLine
 10
143.821870
 20
36.622501
 30
0.0
 11
143.876914
 21
36.044541
 31
0.0
  0
LINE
  5
15f
100
AcDbEntity
  8
0
 62
7
100
AcDbLine
 10
143.876914
 20
36.044541
 30
0.0
 11
144.399830
 21
36.099585
 31
0.0
  0
LINE
  5
160
100
AcDbEntity
  8
0
 62
7
100
AcDbLine
 10
144.399830
 20
36.099585
 30
0.0
 11
146.601585
 21
36.283064
 31
0.0
  0
LINE
  5
161
100
AcDbEntity
  8
0
 62
7
100
AcDbLine
 10
146.601585
 20
36.283064
 30
0.0
 11
148.326292
 21
36.448196
 31
0.0
  0
LINE
  5
162
100
AcDbEntity
  8
0
 62
7
100
AcDbLine
 10
148.326292
 20
36.448196
 30
0.0
 11
145.097053
 21
95.114855
 31
0.0
  0
LINE
  5
163
100
AcDbEntity
  8
0
 62
7
100
AcDbLine
 10
145.097053
 20
95.114855
 30
0.0
 11
145.032835
 21
95.871708
 31
0.0
  0
LINE
  5
164
100
AcDbEntity
  8
0
 62
7
100
AcDbLine
 10
145.032835
 20
95.871708
 30
0.0
 11
145.390620
 21
95.871708
 31
0.0
  0
LINE
  5
165
100
AcDbEntity
  8
0
 62
7
100
AcDbLine
 10
145.390620
 20
95.871708
 30
0.0
 11
145.876841
 21
96.215732
 31
0.0
  0
LINE
  5
166
100
AcDbEntity
  8
0
 62
7
100
AcDbLine
 10
145.876841
 20
96.215732
 30
0.0
 11
147.629070
 21
97.988144
 31
0.0
  0
LINE
  5
167
100
AcDbEntity
  8
0
 62
7
100
AcDbLine
 10
147.629070
 20
97.988144
 30
0.0
 11
149.784954
 21
97.885395
 31
0.0
  0
LINE
  5
168
100
AcDbEntity
  8
0
 62
7
100
AcDbLine
 10
149.784954
 20
97.885395
 30
0.0
 11
151.188573
 21
96.489116
 31
0.0
  0
LINE
  5
169
100
AcDbEntity
  8
0
 62
7
100
AcDbLine
 10
151.188573
 20
96.489116
 30
0.0
 11
151.390400
 21
96.051517
 31
0.0
  0
LINE
  5
16a
100
AcDbEntity
  8
0
 62
7
100
AcDbLine
 10
151.390400
 20
96.051517
 30
0.0
 11
152.372016
 21
96.102892
 31
0.0
  0
LINE
  5
16b
100
AcDbEntity
  8
0
 62
7
100
AcDbLine
 10
152.372016
 20
96.102892
 30
0.0
 11
157.720444
 21
96.290041
 31
0.0
  0
LINE
  5
16c
100
AcDbEntity
  8
0
 62
7
100
AcDbLine
 10
157.720444
 20
96.290041
 30
0.0
 11
169.784222
 21
96.696448
 31
0.0
  0
LINE
  5
16d
100
AcDbEntity
  8
0
 62
7
100
AcDbLine
 10
169.784222
 20
96.696448
 30
0.0
 11
176.435354
 21
96.926715
 31
0.0
  0
LINE
  5
16e
100
AcDbEntity
  8
0
 62
7
100
AcDbLine
 10
176.435354
 20
96.926715
 30
0.0
 11
183.040617
 21
97.155147
 31
0.0
  0
LINE
  5
16f
100
AcDbEntity
  8
0
 62
7
100
AcDbLine
 10
183.040617
 20
97.155147
 30
0.0
 11
189.600010
 21
97.382661
 31
0.0
  0
LINE
  5
170
100
AcDbEntity
  8
0
 62
7
100
AcDbLine
 10
189.600010
 20
97.382661
 30
0.0
 11
201.480309
 21
97.799160
 31
0.0
  0
LINE
  5
171
100
AcDbEntity
  8
0
 62
7
100
AcDbLine
 10
201.480309
 20
97.799160
 30
0.0
 11
204.039848
 21
97.889065
 31
0.0
  0
LINE
  5
172
100
AcDbEntity
  8
0
 62
7
100
AcDbLine
 10
204.039848
 20
97.889065
 30
0.0
 11
204.067370
 21
97.995483
 31
0.0
  0
LINE
  5
173
100
AcDbEntity
  8
0
 62
7
100
AcDbLine
 10
204.067370
 20
97.995483
 30
0.0
 11
204.039848
 21
98.247767
 31
0.0
  0
LINE
  5
174
100
AcDbEntity
  8
0
 62
7
100
AcDbLine
 10
204.039848
 20
98.247767
 30
0.0
 11
203.773803
 21
102.935669
 31
0.0
  0
LINE
  5
175
100
AcDbEntity
  8
0
 62
7
100
AcDbLine
 10
203.773803
 20
102.935669
 30
0.0
 11
203.067407
 21
112.476604
 31
0.0
  0
LINE
  5
176
100
AcDbEntity
  8
0
 62
7
100
AcDbLine
 10
203.067407
 20
112.476604
 30
0.0
 11
203.287582
 21
113.649956
 31
0.0
  0
LINE
  5
177
100
AcDbEntity
  8
0
 62
7
100
AcDbLine
 10
203.287582
 20
113.649956
 30
0.0
 11
203.544453
 21
114.321491
 31
0.0
  0
LINE
  5
178
100
AcDbEntity
  8
0
 62
7
100
AcDbLine
 10
203.544453
 20
114.321491
 30
0.0
 11
203.755455
 21
114.643497
 31
0.0
  0
LINE
  5
179
100
AcDbEntity
  8
0
 62
7
100
AcDbLine
 10
203.755455
 20
114.643497
 30
0.0
 11
204.186632
 21
114.835233
 31
0.0
  0
LINE
  5
17a
100
AcDbEntity
  8
0
 62
7
100
AcDbLine
 10
204.186632
 20
114.835233
 30
0.0
 11
206.525996
 21
115.382002
 31
0.0
  0
LINE
  5
17b
100
AcDbEntity
  8
0
 62
7
100
AcDbLine
 10
206.525996
 20
115.382002
 30
0.0
 11
215.975191
 21
115.596673
 31
0.0
  0
LINE
  5
17c
100
AcDbEntity
  8
0
 62
7
100
AcDbLine
 10
215.975191
 20
115.596673
 30
0.0
 11
230.699422
 21
116.004915
 31
0.0
  0
LINE
  5
17d
100
AcDbEntity
  8
0
 62
7
100
AcDbLine
 10
230.699422
 20
116.004915
 30
0.0
 11
239.139480
 21
116.239769
 31
0.0
  0
LINE
  5
17e
100
AcDbEntity
  8
0
 62
7
100
AcDbLine
 10
239.139480
 20
116.239769
 30
0.0
 11
247.120839
 21
116.464531
 31
0.0
  0
LINE
  5
17f
100
AcDbEntity
  8
0
 62
7
100
AcDbLine
 10
247.120839
 20
116.464531
 30
0.0
 11
251.616088
 21
116.590215
 31
0.0
  0
LINE
  5
180
100
AcDbEntity
  8
0
 62
7
100
AcDbLine
 10
251.616088
 20
116.590215
 30
0.0
 11
253.909582
 21
116.181056
 31
0.0
  0
LINE
  5
181
100
AcDbEntity
  8
0
 62
7
100
AcDbLine
 10
253.909582
 20
116.181056
 30
0.0
 11
256.680122
 21
115.676487
 31
0.0
  0
LINE
  5
182
100
AcDbEntity
  8
0
 62
7
100
AcDbLine
 10
256.680122
 20
115.676487
 30
0.0
 11
257.166343
 21
115.582912
 31
0.0
  0
LINE
  5
183
100
AcDbEntity
  8
0
 62
7
100
AcDbLine
 10
257.166343
 20
115.582912
 30
0.0
 11
257.184691
 21
113.731604
 31
0.0
  0
LINE
  5
184
100
AcDbEntity
  8
0
 62
7
100
AcDbLine
 10
257.184691
 20
113.731604
 30
0.0
 11
257.294779
 21
109.449192
 31
0.0
  0
LINE
  5
185
100
AcDbEntity
  8
0
 62
7
100
AcDbLine
 10
257.294779
 20
109.449192
 30
0.0
 11
257.395692
 21
107.018088
 31
0.0
  0
LINE
  5
186
100
AcDbEntity
  8
0
 62
7
100
AcDbLine
 10
257.395692
 20
107.018088
 30
0.0
 11
257.487432
 21
104.862204
 31
0.0
  0
LINE
  5
187
100
AcDbEntity
  8
0
 62
7
100
AcDbLine
 10
257.487432
 20
104.862204
 30
0.0
 11
257.579172
 21
102.064141
 31
0.0
  0
LINE
  5
188
100
AcDbEntity
  8
0
 62
7
100
AcDbLine
 10
257.579172
 20
102.064141
 30
0.0
 11
257.661738
 21
99.220209
 31
0.0
  0
LINE
  5
189
100
AcDbEntity
  8
0
 62
7
100
AcDbLine
 10
257.661738
 20
99.220209
 30
0.0
 11
257.753477
 21
96.834975
 31
0.0
  0
LINE
  5
18a
100
AcDbEntity
  8
0
 62
7
100
AcDbLine
 10
257.753477
 20
96.834975
 30
0.0
 11
257.854391
 21
94.174522
 31
0.0
  0
LINE
  5
18b
100
AcDbEntity
  8
0
 62
7
100
AcDbLine
 10
257.854391
 20
94.174522
 30
0.0
 11
258.588309
 21
71.560671
 31
0.0
  0
LINE
  5
18c
100
AcDbEntity
  8
0
 62
7
100
AcDbLine
 10
258.588309
 20
71.560671
 30
0.0
 11
258.955268
 21
60.689510
 31
0.0
  0
LINE
  5
18d
100
AcDbEntity
  8
0
 62
7
100
AcDbLine
 10
258.955268
 20
60.689510
 30
0.0
 11
259.835970
 21
59.912474
 31
0.0
  0
LINE
  5
18e
100
AcDbEntity
  8
0
 62
7
100
AcDbLine
 10
259.835970
 20
59.912474
 30
0.0
 11
260.955195
 21
59.339100
 31
0.0
  0
LINE
  5
18f
100
AcDbEntity
  8
0
 62
7
100
AcDbLine
 10
260.955195
 20
59.339100
 30
0.0
 11
264.689003
 21
59.631750
 31
0.0
  0
LINE
  5
190
100
AcDbEntity
  8
0
 62
7
100
AcDbLine
 10
264.689003
 20
59.631750
 30
0.0
 11
271.358484
 21
60.087697
 31
0.0
  0
LINE
  5
191
100
AcDbEntity
  8
0
 62
7
100
AcDbLine
 10
271.358484
 20
60.087697
 30
0.0
 11
274.587723
 21
60.270259
 31
0.0
  0
LINE
  5
192
100
AcDbEntity
  8
0
 62
7
100
AcDbLine
 10
274.587723
 20
60.270259
 30
0.0
 11
276.725260
 21
61.800478
 31
0.0
  0
LINE
  5
193
100
AcDbEntity
  8
0
 62
7
100
AcDbLine
 10
276.725260
 20
61.800478
 30
0.0
 11
279.018754
 21
63.482985
 31
0.0
  0
LINE
  5
194
100
AcDbEntity
  8
0
 62
7
100
AcDbLine
 10
279.018754
 20
63.482985
 30
0.0
 11
279.596714
 21
71.886347
 31
0.0
  0
LINE
  5
195
100
AcDbEntity
  8
0
 62
7
100
AcDbLine
 10
279.596714
 20
71.886347
 30
0.0
 11
280.055413
 21
80.413558
 31
0.0
  0
LINE
  5
196
100
AcDbEntity
  8
0
 62
7
100
AcDbLine
 10
280.055413
 20
80.413558
 30
0.0
 11
281.835164
 21
83.218960
 31
0.0
  0
LINE
  5
197
100
AcDbEntity
  8
0
 62
7
100
AcDbLine
 10
281.835164
 20
83.218960
 30
0.0
 11
284.523139
 21
85.229895
 31
0.0
  0
LINE
  5
198
100
AcDbEntity
  8
0
 62
7
100
AcDbLine
 10
284.523139
 20
85.229895
 30
0.0
 11
284.688271
 21
85.367505
 31
0.0
  0
LINE
  5
199
100
AcDbEntity
  8
0
 62
7
100
AcDbLine
 10
284.688271
 20
85.367505
 30
0.0
 11
284.706619
 21
85.504197
 31
0.0
  0
LINE
  5
19a
100
AcDbEntity
  8
0
 62
7
100
AcDbLine
 10
284.706619
 20
85.504197
 30
0.0
 11
287.247810
 21
85.274848
 31
0.0
  0
LINE
  5
19b
100
AcDbEntity
  8
0
 62
7
100
AcDbLine
 10
287.247810
 20
85.274848
 30
0.0
 11
289.862393
 21
85.046416
 31
0.0
  0
LINE
  5
19c
100
AcDbEntity
  8
0
 62
7
100
AcDbLine
 10
289.862393
 20
85.046416
 30
0.0
 11
289.990829
 21
42.521368
 31
0.0
  0
LINE
  5
19d
100
AcDbEntity
  8
0
 62
7
100
AcDbLine
 10
289.990829
 20
42.521368
 30
0.0
 11
290.000003
 21
-0.000011
 31
0.0
  0
LINE
  5
19e
100
AcDbEntity
  8
0
 62
7
100
AcDbLine
 10
290.000003
 20
-0.000011
 30
0.0
 11
-0.000001
 21
-0.000011
 31
0.0
  0
LINE
  5
19f
100
AcDbEntity
  8
0
 62
7
100
AcDbLine
 10
-0.000001
 20
-0.000011
 30
0.0
 11
0.292264
 21
106.980805
 31
0.0
  0
LINE
  5
1a0
100
AcDbEntity
  8
0
 62
7
100
AcDbLine
 10
22.774009
 20
137.062860
 30
0.0
 11
22.682269
 21
137.154599
 31
0.0
  0
LINE
  5
1a1
100
AcDbEntity
  8
0
 62
7
100
AcDbLine
 10
22.682269
 20
137.154599
 30
0.0
 11
22.590530
 21
137.062860
 31
0.0
  0
LINE
  5
1a2
100
AcDbEntity
  8
0
 62
7
100
AcDbLine
 10
22.590530
 20
137.062860
 30
0.0
 11
22.682269
 21
136.971120
 31
0.0
  0
LINE
  5
1a3
100
AcDbEntity
  8
0
 62
7
100
AcDbLine
 10
22.682269
 20
136.971120
 30
0.0
 11
22.774009
 21
137.062860
 31
0.0
  0
LINE
  5
1a4
100
AcDbEntity
  8
0
 62
7
100
AcDbLine
 10
55.204014
 20
163.300431
 30
0.0
 11
55.103101
 21
163.392171
 31
0.0
  0
LINE
  5
1a5
100
AcDbEntity
  8
0
 62
7
100
AcDbLine
 10
55.103101
 20
163.392171
 30
0.0
 11
55.066405
 21
163.300431
 31
0.0
  0
LINE
  5
1a6
100
AcDbEntity
  8
0
 62
7
100
AcDbLine
 10
55.066405
 20
163.300431
 30
0.0
 11
55.158144
 21
163.208691
 31
0.0
  0
LINE
  5
1a7
100
AcDbEntity
  8
0
 62
7
100
AcDbLine
 10
55.158144
 20
163.208691
 30
0.0
 11
55.204014
 21
163.300431
 31
0.0
  0
LINE
  5
1a8
100
AcDbEntity
  8
0
 62
7
100
AcDbLine
 10
90.140954
 20
4.777666
 30
0.0
 11
90.140954
 21
12.749895
 31
0.0
  0
LINE
  5
1a9
100
AcDbEntity
  8
0
 62
7
100
AcDbLine
 10
90.140954
 20
12.749895
 30
0.0
 11
94.147293
 21
12.749895
 31
0.0
  0
LINE
  5
1aa
100
AcDbEntity
  8
0
 62
7
100
AcDbLine
 10
94.147293
 20
12.749895
 30
0.0
 11
94.147293
 21
4.777666
 31
0.0
  0
LINE
  5
1ab
100
AcDbEntity
  8
0
 62
7
100
AcDbLine
 10
94.147293
 20
4.777666
 30
0.0
 11
90.140954
 21
4.777666
 31
0.0
  0
LINE
  5
1ac
100
AcDbEntity
  8
0
 62
7
100
AcDbLine
 10
97.549287
 20
4.777666
 30
0.0
 11
97.549287
 21
12.749895
 31
0.0
  0
LINE
  5
1ad
100
AcDbEntity
  8
0
 62
7
100
AcDbLine
 10
97.549287
 20
12.749895
 30
0.0
 11
101.555627
 21
12.749895
 31
0.0
  0
LINE
  5
1ae
100
AcDbEntity
  8
0
 62
7
100
AcDbLine
 10
101.555627
 20
12.749895
 30
0.0
 11
101.555627
 21
4.777666
 31
0.0
  0
LINE
  5
1af
100
AcDbEntity
  8
0
 62
7
100
AcDbLine
 10
101.555627
 20
4.777666
 30
0.0
 11
97.549287
 21
4.777666
 31
0.0
  0
LINE
  5
1b0
100
AcDbEntity
  8
0
 62
7
100
AcDbLine
 10
104.957621
 20
4.777666
 30
0.0
 11
104.957621
 21
12.749895
 31
0.0
  0
LINE
  5
1b1
100
AcDbEntity
  8
0
 62
7
100
AcDbLine
 10
104.957621
 20
12.749895
 30
0.0
 11
108.963960
 21
12.749895
 31
0.0
  0
LINE
  5
1b2
100
AcDbEntity
  8
0
 62
7
100
AcDbLine
 10
108.963960
 20
12.749895
 30
0.0
 11
108.963960
 21
4.777666
 31
0.0
  0
LINE
  5
1b3
100
AcDbEntity
  8
0
 62
7
100
AcDbLine
 10
108.963960
 20
4.777666
 30
0.0
 11
104.957621
 21
4.777666
 31
0.0
  0
LINE
  5
1b4
100
AcDbEntity
  8
0
 62
7
100
AcDbLine
 10
112.365954
 20
4.777666
 30
0.0
 11
112.365954
 21
12.749895
 31
0.0
  0
LINE
  5
1b5
100
AcDbEntity
  8
0
 62
7
100
AcDbLine
 10
112.365954
 20
12.749895
 30
0.0
 11
116.372293
 21
12.749895
 31
0.0
  0
LINE
  5
1b6
100
AcDbEntity
  8
0
 62
7
100
AcDbLine
 10
116.372293
 20
12.749895
 30
0.0
 11
116.372293
 21
4.777666
 31
0.0
  0
LINE
  5
1b7
100
AcDbEntity
  8
0
 62
7
100
AcDbLine
 10
116.372293
 20
4.777666
 30
0.0
 11
112.365954
 21
4.777666
 31
0.0
  0
LINE
  5
1b8
100
AcDbEntity
  8
0
 62
7
100
AcDbLine
 10
119.774287
 20
4.777666
 30
0.0
 11
119.774287
 21
12.749895
 31
0.0
  0
LINE
  5
1b9
100
AcDbEntity
  8
0
 62
7
100
AcDbLine
 10
119.774287
 20
12.749895
 30
0.0
 11
123.780627
 21
12.749895
 31
0.0
  0
LINE
  5
1ba
100
AcDbEntity
  8
0
 62
7
100
AcDbLine
 10
123.780627
 20
12.749895
 30
0.0
 11
123.780627
 21
4.777666
 31
0.0
  0
LINE
  5
1bb
100
AcDbEntity
  8
0
 62
7
100
AcDbLine
 10
123.780627
 20
4.777666
 30
0.0
 11
119.774287
 21
4.777666
 31
0.0
  0
LINE
  5
1bc
100
AcDbEntity
  8
0
 62
7
100
AcDbLine
 10
90.140954
 20
20.652666
 30
0.0
 11
90.140954
 21
28.624895
 31
0.0
  0
LINE
  5
1bd
100
AcDbEntity
  8
0
 62
7
100
AcDbLine
 10
90.140954
 20
28.624895
 30
0.0
 11
94.147293
 21
28.624895
 31
0.0
  0
LINE
  5
1be
100
AcDbEntity
  8
0
 62
7
100
AcDbLine
 10
94.147293
 20
28.624895
 30
0.0
 11
94.147293
 21
20.652666
 31
0.0
  0
LINE
  5
1bf
100
AcDbEntity
  8
0
 62
7
100
AcDbLine
 10
94.147293
 20
20.652666
 30
0.0
 11
90.140954
 21
20.652666
 31
0.0
  0
LINE
  5
1c0
100
AcDbEntity
  8
0
 62
7
100
AcDbLine
 10
97.549287
 20
20.652666
 30
0.0
 11
97.549287
 21
28.624895
 31
0.0
  0
LINE
  5
1c1
100
AcDbEntity
  8
0
 62
7
100
AcDbLine
 10
97.549287
 20
28.624895
 30
0.0
 11
101.555627
 21
28.624895
 31
0.0
  0
LINE
  5
1c2
100
AcDbEntity
  8
0
 62
7
100
AcDbLine
 10
101.555627
 20
28.624895
 30
0.0
 11
101.555627
 21
20.652666
 31
0.0
  0
LINE
  5
1c3
100
AcDbEntity
  8
0
 62
7
100
AcDbLine
 10
101.555627
 20
20.652666
 30
0.0
 11
97.549287
 21
20.652666
 31
0.0
  0
LINE
  5
1c4
100
AcDbEntity
  8
0
 62
7
100
AcDbLine
 10
104.957621
 20
20.652666
 30
0.0
 11
104.957621
 21
28.624895
 31
0.0
  0
LINE
  5
1c5
100
AcDbEntity
  8
0
 62
7
100
AcDbLine
 10
104.957621
 20
28.624895
 30
0.0
 11
108.963960
 21
28.624895
 31
0.0
  0
LINE
  5
1c6
100
AcDbEntity
  8
0
 62
7
100
AcDbLine
 10
108.963960
 20
28.624895
 30
0.0
 11
108.963960
 21
20.652666
 31
0.0
  0
LINE
  5
1c7
100
AcDbEntity
  8
0
 62
7
100
AcDbLine
 10
108.963960
 20
20.652666
 30
0.0
 11
104.957621
 21
20.652666
 31
0.0
  0
LINE
  5
1c8
100
AcDbEntity
  8
0
 62
7
100
AcDbLine
 10
112.365954
 20
20.652666
 30
0.0
 11
112.365954
 21
28.624895
 31
0.0
  0
LINE
  5
1c9
100
AcDbEntity
  8
0
 62
7
100
AcDbLine
 10
112.365954
 20
28.624895
 30
0.0
 11
116.372293
 21
28.624895
 31
0.0
  0
LINE
  5
1ca
100
AcDbEntity
  8
0
 62
7
100
AcDbLine
 10
116.372293
 20
28.624895
 30
0.0
 11
116.372293
 21
20.652666
 31
0.0
  0
LINE
  5
1cb
100
AcDbEntity
  8
0
 62
7
100
AcDbLine
 10
116.372293
 20
20.652666
 30
0.0
 11
112.365954
 21
20.652666
 31
0.0
  0
LINE
  5
1cc
100
AcDbEntity
  8
0
 62
7
100
AcDbLine
 10
119.774287
 20
20.652666
 30
0.0
 11
119.774287
 21
28.624895
 31
0.0
  0
LINE
  5
1cd
100
AcDbEntity
  8
0
 62
7
100
AcDbLine
 10
119.774287
 20
28.624895
 30
0.0
 11
123.780627
 21
28.624895
 31
0.0
  0
LINE
  5
1ce
100
AcDbEntity
  8
0
 62
7
100
AcDbLine
 10
123.780627
 20
28.624895
 30
0.0
 11
123.780627
 21
20.652666
 31
0.0
  0
LINE
  5
1cf
100
AcDbEntity
  8
0
 62
7
100
AcDbLine
 10
123.780627
 20
20.652666
 30
0.0
 11
119.774287
 21
20.652666
 31
0.0
  0
LINE
  5
1d0
100
AcDbEntity
  8
0
 62
7
100
AcDbLine
 10
90.140954
 20
36.527666
 30
0.0
 11
90.140954
 21
44.499895
 31
0.0
  0
LINE
  5
1d1
100
AcDbEntity
  8
0
 62
7
100
AcDbLine
 10
90.140954
 20
44.499895
 30
0.0
 11
94.147293
 21
44.499895
 31
0.0
  0
LINE
  5
1d2
100
AcDbEntity
  8
0
 62
7
100
AcDbLine
 10
94.147293
 20
44.499895
 30
0.0
 11
94.147293
 21
36.527666
 31
0.0
  0
LINE
  5
1d3
100
AcDbEntity
  8
0
 62
7
100
AcDbLine
 10
94.147293
 20
36.527666
 30
0.0
 11
90.140954
 21
36.527666
 31
0.0
  0
LINE
  5
1d4
100
AcDbEntity
  8
0
 62
7
100
AcDbLine
 10
97.549287
 20
36.527666
 30
0.0
 11
97.549287
 21
44.499895
 31
0.0
  0
LINE
  5
1d5
100
AcDbEntity
  8
0
 62
7
100
AcDbLine
 10
97.549287
 20
44.499895
 30
0.0
 11
101.555627
 21
44.499895
 31
0.0
  0
LINE
  5
1d6
100
AcDbEntity
  8
0
 62
7
100
AcDbLine
 10
101.555627
 20
44.499895
 30
0.0
 11
101.555627
 21
36.527666
 31
0.0
  0
LINE
  5
1d7
100
AcDbEntity
  8
0
 62
7
100
AcDbLine
 10
101.555627
 20
36.527666
 30
0.0
 11
97.549287
 21
36.527666
 31
0.0
  0
LINE
  5
1d8
100
AcDbEntity
  8
0
 62
7
100
AcDbLine
 10
104.957621
 20
36.527666
 30
0.0
 11
104.957621
 21
44.499895
 31
0.0
  0
LINE
  5
1d9
100
AcDbEntity
  8
0
 62
7
100
AcDbLine
 10
104.957621
 20
44.499895
 30
0.0
 11
108.963960
 21
44.499895
 31
0.0
  0
LINE
  5
1da
100
AcDbEntity
  8
0
 62
7
100
AcDbLine
 10
108.963960
 20
44.499895
 30
0.0
 11
108.963960
 21
36.527666
 31
0.0
  0
LINE
  5
1db
100
AcDbEntity
  8
0
 62
7
100
AcDbLine
 10
108.963960
 20
36.527666
 30
0.0
 11
104.957621
 21
36.527666
 31
0.0
  0
LINE
  5
1dc
100
AcDbEntity
  8
0
 62
7
100
AcDbLine
 10
112.365954
 20
36.527666
 30
0.0
 11
112.365954
 21
44.499895
 31
0.0
  0
LINE
  5
1dd
100
AcDbEntity
  8
0
 62
7
100
AcDbLine
 10
112.365954
 20
44.499895
 30
0.0
 11
116.372293
 21
44.499895
 31
0.0
  0
LINE
  5
1de
100
AcDbEntity
  8
0
 62
7
100
AcDbLine
 10
116.372293
 20
44.499895
 30
0.0
 11
116.372293
 21
36.527666
 31
0.0
  0
LINE
  5
1df
100
AcDbEntity
  8
0
 62
7
100
AcDbLine
 10
116.372293
 20
36.527666
 30
0.0
 11
112.365954
 21
36.527666
 31
0.0
  0
LINE
  5
1e0
100
AcDbEntity
  8
0
 62
7
100
AcDbLine
 10
119.774287
 20
36.527666
 30
0.0
 11
119.774287
 21
44.499895
 31
0.0
  0
LINE
  5
1e1
100
AcDbEntity
  8
0
 62
7
100
AcDbLine
 10
119.774287
 20
44.499895
 30
0.0
 11
123.780627
 21
44.499895
 31
0.0
  0
LINE
  5
1e2
100
AcDbEntity
  8
0
 62
7
100
AcDbLine
 10
123.780627
 20
44.499895
 30
0.0
 11
123.780627
 21
36.527666
 31
0.0
  0
LINE
  5
1e3
100
AcDbEntity
  8
0
 62
7
100
AcDbLine
 10
123.780627
 20
36.527666
 30
0.0
 11
119.774287
 21
36.527666
 31
0.0
  0
LINE
  5
1e4
100
AcDbEntity
  8
0
 62
7
100
AcDbLine
 10
90.140954
 20
52.402666
 30
0.0
 11
90.140954
 21
60.374895
 31
0.0
  0
LINE
  5
1e5
100
AcDbEntity
  8
0
 62
7
100
AcDbLine
 10
90.140954
 20
60.374895
 30
0.0
 11
94.147293
 21
60.374895
 31
0.0
  0
LINE
  5
1e6
100
AcDbEntity
  8
0
 62
7
100
AcDbLine
 10
94.147293
 20
60.374895
 30
0.0
 11
94.147293
 21
52.402666
 31
0.0
  0
LINE
  5
1e7
100
AcDbEntity
  8
0
 62
7
100
AcDbLine
 10
94.147293
 20
52.402666
 30
0.0
 11
90.140954
 21
52.402666
 31
0.0
  0
LINE
  5
1e8
100
AcDbEntity
  8
0
 62
7
100
AcDbLine
 10
97.549287
 20
52.402666
 30
0.0
 11
97.549287
 21
60.374895
 31
0.0
  0
LINE
  5
1e9
100
AcDbEntity
  8
0
 62
7
100
AcDbLine
 10
97.549287
 20
60.374895
 30
0.0
 11
101.555627
 21
60.374895
 31
0.0
  0
LINE
  5
1ea
100
AcDbEntity
  8
0
 62
7
100
AcDbLine
 10
101.555627
 20
60.374895
 30
0.0
 11
101.555627
 21
52.402666
 31
0.0
  0
LINE
  5
1eb
100
AcDbEntity
  8
0
 62
7
100
AcDbLine
 10
101.555627
 20
52.402666
 30
0.0
 11
97.549287
 21
52.402666
 31
0.0
  0
LINE
  5
1ec
100
AcDbEntity
  8
0
 62
7
100
AcDbLine
 10
104.957621
 20
52.402666
 30
0.0
 11
104.957621
 21
60.374895
 31
0.0
  0
LINE
  5
1ed
100
AcDbEntity
  8
0
 62
7
100
AcDbLine
 10
104.957621
 20
60.374895
 30
0.0
 11
108.963960
 21
60.374895
 31
0.0
  0
LINE
  5
1ee
100
AcDbEntity
  8
0
 62
7
100
AcDbLine
 10
108.963960
 20
60.374895
 30
0.0
 11
108.963960
 21
52.402666
 31
0.0
  0
LINE
  5
1ef
100
AcDbEntity
  8
0
 62
7
100
AcDbLine
 10
108.963960
 20
52.402666
 30
0.0
 11
104.957621
 21
52.402666
 31
0.0
  0
LINE
  5
1f0
100
AcDbEntity
  8
0
 62
7
100
AcDbLine
 10
112.365954
 20
52.402666
 30
0.0
 11
112.365954
 21
60.374895
 31
0.0
  0
LINE
  5
1f1
100
AcDbEntity
  8
0
 62
7
100
AcDbLine
 10
112.365954
 20
60.374895
 30
0.0
 11
116.372293
 21
60.374895
 31
0.0
  0
LINE
  5
1f2
100
AcDbEntity
  8
0
 62
7
100
AcDbLine
 10
116.372293
 20
60.374895
 30
0.0
 11
116.372293
 21
52.402666
 31
0.0
  0
LINE
  5
1f3
100
AcDbEntity
  8
0
 62
7
100
AcDbLine
 10
116.372293
 20
52.402666
 30
0.0
 11
112.365954
 21
52.402666
 31
0.0
  0
LINE
  5
1f4
100
AcDbEntity
  8
0
 62
7
100
AcDbLine
 10
119.774287
 20
52.402666
 30
0.0
 11
119.774287
 21
60.374895
 31
0.0
  0
LINE
  5
1f5
100
AcDbEntity
  8
0
 62
7
100
AcDbLine
 10
119.774287
 20
60.374895
 30
0.0
 11
123.780627
 21
60.374895
 31
0.0
  0
LINE
  5
1f6
100
AcDbEntity
  8
0
 62
7
100
AcDbLine
 10
123.780627
 20
60.374895
 30
0.0
 11
123.780627
 21
52.402666
 31
0.0
  0
LINE
  5
1f7
100
AcDbEntity
  8
0
 62
7
100
AcDbLine
 10
123.780627
 20
52.402666
 30
0.0
 11
119.774287
 21
52.402666
 31
0.0
  0
LINE
  5
1f8
100
AcDbEntity
  8
0
 62
7
100
AcDbLine
 10
90.140954
 20
68.277669
 30
0.0
 11
90.140954
 21
76.249898
 31
0.0
  0
LINE
  5
1f9
100
AcDbEntity
  8
0
 62
7
100
AcDbLine
 10
90.140954
 20
76.249898
 30
0.0
 11
94.147293
 21
76.249898
 31
0.0
  0
LINE
  5
1fa
100
AcDbEntity
  8
0
 62
7
100
AcDbLine
 10
94.147293
 20
76.249898
 30
0.0
 11
94.147293
 21
68.277669
 31
0.0
  0
LINE
  5
1fb
100
AcDbEntity
  8
0
 62
7
100
AcDbLine
 10
94.147293
 20
68.277669
 30
0.0
 11
90.140954
 21
68.277669
 31
0.0
  0
LINE
  5
1fc
100
AcDbEntity
  8
0
 62
7
100
AcDbLine
 10
97.549287
 20
68.277669
 30
0.0
 11
97.549287
 21
76.249898
 31
0.0
  0
LINE
  5
1fd
100
AcDbEntity
  8
0
 62
7
100
AcDbLine
 10
97.549287
 20
76.249898
 30
0.0
 11
101.555627
 21
76.249898
 31
0.0
  0
LINE
  5
1fe
100
AcDbEntity
  8
0
 62
7
100
AcDbLine
 10
101.555627
 20
76.249898
 30
0.0
 11
101.555627
 21
68.277669
 31
0.0
  0
LINE
  5
1ff
100
AcDbEntity
  8
0
 62
7
100
AcDbLine
 10
101.555627
 20
68.277669
 30
0.0
 11
97.549287
 21
68.277669
 31
0.0
  0
LINE
  5
200
100
AcDbEntity
  8
0
 62
7
100
AcDbLine
 10
104.957621
 20
68.277669
 30
0.0
 11
104.957621
 21
76.249898
 31
0.0
  0
LINE
  5
201
100
AcDbEntity
  8
0
 62
7
100
AcDbLine
 10
104.957621
 20
76.249898
 30
0.0
 11
108.963960
 21
76.249898
 31
0.0
  0
LINE
  5
202
100
AcDbEntity
  8
0
 62
7
100
AcDbLine
 10
108.963960
 20
76.249898
 30
0.0
 11
108.963960
 21
68.277669
 31
0.0
  0
LINE
  5
203
100
AcDbEntity
  8
0
 62
7
100
AcDbLine
 10
108.963960
 20
68.277669
 30
0.0
 11
104.957621
 21
68.277669
 31
0.0
  0
LINE
  5
204
100
AcDbEntity
  8
0
 62
7
100
AcDbLine
 10
112.365954
 20
68.277669
 30
0.0
 11
112.365954
 21
76.249898
 31
0.0
  0
LINE
  5
205
100
AcDbEntity
  8
0
 62
7
100
AcDbLine
 10
112.365954
 20
76.249898
 30
0.0
 11
116.372293
 21
76.249898
 31
0.0
  0
LINE
  5
206
100
AcDbEntity
  8
0
 62
7
100
AcDbLine
 10
116.372293
 20
76.249898
 30
0.0
 11
116.372293
 21
68.277669
 31
0.0
  0
LINE
  5
207
100
AcDbEntity
  8
0
 62
7
100
AcDbLine
 10
116.372293
 20
68.277669
 30
0.0
 11
112.365954
 21
68.277669
 31
0.0
  0
LINE
  5
208
100
AcDbEntity
  8
0
 62
7
100
AcDbLine
 10
119.774287
 20
68.277669
 30
0.0
 11
119.774287
 21
76.249898
 31
0.0
  0
LINE
  5
209
100
AcDbEntity
  8
0
 62
7
100
AcDbLine
 10
119.774287
 20
76.249898
 30
0.0
 11
123.780627
 21
76.249898
 31
0.0
  0
LINE
  5
20a
100
AcDbEntity
  8
0
 62
7
100
AcDbLine
 10
123.780627
 20
76.249898
 30
0.0
 11
123.780627
 21
68.277669
 31
0.0
  0
LINE
  5
20b
100
AcDbEntity
  8
0
 62
7
100
AcDbLine
 10
123.780627
 20
68.277669
 30
0.0
 11
119.774287
 21
68.277669
 31
0.0
  0
LINE
  5
20c
100
AcDbEntity
  8
0
 62
7
100
AcDbLine
 10
90.140954
 20
84.152669
 30
0.0
 11
90.140954
 21
92.124898
 31
0.0
  0
LINE
  5
20d
100
AcDbEntity
  8
0
 62
7
100
AcDbLine
 10
90.140954
 20
92.124898
 30
0.0
 11
94.147293
 21
92.124898
 31
0.0
  0
LINE
  5
20e
100
AcDbEntity
  8
0
 62
7
100
AcDbLine
 10
94.147293
 20
92.124898
 30
0.0
 11
94.147293
 21
84.152669
 31
0.0
  0
LINE
  5
20f
100
AcDbEntity
  8
0
 62
7
100
AcDbLine
 10
94.147293
 20
84.152669
 30
0.0
 11
90.140954
 21
84.152669
 31
0.0
  0
LINE
  5
210
100
AcDbEntity
  8
0
 62
7
100
AcDbLine
 10
97.549287
 20
84.152669
 30
0.0
 11
97.549287
 21
92.124898
 31
0.0
  0
LINE
  5
211
100
AcDbEntity
  8
0
 62
7
100
AcDbLine
 10
97.549287
 20
92.124898
 30
0.0
 11
101.555627
 21
92.124898
 31
0.0
  0
LINE
  5
212
100
AcDbEntity
  8
0
 62
7
100
AcDbLine
 10
101.555627
 20
92.124898
 30
0.0
 11
101.555627
 21
84.152669
 31
0.0
  0
LINE
  5
213
100
AcDbEntity
  8
0
 62
7
100
AcDbLine
 10
101.555627
 20
84.152669
 30
0.0
 11
97.549287
 21
84.152669
 31
0.0
  0
LINE
  5
214
100
AcDbEntity
  8
0
 62
7
100
AcDbLine
 10
104.957621
 20
84.152669
 30
0.0
 11
104.957621
 21
92.124898
 31
0.0
  0
LINE
  5
215
100
AcDbEntity
  8
0
 62
7
100
AcDbLine
 10
104.957621
 20
92.124898
 30
0.0
 11
108.963960
 21
92.124898
 31
0.0
  0
LINE
  5
216
100
AcDbEntity
  8
0
 62
7
100
AcDbLine
 10
108.963960
 20
92.124898
 30
0.0
 11
108.963960
 21
84.152669
 31
0.0
  0
LINE
  5
217
100
AcDbEntity
  8
0
 62
7
100
AcDbLine
 10
108.963960
 20
84.152669
 30
0.0
 11
104.957621
 21
84.152669
 31
0.0
  0
LINE
  5
218
100
AcDbEntity
  8
0
 62
7
100
AcDbLine
 10
112.365954
 20
84.152669
 30
0.0
 11
112.365954
 21
92.124898
 31
0.0
  0
LINE
  5
219
100
AcDbEntity
  8
0
 62
7
100
AcDbLine
 10
112.365954
 20
92.124898
 30
0.0
 11
116.372293
 21
92.124898
 31
0.0
  0
LINE
  5
21a
100
AcDbEntity
  8
0
 62
7
100
AcDbLine
 10
116.372293
 20
92.124898
 30
0.0
 11
116.372293
 21
84.152669
 31
0.0
  0
LINE
  5
21b
100
AcDbEntity
  8
0
 62
7
100
AcDbLine
 10
116.372293
 20
84.152669
 30
0.0
 11
112.365954
 21
84.152669
 31
0.0
  0
LINE
  5
21c
100
AcDbEntity
  8
0
 62
7
100
AcDbLine
 10
119.774287
 20
84.152669
 30
0.0
 11
119.774287
 21
92.124898
 31
0.0
  0
LINE
  5
21d
100
AcDbEntity
  8
0
 62
7
100
AcDbLine
 10
119.774287
 20
92.124898
 30
0.0
 11
123.780627
 21
92.124898
 31
0.0
  0
LINE
  5
21e
100
AcDbEntity
  8
0
 62
7
100
AcDbLine
 10
123.780627
 20
92.124898
 30
0.0
 11
123.780627
 21
84.152669
 31
0.0
  0
LINE
  5
21f
100
AcDbEntity
  8
0
 62
7
100
AcDbLine
 10
123.780627
 20
84.152669
 30
0.0
 11
119.774287
 21
84.152669
 31
0.0
  0
LINE
  5
220
100
AcDbEntity
  8
0
 62
7
100
AcDbLine
 10
90.140954
 20
100.027669
 30
0.0
 11
90.140954
 21
107.999898
 31
0.0
  0
LINE
  5
221
100
AcDbEntity
  8
0
 62
7
100
AcDbLine
 10
90.140954
 20
107.999898
 30
0.0
 11
94.147293
 21
107.999898
 31
0.0
  0
LINE
  5
222
100
AcDbEntity
  8
0
 62
7
100
AcDbLine
 10
94.147293
 20
107.999898
 30
0.0
 11
94.147293
 21
100.027669
 31
0.0
  0
LINE
  5
223
100
AcDbEntity
  8
0
 62
7
100
AcDbLine
 10
94.147293
 20
100.027669
 30
0.0
 11
90.140954
 21
100.027669
 31
0.0
  0
LINE
  5
224
100
AcDbEntity
  8
0
 62
7
100
AcDbLine
 10
97.549287
 20
100.027669
 30
0.0
 11
97.549287
 21
107.999898
 31
0.0
  0
LINE
  5
225
100
AcDbEntity
  8
0
 62
7
100
AcDbLine
 10
97.549287
 20
107.999898
 30
0.0
 11
101.555627
 21
107.999898
 31
0.0
  0
LINE
  5
226
100
AcDbEntity
  8
0
 62
7
100
AcDbLine
 10
101.555627
 20
107.999898
 30
0.0
 11
101.555627
 21
100.027669
 31
0.0
  0
LINE
  5
227
100
AcDbEntity
  8
0
 62
7
100
AcDbLine
 10
101.555627
 20
100.027669
 30
0.0
 11
97.549287
 21
100.027669
 31
0.0
  0
LINE
  5
228
100
AcDbEntity
  8
0
 62
7
100
AcDbLine
 10
104.957621
 20
100.027669
 30
0.0
 11
104.957621
 21
107.999898
 31
0.0
  0
LINE
  5
229
100
AcDbEntity
  8
0
 62
7
100
AcDbLine
 10
104.957621
 20
107.999898
 30
0.0
 11
108.963960
 21
107.999898
 31
0.0
  0
LINE
  5
22a
100
AcDbEntity
  8
0
 62
7
100
AcDbLine
 10
108.963960
 20
107.999898
 30
0.0
 11
108.963960
 21
100.027669
 31
0.0
  0
LINE
  5
22b
100
AcDbEntity
  8
0
 62
7
100
AcDbLine
 10
108.963960
 20
100.027669
 30
0.0
 11
104.957621
 21
100.027669
 31
0.0
  0
LINE
  5
22c
100
AcDbEntity
  8
0
 62
7
100
AcDbLine
 10
112.365954
 20
100.027669
 30
0.0
 11
112.365954
 21
107.999898
 31
0.0
  0
LINE
  5
22d
100
AcDbEntity
  8
0
 62
7
100
AcDbLine
 10
112.365954
 20
107.999898
 30
0.0
 11
116.372293
 21
107.999898
 31
0.0
  0
LINE
  5
22e
100
AcDbEntity
  8
0
 62
7
100
AcDbLine
 10
116.372293
 20
107.999898
 30
0.0
 11
116.372293
 21
100.027669
 31
0.0
  0
LINE
  5
22f
100
AcDbEntity
  8
0
 62
7
100
AcDbLine
 10
116.372293
 20
100.027669
 30
0.0
 11
112.365954
 21
100.027669
 31
0.0
  0
LINE
  5
230
100
AcDbEntity
  8
0
 62
7
100
AcDbLine
 10
119.774287
 20
100.027669
 30
0.0
 11
119.774287
 21
107.999898
 31
0.0
  0
LINE
  5
231
100
AcDbEntity
  8
0
 62
7
100
AcDbLine
 10
119.774287
 20
107.999898
 30
0.0
 11
123.780627
 21
107.999898
 31
0.0
  0
LINE
  5
232
100
AcDbEntity
  8
0
 62
7
100
AcDbLine
 10
123.780627
 20
107.999898
 30
0.0
 11
123.780627
 21
100.027669
 31
0.0
  0
LINE
  5
233
100
AcDbEntity
  8
0
 62
7
100
AcDbLine
 10
123.780627
 20
100.027669
 30
0.0
 11
119.774287
 21
100.027669
 31
0.0
  0
LINE
  5
234
100
AcDbEntity
  8
0
 62
7
100
AcDbLine
 10
90.140954
 20
115.902669
 30
0.0
 11
90.140954
 21
123.874898
 31
0.0
  0
LINE
  5
235
100
AcDbEntity
  8
0
 62
7
100
AcDbLine
 10
90.140954
 20
123.874898
 30
0.0
 11
94.147293
 21
123.874898
 31
0.0
  0
LINE
  5
236
100
AcDbEntity
  8
0
 62
7
100
AcDbLine
 10
94.147293
 20
123.874898
 30
0.0
 11
94.147293
 21
115.902669
 31
0.0
  0
LINE
  5
237
100
AcDbEntity
  8
0
 62
7
100
AcDbLine
 10
94.147293
 20
115.902669
 30
0.0
 11
90.140954
 21
115.902669
 31
0.0
  0
LINE
  5
238
100
AcDbEntity
  8
0
 62
7
100
AcDbLine
 10
97.549287
 20
115.902669
 30
0.0
 11
97.549287
 21
123.874898
 31
0.0
  0
LINE
  5
239
100
AcDbEntity
  8
0
 62
7
100
AcDbLine
 10
97.549287
 20
123.874898
 30
0.0
 11
101.555627
 21
123.874898
 31
0.0
  0
LINE
  5
23a
100
AcDbEntity
  8
0
 62
7
100
AcDbLine
 10
101.555627
 20
123.874898
 30
0.0
 11
101.555627
 21
115.902669
 31
0.0
  0
LINE
  5
23b
100
AcDbEntity
  8
0
 62
7
100
AcDbLine
 10
101.555627
 20
115.902669
 30
0.0
 11
97.549287
 21
115.902669
 31
0.0
  0
LINE
  5
23c
100
AcDbEntity
  8
0
 62
7
100
AcDbLine
 10
104.957621
 20
115.902669
 30
0.0
 11
104.957621
 21
123.874898
 31
0.0
  0
LINE
  5
23d
100
AcDbEntity
  8
0
 62
7
100
AcDbLine
 10
104.957621
 20
123.874898
 30
0.0
 11
108.963960
 21
123.874898
 31
0.0
  0
LINE
  5
23e
100
AcDbEntity
  8
0
 62
7
100
AcDbLine
 10
108.963960
 20
123.874898
 30
0.0
 11
108.963960
 21
115.902669
 31
0.0
  0
LINE
  5
23f
100
AcDbEntity
  8
0
 62
7
100
AcDbLine
 10
108.963960
 20
115.902669
 30
0.0
 11
104.957621
 21
115.902669
 31
0.0
  0
LINE
  5
240
100
AcDbEntity
  8
0
 62
7
100
AcDbLine
 10
112.365954
 20
115.902669
 30
0.0
 11
112.365954
 21
123.874898
 31
0.0
  0
LINE
  5
241
100
AcDbEntity
  8
0
 62
7
100
AcDbLine
 10
112.365954
 20
123.874898
 30
0.0
 11
116.372293
 21
123.874898
 31
0.0
  0
LINE
  5
242
100
AcDbEntity
  8
0
 62
7
100
AcDbLine
 10
116.372293
 20
123.874898
 30
0.0
 11
116.372293
 21
115.902669
 31
0.0
  0
LINE
  5
243
100
AcDbEntity
  8
0
 62
7
100
AcDbLine
 10
116.372293
 20
115.902669
 30
0.0
 11
112.365954
 21
115.902669
 31
0.0
  0
LINE
  5
244
100
AcDbEntity
  8
0
 62
7
100
AcDbLine
 10
119.774287
 20
115.902669
 30
0.0
 11
119.774287
 21
123.874898
 31
0.0
  0
LINE
  5
245
100
AcDbEntity
  8
0
 62
7
100
AcDbLine
 10
119.774287
 20
123.874898
 30
0.0
 11
123.780627
 21
123.874898
 31
0.0
  0
LINE
  5
246
100
AcDbEntity
  8
0
 62
7
100
AcDbLine
 10
123.780627
 20
123.874898
 30
0.0
 11
123.780627
 21
115.902669
 31
0.0
  0
LINE
  5
247
100
AcDbEntity
  8
0
 62
7
100
AcDbLine
 10
123.780627
 20
115.902669
 30
0.0
 11
119.774287
 21
115.902669
 31
0.0
  0
LINE
  5
248
100
AcDbEntity
  8
0
 62
7
100
AcDbLine
 10
90.140954
 20
131.777669
 30
0.0
 11
90.140954
 21
139.749899
 31
0.0
  0
LINE
  5
249
100
AcDbEntity
  8
0
 62
7
100
AcDbLine
 10
90.140954
 20
139.749899
 30
0.0
 11
94.147293
 21
139.749899
 31
0.0
  0
LINE
  5
24a
100
AcDbEntity
  8
0
 62
7
100
AcDbLine
 10
94.147293
 20
139.749899
 30
0.0
 11
94.147293
 21
131.777669
 31
0.0
  0
LINE
  5
24b
100
AcDbEntity
  8
0
 62
7
100
AcDbLine
 10
94.147293
 20
131.777669
 30
0.0
 11
90.140954
 21
131.777669
 31
0.0
  0
LINE
  5
24c
100
AcDbEntity
  8
0
 62
7
100
AcDbLine
 10
97.549287
 20
131.777669
 30
0.0
 11
97.549287
 21
139.749899
 31
0.0
  0
LINE
  5
24d
100
AcDbEntity
  8
0
 62
7
100
AcDbLine
 10
97.549287
 20
139.749899
 30
0.0
 11
101.555627
 21
139.749899
 31
0.0
  0
LINE
  5
24e
100
AcDbEntity
  8
0
 62
7
100
AcDbLine
 10
101.555627
 20
139.749899
 30
0.0
 11
101.555627
 21
131.777669
 31
0.0
  0
LINE
  5
24f
100
AcDbEntity
  8
0
 62
7
100
AcDbLine
 10
101.555627
 20
131.777669
 30
0.0
 11
97.549287
 21
131.777669
 31
0.0
  0
LINE
  5
250
100
AcDbEntity
  8
0
 62
7
100
AcDbLine
 10
104.957621
 20
131.777669
 30
0.0
 11
104.957621
 21
139.749899
 31
0.0
  0
LINE
  5
251
100
AcDbEntity
  8
0
 62
7
100
AcDbLine
 10
104.957621
 20
139.749899
 30
0.0
 11
108.963960
 21
139.749899
 31
0.0
  0
LINE
  5
252
100
AcDbEntity
  8
0
 62
7
100
AcDbLine
 10
108.963960
 20
139.749899
 30
0.0
 11
108.963960
 21
131.777669
 31
0.0
  0
LINE
  5
253
100
AcDbEntity
  8
0
 62
7
100
AcDbLine
 10
108.963960
 20
131.777669
 30
0.0
 11
104.957621
 21
131.777669
 31
0.0
  0
LINE
  5
254
100
AcDbEntity
  8
0
 62
7
100
AcDbLine
 10
119.774287
 20
131.777669
 30
0.0
 11
119.774287
 21
139.749899
 31
0.0
  0
LINE
  5
255
100
AcDbEntity
  8
0
 62
7
100
AcDbLine
 10
119.774287
 20
139.749899
 30
0.0
 11
123.780627
 21
139.749899
 31
0.0
  0
LINE
  5
256
100
AcDbEntity
  8
0
 62
7
100
AcDbLine
 10
123.780627
 20
139.749899
 30
0.0
 11
123.780627
 21
131.777669
 31
0.0
  0
LINE
  5
257
100
AcDbEntity
  8
0
 62
7
100
AcDbLine
 10
123.780627
 20
131.777669
 30
0.0
 11
119.774287
 21
131.777669
 31
0.0
  0
LINE
  5
258
100
AcDbEntity
  8
0
 62
7
100
AcDbLine
 10
104.957621
 20
147.652669
 30
0.0
 11
104.957621
 21
155.624899
 31
0.0
  0
LINE
  5
259
100
AcDbEntity
  8
0
 62
7
100
AcDbLine
 10
104.957621
 20
155.624899
 30
0.0
 11
108.963960
 21
155.624899
 31
0.0
  0
LINE
  5
25a
100
AcDbEntity
  8
0
 62
7
100
AcDbLine
 10
108.963960
 20
155.624899
 30
0.0
 11
108.963960
 21
147.652669
 31
0.0
  0
LINE
  5
25b
100
AcDbEntity
  8
0
 62
7
100
AcDbLine
 10
108.963960
 20
147.652669
 30
0.0
 11
104.957621
 21
147.652669
 31
0.0
  0
LINE
  5
25c
100
AcDbEntity
  8
0
 62
7
100
AcDbLine
 10
82.203454
 20
4.777666
 30
0.0
 11
82.203454
 21
12.749895
 31
0.0
  0
LINE
  5
25d
100
AcDbEntity
  8
0
 62
7
100
AcDbLine
 10
82.203454
 20
12.749895
 30
0.0
 11
86.209793
 21
12.749895
 31
0.0
  0
LINE
  5
25e
100
AcDbEntity
  8
0
 62
7
100
AcDbLine
 10
86.209793
 20
12.749895
 30
0.0
 11
86.209793
 21
4.777666
 31
0.0
  0
LINE
  5
25f
100
AcDbEntity
  8
0
 62
7
100
AcDbLine
 10
86.209793
 20
4.777666
 30
0.0
 11
82.203454
 21
4.777666
 31
0.0
  0
LINE
  5
260
100
AcDbEntity
  8
0
 62
7
100
AcDbLine
 10
82.203454
 20
20.652666
 30
0.0
 11
82.203454
 21
28.624895
 31
0.0
  0
LINE
  5
261
100
AcDbEntity
  8
0
 62
7
100
AcDbLine
 10
82.203454
 20
28.624895
 30
0.0
 11
86.209793
 21
28.624895
 31
0.0
  0
LINE
  5
262
100
AcDbEntity
  8
0
 62
7
100
AcDbLine
 10
86.209793
 20
28.624895
 30
0.0
 11
86.209793
 21
20.652666
 31
0.0
  0
LINE
  5
263
100
AcDbEntity
  8
0
 62
7
100
AcDbLine
 10
86.209793
 20
20.652666
 30
0.0
 11
82.203454
 21
20.652666
 31
0.0
  0
LINE
  5
264
100
AcDbEntity
  8
0
 62
7
100
AcDbLine
 10
82.203454
 20
36.527666
 30
0.0
 11
82.203454
 21
44.499895
 31
0.0
  0
LINE
  5
265
100
AcDbEntity
  8
0
 62
7
100
AcDbLine
 10
82.203454
 20
44.499895
 30
0.0
 11
86.209793
 21
44.499895
 31
0.0
  0
LINE
  5
266
100
AcDbEntity
  8
0
 62
7
100
AcDbLine
 10
86.209793
 20
44.499895
 30
0.0
 11
86.209793
 21
36.527666
 31
0.0
  0
LINE
  5
267
100
AcDbEntity
  8
0
 62
7
100
AcDbLine
 10
86.209793
 20
36.527666
 30
0.0
 11
82.203454
 21
36.527666
 31
0.0
  0
LINE
  5
268
100
AcDbEntity
  8
0
 62
7
100
AcDbLine
 10
82.203454
 20
52.402666
 30
0.0
 11
82.203454
 21
60.374895
 31
0.0
  0
LINE
  5
269
100
AcDbEntity
  8
0
 62
7
100
AcDbLine
 10
82.203454
 20
60.374895
 30
0.0
 11
86.209793
 21
60.374895
 31
0.0
  0
LINE
  5
26a
100
AcDbEntity
  8
0
 62
7
100
AcDbLine
 10
86.209793
 20
60.374895
 30
0.0
 11
86.209793
 21
52.402666
 31
0.0
  0
LINE
  5
26b
100
AcDbEntity
  8
0
 62
7
100
AcDbLine
 10
86.209793
 20
52.402666
 30
0.0
 11
82.203454
 21
52.402666
 31
0.0
  0
LINE
  5
26c
100
AcDbEntity
  8
0
 62
7
100
AcDbLine
 10
82.203454
 20
68.277669
 30
0.0
 11
82.203454
 21
76.249898
 31
0.0
  0
LINE
  5
26d
100
AcDbEntity
  8
0
 62
7
100
AcDbLine
 10
82.203454
 20
76.249898
 30
0.0
 11
86.209793
 21
76.249898
 31
0.0
  0
LINE
  5
26e
100
AcDbEntity
  8
0
 62
7
100
AcDbLine
 10
86.209793
 20
76.249898
 30
0.0
 11
86.209793
 21
68.277669
 31
0.0
  0
LINE
  5
26f
100
AcDbEntity
  8
0
 62
7
100
AcDbLine
 10
86.209793
 20
68.277669
 30
0.0
 11
82.203454
 21
68.277669
 31
0.0
  0
LINE
  5
270
100
AcDbEntity
  8
0
 62
7
100
AcDbLine
 10
128.240954
 20
4.777666
 30
0.0
 11
128.240954
 21
12.749895
 31
0.0
  0
LINE
  5
271
100
AcDbEntity
  8
0
 62
7
100
AcDbLine
 10
128.240954
 20
12.749895
 30
0.0
 11
132.247293
 21
12.749895
 31
0.0
  0
LINE
  5
272
100
AcDbEntity
  8
0
 62
7
100
AcDbLine
 10
132.247293
 20
12.749895
 30
0.0
 11
132.247293
 21
4.777666
 31
0.0
  0
LINE
  5
273
100
AcDbEntity
  8
0
 62
7
100
AcDbLine
 10
132.247293
 20
4.777666
 30
0.0
 11
128.240954
 21
4.777666
 31
0.0
  0
LINE
  5
274
100
AcDbEntity
  8
0
 62
7
100
AcDbLine
 10
128.240954
 20
20.652666
 30
0.0
 11
128.240954
 21
28.624895
 31
0.0
  0
LINE
  5
275
100
AcDbEntity
  8
0
 62
7
100
AcDbLine
 10
128.240954
 20
28.624895
 30
0.0
 11
132.247293
 21
28.624895
 31
0.0
  0
LINE
  5
276
100
AcDbEntity
  8
0
 62
7
100
AcDbLine
 10
132.247293
 20
28.624895
 30
0.0
 11
132.247293
 21
20.652666
 31
0.0
  0
LINE
  5
277
100
AcDbEntity
  8
0
 62
7
100
AcDbLine
 10
132.247293
 20
20.652666
 30
0.0
 11
128.240954
 21
20.652666
 31
0.0
  0
LINE
  5
278
100
AcDbEntity
  8
0
 62
7
100
AcDbLine
 10
128.240954
 20
36.527666
 30
0.0
 11
128.240954
 21
44.499895
 31
0.0
  0
LINE
  5
279
100
AcDbEntity
  8
0
 62
7
100
AcDbLine
 10
128.240954
 20
44.499895
 30
0.0
 11
132.247293
 21
44.499895
 31
0.0
  0
LINE
  5
27a
100
AcDbEntity
  8
0
 62
7
100
AcDbLine
 10
132.247293
 20
44.499895
 30
0.0
 11
132.247293
 21
36.527666
 31
0.0
  0
LINE
  5
27b
100
AcDbEntity
  8
0
 62
7
100
AcDbLine
 10
132.247293
 20
36.527666
 30
0.0
 11
128.240954
 21
36.527666
 31
0.0
  0
LINE
  5
27c
100
AcDbEntity
  8
0
 62
7
100
AcDbLine
 10
222.432613
 20
4.777666
 30
0.0
 11
222.432613
 21
12.749895
 31
0.0
  0
LINE
  5
27d
100
AcDbEntity
  8
0
 62
7
100
AcDbLine
 10
222.432613
 20
12.749895
 30
0.0
 11
226.438952
 21
12.749895
 31
0.0
  0
LINE
  5
27e
100
AcDbEntity
  8
0
 62
7
100
AcDbLine
 10
226.438952
 20
12.749895
 30
0.0
 11
226.438952
 21
4.777666
 31
0.0
  0
LINE
  5
27f
100
AcDbEntity
  8
0
 62
7
100
AcDbLine
 10
226.438952
 20
4.777666
 30
0.0
 11
222.432613
 21
4.777666
 31
0.0
  0
LINE
  5
280
100
AcDbEntity
  8
0
 62
7
100
AcDbLine
 10
229.840946
 20
4.777666
 30
0.0
 11
229.840946
 21
12.749895
 31
0.0
  0
LINE
  5
281
100
AcDbEntity
  8
0
 62
7
100
AcDbLine
 10
229.840946
 20
12.749895
 30
0.0
 11
233.847285
 21
12.749895
 31
0.0
  0
LINE
  5
282
100
AcDbEntity
  8
0
 62
7
100
AcDbLine
 10
233.847285
 20
12.749895
 30
0.0
 11
233.847285
 21
4.777666
 31
0.0
  0
LINE
  5
283
100
AcDbEntity
  8
0
 62
7
100
AcDbLine
 10
233.847285
 20
4.777666
 30
0.0
 11
229.840946
 21
4.777666
 31
0.0
  0
LINE
  5
284
100
AcDbEntity
  8
0
 62
7
100
AcDbLine
 10
237.249279
 20
4.777666
 30
0.0
 11
237.249279
 21
12.749895
 31
0.0
  0
LINE
  5
285
100
AcDbEntity
  8
0
 62
7
100
AcDbLine
 10
237.249279
 20
12.749895
 30
0.0
 11
241.255619
 21
12.749895
 31
0.0
  0
LINE
  5
286
100
AcDbEntity
  8
0
 62
7
100
AcDbLine
 10
241.255619
 20
12.749895
 30
0.0
 11
241.255619
 21
4.777666
 31
0.0
  0
LINE
  5
287
100
AcDbEntity
  8
0
 62
7
100
AcDbLine
 10
241.255619
 20
4.777666
 30
0.0
 11
237.249279
 21
4.777666
 31
0.0
  0
LINE
  5
288
100
AcDbEntity
  8
0
 62
7
100
AcDbLine
 10
244.657613
 20
4.777666
 30
0.0
 11
244.657613
 21
12.749895
 31
0.0
  0
LINE
  5
289
100
AcDbEntity
  8
0
 62
7
100
AcDbLine
 10
244.657613
 20
12.749895
 30
0.0
 11
248.663952
 21
12.749895
 31
0.0
  0
LINE
  5
28a
100
AcDbEntity
  8
0
 62
7
100
AcDbLine
 10
248.663952
 20
12.749895
 30
0.0
 11
248.663952
 21
4.777666
 31
0.0
  0
LINE
  5
28b
100
AcDbEntity
  8
0
 62
7
100
AcDbLine
 10
248.663952
 20
4.777666
 30
0.0
 11
244.657613
 21
4.777666
 31
0.0
  0
LINE
  5
28c
100
AcDbEntity
  8
0
 62
7
100
AcDbLine
 10
222.432613
 20
20.652666
 30
0.0
 11
222.432613
 21
28.624895
 31
0.0
  0
LINE
  5
28d
100
AcDbEntity
  8
0
 62
7
100
AcDbLine
 10
222.432613
 20
28.624895
 30
0.0
 11
226.438952
 21
28.624895
 31
0.0
  0
LINE
  5
28e
100
AcDbEntity
  8
0
 62
7
100
AcDbLine
 10
226.438952
 20
28.624895
 30
0.0
 11
226.438952
 21
20.652666
 31
0.0
  0
LINE
  5
28f
100
AcDbEntity
  8
0
 62
7
100
AcDbLine
 10
226.438952
 20
20.652666
 30
0.0
 11
222.432613
 21
20.652666
 31
0.0
  0
LINE
  5
290
100
AcDbEntity
  8
0
 62
7
100
AcDbLine
 10
229.840946
 20
20.652666
 30
0.0
 11
229.840946
 21
28.624895
 31
0.0
  0
LINE
  5
291
100
AcDbEntity
  8
0
 62
7
100
AcDbLine
 10
229.840946
 20
28.624895
 30
0.0
 11
233.847285
 21
28.624895
 31
0.0
  0
LINE
  5
292
100
AcDbEntity
  8
0
 62
7
100
AcDbLine
 10
233.847285
 20
28.624895
 30
0.0
 11
233.847285
 21
20.652666
 31
0.0
  0
LINE
  5
293
100
AcDbEntity
  8
0
 62
7
100
AcDbLine
 10
233.847285
 20
20.652666
 30
0.0
 11
229.840946
 21
20.652666
 31
0.0
  0
LINE
  5
294
100
AcDbEntity
  8
0
 62
7
100
AcDbLine
 10
237.249279
 20
20.652666
 30
0.0
 11
237.249279
 21
28.624895
 31
0.0
  0
LINE
  5
295
100
AcDbEntity
  8
0
 62
7
100
AcDbLine
 10
237.249279
 20
28.624895
 30
0.0
 11
241.255619
 21
28.624895
 31
0.0
  0
LINE
  5
296
100
AcDbEntity
  8
0
 62
7
100
AcDbLine
 10
241.255619
 20
28.624895
 30
0.0
 11
241.255619
 21
20.652666
 31
0.0
  0
LINE
  5
297
100
AcDbEntity
  8
0
 62
7
100
AcDbLine
 10
241.255619
 20
20.652666
 30
0.0
 11
237.249279
 21
20.652666
 31
0.0
  0
LINE
  5
298
100
AcDbEntity
  8
0
 62
7
100
AcDbLine
 10
244.657613
 20
20.652666
 30
0.0
 11
244.657613
 21
28.624895
 31
0.0
  0
LINE
  5
299
100
AcDbEntity
  8
0
 62
7
100
AcDbLine
 10
244.657613
 20
28.624895
 30
0.0
 11
248.663952
 21
28.624895
 31
0.0
  0
LINE
  5
29a
100
AcDbEntity
  8
0
 62
7
100
AcDbLine
 10
248.663952
 20
28.624895
 30
0.0
 11
248.663952
 21
20.652666
 31
0.0
  0
LINE
  5
29b
100
AcDbEntity
  8
0
 62
7
100
AcDbLine
 10
248.663952
 20
20.652666
 30
0.0
 11
244.657613
 21
20.652666
 31
0.0
  0
LINE
  5
29c
100
AcDbEntity
  8
0
 62
7
100
AcDbLine
 10
222.432613
 20
36.527666
 30
0.0
 11
222.432613
 21
44.499895
 31
0.0
  0
LINE
  5
29d
100
AcDbEntity
  8
0
 62
7
100
AcDbLine
 10
222.432613
 20
44.499895
 30
0.0
 11
226.438952
 21
44.499895
 31
0.0
  0
LINE
  5
29e
100
AcDbEntity
  8
0
 62
7
100
AcDbLine
 10
226.438952
 20
44.499895
 30
0.0
 11
226.438952
 21
36.527666
 31
0.0
  0
LINE
  5
29f
100
AcDbEntity
  8
0
 62
7
100
AcDbLine
 10
226.438952
 20
36.527666
 30
0.0
 11
222.432613
 21
36.527666
 31
0.0
  0
LINE
  5
2a0
100
AcDbEntity
  8
0
 62
7
100
AcDbLine
 10
229.840946
 20
36.527666
 30
0.0
 11
229.840946
 21
44.499895
 31
0.0
  0
LINE
  5
2a1
100
AcDbEntity
  8
0
 62
7
100
AcDbLine
 10
229.840946
 20
44.499895
 30
0.0
 11
233.847285
 21
44.499895
 31
0.0
  0
LINE
  5
2a2
100
AcDbEntity
  8
0
 62
7
100
AcDbLine
 10
233.847285
 20
44.499895
 30
0.0
 11
233.847285
 21
36.527666
 31
0.0
  0
LINE
  5
2a3
100
AcDbEntity
  8
0
 62
7
100
AcDbLine
 10
233.847285
 20
36.527666
 30
0.0
 11
229.840946
 21
36.527666
 31
0.0
  0
LINE
  5
2a4
100
AcDbEntity
  8
0
 62
7
100
AcDbLine
 10
237.249279
 20
36.527666
 30
0.0
 11
237.249279
 21
44.499895
 31
0.0
  0
LINE
  5
2a5
100
AcDbEntity
  8
0
 62
7
100
AcDbLine
 10
237.249279
 20
44.499895
 30
0.0
 11
241.255619
 21
44.499895
 31
0.0
  0
LINE
  5
2a6
100
AcDbEntity
  8
0
 62
7
100
AcDbLine
 10
241.255619
 20
44.499895
 30
0.0
 11
241.255619
 21
36.527666
 31
0.0
  0
LINE
  5
2a7
100
AcDbEntity
  8
0
 62
7
100
AcDbLine
 10
241.255619
 20
36.527666
 30
0.0
 11
237.249279
 21
36.527666
 31
0.0
  0
LINE
  5
2a8
100
AcDbEntity
  8
0
 62
7
100
AcDbLine
 10
244.657613
 20
36.527666
 30
0.0
 11
244.657613
 21
44.499895
 31
0.0
  0
LINE
  5
2a9
100
AcDbEntity
  8
0
 62
7
100
AcDbLine
 10
244.657613
 20
44.499895
 30
0.0
 11
248.663952
 21
44.499895
 31
0.0
  0
LINE
  5
2aa
100
AcDbEntity
  8
0
 62
7
100
AcDbLine
 10
248.663952
 20
44.499895
 30
0.0
 11
248.663952
 21
36.527666
 31
0.0
  0
LINE
  5
2ab
100
AcDbEntity
  8
0
 62
7
100
AcDbLine
 10
248.663952
 20
36.527666
 30
0.0
 11
244.657613
 21
36.527666
 31
0.0
  0
LINE
  5
2ac
100
AcDbEntity
  8
0
 62
7
100
AcDbLine
 10
222.432613
 20
52.402666
 30
0.0
 11
222.432613
 21
60.374895
 31
0.0
  0
LINE
  5
2ad
100
AcDbEntity
  8
0
 62
7
100
AcDbLine
 10
222.432613
 20
60.374895
 30
0.0
 11
226.438952
 21
60.374895
 31
0.0
  0
LINE
  5
2ae
100
AcDbEntity
  8
0
 62
7
100
AcDbLine
 10
226.438952
 20
60.374895
 30
0.0
 11
226.438952
 21
52.402666
 31
0.0
  0
LINE
  5
2af
100
AcDbEntity
  8
0
 62
7
100
AcDbLine
 10
226.438952
 20
52.402666
 30
0.0
 11
222.432613
 21
52.402666
 31
0.0
  0
LINE
  5
2b0
100
AcDbEntity
  8
0
 62
7
100
AcDbLine
 10
229.840946
 20
52.402666
 30
0.0
 11
229.840946
 21
60.374895
 31
0.0
  0
LINE
  5
2b1
100
AcDbEntity
  8
0
 62
7
100
AcDbLine
 10
229.840946
 20
60.374895
 30
0.0
 11
233.847285
 21
60.374895
 31
0.0
  0
LINE
  5
2b2
100
AcDbEntity
  8
0
 62
7
100
AcDbLine
 10
233.847285
 20
60.374895
 30
0.0
 11
233.847285
 21
52.402666
 31
0.0
  0
LINE
  5
2b3
100
AcDbEntity
  8
0
 62
7
100
AcDbLine
 10
233.847285
 20
52.402666
 30
0.0
 11
229.840946
 21
52.402666
 31
0.0
  0
LINE
  5
2b4
100
AcDbEntity
  8
0
 62
7
100
AcDbLine
 10
237.249279
 20
52.402666
 30
0.0
 11
237.249279
 21
60.374895
 31
0.0
  0
LINE
  5
2b5
100
AcDbEntity
  8
0
 62
7
100
AcDbLine
 10
237.249279
 20
60.374895
 30
0.0
 11
241.255619
 21
60.374895
 31
0.0
  0
LINE
  5
2b6
100
AcDbEntity
  8
0
 62
7
100
AcDbLine
 10
241.255619
 20
60.374895
 30
0.0
 11
241.255619
 21
52.402666
 31
0.0
  0
LINE
  5
2b7
100
AcDbEntity
  8
0
 62
7
100
AcDbLine
 10
241.255619
 20
52.402666
 30
0.0
 11
237.249279
 21
52.402666
 31
0.0
  0
LINE
  5
2b8
100
AcDbEntity
  8
0
 62
7
100
AcDbLine
 10
244.657613
 20
52.402666
 30
0.0
 11
244.657613
 21
60.374895
 31
0.0
  0
LINE
  5
2b9
100
AcDbEntity
  8
0
 62
7
100
AcDbLine
 10
244.657613
 20
60.374895
 30
0.0
 11
248.663952
 21
60.374895
 31
0.0
  0
LINE
  5
2ba
100
AcDbEntity
  8
0
 62
7
100
AcDbLine
 10
248.663952
 20
60.374895
 30
0.0
 11
248.663952
 21
52.402666
 31
0.0
  0
LINE
  5
2bb
100
AcDbEntity
  8
0
 62
7
100
AcDbLine
 10
248.663952
 20
52.402666
 30
0.0
 11
244.657613
 21
52.402666
 31
0.0
  0
LINE
  5
2bc
100
AcDbEntity
  8
0
 62
7
100
AcDbLine
 10
222.432613
 20
68.277669
 30
0.0
 11
222.432613
 21
76.249898
 31
0.0
  0
LINE
  5
2bd
100
AcDbEntity
  8
0
 62
7
100
AcDbLine
 10
222.432613
 20
76.249898
 30
0.0
 11
226.438952
 21
76.249898
 31
0.0
  0
LINE
  5
2be
100
AcDbEntity
  8
0
 62
7
100
AcDbLine
 10
226.438952
 20
76.249898
 30
0.0
 11
226.438952
 21
68.277669
 31
0.0
  0
LINE
  5
2bf
100
AcDbEntity
  8
0
 62
7
100
AcDbLine
 10
226.438952
 20
68.277669
 30
0.0
 11
222.432613
 21
68.277669
 31
0.0
  0
LINE
  5
2c0
100
AcDbEntity
  8
0
 62
7
100
AcDbLine
 10
229.840946
 20
68.277669
 30
0.0
 11
229.840946
 21
76.249898
 31
0.0
  0
LINE
  5
2c1
100
AcDbEntity
  8
0
 62
7
100
AcDbLine
 10
229.840946
 20
76.249898
 30
0.0
 11
233.847285
 21
76.249898
 31
0.0
  0
LINE
  5
2c2
100
AcDbEntity
  8
0
 62
7
100
AcDbLine
 10
233.847285
 20
76.249898
 30
0.0
 11
233.847285
 21
68.277669
 31
0.0
  0
LINE
  5
2c3
100
AcDbEntity
  8
0
 62
7
100
AcDbLine
 10
233.847285
 20
68.277669
 30
0.0
 11
229.840946
 21
68.277669
 31
0.0
  0
LINE
  5
2c4
100
AcDbEntity
  8
0
 62
7
100
AcDbLine
 10
237.249279
 20
68.277669
 30
0.0
 11
237.249279
 21
76.249898
 31
0.0
  0
LINE
  5
2c5
100
AcDbEntity
  8
0
 62
7
100
AcDbLine
 10
237.249279
 20
76.249898
 30
0.0
 11
241.255619
 21
76.249898
 31
0.0
  0
LINE
  5
2c6
100
AcDbEntity
  8
0
 62
7
100
AcDbLine
 10
241.255619
 20
76.249898
 30
0.0
 11
241.255619
 21
68.277669
 31
0.0
  0
LINE
  5
2c7
100
AcDbEntity
  8
0
 62
7
100
AcDbLine
 10
241.255619
 20
68.277669
 30
0.0
 11
237.249279
 21
68.277669
 31
0.0
  0
LINE
  5
2c8
100
AcDbEntity
  8
0
 62
7
100
AcDbLine
 10
244.657613
 20
68.277669
 30
0.0
 11
244.657613
 21
76.249898
 31
0.0
  0
LINE
  5
2c9
100
AcDbEntity
  8
0
 62
7
100
AcDbLine
 10
244.657613
 20
76.249898
 30
0.0
 11
248.663952
 21
76.249898
 31
0.0
  0
LINE
  5
2ca
100
AcDbEntity
  8
0
 62
7
100
AcDbLine
 10
248.663952
 20
76.249898
 30
0.0
 11
248.663952
 21
68.277669
 31
0.0
  0
LINE
  5
2cb
100
AcDbEntity
  8
0
 62
7
100
AcDbLine
 10
248.663952
 20
68.277669
 30
0.0
 11
244.657613
 21
68.277669
 31
0.0
  0
LINE
  5
2cc
100
AcDbEntity
  8
0
 62
7
100
AcDbLine
 10
214.495113
 20
4.777666
 30
0.0
 11
214.495113
 21
12.749895
 31
0.0
  0
LINE
  5
2cd
100
AcDbEntity
  8
0
 62
7
100
AcDbLine
 10
214.495113
 20
12.749895
 30
0.0
 11
218.501452
 21
12.749895
 31
0.0
  0
LINE
  5
2ce
100
AcDbEntity
  8
0
 62
7
100
AcDbLine
 10
218.501452
 20
12.749895
 30
0.0
 11
218.501452
 21
4.777666
 31
0.0
  0
LINE
  5
2cf
100
AcDbEntity
  8
0
 62
7
100
AcDbLine
 10
218.501452
 20
4.777666
 30
0.0
 11
214.495113
 21
4.777666
 31
0.0
  0
LINE
  5
2d0
100
AcDbEntity
  8
0
 62
7
100
AcDbLine
 10
214.495113
 20
20.652666
 30
0.0
 11
214.495113
 21
28.624895
 31
0.0
  0
LINE
  5
2d1
100
AcDbEntity
  8
0
 62
7
100
AcDbLine
 10
214.495113
 20
28.624895
 30
0.0
 11
218.501452
 21
28.624895
 31
0.0
  0
LINE
  5
2d2
100
AcDbEntity
  8
0
 62
7
100
AcDbLine
 10
218.501452
 20
28.624895
 30
0.0
 11
218.501452
 21
20.652666
 31
0.0
  0
LINE
  5
2d3
100
AcDbEntity
  8
0
 62
7
100
AcDbLine
 10
218.501452
 20
20.652666
 30
0.0
 11
214.495113
 21
20.652666
 31
0.0
  0
LINE
  5
2d4
100
AcDbEntity
  8
0
 62
7
100
AcDbLine
 10
214.495113
 20
36.527666
 30
0.0
 11
214.495113
 21
44.499895
 31
0.0
  0
LINE
  5
2d5
100
AcDbEntity
  8
0
 62
7
100
AcDbLine
 10
214.495113
 20
44.499895
 30
0.0
 11
218.501452
 21
44.499895
 31
0.0
  0
LINE
  5
2d6
100
AcDbEntity
  8
0
 62
7
100
AcDbLine
 10
218.501452
 20
44.499895
 30
0.0
 11
218.501452
 21
36.527666
 31
0.0
  0
LINE
  5
2d7
100
AcDbEntity
  8
0
 62
7
100
AcDbLine
 10
218.501452
 20
36.527666
 30
0.0
 11
214.495113
 21
36.527666
 31
0.0
  0
LINE
  5
2d8
100
AcDbEntity
  8
0
 62
7
100
AcDbLine
 10
214.495113
 20
52.402666
 30
0.0
 11
214.495113
 21
60.374895
 31
0.0
  0
LINE
  5
2d9
100
AcDbEntity
  8
0
 62
7
100
AcDbLine
 10
214.495113
 20
60.374895
 30
0.0
 11
218.501452
 21
60.374895
 31
0.0
  0
LINE
  5
2da
100
AcDbEntity
  8
0
 62
7
100
AcDbLine
 10
218.501452
 20
60.374895
 30
0.0
 11
218.501452
 21
52.402666
 31
0.0
  0
LINE
  5
2db
100
AcDbEntity
  8
0
 62
7
100
AcDbLine
 10
218.501452
 20
52.402666
 30
0.0
 11
214.495113
 21
52.402666
 31
0.0
  0
LINE
  5
2dc
100
AcDbEntity
  8
0
 62
7
100
AcDbLine
 10
214.495113
 20
68.277669
 30
0.0
 11
214.495113
 21
76.249898
 31
0.0
  0
LINE
  5
2dd
100
AcDbEntity
  8
0
 62
7
100
AcDbLine
 10
214.495113
 20
76.249898
 30
0.0
 11
218.501452
 21
76.249898
 31
0.0
  0
LINE
  5
2de
100
AcDbEntity
  8
0
 62
7
100
AcDbLine
 10
218.501452
 20
76.249898
 30
0.0
 11
218.501452
 21
68.277669
 31
0.0
  0
LINE
  5
2df
100
AcDbEntity
  8
0
 62
7
100
AcDbLine
 10
218.501452
 20
68.277669
 30
0.0
 11
214.495113
 21
68.277669
 31
0.0
  0
LINE
  5
2e0
100
AcDbEntity
  8
0
 62
7
100
AcDbLine
 10
222.432613
 20
84.152669
 30
0.0
 11
222.432613
 21
92.124898
 31
0.0
  0
LINE
  5
2e1
100
AcDbEntity
  8
0
 62
7
100
AcDbLine
 10
222.432613
 20
92.124898
 30
0.0
 11
226.438952
 21
92.124898
 31
0.0
  0
LINE
  5
2e2
100
AcDbEntity
  8
0
 62
7
100
AcDbLine
 10
226.438952
 20
92.124898
 30
0.0
 11
226.438952
 21
84.152669
 31
0.0
  0
LINE
  5
2e3
100
AcDbEntity
  8
0
 62
7
100
AcDbLine
 10
226.438952
 20
84.152669
 30
0.0
 11
222.432613
 21
84.152669
 31
0.0
  0
LINE
  5
2e4
100
AcDbEntity
  8
0
 62
7
100
AcDbLine
 10
229.840946
 20
84.152669
 30
0.0
 11
229.840946
 21
92.124898
 31
0.0
  0
LINE
  5
2e5
100
AcDbEntity
  8
0
 62
7
100
AcDbLine
 10
229.840946
 20
92.124898
 30
0.0
 11
233.847285
 21
92.124898
 31
0.0
  0
LINE
  5
2e6
100
AcDbEntity
  8
0
 62
7
100
AcDbLine
 10
233.847285
 20
92.124898
 30
0.0
 11
233.847285
 21
84.152669
 31
0.0
  0
LINE
  5
2e7
100
AcDbEntity
  8
0
 62
7
100
AcDbLine
 10
233.847285
 20
84.152669
 30
0.0
 11
229.840946
 21
84.152669
 31
0.0
  0
LINE
  5
2e8
100
AcDbEntity
  8
0
 62
7
100
AcDbLine
 10
237.249279
 20
84.152669
 30
0.0
 11
237.249279
 21
92.124898
 31
0.0
  0
LINE
  5
2e9
100
AcDbEntity
  8
0
 62
7
100
AcDbLine
 10
237.249279
 20
92.124898
 30
0.0
 11
241.255619
 21
92.124898
 31
0.0
  0
LINE
  5
2ea
100
AcDbEntity
  8
0
 62
7
100
AcDbLine
 10
241.255619
 20
92.124898
 30
0.0
 11
241.255619
 21
84.152669
 31
0.0
  0
LINE
  5
2eb
100
AcDbEntity
  8
0
 62
7
100
AcDbLine
 10
241.255619
 20
84.152669
 30
0.0
 11
237.249279
 21
84.152669
 31
0.0
  0
LINE
  5
2ec
100
AcDbEntity
  8
0
 62
7
100
AcDbLine
 10
244.657613
 20
84.152669
 30
0.0
 11
244.657613
 21
92.124898
 31
0.0
  0
LINE
  5
2ed
100
AcDbEntity
  8
0
 62
7
100
AcDbLine
 10
244.657613
 20
92.124898
 30
0.0
 11
248.663952
 21
92.124898
 31
0.0
  0
LINE
  5
2ee
100
AcDbEntity
  8
0
 62
7
100
AcDbLine
 10
248.663952
 20
92.124898
 30
0.0
 11
248.663952
 21
84.152669
 31
0.0
  0
LINE
  5
2ef
100
AcDbEntity
  8
0
 62
7
100
AcDbLine
 10
248.663952
 20
84.152669
 30
0.0
 11
244.657613
 21
84.152669
 31
0.0
  0
LINE
  5
2f0
100
AcDbEntity
  8
0
 62
7
100
AcDbLine
 10
222.432613
 20
100.027669
 30
0.0
 11
222.432613
 21
107.999898
 31
0.0
  0
LINE
  5
2f1
100
AcDbEntity
  8
0
 62
7
100
AcDbLine
 10
222.432613
 20
107.999898
 30
0.0
 11
226.438952
 21
107.999898
 31
0.0
  0
LINE
  5
2f2
100
AcDbEntity
  8
0
 62
7
100
AcDbLine
 10
226.438952
 20
107.999898
 30
0.0
 11
226.438952
 21
100.027669
 31
0.0
  0
LINE
  5
2f3
100
AcDbEntity
  8
0
 62
7
100
AcDbLine
 10
226.438952
 20
100.027669
 30
0.0
 11
222.432613
 21
100.027669
 31
0.0
  0
LINE
  5
2f4
100
AcDbEntity
  8
0
 62
7
100
AcDbLine
 10
229.840946
 20
100.027669
 30
0.0
 11
229.840946
 21
107.999898
 31
0.0
  0
LINE
  5
2f5
100
AcDbEntity
  8
0
 62
7
100
AcDbLine
 10
229.840946
 20
107.999898
 30
0.0
 11
233.847285
 21
107.999898
 31
0.0
  0
LINE
  5
2f6
100
AcDbEntity
  8
0
 62
7
100
AcDbLine
 10
233.847285
 20
107.999898
 30
0.0
 11
233.847285
 21
100.027669
 31
0.0
  0
LINE
  5
2f7
100
AcDbEntity
  8
0
 62
7
100
AcDbLine
 10
233.847285
 20
100.027669
 30
0.0
 11
229.840946
 21
100.027669
 31
0.0
  0
LINE
  5
2f8
100
AcDbEntity
  8
0
 62
7
100
AcDbLine
 10
237.249279
 20
100.027669
 30
0.0
 11
237.249279
 21
107.999898
 31
0.0
  0
LINE
  5
2f9
100
AcDbEntity
  8
0
 62
7
100
AcDbLine
 10
237.249279
 20
107.999898
 30
0.0
 11
241.255619
 21
107.999898
 31
0.0
  0
LINE
  5
2fa
100
AcDbEntity
  8
0
 62
7
100
AcDbLine
 10
241.255619
 20
107.999898
 30
0.0
 11
241.255619
 21
100.027669
 31
0.0
  0
LINE
  5
2fb
100
AcDbEntity
  8
0
 62
7
100
AcDbLine
 10
241.255619
 20
100.027669
 30
0.0
 11
237.249279
 21
100.027669
 31
0.0
  0
LINE
  5
2fc
100
AcDbEntity
  8
0
 62
7
100
AcDbLine
 10
244.657613
 20
100.027669
 30
0.0
 11
244.657613
 21
107.999898
 31
0.0
  0
LINE
  5
2fd
100
AcDbEntity
  8
0
 62
7
100
AcDbLine
 10
244.657613
 20
107.999898
 30
0.0
 11
248.663952
 21
107.999898
 31
0.0
  0
LINE
  5
2fe
100
AcDbEntity
  8
0
 62
7
100
AcDbLine
 10
248.663952
 20
107.999898
 30
0.0
 11
248.663952
 21
100.027669
 31
0.0
  0
LINE
  5
2ff
100
AcDbEntity
  8
0
 62
7
100
AcDbLine
 10
248.663952
 20
100.027669
 30
0.0
 11
244.657613
 21
100.027669
 31
0.0
  0
LINE
  5
300
100
AcDbEntity
  8
0
 62
7
100
AcDbLine
 10
214.495113
 20
84.152669
 30
0.0
 11
214.495113
 21
92.124898
 31
0.0
  0
LINE
  5
301
100
AcDbEntity
  8
0
 62
7
100
AcDbLine
 10
214.495113
 20
92.124898
 30
0.0
 11
218.501452
 21
92.124898
 31
0.0
  0
LINE
  5
302
100
AcDbEntity
  8
0
 62
7
100
AcDbLine
 10
218.501452
 20
92.124898
 30
0.0
 11
218.501452
 21
84.152669
 31
0.0
  0
LINE
  5
303
100
AcDbEntity
  8
0
 62
7
100
AcDbLine
 10
218.501452
 20
84.152669
 30
0.0
 11
214.495113
 21
84.152669
 31
0.0
  0
LINE
  5
304
100
AcDbEntity
  8
0
 62
7
100
AcDbLine
 10
214.495113
 20
100.027669
 30
0.0
 11
214.495113
 21
107.999898
 31
0.0
  0
LINE
  5
305
100
AcDbEntity
  8
0
 62
7
100
AcDbLine
 10
214.495113
 20
107.999898
 30
0.0
 11
218.501452
 21
107.999898
 31
0.0
  0
LINE
  5
306
100
AcDbEntity
  8
0
 62
7
100
AcDbLine
 10
218.501452
 20
107.999898
 30
0.0
 11
218.501452
 21
100.027669
 31
0.0
  0
LINE
  5
307
100
AcDbEntity
  8
0
 62
7
100
AcDbLine
 10
218.501452
 20
100.027669
 30
0.0
 11
214.495113
 21
100.027669
 31
0.0
  0
LINE
  5
308
100
AcDbEntity
  8
0
 62
7
100
AcDbLine
 10
176.036801
 20
84.152669
 30
0.0
 11
176.036801
 21
92.124898
 31
0.0
  0
LINE
  5
309
100
AcDbEntity
  8
0
 62
7
100
AcDbLine
 10
176.036801
 20
92.124898
 30
0.0
 11
182.876452
 21
92.124898
 31
0.0
  0
LINE
  5
30a
100
AcDbEntity
  8
0
 62
7
100
AcDbLine
 10
182.876452
 20
92.124898
 30
0.0
 11
182.876452
 21
84.152669
 31
0.0
  0
LINE
  5
30b
100
AcDbEntity
  8
0
 62
7
100
AcDbLine
 10
182.876452
 20
84.152669
 30
0.0
 11
176.036801
 21
84.152669
 31
0.0
  0
LINE
  5
30c
100
AcDbEntity
  8
0
 62
7
100
AcDbLine
 10
165.453467
 20
84.152669
 30
0.0
 11
165.453467
 21
92.124898
 31
0.0
  0
LINE
  5
30d
100
AcDbEntity
  8
0
 62
7
100
AcDbLine
 10
165.453467
 20
92.124898
 30
0.0
 11
172.293119
 21
92.124898
 31
0.0
  0
LINE
  5
30e
100
AcDbEntity
  8
0
 62
7
100
AcDbLine
 10
172.293119
 20
92.124898
 30
0.0
 11
172.293119
 21
84.152669
 31
0.0
  0
LINE
  5
30f
100
AcDbEntity
  8
0
 62
7
100
AcDbLine
 10
172.293119
 20
84.152669
 30
0.0
 11
165.453467
 21
84.152669
 31
0.0
  0
LINE
  5
310
100
AcDbEntity
  8
0
 62
7
100
AcDbLine
 10
154.870134
 20
84.152669
 30
0.0
 11
154.870134
 21
92.124898
 31
0.0
  0
LINE
  5
311
100
AcDbEntity
  8
0
 62
7
100
AcDbLine
 10
154.870134
 20
92.124898
 30
0.0
 11
161.709785
 21
92.124898
 31
0.0
  0
LINE
  5
312
100
AcDbEntity
  8
0
 62
7
100
AcDbLine
 10
161.709785
 20
92.124898
 30
0.0
 11
161.709785
 21
84.152669
 31
0.0
  0
LINE
  5
313
100
AcDbEntity
  8
0
 62
7
100
AcDbLine
 10
161.709785
 20
84.152669
 30
0.0
 11
154.870134
 21
84.152669
 31
0.0
  0
LINE
  5
314
100
AcDbEntity
  8
0
 62
7
100
AcDbLine
 10
197.203467
 20
84.152669
 30
0.0
 11
197.203467
 21
92.124898
 31
0.0
  0
LINE
  5
315
100
AcDbEntity
  8
0
 62
7
100
AcDbLine
 10
197.203467
 20
92.124898
 30
0.0
 11
204.043119
 21
92.124898
 31
0.0
  0
LINE
  5
316
100
AcDbEntity
  8
0
 62
7
100
AcDbLine
 10
204.043119
 20
92.124898
 30
0.0
 11
204.043119
 21
84.152669
 31
0.0
  0
LINE
  5
317
100
AcDbEntity
  8
0
 62
7
100
AcDbLine
 10
204.043119
 20
84.152669
 30
0.0
 11
197.203467
 21
84.152669
 31
0.0
  0
LINE
  5
318
100
AcDbEntity
  8
0
 62
7
100
AcDbLine
 10
186.620134
 20
84.152669
 30
0.0
 11
186.620134
 21
92.124898
 31
0.0
  0
LINE
  5
319
100
AcDbEntity
  8
0
 62
7
100
AcDbLine
 10
186.620134
 20
92.124898
 30
0.0
 11
193.459785
 21
92.124898
 31
0.0
  0
LINE
  5
31a
100
AcDbEntity
  8
0
 62
7
100
AcDbLine
 10
193.459785
 20
92.124898
 30
0.0
 11
193.459785
 21
84.152669
 31
0.0
  0
LINE
  5
31b
100
AcDbEntity
  8
0
 62
7
100
AcDbLine
 10
193.459785
 20
84.152669
 30
0.0
 11
186.620134
 21
84.152669
 31
0.0
  0
SPLINE
  5
31c
100
AcDbEntity
  8
0
 62
7
100
AcDbSpline
 70
8
 71
3
 72
8
 73
4
 74
0
 40
0
 40
0
 40
0
 40
0
 40
1
 40
1
 40
1
 40
1
 10
56.422589
 20
148.571805
 30
0.0
 10
57.408856
 20
148.571806
 30
0.0
 10
58.354727
 20
148.180013
 30
0.0
 10
59.052123
 20
147.482618
 30
0.0
  0
SPLINE
  5
31d
100
AcDbEntity
  8
0
 62
7
100
AcDbSpline
 70
8
 71
3
 72
8
 73
4
 74
0
 40
0
 40
0
 40
0
 40
0
 40
1
 40
1
 40
1
 40
1
 10
59.052123
 20
147.482618
 30
0.0
 10
59.749520
 20
146.785222
 30
0.0
 10
60.141313
 20
145.839351
 30
0.0
 10
60.141313
 20
144.853084
 30
0.0
  0
SPLINE
  5
31e
100
AcDbEntity
  8
0
 62
7
100
AcDbSpline
 70
8
 71
3
 72
8
 73
4
 74
0
 40
0
 40
0
 40
0
 40
0
 40
1
 40
1
 40
1
 40
1
 10
60.141313
 20
144.853084
 30
0.0
 10
60.141313
 20
143.866817
 30
0.0
 10
59.749521
 20
142.920945
 30
0.0
 10
59.052124
 20
142.223549
 30
0.0
  0
SPLINE
  5
31f
100
AcDbEntity
  8
0
 62
7
100
AcDbSpline
 70
8
 71
3
 72
8
 73
4
 74
0
 40
0
 40
0
 40
0
 40
0
 40
1
 40
1
 40
1
 40
1
 10
59.052124
 20
142.223549
 30
0.0
 10
58.354728
 20
141.526152
 30
0.0
 10
57.408856
 20
141.134360
 30
0.0
 10
56.422589
 20
141.134360
 30
0.0
  0
SPLINE
  5
320
100
AcDbEntity
  8
0
 62
7
100
AcDbSpline
 70
8
 71
3
 72
8
 73
4
 74
0
 40
0
 40
0
 40
0
 40
0
 40
1
 40
1
 40
1
 40
1
 10
56.422589
 20
141.134360
 30
0.0
 10
55.436322
 20
141.134360
 30
0.0
 10
54.490451
 20
141.526153
 30
0.0
 10
53.793055
 20
142.223549
 30
0.0
  0
SPLINE
  5
321
100
AcDbEntity
  8
0
 62
7
100
AcDbSpline
 70
8
 71
3
 72
8
 73
4
 74
0
 40
0
 40
0
 40
0
 40
0
 40
1
 40
1
 40
1
 40
1
 10
53.793055
 20
142.223549
 30
0.0
 10
53.095660
 20
142.920946
 30
0.0
 10
52.703867
 20
143.866817
 30
0.0
 10
52.703868
 20
144.853084
 30
0.0
  0
SPLINE
  5
322
100
AcDbEntity
  8
0
 62
7
100
AcDbSpline
 70
8
 71
3
 72
8
 73
4
 74
0
 40
0
 40
0
 40
0
 40
0
 40
1
 40
1
 40
1
 40
1
 10
52.703868
 20
144.853084
 30
0.0
 10
52.703868
 20
146.906877
 30
0.0
 10
54.368796
 20
148.571805
 30
0.0
 10
56.422589
 20
148.571805
 30
0.0
  0
LINE
  5
323
100
AcDbEntity
  8
0
 62
7
100
AcDbLine
 10
56.422589
 20
148.571805
 30
0.0
 11
56.422589
 21
148.571805
 31
0.0
  0
SPLINE
  5
324
100
AcDbEntity
  8
0
 62
7
100
AcDbSpline
 70
8
 71
3
 72
8
 73
4
 74
0
 40
0
 40
0
 40
0
 40
0
 40
1
 40
1
 40
1
 40
1
 10
45.839256
 20
148.571805
 30
0.0
 10
46.825522
 20
148.571806
 30
0.0
 10
47.771394
 20
148.180013
 30
0.0
 10
48.468790
 20
147.482618
 30
0.0
  0
SPLINE
  5
325
100
AcDbEntity
  8
0
 62
7
100
AcDbSpline
 70
8
 71
3
 72
8
 73
4
 74
0
 40
0
 40
0
 40
0
 40
0
 40
1
 40
1
 40
1
 40
1
 10
48.468790
 20
147.482618
 30
0.0
 10
49.166186
 20
146.785222
 30
0.0
 10
49.557979
 20
145.839351
 30
0.0
 10
49.557980
 20
144.853084
 30
0.0
  0
SPLINE
  5
326
100
AcDbEntity
  8
0
 62
7
100
AcDbSpline
 70
8
 71
3
 72
8
 73
4
 74
0
 40
0
 40
0
 40
0
 40
0
 40
1
 40
1
 40
1
 40
1
 10
49.557980
 20
144.853084
 30
0.0
 10
49.557980
 20
143.866817
 30
0.0
 10
49.166187
 20
142.920945
 30
0.0
 10
48.468791
 20
142.223549
 30
0.0
  0
SPLINE
  5
327
100
AcDbEntity
  8
0
 62
7
100
AcDbSpline
 70
8
 71
3
 72
8
 73
4
 74
0
 40
0
 40
0
 40
0
 40
0
 40
1
 40
1
 40
1
 40
1
 10
48.468791
 20
142.223549
 30
0.0
 10
47.771395
 20
141.526152
 30
0.0
 10
46.825523
 20
141.134360
 30
0.0
 10
45.839256
 20
141.134360
 30
0.0
  0
SPLINE
  5
328
100
AcDbEntity
  8
0
 62
7
100
AcDbSpline
 70
8
 71
3
 72
8
 73
4
 74
0
 40
0
 40
0
 40
0
 40
0
 40
1
 40
1
 40
1
 40
1
 10
45.839256
 20
141.134360
 30
0.0
 10
44.852989
 20
141.134360
 30
0.0
 10
43.907117
 20
141.526153
 30
0.0
 10
43.209722
 20
142.223549
 30
0.0
  0
SPLINE
  5
329
100
AcDbEntity
  8
0
 62
7
100
AcDbSpline
 70
8
 71
3
 72
8
 73
4
 74
0
 40
0
 40
0
 40
0
 40
0
 40
1
 40
1
 40
1
 40
1
 10
43.209722
 20
142.223549
 30
0.0
 10
42.512326
 20
142.920946
 30
0.0
 10
42.120534
 20
143.866817
 30
0.0
 10
42.120534
 20
144.853084
 30
0.0
  0
SPLINE
  5
32a
100
AcDbEntity
  8
0
 62
7
100
AcDbSpline
 70
8
 71
3
 72
8
 73
4
 74
0
 40
0
 40
0
 40
0
 40
0
 40
1
 40
1
 40
1
 40
1
 10
42.120534
 20
144.853084
 30
0.0
 10
42.120535
 20
146.906877
 30
0.0
 10
43.785463
 20
148.571805
 30
0.0
 10
45.839256
 20
148.571805
 30
0.0
  0
LINE
  5
32b
100
AcDbEntity
  8
0
 62
7
100
AcDbLine
 10
45.839256
 20
148.571805
 30
0.0
 11
45.839256
 21
148.571805
 31
0.0
  0
SPLINE
  5
32c
100
AcDbEntity
  8
0
 62
7
100
AcDbSpline
 70
8
 71
3
 72
8
 73
4
 74
0
 40
0
 40
0
 40
0
 40
0
 40
1
 40
1
 40
1
 40
1
 10
35.255922
 20
148.571805
 30
0.0
 10
36.242189
 20
148.571806
 30
0.0
 10
37.188061
 20
148.180013
 30
0.0
 10
37.885457
 20
147.482618
 30
0.0
  0
SPLINE
  5
32d
100
AcDbEntity
  8
0
 62
7
100
AcDbSpline
 70
8
 71
3
 72
8
 73
4
 74
0
 40
0
 40
0
 40
0
 40
0
 40
1
 40
1
 40
1
 40
1
 10
37.885457
 20
147.482618
 30
0.0
 10
38.582853
 20
146.785222
 30
0.0
 10
38.974646
 20
145.839351
 30
0.0
 10
38.974646
 20
144.853084
 30
0.0
  0
SPLINE
  5
32e
100
AcDbEntity
  8
0
 62
7
100
AcDbSpline
 70
8
 71
3
 72
8
 73
4
 74
0
 40
0
 40
0
 40
0
 40
0
 40
1
 40
1
 40
1
 40
1
 10
38.974646
 20
144.853084
 30
0.0
 10
38.974647
 20
143.866817
 30
0.0
 10
38.582854
 20
142.920945
 30
0.0
 10
37.885458
 20
142.223549
 30
0.0
  0
SPLINE
  5
32f
100
AcDbEntity
  8
0
 62
7
100
AcDbSpline
 70
8
 71
3
 72
8
 73
4
 74
0
 40
0
 40
0
 40
0
 40
0
 40
1
 40
1
 40
1
 40
1
 10
37.885458
 20
142.223549
 30
0.0
 10
37.188062
 20
141.526152
 30
0.0
 10
36.242189
 20
141.134360
 30
0.0
 10
35.255922
 20
141.134360
 30
0.0
  0
SPLINE
  5
330
100
AcDbEntity
  8
0
 62
7
100
AcDbSpline
 70
8
 71
3
 72
8
 73
4
 74
0
 40
0
 40
0
 40
0
 40
0
 40
1
 40
1
 40
1
 40
1
 10
35.255922
 20
141.134360
 30
0.0
 10
34.269656
 20
141.134360
 30
0.0
 10
33.323784
 20
141.526153
 30
0.0
 10
32.626389
 20
142.223549
 30
0.0
  0
SPLINE
  5
331
100
AcDbEntity
  8
0
 62
7
100
AcDbSpline
 70
8
 71
3
 72
8
 73
4
 74
0
 40
0
 40
0
 40
0
 40
0
 40
1
 40
1
 40
1
 40
1
 10
32.626389
 20
142.223549
 30
0.0
 10
31.928993
 20
142.920946
 30
0.0
 10
31.537200
 20
143.866817
 30
0.0
 10
31.537201
 20
144.853084
 30
0.0
  0
SPLINE
  5
332
100
AcDbEntity
  8
0
 62
7
100
AcDbSpline
 70
8
 71
3
 72
8
 73
4
 74
0
 40
0
 40
0
 40
0
 40
0
 40
1
 40
1
 40
1
 40
1
 10
31.537201
 20
144.853084
 30
0.0
 10
31.537202
 20
146.906877
 30
0.0
 10
33.202129
 20
148.571805
 30
0.0
 10
35.255922
 20
148.571805
 30
0.0
  0
LINE
  5
333
100
AcDbEntity
  8
0
 62
7
100
AcDbLine
 10
35.255922
 20
148.571805
 30
0.0
 11
35.255922
 21
148.571805
 31
0.0
  0
SPLINE
  5
334
100
AcDbEntity
  8
0
 62
7
100
AcDbSpline
 70
8
 71
3
 72
8
 73
4
 74
0
 40
0
 40
0
 40
0
 40
0
 40
1
 40
1
 40
1
 40
1
 10
24.672592
 20
148.571805
 30
0.0
 10
26.726385
 20
148.571804
 30
0.0
 10
28.391312
 20
146.906877
 30
0.0
 10
28.391313
 20
144.853084
 30
0.0
  0
SPLINE
  5
335
100
AcDbEntity
  8
0
 62
7
100
AcDbSpline
 70
8
 71
3
 72
8
 73
4
 74
0
 40
0
 40
0
 40
0
 40
0
 40
1
 40
1
 40
1
 40
1
 10
28.391313
 20
144.853084
 30
0.0
 10
28.391314
 20
142.799290
 30
0.0
 10
26.726386
 20
141.134361
 30
0.0
 10
24.672592
 20
141.134360
 30
0.0
  0
SPLINE
  5
336
100
AcDbEntity
  8
0
 62
7
100
AcDbSpline
 70
8
 71
3
 72
8
 73
4
 74
0
 40
0
 40
0
 40
0
 40
0
 40
1
 40
1
 40
1
 40
1
 10
24.672592
 20
141.134360
 30
0.0
 10
23.686325
 20
141.134360
 30
0.0
 10
22.740453
 20
141.526152
 30
0.0
 10
22.043057
 20
142.223549
 30
0.0
  0
SPLINE
  5
337
100
AcDbEntity
  8
0
 62
7
100
AcDbSpline
 70
8
 71
3
 72
8
 73
4
 74
0
 40
0
 40
0
 40
0
 40
0
 40
1
 40
1
 40
1
 40
1
 10
22.043057
 20
142.223549
 30
0.0
 10
21.345661
 20
142.920945
 30
0.0
 10
20.953868
 20
143.866817
 30
0.0
 10
20.953868
 20
144.853084
 30
0.0
  0
SPLINE
  5
338
100
AcDbEntity
  8
0
 62
7
100
AcDbSpline
 70
8
 71
3
 72
8
 73
4
 74
0
 40
0
 40
0
 40
0
 40
0
 40
1
 40
1
 40
1
 40
1
 10
20.953868
 20
144.853084
 30
0.0
 10
20.953869
 20
145.839351
 30
0.0
 10
21.345662
 20
146.785222
 30
0.0
 10
22.043058
 20
147.482618
 30
0.0
  0
SPLINE
  5
339
100
AcDbEntity
  8
0
 62
7
100
AcDbSpline
 70
8
 71
3
 72
8
 73
4
 74
0
 40
0
 40
0
 40
0
 40
0
 40
1
 40
1
 40
1
 40
1
 10
22.043058
 20
147.482618
 30
0.0
 10
22.740454
 20
148.180013
 30
0.0
 10
23.686326
 20
148.571806
 30
0.0
 10
24.672592
 20
148.571805
 30
0.0
  0
LINE
  5
33a
100
AcDbEntity
  8
0
 62
7
100
AcDbLine
 10
24.672592
 20
148.571805
 30
0.0
 11
24.672592
 21
148.571805
 31
0.0
  0
SPLINE
  5
33b
100
AcDbEntity
  8
0
 62
7
100
AcDbSpline
 70
8
 71
3
 72
8
 73
4
 74
0
 40
0
 40
0
 40
0
 40
0
 40
1
 40
1
 40
1
 40
1
 10
56.422589
 20
137.988472
 30
0.0
 10
57.408856
 20
137.988472
 30
0.0
 10
58.354728
 20
137.596680
 30
0.0
 10
59.052124
 20
136.899284
 30
0.0
  0
SPLINE
  5
33c
100
AcDbEntity
  8
0
 62
7
100
AcDbSpline
 70
8
 71
3
 72
8
 73
4
 74
0
 40
0
 40
0
 40
0
 40
0
 40
1
 40
1
 40
1
 40
1
 10
59.052124
 20
136.899284
 30
0.0
 10
59.749520
 20
136.201888
 30
0.0
 10
60.141313
 20
135.256017
 30
0.0
 10
60.141313
 20
134.269750
 30
0.0
  0
SPLINE
  5
33d
100
AcDbEntity
  8
0
 62
7
100
AcDbSpline
 70
8
 71
3
 72
8
 73
4
 74
0
 40
0
 40
0
 40
0
 40
0
 40
1
 40
1
 40
1
 40
1
 10
60.141313
 20
134.269750
 30
0.0
 10
60.141313
 20
133.283483
 30
0.0
 10
59.749521
 20
132.337611
 30
0.0
 10
59.052124
 20
131.640214
 30
0.0
  0
SPLINE
  5
33e
100
AcDbEntity
  8
0
 62
7
100
AcDbSpline
 70
8
 71
3
 72
8
 73
4
 74
0
 40
0
 40
0
 40
0
 40
0
 40
1
 40
1
 40
1
 40
1
 10
59.052124
 20
131.640214
 30
0.0
 10
58.354728
 20
130.942818
 30
0.0
 10
57.408856
 20
130.551025
 30
0.0
 10
56.422589
 20
130.551026
 30
0.0
  0
SPLINE
  5
33f
100
AcDbEntity
  8
0
 62
7
100
AcDbSpline
 70
8
 71
3
 72
8
 73
4
 74
0
 40
0
 40
0
 40
0
 40
0
 40
1
 40
1
 40
1
 40
1
 10
56.422589
 20
130.551026
 30
0.0
 10
55.436322
 20
130.551026
 30
0.0
 10
54.490451
 20
130.942819
 30
0.0
 10
53.793055
 20
131.640215
 30
0.0
  0
SPLINE
  5
340
100
AcDbEntity
  8
0
 62
7
100
AcDbSpline
 70
8
 71
3
 72
8
 73
4
 74
0
 40
0
 40
0
 40
0
 40
0
 40
1
 40
1
 40
1
 40
1
 10
53.793055
 20
131.640215
 30
0.0
 10
53.095660
 20
132.337611
 30
0.0
 10
52.703867
 20
133.283483
 30
0.0
 10
52.703868
 20
134.269750
 30
0.0
  0
SPLINE
  5
341
100
AcDbEntity
  8
0
 62
7
100
AcDbSpline
 70
8
 71
3
 72
8
 73
4
 74
0
 40
0
 40
0
 40
0
 40
0
 40
1
 40
1
 40
1
 40
1
 10
52.703868
 20
134.269750
 30
0.0
 10
52.703868
 20
136.323543
 30
0.0
 10
54.368796
 20
137.988471
 30
0.0
 10
56.422589
 20
137.988472
 30
0.0
  0
LINE
  5
342
100
AcDbEntity
  8
0
 62
7
100
AcDbLine
 10
56.422589
 20
137.988472
 30
0.0
 11
56.422589
 21
137.988472
 31
0.0
  0
SPLINE
  5
343
100
AcDbEntity
  8
0
 62
7
100
AcDbSpline
 70
8
 71
3
 72
8
 73
4
 74
0
 40
0
 40
0
 40
0
 40
0
 40
1
 40
1
 40
1
 40
1
 10
45.839256
 20
137.988472
 30
0.0
 10
46.825522
 20
137.988472
 30
0.0
 10
47.771394
 20
137.596680
 30
0.0
 10
48.468790
 20
136.899284
 30
0.0
  0
SPLINE
  5
344
100
AcDbEntity
  8
0
 62
7
100
AcDbSpline
 70
8
 71
3
 72
8
 73
4
 74
0
 40
0
 40
0
 40
0
 40
0
 40
1
 40
1
 40
1
 40
1
 10
48.468790
 20
136.899284
 30
0.0
 10
49.166187
 20
136.201888
 30
0.0
 10
49.557980
 20
135.256017
 30
0.0
 10
49.557980
 20
134.269750
 30
0.0
  0
SPLINE
  5
345
100
AcDbEntity
  8
0
 62
7
100
AcDbSpline
 70
8
 71
3
 72
8
 73
4
 74
0
 40
0
 40
0
 40
0
 40
0
 40
1
 40
1
 40
1
 40
1
 10
49.557980
 20
134.269750
 30
0.0
 10
49.557980
 20
133.283483
 30
0.0
 10
49.166187
 20
132.337611
 30
0.0
 10
48.468791
 20
131.640214
 30
0.0
  0
SPLINE
  5
346
100
AcDbEntity
  8
0
 62
7
100
AcDbSpline
 70
8
 71
3
 72
8
 73
4
 74
0
 40
0
 40
0
 40
0
 40
0
 40
1
 40
1
 40
1
 40
1
 10
48.468791
 20
131.640214
 30
0.0
 10
47.771395
 20
130.942818
 30
0.0
 10
46.825523
 20
130.551025
 30
0.0
 10
45.839256
 20
130.551026
 30
0.0
  0
SPLINE
  5
347
100
AcDbEntity
  8
0
 62
7
100
AcDbSpline
 70
8
 71
3
 72
8
 73
4
 74
0
 40
0
 40
0
 40
0
 40
0
 40
1
 40
1
 40
1
 40
1
 10
45.839256
 20
130.551026
 30
0.0
 10
44.852989
 20
130.551026
 30
0.0
 10
43.907117
 20
130.942819
 30
0.0
 10
43.209722
 20
131.640215
 30
0.0
  0
SPLINE
  5
348
100
AcDbEntity
  8
0
 62
7
100
AcDbSpline
 70
8
 71
3
 72
8
 73
4
 74
0
 40
0
 40
0
 40
0
 40
0
 40
1
 40
1
 40
1
 40
1
 10
43.209722
 20
131.640215
 30
0.0
 10
42.512326
 20
132.337611
 30
0.0
 10
42.120534
 20
133.283483
 30
0.0
 10
42.120534
 20
134.269750
 30
0.0
  0
SPLINE
  5
349
100
AcDbEntity
  8
0
 62
7
100
AcDbSpline
 70
8
 71
3
 72
8
 73
4
 74
0
 40
0
 40
0
 40
0
 40
0
 40
1
 40
1
 40
1
 40
1
 10
42.120534
 20
134.269750
 30
0.0
 10
42.120534
 20
136.323543
 30
0.0
 10
43.785462
 20
137.988471
 30
0.0
 10
45.839256
 20
137.988472
 30
0.0
  0
LINE
  5
34a
100
AcDbEntity
  8
0
 62
7
100
AcDbLine
 10
45.839256
 20
137.988472
 30
0.0
 11
45.839256
 21
137.988472
 31
0.0
  0
SPLINE
  5
34b
100
AcDbEntity
  8
0
 62
7
100
AcDbSpline
 70
8
 71
3
 72
8
 73
4
 74
0
 40
0
 40
0
 40
0
 40
0
 40
1
 40
1
 40
1
 40
1
 10
35.255922
 20
137.988472
 30
0.0
 10
36.242189
 20
137.988472
 30
0.0
 10
37.188061
 20
137.596680
 30
0.0
 10
37.885457
 20
136.899284
 30
0.0
  0
SPLINE
  5
34c
100
AcDbEntity
  8
0
 62
7
100
AcDbSpline
 70
8
 71
3
 72
8
 73
4
 74
0
 40
0
 40
0
 40
0
 40
0
 40
1
 40
1
 40
1
 40
1
 10
37.885457
 20
136.899284
 30
0.0
 10
38.582853
 20
136.201888
 30
0.0
 10
38.974646
 20
135.256017
 30
0.0
 10
38.974646
 20
134.269750
 30
0.0
  0
SPLINE
  5
34d
100
AcDbEntity
  8
0
 62
7
100
AcDbSpline
 70
8
 71
3
 72
8
 73
4
 74
0
 40
0
 40
0
 40
0
 40
0
 40
1
 40
1
 40
1
 40
1
 10
38.974646
 20
134.269750
 30
0.0
 10
38.974647
 20
133.283483
 30
0.0
 10
38.582854
 20
132.337611
 30
0.0
 10
37.885458
 20
131.640214
 30
0.0
  0
SPLINE
  5
34e
100
AcDbEntity
  8
0
 62
7
100
AcDbSpline
 70
8
 71
3
 72
8
 73
4
 74
0
 40
0
 40
0
 40
0
 40
0
 40
1
 40
1
 40
1
 40
1
 10
37.885458
 20
131.640214
 30
0.0
 10
37.188062
 20
130.942818
 30
0.0
 10
36.242189
 20
130.551025
 30
0.0
 10
35.255922
 20
130.551026
 30
0.0
  0
SPLINE
  5
34f
100
AcDbEntity
  8
0
 62
7
100
AcDbSpline
 70
8
 71
3
 72
8
 73
4
 74
0
 40
0
 40
0
 40
0
 40
0
 40
1
 40
1
 40
1
 40
1
 10
35.255922
 20
130.551026
 30
0.0
 10
34.269656
 20
130.551026
 30
0.0
 10
33.323784
 20
130.942819
 30
0.0
 10
32.626389
 20
131.640215
 30
0.0
  0
SPLINE
  5
350
100
AcDbEntity
  8
0
 62
7
100
AcDbSpline
 70
8
 71
3
 72
8
 73
4
 74
0
 40
0
 40
0
 40
0
 40
0
 40
1
 40
1
 40
1
 40
1
 10
32.626389
 20
131.640215
 30
0.0
 10
31.928993
 20
132.337611
 30
0.0
 10
31.537200
 20
133.283483
 30
0.0
 10
31.537201
 20
134.269750
 30
0.0
  0
SPLINE
  5
351
100
AcDbEntity
  8
0
 62
7
100
AcDbSpline
 70
8
 71
3
 72
8
 73
4
 74
0
 40
0
 40
0
 40
0
 40
0
 40
1
 40
1
 40
1
 40
1
 10
31.537201
 20
134.269750
 30
0.0
 10
31.537201
 20
136.323543
 30
0.0
 10
33.202129
 20
137.988471
 30
0.0
 10
35.255922
 20
137.988472
 30
0.0
  0
LINE
  5
352
100
AcDbEntity
  8
0
 62
7
100
AcDbLine
 10
35.255922
 20
137.988472
 30
0.0
 11
35.255922
 21
137.988472
 31
0.0
  0
SPLINE
  5
353
100
AcDbEntity
  8
0
 62
7
100
AcDbSpline
 70
8
 71
3
 72
8
 73
4
 74
0
 40
0
 40
0
 40
0
 40
0
 40
1
 40
1
 40
1
 40
1
 10
24.672592
 20
137.988472
 30
0.0
 10
26.726385
 20
137.988471
 30
0.0
 10
28.391313
 20
136.323543
 30
0.0
 10
28.391313
 20
134.269750
 30
0.0
  0
SPLINE
  5
354
100
AcDbEntity
  8
0
 62
7
100
AcDbSpline
 70
8
 71
3
 72
8
 73
4
 74
0
 40
0
 40
0
 40
0
 40
0
 40
1
 40
1
 40
1
 40
1
 10
28.391313
 20
134.269750
 30
0.0
 10
28.391314
 20
132.215956
 30
0.0
 10
26.726386
 20
130.551027
 30
0.0
 10
24.672592
 20
130.551026
 30
0.0
  0
SPLINE
  5
355
100
AcDbEntity
  8
0
 62
7
100
AcDbSpline
 70
8
 71
3
 72
8
 73
4
 74
0
 40
0
 40
0
 40
0
 40
0
 40
1
 40
1
 40
1
 40
1
 10
24.672592
 20
130.551026
 30
0.0
 10
23.686325
 20
130.551025
 30
0.0
 10
22.740453
 20
130.942818
 30
0.0
 10
22.043057
 20
131.640214
 30
0.0
  0
SPLINE
  5
356
100
AcDbEntity
  8
0
 62
7
100
AcDbSpline
 70
8
 71
3
 72
8
 73
4
 74
0
 40
0
 40
0
 40
0
 40
0
 40
1
 40
1
 40
1
 40
1
 10
22.043057
 20
131.640214
 30
0.0
 10
21.345661
 20
132.337611
 30
0.0
 10
20.953868
 20
133.283483
 30
0.0
 10
20.953868
 20
134.269750
 30
0.0
  0
SPLINE
  5
357
100
AcDbEntity
  8
0
 62
7
100
AcDbSpline
 70
8
 71
3
 72
8
 73
4
 74
0
 40
0
 40
0
 40
0
 40
0
 40
1
 40
1
 40
1
 40
1
 10
20.953868
 20
134.269750
 30
0.0
 10
20.953868
 20
135.256017
 30
0.0
 10
21.345662
 20
136.201888
 30
0.0
 10
22.043058
 20
136.899284
 30
0.0
  0
SPLINE
  5
358
100
AcDbEntity
  8
0
 62
7
100
AcDbSpline
 70
8
 71
3
 72
8
 73
4
 74
0
 40
0
 40
0
 40
0
 40
0
 40
1
 40
1
 40
1
 40
1
 10
22.043058
 20
136.899284
 30
0.0
 10
22.740454
 20
137.596680
 30
0.0
 10
23.686326
 20
137.988472
 30
0.0
 10
24.672592
 20
137.988472
 30
0.0
  0
LINE
  5
359
100
AcDbEntity
  8
0
 62
7
100
AcDbLine
 10
24.672592
 20
137.988472
 30
0.0
 11
24.672592
 21
137.988472
 31
0.0
  0
SPLINE
  5
35a
100
AcDbEntity
  8
0
 62
7
100
AcDbSpline
 70
8
 71
3
 72
8
 73
4
 74
0
 40
0
 40
0
 40
0
 40
0
 40
1
 40
1
 40
1
 40
1
 10
20.953763
 20
118.394829
 30
0.0
 10
20.954154
 20
118.175962
 30
0.0
 10
20.973867
 20
117.957557
 30
0.0
 10
21.012672
 20
117.742158
 30
0.0
  0
LINE
  5
35b
100
AcDbEntity
  8
0
 62
7
100
AcDbLine
 10
21.012672
 20
117.742158
 30
0.0
 11
21.012672
 21
104.145054
 31
0.0
  0
LINE
  5
35c
100
AcDbEntity
  8
0
 62
7
100
AcDbLine
 10
21.012672
 20
104.145054
 30
0.0
 11
28.449942
 21
104.145054
 31
0.0
  0
LINE
  5
35d
100
AcDbEntity
  8
0
 62
7
100
AcDbLine
 10
28.449942
 20
104.145054
 30
0.0
 11
28.449942
 21
118.488881
 31
0.0
  0
SPLINE
  5
35e
100
AcDbEntity
  8
0
 62
7
100
AcDbSpline
 70
8
 71
3
 72
8
 73
4
 74
0
 40
0
 40
0
 40
0
 40
0
 40
1
 40
1
 40
1
 40
1
 10
28.449942
 20
118.488881
 30
0.0
 10
28.449942
 20
118.488881
 30
0.0
 10
28.388448
 20
118.488881
 30
0.0
 10
28.388448
 20
118.488881
 30
0.0
  0
SPLINE
  5
35f
100
AcDbEntity
  8
0
 62
7
100
AcDbSpline
 70
8
 71
3
 72
8
 73
4
 74
0
 40
0
 40
0
 40
0
 40
0
 40
1
 40
1
 40
1
 40
1
 10
28.388448
 20
118.488881
 30
0.0
 10
28.337400
 20
120.504782
 30
0.0
 10
26.688944
 20
122.112664
 30
0.0
 10
24.672397
 20
122.113466
 30
0.0
  0
SPLINE
  5
360
100
AcDbEntity
  8
0
 62
7
100
AcDbSpline
 70
8
 71
3
 72
8
 73
4
 74
0
 40
0
 40
0
 40
0
 40
0
 40
1
 40
1
 40
1
 40
1
 10
24.672397
 20
122.113466
 30
0.0
 10
22.618671
 20
122.113417
 30
0.0
 10
20.953810
 20
120.448555
 30
0.0
 10
20.953763
 20
118.394829
 30
0.0
  0
LINE
  5
361
100
AcDbEntity
  8
0
 62
7
100
AcDbLine
 10
20.953763
 20
118.394829
 30
0.0
 11
20.953763
 21
118.394829
 31
0.0
  0
SPLINE
  5
362
100
AcDbEntity
  8
0
 62
7
100
AcDbSpline
 70
8
 71
3
 72
8
 73
4
 74
0
 40
0
 40
0
 40
0
 40
0
 40
1
 40
1
 40
1
 40
1
 10
31.537092
 20
118.394829
 30
0.0
 10
31.537485
 20
118.175962
 30
0.0
 10
31.557199
 20
117.957557
 30
0.0
 10
31.596005
 20
117.742158
 30
0.0
  0
LINE
  5
363
100
AcDbEntity
  8
0
 62
7
100
AcDbLine
 10
31.596005
 20
117.742158
 30
0.0
 11
31.596005
 21
104.145054
 31
0.0
  0
LINE
  5
364
100
AcDbEntity
  8
0
 62
7
100
AcDbLine
 10
31.596005
 20
104.145054
 30
0.0
 11
39.033275
 21
104.145054
 31
0.0
  0
LINE
  5
365
100
AcDbEntity
  8
0
 62
7
100
AcDbLine
 10
39.033275
 20
104.145054
 30
0.0
 11
39.033275
 21
118.488881
 31
0.0
  0
LINE
  5
366
100
AcDbEntity
  8
0
 62
7
100
AcDbLine
 10
39.033275
 20
118.488881
 30
0.0
 11
38.971781
 21
118.488881
 31
0.0
  0
SPLINE
  5
367
100
AcDbEntity
  8
0
 62
7
100
AcDbSpline
 70
8
 71
3
 72
8
 73
4
 74
0
 40
0
 40
0
 40
0
 40
0
 40
1
 40
1
 40
1
 40
1
 10
38.971781
 20
118.488881
 30
0.0
 10
38.920733
 20
120.504783
 30
0.0
 10
37.272277
 20
122.112664
 30
0.0
 10
35.255729
 20
122.113466
 30
0.0
  0
SPLINE
  5
368
100
AcDbEntity
  8
0
 62
7
100
AcDbSpline
 70
8
 71
3
 72
8
 73
4
 74
0
 40
0
 40
0
 40
0
 40
0
 40
1
 40
1
 40
1
 40
1
 10
35.255729
 20
122.113466
 30
0.0
 10
33.202002
 20
122.113419
 30
0.0
 10
31.537140
 20
120.448556
 30
0.0
 10
31.537092
 20
118.394829
 30
0.0
  0
LINE
  5
369
100
AcDbEntity
  8
0
 62
7
100
AcDbLine
 10
31.537092
 20
118.394829
 30
0.0
 11
31.537092
 21
118.394829
 31
0.0
  0
SPLINE
  5
36a
100
AcDbEntity
  8
0
 62
7
100
AcDbSpline
 70
8
 71
3
 72
8
 73
4
 74
0
 40
0
 40
0
 40
0
 40
0
 40
1
 40
1
 40
1
 40
1
 10
42.120426
 20
118.394829
 30
0.0
 10
42.120818
 20
118.175962
 30
0.0
 10
42.140532
 20
117.957557
 30
0.0
 10
42.179338
 20
117.742158
 30
0.0
  0
LINE
  5
36b
100
AcDbEntity
  8
0
 62
7
100
AcDbLine
 10
42.179338
 20
117.742158
 30
0.0
 11
42.179338
 21
104.145054
 31
0.0
  0
LINE
  5
36c
100
AcDbEntity
  8
0
 62
7
100
AcDbLine
 10
42.179338
 20
104.145054
 30
0.0
 11
49.616609
 21
104.145054
 31
0.0
  0
LINE
  5
36d
100
AcDbEntity
  8
0
 62
7
100
AcDbLine
 10
49.616609
 20
104.145054
 30
0.0
 11
49.616609
 21
118.488881
 31
0.0
  0
LINE
  5
36e
100
AcDbEntity
  8
0
 62
7
100
AcDbLine
 10
49.616609
 20
118.488881
 30
0.0
 11
49.555114
 21
118.488881
 31
0.0
  0
SPLINE
  5
36f
100
AcDbEntity
  8
0
 62
7
100
AcDbSpline
 70
8
 71
3
 72
8
 73
4
 74
0
 40
0
 40
0
 40
0
 40
0
 40
1
 40
1
 40
1
 40
1
 10
49.555114
 20
118.488881
 30
0.0
 10
49.504067
 20
120.504783
 30
0.0
 10
47.855610
 20
122.112664
 30
0.0
 10
45.839062
 20
122.113466
 30
0.0
  0
SPLINE
  5
370
100
AcDbEntity
  8
0
 62
7
100
AcDbSpline
 70
8
 71
3
 72
8
 73
4
 74
0
 40
0
 40
0
 40
0
 40
0
 40
1
 40
1
 40
1
 40
1
 10
45.839062
 20
122.113466
 30
0.0
 10
43.785336
 20
122.113419
 30
0.0
 10
42.120473
 20
120.448556
 30
0.0
 10
42.120426
 20
118.394829
 30
0.0
  0
LINE
  5
371
100
AcDbEntity
  8
0
 62
7
100
AcDbLine
 10
42.120426
 20
118.394829
 30
0.0
 11
42.120426
 21
118.394829
 31
0.0
  0
SPLINE
  5
372
100
AcDbEntity
  8
0
 62
7
100
AcDbSpline
 70
8
 71
3
 72
8
 73
4
 74
0
 40
0
 40
0
 40
0
 40
0
 40
1
 40
1
 40
1
 40
1
 10
52.703759
 20
118.394829
 30
0.0
 10
52.704152
 20
118.175962
 30
0.0
 10
52.723865
 20
117.957557
 30
0.0
 10
52.762671
 20
117.742158
 30
0.0
  0
LINE
  5
373
100
AcDbEntity
  8
0
 62
7
100
AcDbLine
 10
52.762671
 20
117.742158
 30
0.0
 11
52.762671
 21
104.145054
 31
0.0
  0
LINE
  5
374
100
AcDbEntity
  8
0
 62
7
100
AcDbLine
 10
52.762671
 20
104.145054
 30
0.0
 11
60.199942
 21
104.145054
 31
0.0
  0
LINE
  5
375
100
AcDbEntity
  8
0
 62
7
100
AcDbLine
 10
60.199942
 20
104.145054
 30
0.0
 11
60.199942
 21
118.488881
 31
0.0
  0
SPLINE
  5
376
100
AcDbEntity
  8
0
 62
7
100
AcDbSpline
 70
8
 71
3
 72
8
 73
4
 74
0
 40
0
 40
0
 40
0
 40
0
 40
1
 40
1
 40
1
 40
1
 10
60.199942
 20
118.488881
 30
0.0
 10
60.199942
 20
118.488881
 30
0.0
 10
60.138448
 20
118.488881
 30
0.0
 10
60.138448
 20
118.488881
 30
0.0
  0
SPLINE
  5
377
100
AcDbEntity
  8
0
 62
7
100
AcDbSpline
 70
8
 71
3
 72
8
 73
4
 74
0
 40
0
 40
0
 40
0
 40
0
 40
1
 40
1
 40
1
 40
1
 10
60.138448
 20
118.488881
 30
0.0
 10
60.087400
 20
120.504783
 30
0.0
 10
58.438944
 20
122.112664
 30
0.0
 10
56.422396
 20
122.113466
 30
0.0
  0
SPLINE
  5
378
100
AcDbEntity
  8
0
 62
7
100
AcDbSpline
 70
8
 71
3
 72
8
 73
4
 74
0
 40
0
 40
0
 40
0
 40
0
 40
1
 40
1
 40
1
 40
1
 10
56.422396
 20
122.113466
 30
0.0
 10
54.368669
 20
122.113419
 30
0.0
 10
52.703806
 20
120.448556
 30
0.0
 10
52.703759
 20
118.394829
 30
0.0
  0
LINE
  5
379
100
AcDbEntity
  8
0
 62
7
100
AcDbLine
 10
52.703759
 20
118.394829
 30
0.0
 11
52.703759
 21
118.394829
 31
0.0
  0
SPLINE
  5
37a
100
AcDbEntity
  8
0
 62
7
100
AcDbSpline
 70
8
 71
3
 72
8
 73
4
 74
0
 40
0
 40
0
 40
0
 40
0
 40
1
 40
1
 40
1
 40
1
 10
20.953763
 20
81.353163
 30
0.0
 10
20.954154
 20
81.134296
 30
0.0
 10
20.973867
 20
80.915891
 30
0.0
 10
21.012672
 20
80.700491
 30
0.0
  0
LINE
  5
37b
100
AcDbEntity
  8
0
 62
7
100
AcDbLine
 10
21.012672
 20
80.700491
 30
0.0
 11
21.012672
 21
67.103387
 31
0.0
  0
LINE
  5
37c
100
AcDbEntity
  8
0
 62
7
100
AcDbLine
 10
21.012672
 20
67.103387
 30
0.0
 11
28.449942
 21
67.103387
 31
0.0
  0
LINE
  5
37d
100
AcDbEntity
  8
0
 62
7
100
AcDbLine
 10
28.449942
 20
67.103387
 30
0.0
 11
28.449942
 21
81.447214
 31
0.0
  0
SPLINE
  5
37e
100
AcDbEntity
  8
0
 62
7
100
AcDbSpline
 70
8
 71
3
 72
8
 73
4
 74
0
 40
0
 40
0
 40
0
 40
0
 40
1
 40
1
 40
1
 40
1
 10
28.449942
 20
81.447214
 30
0.0
 10
28.449942
 20
81.447214
 30
0.0
 10
28.388448
 20
81.447214
 30
0.0
 10
28.388448
 20
81.447214
 30
0.0
  0
SPLINE
  5
37f
100
AcDbEntity
  8
0
 62
7
100
AcDbSpline
 70
8
 71
3
 72
8
 73
4
 74
0
 40
0
 40
0
 40
0
 40
0
 40
1
 40
1
 40
1
 40
1
 10
28.388448
 20
81.447214
 30
0.0
 10
28.337400
 20
83.463116
 30
0.0
 10
26.688944
 20
85.070997
 30
0.0
 10
24.672397
 20
85.071799
 30
0.0
  0
SPLINE
  5
380
100
AcDbEntity
  8
0
 62
7
100
AcDbSpline
 70
8
 71
3
 72
8
 73
4
 74
0
 40
0
 40
0
 40
0
 40
0
 40
1
 40
1
 40
1
 40
1
 10
24.672397
 20
85.071799
 30
0.0
 10
22.618671
 20
85.071751
 30
0.0
 10
20.953810
 20
83.406888
 30
0.0
 10
20.953763
 20
81.353163
 30
0.0
  0
LINE
  5
381
100
AcDbEntity
  8
0
 62
7
100
AcDbLine
 10
20.953763
 20
81.353163
 30
0.0
 11
20.953763
 21
81.353163
 31
0.0
  0
SPLINE
  5
382
100
AcDbEntity
  8
0
 62
7
100
AcDbSpline
 70
8
 71
3
 72
8
 73
4
 74
0
 40
0
 40
0
 40
0
 40
0
 40
1
 40
1
 40
1
 40
1
 10
31.537092
 20
81.353163
 30
0.0
 10
31.537485
 20
81.134296
 30
0.0
 10
31.557199
 20
80.915891
 30
0.0
 10
31.596005
 20
80.700491
 30
0.0
  0
LINE
  5
383
100
AcDbEntity
  8
0
 62
7
100
AcDbLine
 10
31.596005
 20
80.700491
 30
0.0
 11
31.596005
 21
67.103387
 31
0.0
  0
LINE
  5
384
100
AcDbEntity
  8
0
 62
7
100
AcDbLine
 10
31.596005
 20
67.103387
 30
0.0
 11
39.033275
 21
67.103387
 31
0.0
  0
LINE
  5
385
100
AcDbEntity
  8
0
 62
7
100
AcDbLine
 10
39.033275
 20
67.103387
 30
0.0
 11
39.033275
 21
81.447214
 31
0.0
  0
SPLINE
  5
386
100
AcDbEntity
  8
0
 62
7
100
AcDbSpline
 70
8
 71
3
 72
8
 73
4
 74
0
 40
0
 40
0
 40
0
 40
0
 40
1
 40
1
 40
1
 40
1
 10
39.033275
 20
81.447214
 30
0.0
 10
39.033275
 20
81.447214
 30
0.0
 10
38.971781
 20
81.447214
 30
0.0
 10
38.971781
 20
81.447214
 30
0.0
  0
SPLINE
  5
387
100
AcDbEntity
  8
0
 62
7
100
AcDbSpline
 70
8
 71
3
 72
8
 73
4
 74
0
 40
0
 40
0
 40
0
 40
0
 40
1
 40
1
 40
1
 40
1
 10
38.971781
 20
81.447214
 30
0.0
 10
38.920733
 20
83.463116
 30
0.0
 10
37.272277
 20
85.070997
 30
0.0
 10
35.255729
 20
85.071799
 30
0.0
  0
SPLINE
  5
388
100
AcDbEntity
  8
0
 62
7
100
AcDbSpline
 70
8
 71
3
 72
8
 73
4
 74
0
 40
0
 40
0
 40
0
 40
0
 40
1
 40
1
 40
1
 40
1
 10
35.255729
 20
85.071799
 30
0.0
 10
33.202002
 20
85.071752
 30
0.0
 10
31.537140
 20
83.406889
 30
0.0
 10
31.537092
 20
81.353163
 30
0.0
  0
LINE
  5
389
100
AcDbEntity
  8
0
 62
7
100
AcDbLine
 10
31.537092
 20
81.353163
 30
0.0
 11
31.537092
 21
81.353163
 31
0.0
  0
SPLINE
  5
38a
100
AcDbEntity
  8
0
 62
7
100
AcDbSpline
 70
8
 71
3
 72
8
 73
4
 74
0
 40
0
 40
0
 40
0
 40
0
 40
1
 40
1
 40
1
 40
1
 10
42.120426
 20
81.353163
 30
0.0
 10
42.120818
 20
81.134296
 30
0.0
 10
42.140532
 20
80.915891
 30
0.0
 10
42.179338
 20
80.700491
 30
0.0
  0
LINE
  5
38b
100
AcDbEntity
  8
0
 62
7
100
AcDbLine
 10
42.179338
 20
80.700491
 30
0.0
 11
42.179338
 21
67.103387
 31
0.0
  0
LINE
  5
38c
100
AcDbEntity
  8
0
 62
7
100
AcDbLine
 10
42.179338
 20
67.103387
 30
0.0
 11
49.616609
 21
67.103387
 31
0.0
  0
LINE
  5
38d
100
AcDbEntity
  8
0
 62
7
100
AcDbLine
 10
49.616609
 20
67.103387
 30
0.0
 11
49.616609
 21
81.447214
 31
0.0
  0
SPLINE
  5
38e
100
AcDbEntity
  8
0
 62
7
100
AcDbSpline
 70
8
 71
3
 72
8
 73
4
 74
0
 40
0
 40
0
 40
0
 40
0
 40
1
 40
1
 40
1
 40
1
 10
49.616609
 20
81.447214
 30
0.0
 10
49.616609
 20
81.447214
 30
0.0
 10
49.555114
 20
81.447214
 30
0.0
 10
49.555114
 20
81.447214
 30
0.0
  0
SPLINE
  5
38f
100
AcDbEntity
  8
0
 62
7
100
AcDbSpline
 70
8
 71
3
 72
8
 73
4
 74
0
 40
0
 40
0
 40
0
 40
0
 40
1
 40
1
 40
1
 40
1
 10
49.555114
 20
81.447214
 30
0.0
 10
49.504067
 20
83.463116
 30
0.0
 10
47.855610
 20
85.070997
 30
0.0
 10
45.839062
 20
85.071799
 30
0.0
  0
SPLINE
  5
390
100
AcDbEntity
  8
0
 62
7
100
AcDbSpline
 70
8
 71
3
 72
8
 73
4
 74
0
 40
0
 40
0
 40
0
 40
0
 40
1
 40
1
 40
1
 40
1
 10
45.839062
 20
85.071799
 30
0.0
 10
43.785336
 20
85.071752
 30
0.0
 10
42.120473
 20
83.406889
 30
0.0
 10
42.120426
 20
81.353163
 30
0.0
  0
LINE
  5
391
100
AcDbEntity
  8
0
 62
7
100
AcDbLine
 10
42.120426
 20
81.353163
 30
0.0
 11
42.120426
 21
81.353163
 31
0.0
  0
SPLINE
  5
392
100
AcDbEntity
  8
0
 62
7
100
AcDbSpline
 70
8
 71
3
 72
8
 73
4
 74
0
 40
0
 40
0
 40
0
 40
0
 40
1
 40
1
 40
1
 40
1
 10
52.703759
 20
81.353163
 30
0.0
 10
52.704152
 20
81.134296
 30
0.0
 10
52.723865
 20
80.915891
 30
0.0
 10
52.762671
 20
80.700491
 30
0.0
  0
LINE
  5
393
100
AcDbEntity
  8
0
 62
7
100
AcDbLine
 10
52.762671
 20
80.700491
 30
0.0
 11
52.762671
 21
67.103387
 31
0.0
  0
LINE
  5
394
100
AcDbEntity
  8
0
 62
7
100
AcDbLine
 10
52.762671
 20
67.103387
 30
0.0
 11
60.199942
 21
67.103387
 31
0.0
  0
LINE
  5
395
100
AcDbEntity
  8
0
 62
7
100
AcDbLine
 10
60.199942
 20
67.103387
 30
0.0
 11
60.199942
 21
81.447214
 31
0.0
  0
SPLINE
  5
396
100
AcDbEntity
  8
0
 62
7
100
AcDbSpline
 70
8
 71
3
 72
8
 73
4
 74
0
 40
0
 40
0
 40
0
 40
0
 40
1
 40
1
 40
1
 40
1
 10
60.199942
 20
81.447214
 30
0.0
 10
60.199942
 20
81.447214
 30
0.0
 10
60.138448
 20
81.447214
 30
0.0
 10
60.138448
 20
81.447214
 30
0.0
  0
SPLINE
  5
397
100
AcDbEntity
  8
0
 62
7
100
AcDbSpline
 70
8
 71
3
 72
8
 73
4
 74
0
 40
0
 40
0
 40
0
 40
0
 40
1
 40
1
 40
1
 40
1
 10
60.138448
 20
81.447214
 30
0.0
 10
60.087400
 20
83.463116
 30
0.0
 10
58.438944
 20
85.070997
 30
0.0
 10
56.422396
 20
85.071799
 30
0.0
  0
SPLINE
  5
398
100
AcDbEntity
  8
0
 62
7
100
AcDbSpline
 70
8
 71
3
 72
8
 73
4
 74
0
 40
0
 40
0
 40
0
 40
0
 40
1
 40
1
 40
1
 40
1
 10
56.422396
 20
85.071799
 30
0.0
 10
54.368669
 20
85.071752
 30
0.0
 10
52.703806
 20
83.406889
 30
0.0
 10
52.703759
 20
81.353163
 30
0.0
  0
LINE
  5
399
100
AcDbEntity
  8
0
 62
7
100
AcDbLine
 10
52.703759
 20
81.353163
 30
0.0
 11
52.703759
 21
81.353163
 31
0.0
  0
SPLINE
  5
39a
100
AcDbEntity
  8
0
 62
7
100
AcDbSpline
 70
8
 71
3
 72
8
 73
4
 74
0
 40
0
 40
0
 40
0
 40
0
 40
1
 40
1
 40
1
 40
1
 10
20.953763
 20
39.019829
 30
0.0
 10
20.954154
 20
38.800962
 30
0.0
 10
20.973867
 20
38.582557
 30
0.0
 10
21.012672
 20
38.367158
 30
0.0
  0
LINE
  5
39b
100
AcDbEntity
  8
0
 62
7
100
AcDbLine
 10
21.012672
 20
38.367158
 30
0.0
 11
21.012672
 21
24.770054
 31
0.0
  0
LINE
  5
39c
100
AcDbEntity
  8
0
 62
7
100
AcDbLine
 10
21.012672
 20
24.770054
 30
0.0
 11
28.449942
 21
24.770054
 31
0.0
  0
LINE
  5
39d
100
AcDbEntity
  8
0
 62
7
100
AcDbLine
 10
28.449942
 20
24.770054
 30
0.0
 11
28.449942
 21
39.113881
 31
0.0
  0
SPLINE
  5
39e
100
AcDbEntity
  8
0
 62
7
100
AcDbSpline
 70
8
 71
3
 72
8
 73
4
 74
0
 40
0
 40
0
 40
0
 40
0
 40
1
 40
1
 40
1
 40
1
 10
28.449942
 20
39.113881
 30
0.0
 10
28.449942
 20
39.113881
 30
0.0
 10
28.388448
 20
39.113881
 30
0.0
 10
28.388448
 20
39.113881
 30
0.0
  0
SPLINE
  5
39f
100
AcDbEntity
  8
0
 62
7
100
AcDbSpline
 70
8
 71
3
 72
8
 73
4
 74
0
 40
0
 40
0
 40
0
 40
0
 40
1
 40
1
 40
1
 40
1
 10
28.388448
 20
39.113881
 30
0.0
 10
28.337400
 20
41.129782
 30
0.0
 10
26.688944
 20
42.737664
 30
0.0
 10
24.672397
 20
42.738466
 30
0.0
  0
SPLINE
  5
3a0
100
AcDbEntity
  8
0
 62
7
100
AcDbSpline
 70
8
 71
3
 72
8
 73
4
 74
0
 40
0
 40
0
 40
0
 40
0
 40
1
 40
1
 40
1
 40
1
 10
24.672397
 20
42.738466
 30
0.0
 10
22.618671
 20
42.738417
 30
0.0
 10
20.953810
 20
41.073555
 30
0.0
 10
20.953763
 20
39.019829
 30
0.0
  0
LINE
  5
3a1
100
AcDbEntity
  8
0
 62
7
100
AcDbLine
 10
20.953763
 20
39.019829
 30
0.0
 11
20.953763
 21
39.019829
 31
0.0
  0
SPLINE
  5
3a2
100
AcDbEntity
  8
0
 62
7
100
AcDbSpline
 70
8
 71
3
 72
8
 73
4
 74
0
 40
0
 40
0
 40
0
 40
0
 40
1
 40
1
 40
1
 40
1
 10
31.537092
 20
39.019829
 30
0.0
 10
31.537485
 20
38.800962
 30
0.0
 10
31.557199
 20
38.582557
 30
0.0
 10
31.596005
 20
38.367158
 30
0.0
  0
LINE
  5
3a3
100
AcDbEntity
  8
0
 62
7
100
AcDbLine
 10
31.596005
 20
38.367158
 30
0.0
 11
31.596005
 21
24.770054
 31
0.0
  0
LINE
  5
3a4
100
AcDbEntity
  8
0
 62
7
100
AcDbLine
 10
31.596005
 20
24.770054
 30
0.0
 11
39.033275
 21
24.770054
 31
0.0
  0
LINE
  5
3a5
100
AcDbEntity
  8
0
 62
7
100
AcDbLine
 10
39.033275
 20
24.770054
 30
0.0
 11
39.033275
 21
39.113881
 31
0.0
  0
SPLINE
  5
3a6
100
AcDbEntity
  8
0
 62
7
100
AcDbSpline
 70
8
 71
3
 72
8
 73
4
 74
0
 40
0
 40
0
 40
0
 40
0
 40
1
 40
1
 40
1
 40
1
 10
39.033275
 20
39.113881
 30
0.0
 10
39.033275
 20
39.113881
 30
0.0
 10
38.971781
 20
39.113881
 30
0.0
 10
38.971781
 20
39.113881
 30
0.0
  0
SPLINE
  5
3a7
100
AcDbEntity
  8
0
 62
7
100
AcDbSpline
 70
8
 71
3
 72
8
 73
4
 74
0
 40
0
 40
0
 40
0
 40
0
 40
1
 40
1
 40
1
 40
1
 10
38.971781
 20
39.113881
 30
0.0
 10
38.920733
 20
41.129783
 30
0.0
 10
37.272277
 20
42.737664
 30
0.0
 10
35.255729
 20
42.738466
 30
0.0
  0
SPLINE
  5
3a8
100
AcDbEntity
  8
0
 62
7
100
AcDbSpline
 70
8
 71
3
 72
8
 73
4
 74
0
 40
0
 40
0
 40
0
 40
0
 40
1
 40
1
 40
1
 40
1
 10
35.255729
 20
42.738466
 30
0.0
 10
33.202002
 20
42.738419
 30
0.0
 10
31.537140
 20
41.073556
 30
0.0
 10
31.537092
 20
39.019829
 30
0.0
  0
LINE
  5
3a9
100
AcDbEntity
  8
0
 62
7
100
AcDbLine
 10
31.537092
 20
39.019829
 30
0.0
 11
31.537092
 21
39.019829
 31
0.0
  0
SPLINE
  5
3aa
100
AcDbEntity
  8
0
 62
7
100
AcDbSpline
 70
8
 71
3
 72
8
 73
4
 74
0
 40
0
 40
0
 40
0
 40
0
 40
1
 40
1
 40
1
 40
1
 10
42.120426
 20
39.019829
 30
0.0
 10
42.120818
 20
38.800962
 30
0.0
 10
42.140532
 20
38.582557
 30
0.0
 10
42.179338
 20
38.367158
 30
0.0
  0
LINE
  5
3ab
100
AcDbEntity
  8
0
 62
7
100
AcDbLine
 10
42.179338
 20
38.367158
 30
0.0
 11
42.179338
 21
24.770054
 31
0.0
  0
LINE
  5
3ac
100
AcDbEntity
  8
0
 62
7
100
AcDbLine
 10
42.179338
 20
24.770054
 30
0.0
 11
49.616609
 21
24.770054
 31
0.0
  0
LINE
  5
3ad
100
AcDbEntity
  8
0
 62
7
100
AcDbLine
 10
49.616609
 20
24.770054
 30
0.0
 11
49.616609
 21
39.113881
 31
0.0
  0
SPLINE
  5
3ae
100
AcDbEntity
  8
0
 62
7
100
AcDbSpline
 70
8
 71
3
 72
8
 73
4
 74
0
 40
0
 40
0
 40
0
 40
0
 40
1
 40
1
 40
1
 40
1
 10
49.616609
 20
39.113881
 30
0.0
 10
49.616609
 20
39.113881
 30
0.0
 10
49.555114
 20
39.113881
 30
0.0
 10
49.555114
 20
39.113881
 30
0.0
  0
SPLINE
  5
3af
100
AcDbEntity
  8
0
 62
7
100
AcDbSpline
 70
8
 71
3
 72
8
 73
4
 74
0
 40
0
 40
0
 40
0
 40
0
 40
1
 40
1
 40
1
 40
1
 10
49.555114
 20
39.113881
 30
0.0
 10
49.504067
 20
41.129783
 30
0.0
 10
47.855610
 20
42.737664
 30
0.0
 10
45.839062
 20
42.738466
 30
0.0
  0
SPLINE
  5
3b0
100
AcDbEntity
  8
0
 62
7
100
AcDbSpline
 70
8
 71
3
 72
8
 73
4
 74
0
 40
0
 40
0
 40
0
 40
0
 40
1
 40
1
 40
1
 40
1
 10
45.839062
 20
42.738466
 30
0.0
 10
43.785336
 20
42.738419
 30
0.0
 10
42.120473
 20
41.073556
 30
0.0
 10
42.120426
 20
39.019829
 30
0.0
  0
LINE
  5
3b1
100
AcDbEntity
  8
0
 62
7
100
AcDbLine
 10
42.120426
 20
39.019829
 30
0.0
 11
42.120426
 21
39.019829
 31
0.0
  0
SPLINE
  5
3b2
100
AcDbEntity
  8
0
 62
7
100
AcDbSpline
 70
8
 71
3
 72
8
 73
4
 74
0
 40
0
 40
0
 40
0
 40
0
 40
1
 40
1
 40
1
 40
1
 10
52.703759
 20
39.019829
 30
0.0
 10
52.704152
 20
38.800962
 30
0.0
 10
52.723865
 20
38.582557
 30
0.0
 10
52.762671
 20
38.367158
 30
0.0
  0
LINE
  5
3b3
100
AcDbEntity
  8
0
 62
7
100
AcDbLine
 10
52.762671
 20
38.367158
 30
0.0
 11
52.762671
 21
24.770054
 31
0.0
  0
LINE
  5
3b4
100
AcDbEntity
  8
0
 62
7
100
AcDbLine
 10
52.762671
 20
24.770054
 30
0.0
 11
60.199942
 21
24.770054
 31
0.0
  0
LINE
  5
3b5
100
AcDbEntity
  8
0
 62
7
100
AcDbLine
 10
60.199942
 20
24.770054
 30
0.0
 11
60.199942
 21
39.113881
 31
0.0
  0
SPLINE
  5
3b6
100
AcDbEntity
  8
0
 62
7
100
AcDbSpline
 70
8
 71
3
 72
8
 73
4
 74
0
 40
0
 40
0
 40
0
 40
0
 40
1
 40
1
 40
1
 40
1
 10
60.199942
 20
39.113881
 30
0.0
 10
60.199942
 20
39.113881
 30
0.0
 10
60.138448
 20
39.113881
 30
0.0
 10
60.138448
 20
39.113881
 30
0.0
  0
SPLINE
  5
3b7
100
AcDbEntity
  8
0
 62
7
100
AcDbSpline
 70
8
 71
3
 72
8
 73
4
 74
0
 40
0
 40
0
 40
0
 40
0
 40
1
 40
1
 40
1
 40
1
 10
60.138448
 20
39.113881
 30
0.0
 10
60.087400
 20
41.129783
 30
0.0
 10
58.438944
 20
42.737664
 30
0.0
 10
56.422396
 20
42.738466
 30
0.0
  0
SPLINE
  5
3b8
100
AcDbEntity
  8
0
 62
7
100
AcDbSpline
 70
8
 71
3
 72
8
 73
4
 74
0
 40
0
 40
0
 40
0
 40
0
 40
1
 40
1
 40
1
 40
1
 10
56.422396
 20
42.738466
 30
0.0
 10
54.368669
 20
42.738419
 30
0.0
 10
52.703806
 20
41.073556
 30
0.0
 10
52.703759
 20
39.019829
 30
0.0
  0
LINE
  5
3b9
100
AcDbEntity
  8
0
 62
7
100
AcDbLine
 10
52.703759
 20
39.019829
 30
0.0
 11
52.703759
 21
39.019829
 31
0.0
  0
LINE
  5
3ba
100
AcDbEntity
  8
0
 62
7
100
AcDbLine
 10
9.707622
 20
4.777666
 30
0.0
 11
9.707622
 21
12.749895
 31
0.0
  0
LINE
  5
3bb
100
AcDbEntity
  8
0
 62
7
100
AcDbLine
 10
9.707622
 20
12.749895
 30
0.0
 11
13.713964
 21
12.749895
 31
0.0
  0
LINE
  5
3bc
100
AcDbEntity
  8
0
 62
7
100
AcDbLine
 10
13.713964
 20
12.749895
 30
0.0
 11
13.713964
 21
4.777666
 31
0.0
  0
LINE
  5
3bd
100
AcDbEntity
  8
0
 62
7
100
AcDbLine
 10
13.713964
 20
4.777666
 30
0.0
 11
9.707622
 21
4.777666
 31
0.0
  0
LINE
  5
3be
100
AcDbEntity
  8
0
 62
7
100
AcDbLine
 10
9.707622
 20
20.652666
 30
0.0
 11
9.707622
 21
28.624895
 31
0.0
  0
LINE
  5
3bf
100
AcDbEntity
  8
0
 62
7
100
AcDbLine
 10
9.707622
 20
28.624895
 30
0.0
 11
13.713964
 21
28.624895
 31
0.0
  0
LINE
  5
3c0
100
AcDbEntity
  8
0
 62
7
100
AcDbLine
 10
13.713964
 20
28.624895
 30
0.0
 11
13.713964
 21
20.652666
 31
0.0
  0
LINE
  5
3c1
100
AcDbEntity
  8
0
 62
7
100
AcDbLine
 10
13.713964
 20
20.652666
 30
0.0
 11
9.707622
 21
20.652666
 31
0.0
  0
LINE
  5
3c2
100
AcDbEntity
  8
0
 62
7
100
AcDbLine
 10
9.707622
 20
36.527666
 30
0.0
 11
9.707622
 21
44.499895
 31
0.0
  0
LINE
  5
3c3
100
AcDbEntity
  8
0
 62
7
100
AcDbLine
 10
9.707622
 20
44.499895
 30
0.0
 11
13.713964
 21
44.499895
 31
0.0
  0
LINE
  5
3c4
100
AcDbEntity
  8
0
 62
7
100
AcDbLine
 10
13.713964
 20
44.499895
 30
0.0
 11
13.713964
 21
36.527666
 31
0.0
  0
LINE
  5
3c5
100
AcDbEntity
  8
0
 62
7
100
AcDbLine
 10
13.713964
 20
36.527666
 30
0.0
 11
9.707622
 21
36.527666
 31
0.0
  0
LINE
  5
3c6
100
AcDbEntity
  8
0
 62
7
100
AcDbLine
 10
2.828457
 20
4.777666
 30
0.0
 11
2.828457
 21
12.749895
 31
0.0
  0
LINE
  5
3c7
100
AcDbEntity
  8
0
 62
7
100
AcDbLine
 10
2.828457
 20
12.749895
 30
0.0
 11
6.834799
 21
12.749895
 31
0.0
  0
LINE
  5
3c8
100
AcDbEntity
  8
0
 62
7
100
AcDbLine
 10
6.834799
 20
12.749895
 30
0.0
 11
6.834799
 21
4.777666
 31
0.0
  0
LINE
  5
3c9
100
AcDbEntity
  8
0
 62
7
100
AcDbLine
 10
6.834799
 20
4.777666
 30
0.0
 11
2.828457
 21
4.777666
 31
0.0
  0
LINE
  5
3ca
100
AcDbEntity
  8
0
 62
7
100
AcDbLine
 10
2.828457
 20
20.652666
 30
0.0
 11
2.828457
 21
28.624895
 31
0.0
  0
LINE
  5
3cb
100
AcDbEntity
  8
0
 62
7
100
AcDbLine
 10
2.828457
 20
28.624895
 30
0.0
 11
6.834799
 21
28.624895
 31
0.0
  0
LINE
  5
3cc
100
AcDbEntity
  8
0
 62
7
100
AcDbLine
 10
6.834799
 20
28.624895
 30
0.0
 11
6.834799
 21
20.652666
 31
0.0
  0
LINE
  5
3cd
100
AcDbEntity
  8
0
 62
7
100
AcDbLine
 10
6.834799
 20
20.652666
 30
0.0
 11
2.828457
 21
20.652666
 31
0.0
  0
LINE
  5
3ce
100
AcDbEntity
  8
0
 62
7
100
AcDbLine
 10
2.828457
 20
36.527666
 30
0.0
 11
2.828457
 21
44.499895
 31
0.0
  0
LINE
  5
3cf
100
AcDbEntity
  8
0
 62
7
100
AcDbLine
 10
2.828457
 20
44.499895
 30
0.0
 11
6.834799
 21
44.499895
 31
0.0
  0
LINE
  5
3d0
100
AcDbEntity
  8
0
 62
7
100
AcDbLine
 10
6.834799
 20
44.499895
 30
0.0
 11
6.834799
 21
36.527666
 31
0.0
  0
LINE
  5
3d1
100
AcDbEntity
  8
0
 62
7
100
AcDbLine
 10
6.834799
 20
36.527666
 30
0.0
 11
2.828457
 21
36.527666
 31
0.0
  0
LINE
  5
3d2
100
AcDbEntity
  8
0
 62
7
100
AcDbLine
 10
9.707622
 20
52.402666
 30
0.0
 11
9.707622
 21
60.374895
 31
0.0
  0
LINE
  5
3d3
100
AcDbEntity
  8
0
 62
7
100
AcDbLine
 10
9.707622
 20
60.374895
 30
0.0
 11
13.713964
 21
60.374895
 31
0.0
  0
LINE
  5
3d4
100
AcDbEntity
  8
0
 62
7
100
AcDbLine
 10
13.713964
 20
60.374895
 30
0.0
 11
13.713964
 21
52.402666
 31
0.0
  0
LINE
  5
3d5
100
AcDbEntity
  8
0
 62
7
100
AcDbLine
 10
13.713964
 20
52.402666
 30
0.0
 11
9.707622
 21
52.402666
 31
0.0
  0
LINE
  5
3d6
100
AcDbEntity
  8
0
 62
7
100
AcDbLine
 10
9.707622
 20
68.277669
 30
0.0
 11
9.707622
 21
76.249898
 31
0.0
  0
LINE
  5
3d7
100
AcDbEntity
  8
0
 62
7
100
AcDbLine
 10
9.707622
 20
76.249898
 30
0.0
 11
13.713964
 21
76.249898
 31
0.0
  0
LINE
  5
3d8
100
AcDbEntity
  8
0
 62
7
100
AcDbLine
 10
13.713964
 20
76.249898
 30
0.0
 11
13.713964
 21
68.277669
 31
0.0
  0
LINE
  5
3d9
100
AcDbEntity
  8
0
 62
7
100
AcDbLine
 10
13.713964
 20
68.277669
 30
0.0
 11
9.707622
 21
68.277669
 31
0.0
  0
LINE
  5
3da
100
AcDbEntity
  8
0
 62
7
100
AcDbLine
 10
9.707622
 20
84.152669
 30
0.0
 11
9.707622
 21
92.124898
 31
0.0
  0
LINE
  5
3db
100
AcDbEntity
  8
0
 62
7
100
AcDbLine
 10
9.707622
 20
92.124898
 30
0.0
 11
13.713964
 21
92.124898
 31
0.0
  0
LINE
  5
3dc
100
AcDbEntity
  8
0
 62
7
100
AcDbLine
 10
13.713964
 20
92.124898
 30
0.0
 11
13.713964
 21
84.152669
 31
0.0
  0
LINE
  5
3dd
100
AcDbEntity
  8
0
 62
7
100
AcDbLine
 10
13.713964
 20
84.152669
 30
0.0
 11
9.707622
 21
84.152669
 31
0.0
  0
LINE
  5
3de
100
AcDbEntity
  8
0
 62
7
100
AcDbLine
 10
2.828457
 20
52.402666
 30
0.0
 11
2.828457
 21
60.374895
 31
0.0
  0
LINE
  5
3df
100
AcDbEntity
  8
0
 62
7
100
AcDbLine
 10
2.828457
 20
60.374895
 30
0.0
 11
6.834799
 21
60.374895
 31
0.0
  0
LINE
  5
3e0
100
AcDbEntity
  8
0
 62
7
100
AcDbLine
 10
6.834799
 20
60.374895
 30
0.0
 11
6.834799
 21
52.402666
 31
0.0
  0
LINE
  5
3e1
100
AcDbEntity
  8
0
 62
7
100
AcDbLine
 10
6.834799
 20
52.402666
 30
0.0
 11
2.828457
 21
52.402666
 31
0.0
  0
LINE
  5
3e2
100
AcDbEntity
  8
0
 62
7
100
AcDbLine
 10
2.828457
 20
68.277669
 30
0.0
 11
2.828457
 21
76.249898
 31
0.0
  0
LINE
  5
3e3
100
AcDbEntity
  8
0
 62
7
100
AcDbLine
 10
2.828457
 20
76.249898
 30
0.0
 11
6.834799
 21
76.249898
 31
0.0
  0
LINE
  5
3e4
100
AcDbEntity
  8
0
 62
7
100
AcDbLine
 10
6.834799
 20
76.249898
 30
0.0
 11
6.834799
 21
68.277669
 31
0.0
  0
LINE
  5
3e5
100
AcDbEntity
  8
0
 62
7
100
AcDbLine
 10
6.834799
 20
68.277669
 30
0.0
 11
2.828457
 21
68.277669
 31
0.0
  0
LINE
  5
3e6
100
AcDbEntity
  8
0
 62
7
100
AcDbLine
 10
2.828457
 20
84.152669
 30
0.0
 11
2.828457
 21
92.124898
 31
0.0
  0
LINE
  5
3e7
100
AcDbEntity
  8
0
 62
7
100
AcDbLine
 10
2.828457
 20
92.124898
 30
0.0
 11
6.834799
 21
92.124898
 31
0.0
  0
LINE
  5
3e8
100
AcDbEntity
  8
0
 62
7
100
AcDbLine
 10
6.834799
 20
92.124898
 30
0.0
 11
6.834799
 21
84.152669
 31
0.0
  0
LINE
  5
3e9
100
AcDbEntity
  8
0
 62
7
100
AcDbLine
 10
6.834799
 20
84.152669
 30
0.0
 11
2.828457
 21
84.152669
 31
0.0
  0
ENDSEC
  0
SECTION
  2
OBJECTS
  0
DICTIONARY
  5
C
330
0
100
AcDbDictionary
  3
ACAD_GROUP
350
D
  3
ACAD_MLINESTYLE
350
17
  0
DICTIONARY
  5
D
330
C
100
AcDbDictionary
  0
DICTIONARY
  5
1A
330
C
100
AcDbDictionary
  0
DICTIONARY
  5
17
330
C
100
AcDbDictionary
  3
STANDARD
350
18
  0
DICTIONARY
  5
19
330
C
100
AcDbDictionary
  0
ENDSEC
  0
EOF
