  0
SECTION
  2
HEADER
  9
$ACADVER
  1
AC1014
  9
$HANDSEED
  5
FFFF
  9
$MEASUREMENT
 70
     1
  0
ENDSEC
  0
SECTION
  2
TABLES
  0
TABLE
  2
VPORT
  5
8
330
0
100
AcDbSymbolTable
 70
     4
  0
VPORT
  5
2E
330
8
100
AcDbSymbolTableRecord
100
AcDbViewportTableRecord
  2
*ACTIVE
 70
     0
 10
0.0
 20
0.0
 11
1.0
 21
1.0
 12
210.0
 22
148.5
 13
0.0
 23
0.0
 14
10.0
 24
10.0
 15
10.0
 25
10.0
 16
0.0
 26
0.0
 36
1.0
 17
0.0
 27
0.0
 37
0.0
 40
341.0
 41
1.24
 42
50.0
 43
0.0
 44
0.0
 50
0.0
 51
0.0
 71
     0
 72
   100
 73
     1
 74
     3
 75
     0
 76
     0
 77
     0
 78
     0
  0
ENDTAB
  0
TABLE
  2
LTYPE
  5
5
330
0
100
AcDbSymbolTable
 70
     1
  0
LTYPE
  5
14
330
5
100
AcDbSymbolTableRecord
100
AcDbLinetypeTableRecord
  2
BYBLOCK
 70
     0
  3

 72
    65
 73
     0
 40
0.0
  0
LTYPE
  5
15
330
5
100
AcDbSymbolTableRecord
100
AcDbLinetypeTableRecord
  2
BYLAYER
 70
     0
  3

 72
    65
 73
     0
 40
0.0
  0
LTYPE
  5
16
330
5
100
AcDbSymbolTableRecord
100
AcDbLinetypeTableRecord
  2
CONTINUOUS
 70
     0
  3
Solid line
 72
    65
 73
     0
 40
0.0
  0
ENDTAB
  0
TABLE
  2
LAYER
  5
2
100
AcDbSymbolTable
 70
3
  0
LAYER
  5
50
100
AcDbSymbolTableRecord
100
AcDbLayerTableRecord
  2
0
 70
0
  6
CONTINUOUS
  0
LAYER
  5
51
100
AcDbSymbolTableRecord
100
AcDbLayerTableRecord
  2
Layer_1
 70
0
  6
CONTINUOUS
  0
LAYER
  5
52
100
AcDbSymbolTableRecord
100
AcDbLayerTableRecord
  2
Construction
 70
0
  6
CONTINUOUS
  0
ENDTAB
  0
TABLE
  2
STYLE
  5
3
330
0
100
AcDbSymbolTable
 70
     1
  0
STYLE
  5
11
330
3
100
AcDbSymbolTableRecord
100
AcDbTextStyleTableRecord
  2
STANDARD
 70
     0
 40
0.0
 41
1.0
 50
0.0
 71
     0
 42
2.5
  3
txt
  4

  0
ENDTAB
  0
TABLE
  2
VIEW
  5
6
330
0
100
AcDbSymbolTable
 70
     0
  0
ENDTAB
  0
TABLE
  2
UCS
  5
7
330
0
100
AcDbSymbolTable
 70
     0
  0
ENDTAB
  0
TABLE
  2
APPID
  5
9
330
0
100
AcDbSymbolTable
 70
     2
  0
APPID
  5
12
330
9
100
AcDbSymbolTableRecord
100
AcDbRegAppTableRecord
  2
ACAD
 70
     0
  0
ENDTAB
  0
TABLE
  2
DIMSTYLE
  5
A
330
0
100
AcDbSymbolTable
 70
     1
  0
DIMSTYLE
105
27
330
A
100
AcDbSymbolTableRecord
100
AcDbDimStyleTableRecord
  2
ISO-25
 70
     0
  3

  4

  5

  6

  7

 40
1.0
 41
2.5
 42
0.625
 43
3.75
 44
1.25
 45
0.0
 46
0.0
 47
0.0
 48
0.0
140
2.5
141
2.5
142
0.0
143
0.03937007874016
144
1.0
145
0.0
146
1.0
147
0.625
 71
     0
 72
     0
 73
     0
 74
     0
 75
     0
 76
     0
 77
     1
 78
     8
170
     0
171
     3
172
     1
173
     0
174
     0
175
     0
176
     0
177
     0
178
     0
270
     2
271
     2
272
     2
273
     2
274
     3
340
11
275
     0
280
     0
281
     0
282
     0
283
     0
284
     8
285
     0
286
     0
287
     3
288
     0
  0
ENDTAB
  0
TABLE
  2
BLOCK_RECORD
  5
1
330
0
100
AcDbSymbolTable
 70
     1
  0
BLOCK_RECORD
  5
1F
330
1
100
AcDbSymbolTableRecord
100
AcDbBlockTableRecord
  2
*MODEL_SPACE
  0
BLOCK_RECORD
  5
1B
330
1
100
AcDbSymbolTableRecord
100
AcDbBlockTableRecord
  2
*PAPER_SPACE
  0
ENDTAB
  0
ENDSEC
  0
SECTION
  2
BLOCKS
  0
BLOCK
  5
20
330
1F
100
AcDbEntity
  8
0
100
AcDbBlockBegin
  2
*MODEL_SPACE
 70
     0
 10
0.0
 20
0.0
 30
0.0
  3
*MODEL_SPACE
  1

  0
ENDBLK
  5
21
330
1F
100
AcDbEntity
  8
0
100
AcDbBlockEnd
  0
BLOCK
  5
1C
330
1B
100
AcDbEntity
 67
     1
  8
0
100
AcDbBlockBegin
  2
*PAPER_SPACE
  1

  0
ENDBLK
  5
1D
330
1B
100
AcDbEntity
 67
     1
  8
0
100
AcDbBlockEnd
  0
ENDSEC
  0
SECTION
  2
ENTITIES
  0
SPLINE
  5
100
100
AcDbEntity
  8
Layer_1
 62
7
100
AcDbSpline
 70
8
 71
3
 72
8
 73
4
 74
0
 40
0
 40
0
 40
0
 40
0
 40
1
 40
1
 40
1
 40
1
 10
239.809752
 20
119.999993
 30
0.0
 10
239.809752
 20
88.224477
 30
0.0
 10
227.186976
 20
57.750403
 30
0.0
 10
204.718292
 20
35.281720
 30
0.0
  0
SPLINE
  5
101
100
AcDbEntity
  8
Layer_1
 62
7
100
AcDbSpline
 70
8
 71
3
 72
8
 73
4
 74
0
 40
0
 40
0
 40
0
 40
0
 40
1
 40
1
 40
1
 40
1
 10
204.718292
 20
35.281720
 30
0.0
 10
182.249607
 20
12.813038
 30
0.0
 10
151.775531
 20
0.190263
 30
0.0
 10
120.000012
 20
0.190263
 30
0.0
  0
SPLINE
  5
102
100
AcDbEntity
  8
Layer_1
 62
7
100
AcDbSpline
 70
8
 71
3
 72
8
 73
4
 74
0
 40
0
 40
0
 40
0
 40
0
 40
1
 40
1
 40
1
 40
1
 10
120.000012
 20
0.190263
 30
0.0
 10
88.224493
 20
0.190263
 30
0.0
 10
57.750417
 20
12.813038
 30
0.0
 10
35.281732
 20
35.281720
 30
0.0
  0
SPLINE
  5
103
100
AcDbEntity
  8
Layer_1
 62
7
100
AcDbSpline
 70
8
 71
3
 72
8
 73
4
 74
0
 40
0
 40
0
 40
0
 40
0
 40
1
 40
1
 40
1
 40
1
 10
35.281732
 20
35.281720
 30
0.0
 10
12.813048
 20
57.750403
 30
0.0
 10
0.190272
 20
88.224477
 30
0.0
 10
0.190272
 20
119.999993
 30
0.0
  0
SPLINE
  5
104
100
AcDbEntity
  8
Layer_1
 62
7
100
AcDbSpline
 70
8
 71
3
 72
8
 73
4
 74
0
 40
0
 40
0
 40
0
 40
0
 40
1
 40
1
 40
1
 40
1
 10
0.190272
 20
119.999993
 30
0.0
 10
0.190271
 20
151.775510
 30
0.0
 10
12.813046
 20
182.249585
 30
0.0
 10
35.281731
 20
204.718269
 30
0.0
  0
SPLINE
  5
105
100
AcDbEntity
  8
Layer_1
 62
7
100
AcDbSpline
 70
8
 71
3
 72
8
 73
4
 74
0
 40
0
 40
0
 40
0
 40
0
 40
1
 40
1
 40
1
 40
1
 10
35.281731
 20
204.718269
 30
0.0
 10
57.750415
 20
227.186953
 30
0.0
 10
88.224492
 20
239.809728
 30
0.0
 10
120.000012
 20
239.809728
 30
0.0
  0
SPLINE
  5
106
100
AcDbEntity
  8
Layer_1
 62
7
100
AcDbSpline
 70
8
 71
3
 72
8
 73
4
 74
0
 40
0
 40
0
 40
0
 40
0
 40
1
 40
1
 40
1
 40
1
 10
120.000012
 20
239.809728
 30
0.0
 10
151.775532
 20
239.809728
 30
0.0
 10
182.249609
 20
227.186953
 30
0.0
 10
204.718293
 20
204.718269
 30
0.0
  0
SPLINE
  5
107
100
AcDbEntity
  8
Layer_1
 62
7
100
AcDbSpline
 70
8
 71
3
 72
8
 73
4
 74
0
 40
0
 40
0
 40
0
 40
0
 40
1
 40
1
 40
1
 40
1
 10
204.718293
 20
204.718269
 30
0.0
 10
227.186978
 20
182.249585
 30
0.0
 10
239.809753
 20
151.775510
 30
0.0
 10
239.809752
 20
119.999993
 30
0.0
  0
LINE
  5
108
100
AcDbEntity
  8
Layer_1
 62
7
100
AcDbLine
 10
239.809752
 20
119.999993
 30
0.0
 11
239.809752
 21
119.999993
 31
0.0
  0
SPLINE
  5
109
100
AcDbEntity
  8
Layer_1
 62
7
100
AcDbSpline
 70
8
 71
3
 72
8
 73
4
 74
0
 40
0
 40
0
 40
0
 40
0
 40
1
 40
1
 40
1
 40
1
 10
159.936582
 20
119.999993
 30
0.0
 10
159.936580
 20
97.943637
 30
0.0
 10
142.056371
 20
80.063427
 30
0.0
 10
120.000012
 20
80.063423
 30
0.0
  0
SPLINE
  5
10a
100
AcDbEntity
  8
Layer_1
 62
7
100
AcDbSpline
 70
8
 71
3
 72
8
 73
4
 74
0
 40
0
 40
0
 40
0
 40
0
 40
1
 40
1
 40
1
 40
1
 10
120.000012
 20
80.063423
 30
0.0
 10
97.943650
 20
80.063422
 30
0.0
 10
80.063435
 20
97.943633
 30
0.0
 10
80.063433
 20
119.999993
 30
0.0
  0
SPLINE
  5
10b
100
AcDbEntity
  8
Layer_1
 62
7
100
AcDbSpline
 70
8
 71
3
 72
8
 73
4
 74
0
 40
0
 40
0
 40
0
 40
0
 40
1
 40
1
 40
1
 40
1
 10
80.063433
 20
119.999993
 30
0.0
 10
80.063431
 20
130.591832
 30
0.0
 10
84.271022
 20
140.749858
 30
0.0
 10
91.760584
 20
148.239420
 30
0.0
  0
SPLINE
  5
10c
100
AcDbEntity
  8
Layer_1
 62
7
100
AcDbSpline
 70
8
 71
3
 72
8
 73
4
 74
0
 40
0
 40
0
 40
0
 40
0
 40
1
 40
1
 40
1
 40
1
 10
91.760584
 20
148.239420
 30
0.0
 10
99.250145
 20
155.728982
 30
0.0
 10
109.408172
 20
159.936574
 30
0.0
 10
120.000012
 20
159.936573
 30
0.0
  0
SPLINE
  5
10d
100
AcDbEntity
  8
Layer_1
 62
7
100
AcDbSpline
 70
8
 71
3
 72
8
 73
4
 74
0
 40
0
 40
0
 40
0
 40
0
 40
1
 40
1
 40
1
 40
1
 10
120.000012
 20
159.936573
 30
0.0
 10
142.056374
 20
159.936569
 30
0.0
 10
159.936586
 20
142.056353
 30
0.0
 10
159.936582
 20
119.999993
 30
0.0
  0
LINE
  5
10e
100
AcDbEntity
  8
Layer_1
 62
7
100
AcDbLine
 10
159.936582
 20
119.999993
 30
0.0
 11
159.936582
 21
119.999993
 31
0.0
  0
SPLINE
  5
10f
100
AcDbEntity
  8
Layer_1
 62
7
100
AcDbSpline
 70
8
 71
3
 72
8
 73
4
 74
0
 40
0
 40
0
 40
0
 40
0
 40
1
 40
1
 40
1
 40
1
 10
229.952432
 20
119.999993
 30
0.0
 10
229.952427
 20
103.457724
 30
0.0
 10
216.542263
 20
90.047569
 30
0.0
 10
199.999992
 20
90.047573
 30
0.0
  0
SPLINE
  5
110
100
AcDbEntity
  8
Layer_1
 62
7
100
AcDbSpline
 70
8
 71
3
 72
8
 73
4
 74
0
 40
0
 40
0
 40
0
 40
0
 40
1
 40
1
 40
1
 40
1
 10
199.999992
 20
90.047573
 30
0.0
 10
183.457725
 20
90.047575
 30
0.0
 10
170.047567
 20
103.457728
 30
0.0
 10
170.047562
 20
119.999993
 30
0.0
  0
SPLINE
  5
111
100
AcDbEntity
  8
Layer_1
 62
7
100
AcDbSpline
 70
8
 71
3
 72
8
 73
4
 74
0
 40
0
 40
0
 40
0
 40
0
 40
1
 40
1
 40
1
 40
1
 10
170.047562
 20
119.999993
 30
0.0
 10
170.047561
 20
136.542262
 30
0.0
 10
183.457721
 20
149.952421
 30
0.0
 10
199.999992
 20
149.952423
 30
0.0
  0
SPLINE
  5
112
100
AcDbEntity
  8
Layer_1
 62
7
100
AcDbSpline
 70
8
 71
3
 72
8
 73
4
 74
0
 40
0
 40
0
 40
0
 40
0
 40
1
 40
1
 40
1
 40
1
 10
199.999992
 20
149.952423
 30
0.0
 10
207.943873
 20
149.952425
 30
0.0
 10
215.562393
 20
146.796732
 30
0.0
 10
221.179565
 20
141.179562
 30
0.0
  0
SPLINE
  5
113
100
AcDbEntity
  8
Layer_1
 62
7
100
AcDbSpline
 70
8
 71
3
 72
8
 73
4
 74
0
 40
0
 40
0
 40
0
 40
0
 40
1
 40
1
 40
1
 40
1
 10
221.179565
 20
141.179562
 30
0.0
 10
226.796738
 20
135.562391
 30
0.0
 10
229.952432
 20
127.943872
 30
0.0
 10
229.952432
 20
119.999993
 30
0.0
  0
LINE
  5
114
100
AcDbEntity
  8
Layer_1
 62
7
100
AcDbLine
 10
229.952432
 20
119.999993
 30
0.0
 11
229.952432
 21
119.999993
 31
0.0
  0
SPLINE
  5
115
100
AcDbEntity
  8
Layer_1
 62
7
100
AcDbSpline
 70
8
 71
3
 72
8
 73
4
 74
0
 40
0
 40
0
 40
0
 40
0
 40
1
 40
1
 40
1
 40
1
 10
190.160312
 20
189.048765
 30
0.0
 10
190.160314
 20
172.506495
 30
0.0
 10
176.750154
 20
159.096335
 30
0.0
 10
160.207882
 20
159.096333
 30
0.0
  0
SPLINE
  5
116
100
AcDbEntity
  8
Layer_1
 62
7
100
AcDbSpline
 70
8
 71
3
 72
8
 73
4
 74
0
 40
0
 40
0
 40
0
 40
0
 40
1
 40
1
 40
1
 40
1
 10
160.207882
 20
159.096333
 30
0.0
 10
143.665610
 20
159.096335
 30
0.0
 10
130.255450
 20
172.506495
 30
0.0
 10
130.255452
 20
189.048765
 30
0.0
  0
SPLINE
  5
117
100
AcDbEntity
  8
Layer_1
 62
7
100
AcDbSpline
 70
8
 71
3
 72
8
 73
4
 74
0
 40
0
 40
0
 40
0
 40
0
 40
1
 40
1
 40
1
 40
1
 10
130.255452
 20
189.048765
 30
0.0
 10
130.255452
 20
205.591034
 30
0.0
 10
143.665611
 20
219.001192
 30
0.0
 10
160.207882
 20
219.001194
 30
0.0
  0
SPLINE
  5
118
100
AcDbEntity
  8
Layer_1
 62
7
100
AcDbSpline
 70
8
 71
3
 72
8
 73
4
 74
0
 40
0
 40
0
 40
0
 40
0
 40
1
 40
1
 40
1
 40
1
 10
160.207882
 20
219.001194
 30
0.0
 10
176.750153
 20
219.001192
 30
0.0
 10
190.160312
 20
205.591034
 30
0.0
 10
190.160312
 20
189.048765
 30
0.0
  0
LINE
  5
119
100
AcDbEntity
  8
Layer_1
 62
7
100
AcDbLine
 10
190.160312
 20
189.048765
 30
0.0
 11
190.160312
 21
189.048765
 31
0.0
  0
SPLINE
  5
11a
100
AcDbEntity
  8
Layer_1
 62
7
100
AcDbSpline
 70
8
 71
3
 72
8
 73
4
 74
0
 40
0
 40
0
 40
0
 40
0
 40
1
 40
1
 40
1
 40
1
 10
110.125721
 20
189.048773
 30
0.0
 10
110.125721
 20
181.104895
 30
0.0
 10
106.970028
 20
173.486377
 30
0.0
 10
101.352857
 20
167.869207
 30
0.0
  0
SPLINE
  5
11b
100
AcDbEntity
  8
Layer_1
 62
7
100
AcDbSpline
 70
8
 71
3
 72
8
 73
4
 74
0
 40
0
 40
0
 40
0
 40
0
 40
1
 40
1
 40
1
 40
1
 10
101.352857
 20
167.869207
 30
0.0
 10
95.735686
 20
162.252036
 30
0.0
 10
88.117167
 20
159.096343
 30
0.0
 10
80.173288
 20
159.096343
 30
0.0
  0
SPLINE
  5
11c
100
AcDbEntity
  8
Layer_1
 62
7
100
AcDbSpline
 70
8
 71
3
 72
8
 73
4
 74
0
 40
0
 40
0
 40
0
 40
0
 40
1
 40
1
 40
1
 40
1
 10
80.173288
 20
159.096343
 30
0.0
 10
63.631016
 20
159.096344
 30
0.0
 10
50.220856
 20
172.506503
 30
0.0
 10
50.220856
 20
189.048773
 30
0.0
  0
SPLINE
  5
11d
100
AcDbEntity
  8
Layer_1
 62
7
100
AcDbSpline
 70
8
 71
3
 72
8
 73
4
 74
0
 40
0
 40
0
 40
0
 40
0
 40
1
 40
1
 40
1
 40
1
 10
50.220856
 20
189.048773
 30
0.0
 10
50.220856
 20
205.591042
 30
0.0
 10
63.631017
 20
219.001200
 30
0.0
 10
80.173288
 20
219.001201
 30
0.0
  0
SPLINE
  5
11e
100
AcDbEntity
  8
Layer_1
 62
7
100
AcDbSpline
 70
8
 71
3
 72
8
 73
4
 74
0
 40
0
 40
0
 40
0
 40
0
 40
1
 40
1
 40
1
 40
1
 10
80.173288
 20
219.001201
 30
0.0
 10
96.715560
 20
219.001201
 30
0.0
 10
110.125721
 20
205.591042
 30
0.0
 10
110.125721
 20
189.048773
 30
0.0
  0
LINE
  5
11f
100
AcDbEntity
  8
Layer_1
 62
7
100
AcDbLine
 10
110.125721
 20
189.048773
 30
0.0
 11
110.125721
 21
189.048773
 31
0.0
  0
SPLINE
  5
120
100
AcDbEntity
  8
Layer_1
 62
7
100
AcDbSpline
 70
8
 71
3
 72
8
 73
4
 74
0
 40
0
 40
0
 40
0
 40
0
 40
1
 40
1
 40
1
 40
1
 10
70.108404
 20
119.736773
 30
0.0
 10
70.108405
 20
103.194503
 30
0.0
 10
56.698244
 20
89.784344
 30
0.0
 10
40.155972
 20
89.784343
 30
0.0
  0
SPLINE
  5
121
100
AcDbEntity
  8
Layer_1
 62
7
100
AcDbSpline
 70
8
 71
3
 72
8
 73
4
 74
0
 40
0
 40
0
 40
0
 40
0
 40
1
 40
1
 40
1
 40
1
 10
40.155972
 20
89.784343
 30
0.0
 10
32.212093
 20
89.784343
 30
0.0
 10
24.593574
 20
92.940036
 30
0.0
 10
18.976403
 20
98.557207
 30
0.0
  0
SPLINE
  5
122
100
AcDbEntity
  8
Layer_1
 62
7
100
AcDbSpline
 70
8
 71
3
 72
8
 73
4
 74
0
 40
0
 40
0
 40
0
 40
0
 40
1
 40
1
 40
1
 40
1
 10
18.976403
 20
98.557207
 30
0.0
 10
13.359232
 20
104.174377
 30
0.0
 10
10.203539
 20
111.792895
 30
0.0
 10
10.203539
 20
119.736773
 30
0.0
  0
SPLINE
  5
123
100
AcDbEntity
  8
Layer_1
 62
7
100
AcDbSpline
 70
8
 71
3
 72
8
 73
4
 74
0
 40
0
 40
0
 40
0
 40
0
 40
1
 40
1
 40
1
 40
1
 10
10.203539
 20
119.736773
 30
0.0
 10
10.203544
 20
136.279039
 30
0.0
 10
23.613704
 20
149.689193
 30
0.0
 10
40.155972
 20
149.689193
 30
0.0
  0
SPLINE
  5
124
100
AcDbEntity
  8
Layer_1
 62
7
100
AcDbSpline
 70
8
 71
3
 72
8
 73
4
 74
0
 40
0
 40
0
 40
0
 40
0
 40
1
 40
1
 40
1
 40
1
 10
40.155972
 20
149.689193
 30
0.0
 10
56.698240
 20
149.689192
 30
0.0
 10
70.108399
 20
136.279039
 30
0.0
 10
70.108404
 20
119.736773
 30
0.0
  0
LINE
  5
125
100
AcDbEntity
  8
Layer_1
 62
7
100
AcDbLine
 10
70.108404
 20
119.736773
 30
0.0
 11
70.108404
 21
119.736773
 31
0.0
  0
SPLINE
  5
126
100
AcDbEntity
  8
Layer_1
 62
7
100
AcDbSpline
 70
8
 71
3
 72
8
 73
4
 74
0
 40
0
 40
0
 40
0
 40
0
 40
1
 40
1
 40
1
 40
1
 10
110.125706
 20
50.424753
 30
0.0
 10
110.125706
 20
42.480875
 30
0.0
 10
106.970013
 20
34.862357
 30
0.0
 10
101.352842
 20
29.245187
 30
0.0
  0
SPLINE
  5
127
100
AcDbEntity
  8
Layer_1
 62
7
100
AcDbSpline
 70
8
 71
3
 72
8
 73
4
 74
0
 40
0
 40
0
 40
0
 40
0
 40
1
 40
1
 40
1
 40
1
 10
101.352842
 20
29.245187
 30
0.0
 10
95.735671
 20
23.628016
 30
0.0
 10
88.117152
 20
20.472323
 30
0.0
 10
80.173273
 20
20.472323
 30
0.0
  0
SPLINE
  5
128
100
AcDbEntity
  8
Layer_1
 62
7
100
AcDbSpline
 70
8
 71
3
 72
8
 73
4
 74
0
 40
0
 40
0
 40
0
 40
0
 40
1
 40
1
 40
1
 40
1
 10
80.173273
 20
20.472323
 30
0.0
 10
63.631001
 20
20.472324
 30
0.0
 10
50.220840
 20
33.882483
 30
0.0
 10
50.220841
 20
50.424753
 30
0.0
  0
SPLINE
  5
129
100
AcDbEntity
  8
Layer_1
 62
7
100
AcDbSpline
 70
8
 71
3
 72
8
 73
4
 74
0
 40
0
 40
0
 40
0
 40
0
 40
1
 40
1
 40
1
 40
1
 10
50.220841
 20
50.424753
 30
0.0
 10
50.220841
 20
66.967023
 30
0.0
 10
63.631001
 20
80.377182
 30
0.0
 10
80.173273
 20
80.377183
 30
0.0
  0
SPLINE
  5
12a
100
AcDbEntity
  8
Layer_1
 62
7
100
AcDbSpline
 70
8
 71
3
 72
8
 73
4
 74
0
 40
0
 40
0
 40
0
 40
0
 40
1
 40
1
 40
1
 40
1
 10
80.173273
 20
80.377183
 30
0.0
 10
88.117152
 20
80.377183
 30
0.0
 10
95.735671
 20
77.221490
 30
0.0
 10
101.352842
 20
71.604319
 30
0.0
  0
SPLINE
  5
12b
100
AcDbEntity
  8
Layer_1
 62
7
100
AcDbSpline
 70
8
 71
3
 72
8
 73
4
 74
0
 40
0
 40
0
 40
0
 40
0
 40
1
 40
1
 40
1
 40
1
 10
101.352842
 20
71.604319
 30
0.0
 10
106.970013
 20
65.987149
 30
0.0
 10
110.125706
 20
58.368631
 30
0.0
 10
110.125706
 20
50.424753
 30
0.0
  0
LINE
  5
12c
100
AcDbEntity
  8
Layer_1
 62
7
100
AcDbLine
 10
110.125706
 20
50.424753
 30
0.0
 11
110.125706
 21
50.424753
 31
0.0
  0
SPLINE
  5
12d
100
AcDbEntity
  8
Layer_1
 62
7
100
AcDbSpline
 70
8
 71
3
 72
8
 73
4
 74
0
 40
0
 40
0
 40
0
 40
0
 40
1
 40
1
 40
1
 40
1
 10
190.160302
 20
50.424773
 30
0.0
 10
190.160302
 20
42.480894
 30
0.0
 10
187.004608
 20
34.862375
 30
0.0
 10
181.387435
 20
29.245204
 30
0.0
  0
SPLINE
  5
12e
100
AcDbEntity
  8
Layer_1
 62
7
100
AcDbSpline
 70
8
 71
3
 72
8
 73
4
 74
0
 40
0
 40
0
 40
0
 40
0
 40
1
 40
1
 40
1
 40
1
 10
181.387435
 20
29.245204
 30
0.0
 10
175.770263
 20
23.628034
 30
0.0
 10
168.151743
 20
20.472341
 30
0.0
 10
160.207862
 20
20.472343
 30
0.0
  0
SPLINE
  5
12f
100
AcDbEntity
  8
Layer_1
 62
7
100
AcDbSpline
 70
8
 71
3
 72
8
 73
4
 74
0
 40
0
 40
0
 40
0
 40
0
 40
1
 40
1
 40
1
 40
1
 10
160.207862
 20
20.472343
 30
0.0
 10
143.665591
 20
20.472345
 30
0.0
 10
130.255432
 20
33.882504
 30
0.0
 10
130.255432
 20
50.424773
 30
0.0
  0
SPLINE
  5
130
100
AcDbEntity
  8
Layer_1
 62
7
100
AcDbSpline
 70
8
 71
3
 72
8
 73
4
 74
0
 40
0
 40
0
 40
0
 40
0
 40
1
 40
1
 40
1
 40
1
 10
130.255432
 20
50.424773
 30
0.0
 10
130.255431
 20
66.967042
 30
0.0
 10
143.665591
 20
80.377201
 30
0.0
 10
160.207862
 20
80.377203
 30
0.0
  0
SPLINE
  5
131
100
AcDbEntity
  8
Layer_1
 62
7
100
AcDbSpline
 70
8
 71
3
 72
8
 73
4
 74
0
 40
0
 40
0
 40
0
 40
0
 40
1
 40
1
 40
1
 40
1
 10
160.207862
 20
80.377203
 30
0.0
 10
168.151743
 20
80.377205
 30
0.0
 10
175.770263
 20
77.221512
 30
0.0
 10
181.387435
 20
71.604342
 30
0.0
  0
SPLINE
  5
132
100
AcDbEntity
  8
Layer_1
 62
7
100
AcDbSpline
 70
8
 71
3
 72
8
 73
4
 74
0
 40
0
 40
0
 40
0
 40
0
 40
1
 40
1
 40
1
 40
1
 10
181.387435
 20
71.604342
 30
0.0
 10
187.004608
 20
65.987171
 30
0.0
 10
190.160302
 20
58.368652
 30
0.0
 10
190.160302
 20
50.424773
 30
0.0
  0
LINE
  5
133
100
AcDbEntity
  8
Layer_1
 62
7
100
AcDbLine
 10
190.160302
 20
50.424773
 30
0.0
 11
190.160302
 21
50.424773
 31
0.0
  0
SPLINE
  5
134
100
AcDbEntity
  8
Layer_1
 62
7
100
AcDbSpline
 70
8
 71
3
 72
8
 73
4
 74
0
 40
0
 40
0
 40
0
 40
0
 40
1
 40
1
 40
1
 40
1
 10
120.977412
 20
119.999993
 30
0.0
 10
120.977411
 20
119.460190
 30
0.0
 10
120.539815
 20
119.022594
 30
0.0
 10
120.000012
 20
119.022593
 30
0.0
  0
SPLINE
  5
135
100
AcDbEntity
  8
Layer_1
 62
7
100
AcDbSpline
 70
8
 71
3
 72
8
 73
4
 74
0
 40
0
 40
0
 40
0
 40
0
 40
1
 40
1
 40
1
 40
1
 10
120.000012
 20
119.022593
 30
0.0
 10
119.460209
 20
119.022594
 30
0.0
 10
119.022613
 20
119.460190
 30
0.0
 10
119.022612
 20
119.999993
 30
0.0
  0
SPLINE
  5
136
100
AcDbEntity
  8
Layer_1
 62
7
100
AcDbSpline
 70
8
 71
3
 72
8
 73
4
 74
0
 40
0
 40
0
 40
0
 40
0
 40
1
 40
1
 40
1
 40
1
 10
119.022612
 20
119.999993
 30
0.0
 10
119.022610
 20
120.259217
 30
0.0
 10
119.125585
 20
120.507825
 30
0.0
 10
119.308883
 20
120.691125
 30
0.0
  0
SPLINE
  5
137
100
AcDbEntity
  8
Layer_1
 62
7
100
AcDbSpline
 70
8
 71
3
 72
8
 73
4
 74
0
 40
0
 40
0
 40
0
 40
0
 40
1
 40
1
 40
1
 40
1
 10
119.308883
 20
120.691125
 30
0.0
 10
119.492181
 20
120.874425
 30
0.0
 10
119.740788
 20
120.977402
 30
0.0
 10
120.000012
 20
120.977403
 30
0.0
  0
SPLINE
  5
138
100
AcDbEntity
  8
Layer_1
 62
7
100
AcDbSpline
 70
8
 71
3
 72
8
 73
4
 74
0
 40
0
 40
0
 40
0
 40
0
 40
1
 40
1
 40
1
 40
1
 10
120.000012
 20
120.977403
 30
0.0
 10
120.259236
 20
120.977402
 30
0.0
 10
120.507843
 20
120.874425
 30
0.0
 10
120.691141
 20
120.691125
 30
0.0
  0
SPLINE
  5
139
100
AcDbEntity
  8
Layer_1
 62
7
100
AcDbSpline
 70
8
 71
3
 72
8
 73
4
 74
0
 40
0
 40
0
 40
0
 40
0
 40
1
 40
1
 40
1
 40
1
 10
120.691141
 20
120.691125
 30
0.0
 10
120.874439
 20
120.507825
 30
0.0
 10
120.977414
 20
120.259217
 30
0.0
 10
120.977412
 20
119.999993
 30
0.0
  0
LINE
  5
13a
100
AcDbEntity
  8
Layer_1
 62
7
100
AcDbLine
 10
120.977412
 20
119.999993
 30
0.0
 11
120.977412
 21
119.999993
 31
0.0
  0
ENDSEC
  0
SECTION
  2
OBJECTS
  0
DICTIONARY
  5
C
330
0
100
AcDbDictionary
  3
ACAD_GROUP
350
D
  3
ACAD_MLINESTYLE
350
17
  0
DICTIONARY
  5
D
330
C
100
AcDbDictionary
  0
DICTIONARY
  5
1A
330
C
100
AcDbDictionary
  0
DICTIONARY
  5
17
330
C
100
AcDbDictionary
  3
STANDARD
350
18
  0
DICTIONARY
  5
19
330
C
100
AcDbDictionary
  0
ENDSEC
  0
EOF
