  0
SECTION
  2
HEADER
  9
$ACADVER
  1
AC1014
  9
$HANDSEED
  5
FFFF
  9
$MEASUREMENT
 70
     1
  0
ENDSEC
  0
SECTION
  2
TABLES
  0
TABLE
  2
VPORT
  5
8
330
0
100
AcDbSymbolTable
 70
     4
  0
VPORT
  5
2E
330
8
100
AcDbSymbolTableRecord
100
AcDbViewportTableRecord
  2
*ACTIVE
 70
     0
 10
0.0
 20
0.0
 11
1.0
 21
1.0
 12
210.0
 22
148.5
 13
0.0
 23
0.0
 14
10.0
 24
10.0
 15
10.0
 25
10.0
 16
0.0
 26
0.0
 36
1.0
 17
0.0
 27
0.0
 37
0.0
 40
341.0
 41
1.24
 42
50.0
 43
0.0
 44
0.0
 50
0.0
 51
0.0
 71
     0
 72
   100
 73
     1
 74
     3
 75
     0
 76
     0
 77
     0
 78
     0
  0
ENDTAB
  0
TABLE
  2
LTYPE
  5
5
330
0
100
AcDbSymbolTable
 70
     1
  0
LTYPE
  5
14
330
5
100
AcDbSymbolTableRecord
100
AcDbLinetypeTableRecord
  2
BYBLOCK
 70
     0
  3

 72
    65
 73
     0
 40
0.0
  0
LTYPE
  5
15
330
5
100
AcDbSymbolTableRecord
100
AcDbLinetypeTableRecord
  2
BYLAYER
 70
     0
  3

 72
    65
 73
     0
 40
0.0
  0
LTYPE
  5
16
330
5
100
AcDbSymbolTableRecord
100
AcDbLinetypeTableRecord
  2
CONTINUOUS
 70
     0
  3
Solid line
 72
    65
 73
     0
 40
0.0
  0
ENDTAB
  0
TABLE
  2
LAYER
  5
2
100
AcDbSymbolTable
 70
1
  0
LAYER
  5
50
100
AcDbSymbolTableRecord
100
AcDbLayerTableRecord
  2
0
 70
0
  6
CONTINUOUS
  0
ENDTAB
  0
TABLE
  2
STYLE
  5
3
330
0
100
AcDbSymbolTable
 70
     1
  0
STYLE
  5
11
330
3
100
AcDbSymbolTableRecord
100
AcDbTextStyleTableRecord
  2
STANDARD
 70
     0
 40
0.0
 41
1.0
 50
0.0
 71
     0
 42
2.5
  3
txt
  4

  0
ENDTAB
  0
TABLE
  2
VIEW
  5
6
330
0
100
AcDbSymbolTable
 70
     0
  0
ENDTAB
  0
TABLE
  2
UCS
  5
7
330
0
100
AcDbSymbolTable
 70
     0
  0
ENDTAB
  0
TABLE
  2
APPID
  5
9
330
0
100
AcDbSymbolTable
 70
     2
  0
APPID
  5
12
330
9
100
AcDbSymbolTableRecord
100
AcDbRegAppTableRecord
  2
ACAD
 70
     0
  0
ENDTAB
  0
TABLE
  2
DIMSTYLE
  5
A
330
0
100
AcDbSymbolTable
 70
     1
  0
DIMSTYLE
105
27
330
A
100
AcDbSymbolTableRecord
100
AcDbDimStyleTableRecord
  2
ISO-25
 70
     0
  3

  4

  5

  6

  7

 40
1.0
 41
2.5
 42
0.625
 43
3.75
 44
1.25
 45
0.0
 46
0.0
 47
0.0
 48
0.0
140
2.5
141
2.5
142
0.0
143
0.03937007874016
144
1.0
145
0.0
146
1.0
147
0.625
 71
     0
 72
     0
 73
     0
 74
     0
 75
     0
 76
     0
 77
     1
 78
     8
170
     0
171
     3
172
     1
173
     0
174
     0
175
     0
176
     0
177
     0
178
     0
270
     2
271
     2
272
     2
273
     2
274
     3
340
11
275
     0
280
     0
281
     0
282
     0
283
     0
284
     8
285
     0
286
     0
287
     3
288
     0
  0
ENDTAB
  0
TABLE
  2
BLOCK_RECORD
  5
1
330
0
100
AcDbSymbolTable
 70
     1
  0
BLOCK_RECORD
  5
1F
330
1
100
AcDbSymbolTableRecord
100
AcDbBlockTableRecord
  2
*MODEL_SPACE
  0
BLOCK_RECORD
  5
1B
330
1
100
AcDbSymbolTableRecord
100
AcDbBlockTableRecord
  2
*PAPER_SPACE
  0
ENDTAB
  0
ENDSEC
  0
SECTION
  2
BLOCKS
  0
BLOCK
  5
20
330
1F
100
AcDbEntity
  8
0
100
AcDbBlockBegin
  2
*MODEL_SPACE
 70
     0
 10
0.0
 20
0.0
 30
0.0
  3
*MODEL_SPACE
  1

  0
ENDBLK
  5
21
330
1F
100
AcDbEntity
  8
0
100
AcDbBlockEnd
  0
BLOCK
  5
1C
330
1B
100
AcDbEntity
 67
     1
  8
0
100
AcDbBlockBegin
  2
*PAPER_SPACE
  1

  0
ENDBLK
  5
1D
330
1B
100
AcDbEntity
 67
     1
  8
0
100
AcDbBlockEnd
  0
ENDSEC
  0
SECTION
  2
ENTITIES
  0
SPLINE
  5
100
100
AcDbEntity
  8
0
 62
7
100
AcDbSpline
 70
8
 71
3
 72
8
 73
4
 74
0
 40
0
 40
0
 40
0
 40
0
 40
1
 40
1
 40
1
 40
1
 10
14.999748
 20
19.900064
 30
0.0
 10
16.299309
 20
19.900064
 30
0.0
 10
17.545643
 20
19.383815
 30
0.0
 10
18.464571
 20
18.464886
 30
0.0
  0
SPLINE
  5
101
100
AcDbEntity
  8
0
 62
7
100
AcDbSpline
 70
8
 71
3
 72
8
 73
4
 74
0
 40
0
 40
0
 40
0
 40
0
 40
1
 40
1
 40
1
 40
1
 10
18.464571
 20
18.464886
 30
0.0
 10
19.383499
 20
17.545958
 30
0.0
 10
19.899747
 20
16.299623
 30
0.0
 10
19.899746
 20
15.000063
 30
0.0
  0
SPLINE
  5
102
100
AcDbEntity
  8
0
 62
7
100
AcDbSpline
 70
8
 71
3
 72
8
 73
4
 74
0
 40
0
 40
0
 40
0
 40
0
 40
1
 40
1
 40
1
 40
1
 10
19.899746
 20
15.000063
 30
0.0
 10
19.899746
 20
12.293868
 30
0.0
 10
17.705942
 20
10.100065
 30
0.0
 10
14.999748
 20
10.100064
 30
0.0
  0
SPLINE
  5
103
100
AcDbEntity
  8
0
 62
7
100
AcDbSpline
 70
8
 71
3
 72
8
 73
4
 74
0
 40
0
 40
0
 40
0
 40
0
 40
1
 40
1
 40
1
 40
1
 10
14.999748
 20
10.100064
 30
0.0
 10
13.700187
 20
10.100064
 30
0.0
 10
12.453853
 20
10.616312
 30
0.0
 10
11.534924
 20
11.535240
 30
0.0
  0
SPLINE
  5
104
100
AcDbEntity
  8
0
 62
7
100
AcDbSpline
 70
8
 71
3
 72
8
 73
4
 74
0
 40
0
 40
0
 40
0
 40
0
 40
1
 40
1
 40
1
 40
1
 10
11.534924
 20
11.535240
 30
0.0
 10
10.615996
 20
12.454168
 30
0.0
 10
10.099747
 20
13.700502
 30
0.0
 10
10.099746
 20
15.000063
 30
0.0
  0
SPLINE
  5
105
100
AcDbEntity
  8
0
 62
7
100
AcDbSpline
 70
8
 71
3
 72
8
 73
4
 74
0
 40
0
 40
0
 40
0
 40
0
 40
1
 40
1
 40
1
 40
1
 10
10.099746
 20
15.000063
 30
0.0
 10
10.099746
 20
16.299624
 30
0.0
 10
10.615995
 20
17.545959
 30
0.0
 10
11.534923
 20
18.464887
 30
0.0
  0
SPLINE
  5
106
100
AcDbEntity
  8
0
 62
7
100
AcDbSpline
 70
8
 71
3
 72
8
 73
4
 74
0
 40
0
 40
0
 40
0
 40
0
 40
1
 40
1
 40
1
 40
1
 10
11.534923
 20
18.464887
 30
0.0
 10
12.453852
 20
19.383816
 30
0.0
 10
13.700186
 20
19.900064
 30
0.0
 10
14.999748
 20
19.900064
 30
0.0
  0
LINE
  5
107
100
AcDbEntity
  8
0
 62
7
100
AcDbLine
 10
14.999748
 20
19.900064
 30
0.0
 11
14.999748
 21
19.900064
 31
0.0
  0
LINE
  5
108
100
AcDbEntity
  8
0
 62
7
100
AcDbLine
 10
0.100000
 20
39.900151
 30
0.0
 11
0.100000
 21
15.100112
 31
0.0
  0
SPLINE
  5
109
100
AcDbEntity
  8
0
 62
7
100
AcDbSpline
 70
8
 71
3
 72
8
 73
4
 74
0
 40
0
 40
0
 40
0
 40
0
 40
1
 40
1
 40
1
 40
1
 10
0.100000
 20
15.100112
 30
0.0
 10
0.100000
 20
15.100112
 30
0.0
 10
0.105168
 20
15.100112
 30
0.0
 10
0.105168
 20
15.100112
 30
0.0
  0
SPLINE
  5
10a
100
AcDbEntity
  8
0
 62
7
100
AcDbSpline
 70
8
 71
3
 72
8
 73
4
 74
0
 40
0
 40
0
 40
0
 40
0
 40
1
 40
1
 40
1
 40
1
 10
0.105168
 20
15.100112
 30
0.0
 10
0.103333
 20
15.066701
 30
0.0
 10
0.101610
 20
15.033284
 30
0.0
 10
0.100000
 20
14.999862
 30
0.0
  0
SPLINE
  5
10b
100
AcDbEntity
  8
0
 62
7
100
AcDbSpline
 70
8
 71
3
 72
8
 73
4
 74
0
 40
0
 40
0
 40
0
 40
0
 40
1
 40
1
 40
1
 40
1
 10
0.100000
 20
14.999862
 30
0.0
 10
0.100074
 20
6.770924
 30
0.0
 10
6.770928
 20
0.100070
 30
0.0
 10
14.999866
 20
0.099997
 30
0.0
  0
SPLINE
  5
10c
100
AcDbEntity
  8
0
 62
7
100
AcDbSpline
 70
8
 71
3
 72
8
 73
4
 74
0
 40
0
 40
0
 40
0
 40
0
 40
1
 40
1
 40
1
 40
1
 10
14.999866
 20
0.099997
 30
0.0
 10
23.228804
 20
0.100070
 30
0.0
 10
29.899658
 20
6.770924
 30
0.0
 10
29.899732
 20
14.999862
 30
0.0
  0
SPLINE
  5
10d
100
AcDbEntity
  8
0
 62
7
100
AcDbSpline
 70
8
 71
3
 72
8
 73
4
 74
0
 40
0
 40
0
 40
0
 40
0
 40
1
 40
1
 40
1
 40
1
 10
29.899732
 20
14.999862
 30
0.0
 10
29.898636
 20
15.033282
 30
0.0
 10
29.897428
 20
15.066699
 30
0.0
 10
29.896107
 20
15.100112
 30
0.0
  0
LINE
  5
10e
100
AcDbEntity
  8
0
 62
7
100
AcDbLine
 10
29.896107
 20
15.100112
 30
0.0
 11
29.899732
 21
15.100112
 31
0.0
  0
LINE
  5
10f
100
AcDbEntity
  8
0
 62
7
100
AcDbLine
 10
29.899732
 20
15.100112
 30
0.0
 11
29.899732
 21
39.900151
 31
0.0
  0
LINE
  5
110
100
AcDbEntity
  8
0
 62
7
100
AcDbLine
 10
29.899732
 20
39.900151
 30
0.0
 11
0.100000
 21
39.900151
 31
0.0
  0
SPLINE
  5
111
100
AcDbEntity
  8
0
 62
7
100
AcDbSpline
 70
8
 71
3
 72
8
 73
4
 74
0
 40
0
 40
0
 40
0
 40
0
 40
1
 40
1
 40
1
 40
1
 10
57.333081
 20
19.900064
 30
0.0
 10
58.632642
 20
19.900064
 30
0.0
 10
59.878976
 20
19.383815
 30
0.0
 10
60.797904
 20
18.464886
 30
0.0
  0
SPLINE
  5
112
100
AcDbEntity
  8
0
 62
7
100
AcDbSpline
 70
8
 71
3
 72
8
 73
4
 74
0
 40
0
 40
0
 40
0
 40
0
 40
1
 40
1
 40
1
 40
1
 10
60.797904
 20
18.464886
 30
0.0
 10
61.716832
 20
17.545958
 30
0.0
 10
62.233080
 20
16.299623
 30
0.0
 10
62.233080
 20
15.000063
 30
0.0
  0
SPLINE
  5
113
100
AcDbEntity
  8
0
 62
7
100
AcDbSpline
 70
8
 71
3
 72
8
 73
4
 74
0
 40
0
 40
0
 40
0
 40
0
 40
1
 40
1
 40
1
 40
1
 10
62.233080
 20
15.000063
 30
0.0
 10
62.233079
 20
12.293868
 30
0.0
 10
60.039275
 20
10.100065
 30
0.0
 10
57.333081
 20
10.100064
 30
0.0
  0
SPLINE
  5
114
100
AcDbEntity
  8
0
 62
7
100
AcDbSpline
 70
8
 71
3
 72
8
 73
4
 74
0
 40
0
 40
0
 40
0
 40
0
 40
1
 40
1
 40
1
 40
1
 10
57.333081
 20
10.100064
 30
0.0
 10
56.033520
 20
10.100064
 30
0.0
 10
54.787186
 20
10.616312
 30
0.0
 10
53.868257
 20
11.535240
 30
0.0
  0
SPLINE
  5
115
100
AcDbEntity
  8
0
 62
7
100
AcDbSpline
 70
8
 71
3
 72
8
 73
4
 74
0
 40
0
 40
0
 40
0
 40
0
 40
1
 40
1
 40
1
 40
1
 10
53.868257
 20
11.535240
 30
0.0
 10
52.949329
 20
12.454168
 30
0.0
 10
52.433080
 20
13.700502
 30
0.0
 10
52.433080
 20
15.000063
 30
0.0
  0
SPLINE
  5
116
100
AcDbEntity
  8
0
 62
7
100
AcDbSpline
 70
8
 71
3
 72
8
 73
4
 74
0
 40
0
 40
0
 40
0
 40
0
 40
1
 40
1
 40
1
 40
1
 10
52.433080
 20
15.000063
 30
0.0
 10
52.433079
 20
16.299624
 30
0.0
 10
52.949328
 20
17.545959
 30
0.0
 10
53.868256
 20
18.464887
 30
0.0
  0
SPLINE
  5
117
100
AcDbEntity
  8
0
 62
7
100
AcDbSpline
 70
8
 71
3
 72
8
 73
4
 74
0
 40
0
 40
0
 40
0
 40
0
 40
1
 40
1
 40
1
 40
1
 10
53.868256
 20
18.464887
 30
0.0
 10
54.787185
 20
19.383816
 30
0.0
 10
56.033520
 20
19.900064
 30
0.0
 10
57.333081
 20
19.900064
 30
0.0
  0
LINE
  5
118
100
AcDbEntity
  8
0
 62
7
100
AcDbLine
 10
57.333081
 20
19.900064
 30
0.0
 11
57.333081
 21
19.900064
 31
0.0
  0
LINE
  5
119
100
AcDbEntity
  8
0
 62
7
100
AcDbLine
 10
42.433335
 20
39.900151
 30
0.0
 11
42.433335
 21
15.100112
 31
0.0
  0
SPLINE
  5
11a
100
AcDbEntity
  8
0
 62
7
100
AcDbSpline
 70
8
 71
3
 72
8
 73
4
 74
0
 40
0
 40
0
 40
0
 40
0
 40
1
 40
1
 40
1
 40
1
 10
42.433335
 20
15.100112
 30
0.0
 10
42.433335
 20
15.100112
 30
0.0
 10
42.438495
 20
15.100112
 30
0.0
 10
42.438495
 20
15.100112
 30
0.0
  0
SPLINE
  5
11b
100
AcDbEntity
  8
0
 62
7
100
AcDbSpline
 70
8
 71
3
 72
8
 73
4
 74
0
 40
0
 40
0
 40
0
 40
0
 40
1
 40
1
 40
1
 40
1
 10
42.438495
 20
15.100112
 30
0.0
 10
42.436662
 20
15.066701
 30
0.0
 10
42.434942
 20
15.033284
 30
0.0
 10
42.433335
 20
14.999862
 30
0.0
  0
SPLINE
  5
11c
100
AcDbEntity
  8
0
 62
7
100
AcDbSpline
 70
8
 71
3
 72
8
 73
4
 74
0
 40
0
 40
0
 40
0
 40
0
 40
1
 40
1
 40
1
 40
1
 10
42.433335
 20
14.999862
 30
0.0
 10
42.433409
 20
6.770924
 30
0.0
 10
49.104263
 20
0.100071
 30
0.0
 10
57.333200
 20
0.099997
 30
0.0
  0
SPLINE
  5
11d
100
AcDbEntity
  8
0
 62
7
100
AcDbSpline
 70
8
 71
3
 72
8
 73
4
 74
0
 40
0
 40
0
 40
0
 40
0
 40
1
 40
1
 40
1
 40
1
 10
57.333200
 20
0.099997
 30
0.0
 10
65.562138
 20
0.100071
 30
0.0
 10
72.232991
 20
6.770924
 30
0.0
 10
72.233065
 20
14.999862
 30
0.0
  0
SPLINE
  5
11e
100
AcDbEntity
  8
0
 62
7
100
AcDbSpline
 70
8
 71
3
 72
8
 73
4
 74
0
 40
0
 40
0
 40
0
 40
0
 40
1
 40
1
 40
1
 40
1
 10
72.233065
 20
14.999862
 30
0.0
 10
72.231969
 20
15.033282
 30
0.0
 10
72.230761
 20
15.066699
 30
0.0
 10
72.229440
 20
15.100112
 30
0.0
  0
LINE
  5
11f
100
AcDbEntity
  8
0
 62
7
100
AcDbLine
 10
72.229440
 20
15.100112
 30
0.0
 11
72.233065
 21
15.100112
 31
0.0
  0
LINE
  5
120
100
AcDbEntity
  8
0
 62
7
100
AcDbLine
 10
72.233065
 20
15.100112
 30
0.0
 11
72.233065
 21
39.900151
 31
0.0
  0
LINE
  5
121
100
AcDbEntity
  8
0
 62
7
100
AcDbLine
 10
72.233065
 20
39.900151
 30
0.0
 11
42.433335
 21
39.900151
 31
0.0
  0
SPLINE
  5
122
100
AcDbEntity
  8
0
 62
7
100
AcDbSpline
 70
8
 71
3
 72
8
 73
4
 74
0
 40
0
 40
0
 40
0
 40
0
 40
1
 40
1
 40
1
 40
1
 10
99.666414
 20
19.900064
 30
0.0
 10
100.965975
 20
19.900064
 30
0.0
 10
102.212309
 20
19.383815
 30
0.0
 10
103.131237
 20
18.464886
 30
0.0
  0
SPLINE
  5
123
100
AcDbEntity
  8
0
 62
7
100
AcDbSpline
 70
8
 71
3
 72
8
 73
4
 74
0
 40
0
 40
0
 40
0
 40
0
 40
1
 40
1
 40
1
 40
1
 10
103.131237
 20
18.464886
 30
0.0
 10
104.050165
 20
17.545958
 30
0.0
 10
104.566414
 20
16.299623
 30
0.0
 10
104.566413
 20
15.000063
 30
0.0
  0
SPLINE
  5
124
100
AcDbEntity
  8
0
 62
7
100
AcDbSpline
 70
8
 71
3
 72
8
 73
4
 74
0
 40
0
 40
0
 40
0
 40
0
 40
1
 40
1
 40
1
 40
1
 10
104.566413
 20
15.000063
 30
0.0
 10
104.566413
 20
12.293868
 30
0.0
 10
102.372609
 20
10.100065
 30
0.0
 10
99.666414
 20
10.100064
 30
0.0
  0
SPLINE
  5
125
100
AcDbEntity
  8
0
 62
7
100
AcDbSpline
 70
8
 71
3
 72
8
 73
4
 74
0
 40
0
 40
0
 40
0
 40
0
 40
1
 40
1
 40
1
 40
1
 10
99.666414
 20
10.100064
 30
0.0
 10
98.366854
 20
10.100064
 30
0.0
 10
97.120519
 20
10.616312
 30
0.0
 10
96.201591
 20
11.535240
 30
0.0
  0
SPLINE
  5
126
100
AcDbEntity
  8
0
 62
7
100
AcDbSpline
 70
8
 71
3
 72
8
 73
4
 74
0
 40
0
 40
0
 40
0
 40
0
 40
1
 40
1
 40
1
 40
1
 10
96.201591
 20
11.535240
 30
0.0
 10
95.282662
 20
12.454168
 30
0.0
 10
94.766413
 20
13.700502
 30
0.0
 10
94.766413
 20
15.000063
 30
0.0
  0
SPLINE
  5
127
100
AcDbEntity
  8
0
 62
7
100
AcDbSpline
 70
8
 71
3
 72
8
 73
4
 74
0
 40
0
 40
0
 40
0
 40
0
 40
1
 40
1
 40
1
 40
1
 10
94.766413
 20
15.000063
 30
0.0
 10
94.766413
 20
16.299624
 30
0.0
 10
95.282661
 20
17.545959
 30
0.0
 10
96.201590
 20
18.464887
 30
0.0
  0
SPLINE
  5
128
100
AcDbEntity
  8
0
 62
7
100
AcDbSpline
 70
8
 71
3
 72
8
 73
4
 74
0
 40
0
 40
0
 40
0
 40
0
 40
1
 40
1
 40
1
 40
1
 10
96.201590
 20
18.464887
 30
0.0
 10
97.120518
 20
19.383816
 30
0.0
 10
98.366853
 20
19.900064
 30
0.0
 10
99.666414
 20
19.900064
 30
0.0
  0
LINE
  5
129
100
AcDbEntity
  8
0
 62
7
100
AcDbLine
 10
99.666414
 20
19.900064
 30
0.0
 11
99.666414
 21
19.900064
 31
0.0
  0
LINE
  5
12a
100
AcDbEntity
  8
0
 62
7
100
AcDbLine
 10
84.766669
 20
39.900151
 30
0.0
 11
84.766669
 21
15.100112
 31
0.0
  0
SPLINE
  5
12b
100
AcDbEntity
  8
0
 62
7
100
AcDbSpline
 70
8
 71
3
 72
8
 73
4
 74
0
 40
0
 40
0
 40
0
 40
0
 40
1
 40
1
 40
1
 40
1
 10
84.766669
 20
15.100112
 30
0.0
 10
84.766669
 20
15.100112
 30
0.0
 10
84.771828
 20
15.100112
 30
0.0
 10
84.771828
 20
15.100112
 30
0.0
  0
SPLINE
  5
12c
100
AcDbEntity
  8
0
 62
7
100
AcDbSpline
 70
8
 71
3
 72
8
 73
4
 74
0
 40
0
 40
0
 40
0
 40
0
 40
1
 40
1
 40
1
 40
1
 10
84.771828
 20
15.100112
 30
0.0
 10
84.769996
 20
15.066701
 30
0.0
 10
84.768276
 20
15.033284
 30
0.0
 10
84.766669
 20
14.999862
 30
0.0
  0
SPLINE
  5
12d
100
AcDbEntity
  8
0
 62
7
100
AcDbSpline
 70
8
 71
3
 72
8
 73
4
 74
0
 40
0
 40
0
 40
0
 40
0
 40
1
 40
1
 40
1
 40
1
 10
84.766669
 20
14.999862
 30
0.0
 10
84.766743
 20
6.770924
 30
0.0
 10
91.437596
 20
0.100071
 30
0.0
 10
99.666533
 20
0.099997
 30
0.0
  0
SPLINE
  5
12e
100
AcDbEntity
  8
0
 62
7
100
AcDbSpline
 70
8
 71
3
 72
8
 73
4
 74
0
 40
0
 40
0
 40
0
 40
0
 40
1
 40
1
 40
1
 40
1
 10
99.666533
 20
0.099997
 30
0.0
 10
107.895471
 20
0.100071
 30
0.0
 10
114.566324
 20
6.770924
 30
0.0
 10
114.566398
 20
14.999862
 30
0.0
  0
SPLINE
  5
12f
100
AcDbEntity
  8
0
 62
7
100
AcDbSpline
 70
8
 71
3
 72
8
 73
4
 74
0
 40
0
 40
0
 40
0
 40
0
 40
1
 40
1
 40
1
 40
1
 10
114.566398
 20
14.999862
 30
0.0
 10
114.565303
 20
15.033282
 30
0.0
 10
114.564094
 20
15.066699
 30
0.0
 10
114.562774
 20
15.100112
 30
0.0
  0
LINE
  5
130
100
AcDbEntity
  8
0
 62
7
100
AcDbLine
 10
114.562774
 20
15.100112
 30
0.0
 11
114.566398
 21
15.100112
 31
0.0
  0
LINE
  5
131
100
AcDbEntity
  8
0
 62
7
100
AcDbLine
 10
114.566398
 20
15.100112
 30
0.0
 11
114.566398
 21
39.900151
 31
0.0
  0
LINE
  5
132
100
AcDbEntity
  8
0
 62
7
100
AcDbLine
 10
114.566398
 20
39.900151
 30
0.0
 11
84.766669
 21
39.900151
 31
0.0
  0
SPLINE
  5
133
100
AcDbEntity
  8
0
 62
7
100
AcDbSpline
 70
8
 71
3
 72
8
 73
4
 74
0
 40
0
 40
0
 40
0
 40
0
 40
1
 40
1
 40
1
 40
1
 10
14.999748
 20
73.016749
 30
0.0
 10
16.299309
 20
73.016750
 30
0.0
 10
17.545643
 20
73.532999
 30
0.0
 10
18.464571
 20
74.451927
 30
0.0
  0
SPLINE
  5
134
100
AcDbEntity
  8
0
 62
7
100
AcDbSpline
 70
8
 71
3
 72
8
 73
4
 74
0
 40
0
 40
0
 40
0
 40
0
 40
1
 40
1
 40
1
 40
1
 10
18.464571
 20
74.451927
 30
0.0
 10
19.383499
 20
75.370856
 30
0.0
 10
19.899747
 20
76.617190
 30
0.0
 10
19.899746
 20
77.916751
 30
0.0
  0
SPLINE
  5
135
100
AcDbEntity
  8
0
 62
7
100
AcDbSpline
 70
8
 71
3
 72
8
 73
4
 74
0
 40
0
 40
0
 40
0
 40
0
 40
1
 40
1
 40
1
 40
1
 10
19.899746
 20
77.916751
 30
0.0
 10
19.899746
 20
80.622945
 30
0.0
 10
17.705942
 20
82.816749
 30
0.0
 10
14.999748
 20
82.816749
 30
0.0
  0
SPLINE
  5
136
100
AcDbEntity
  8
0
 62
7
100
AcDbSpline
 70
8
 71
3
 72
8
 73
4
 74
0
 40
0
 40
0
 40
0
 40
0
 40
1
 40
1
 40
1
 40
1
 10
14.999748
 20
82.816749
 30
0.0
 10
13.700187
 20
82.816750
 30
0.0
 10
12.453853
 20
82.300502
 30
0.0
 10
11.534924
 20
81.381574
 30
0.0
  0
SPLINE
  5
137
100
AcDbEntity
  8
0
 62
7
100
AcDbSpline
 70
8
 71
3
 72
8
 73
4
 74
0
 40
0
 40
0
 40
0
 40
0
 40
1
 40
1
 40
1
 40
1
 10
11.534924
 20
81.381574
 30
0.0
 10
10.615996
 20
80.462646
 30
0.0
 10
10.099747
 20
79.216312
 30
0.0
 10
10.099746
 20
77.916751
 30
0.0
  0
SPLINE
  5
138
100
AcDbEntity
  8
0
 62
7
100
AcDbSpline
 70
8
 71
3
 72
8
 73
4
 74
0
 40
0
 40
0
 40
0
 40
0
 40
1
 40
1
 40
1
 40
1
 10
10.099746
 20
77.916751
 30
0.0
 10
10.099746
 20
76.617190
 30
0.0
 10
10.615995
 20
75.370855
 30
0.0
 10
11.534923
 20
74.451926
 30
0.0
  0
SPLINE
  5
139
100
AcDbEntity
  8
0
 62
7
100
AcDbSpline
 70
8
 71
3
 72
8
 73
4
 74
0
 40
0
 40
0
 40
0
 40
0
 40
1
 40
1
 40
1
 40
1
 10
11.534923
 20
74.451926
 30
0.0
 10
12.453852
 20
73.532998
 30
0.0
 10
13.700186
 20
73.016749
 30
0.0
 10
14.999748
 20
73.016749
 30
0.0
  0
LINE
  5
13a
100
AcDbEntity
  8
0
 62
7
100
AcDbLine
 10
14.999748
 20
73.016749
 30
0.0
 11
14.999748
 21
73.016749
 31
0.0
  0
LINE
  5
13b
100
AcDbEntity
  8
0
 62
7
100
AcDbLine
 10
0.100000
 20
53.016663
 30
0.0
 11
0.100000
 21
77.816701
 31
0.0
  0
SPLINE
  5
13c
100
AcDbEntity
  8
0
 62
7
100
AcDbSpline
 70
8
 71
3
 72
8
 73
4
 74
0
 40
0
 40
0
 40
0
 40
0
 40
1
 40
1
 40
1
 40
1
 10
0.100000
 20
77.816701
 30
0.0
 10
0.100000
 20
77.816701
 30
0.0
 10
0.105168
 20
77.816701
 30
0.0
 10
0.105168
 20
77.816701
 30
0.0
  0
SPLINE
  5
13d
100
AcDbEntity
  8
0
 62
7
100
AcDbSpline
 70
8
 71
3
 72
8
 73
4
 74
0
 40
0
 40
0
 40
0
 40
0
 40
1
 40
1
 40
1
 40
1
 10
0.105168
 20
77.816701
 30
0.0
 10
0.103333
 20
77.850112
 30
0.0
 10
0.101610
 20
77.883529
 30
0.0
 10
0.100000
 20
77.916952
 30
0.0
  0
SPLINE
  5
13e
100
AcDbEntity
  8
0
 62
7
100
AcDbSpline
 70
8
 71
3
 72
8
 73
4
 74
0
 40
0
 40
0
 40
0
 40
0
 40
1
 40
1
 40
1
 40
1
 10
0.100000
 20
77.916952
 30
0.0
 10
0.100074
 20
86.145890
 30
0.0
 10
6.770928
 20
92.816743
 30
0.0
 10
14.999866
 20
92.816817
 30
0.0
  0
SPLINE
  5
13f
100
AcDbEntity
  8
0
 62
7
100
AcDbSpline
 70
8
 71
3
 72
8
 73
4
 74
0
 40
0
 40
0
 40
0
 40
0
 40
1
 40
1
 40
1
 40
1
 10
14.999866
 20
92.816817
 30
0.0
 10
23.228804
 20
92.816743
 30
0.0
 10
29.899658
 20
86.145890
 30
0.0
 10
29.899732
 20
77.916952
 30
0.0
  0
SPLINE
  5
140
100
AcDbEntity
  8
0
 62
7
100
AcDbSpline
 70
8
 71
3
 72
8
 73
4
 74
0
 40
0
 40
0
 40
0
 40
0
 40
1
 40
1
 40
1
 40
1
 10
29.899732
 20
77.916952
 30
0.0
 10
29.898636
 20
77.883531
 30
0.0
 10
29.897428
 20
77.850114
 30
0.0
 10
29.896107
 20
77.816701
 30
0.0
  0
LINE
  5
141
100
AcDbEntity
  8
0
 62
7
100
AcDbLine
 10
29.896107
 20
77.816701
 30
0.0
 11
29.899732
 21
77.816701
 31
0.0
  0
LINE
  5
142
100
AcDbEntity
  8
0
 62
7
100
AcDbLine
 10
29.899732
 20
77.816701
 30
0.0
 11
29.899732
 21
53.016663
 31
0.0
  0
LINE
  5
143
100
AcDbEntity
  8
0
 62
7
100
AcDbLine
 10
29.899732
 20
53.016663
 30
0.0
 11
0.100000
 21
53.016663
 31
0.0
  0
SPLINE
  5
144
100
AcDbEntity
  8
0
 62
7
100
AcDbSpline
 70
8
 71
3
 72
8
 73
4
 74
0
 40
0
 40
0
 40
0
 40
0
 40
1
 40
1
 40
1
 40
1
 10
57.333081
 20
73.016749
 30
0.0
 10
58.632642
 20
73.016750
 30
0.0
 10
59.878976
 20
73.532999
 30
0.0
 10
60.797904
 20
74.451927
 30
0.0
  0
SPLINE
  5
145
100
AcDbEntity
  8
0
 62
7
100
AcDbSpline
 70
8
 71
3
 72
8
 73
4
 74
0
 40
0
 40
0
 40
0
 40
0
 40
1
 40
1
 40
1
 40
1
 10
60.797904
 20
74.451927
 30
0.0
 10
61.716832
 20
75.370856
 30
0.0
 10
62.233080
 20
76.617190
 30
0.0
 10
62.233080
 20
77.916751
 30
0.0
  0
SPLINE
  5
146
100
AcDbEntity
  8
0
 62
7
100
AcDbSpline
 70
8
 71
3
 72
8
 73
4
 74
0
 40
0
 40
0
 40
0
 40
0
 40
1
 40
1
 40
1
 40
1
 10
62.233080
 20
77.916751
 30
0.0
 10
62.233079
 20
80.622945
 30
0.0
 10
60.039275
 20
82.816749
 30
0.0
 10
57.333081
 20
82.816749
 30
0.0
  0
SPLINE
  5
147
100
AcDbEntity
  8
0
 62
7
100
AcDbSpline
 70
8
 71
3
 72
8
 73
4
 74
0
 40
0
 40
0
 40
0
 40
0
 40
1
 40
1
 40
1
 40
1
 10
57.333081
 20
82.816749
 30
0.0
 10
56.033520
 20
82.816750
 30
0.0
 10
54.787186
 20
82.300502
 30
0.0
 10
53.868257
 20
81.381574
 30
0.0
  0
SPLINE
  5
148
100
AcDbEntity
  8
0
 62
7
100
AcDbSpline
 70
8
 71
3
 72
8
 73
4
 74
0
 40
0
 40
0
 40
0
 40
0
 40
1
 40
1
 40
1
 40
1
 10
53.868257
 20
81.381574
 30
0.0
 10
52.949329
 20
80.462646
 30
0.0
 10
52.433080
 20
79.216312
 30
0.0
 10
52.433080
 20
77.916751
 30
0.0
  0
SPLINE
  5
149
100
AcDbEntity
  8
0
 62
7
100
AcDbSpline
 70
8
 71
3
 72
8
 73
4
 74
0
 40
0
 40
0
 40
0
 40
0
 40
1
 40
1
 40
1
 40
1
 10
52.433080
 20
77.916751
 30
0.0
 10
52.433079
 20
76.617190
 30
0.0
 10
52.949328
 20
75.370855
 30
0.0
 10
53.868256
 20
74.451926
 30
0.0
  0
SPLINE
  5
14a
100
AcDbEntity
  8
0
 62
7
100
AcDbSpline
 70
8
 71
3
 72
8
 73
4
 74
0
 40
0
 40
0
 40
0
 40
0
 40
1
 40
1
 40
1
 40
1
 10
53.868256
 20
74.451926
 30
0.0
 10
54.787185
 20
73.532998
 30
0.0
 10
56.033520
 20
73.016749
 30
0.0
 10
57.333081
 20
73.016749
 30
0.0
  0
LINE
  5
14b
100
AcDbEntity
  8
0
 62
7
100
AcDbLine
 10
57.333081
 20
73.016749
 30
0.0
 11
57.333081
 21
73.016749
 31
0.0
  0
LINE
  5
14c
100
AcDbEntity
  8
0
 62
7
100
AcDbLine
 10
42.433335
 20
53.016663
 30
0.0
 11
42.433335
 21
77.816701
 31
0.0
  0
SPLINE
  5
14d
100
AcDbEntity
  8
0
 62
7
100
AcDbSpline
 70
8
 71
3
 72
8
 73
4
 74
0
 40
0
 40
0
 40
0
 40
0
 40
1
 40
1
 40
1
 40
1
 10
42.433335
 20
77.816701
 30
0.0
 10
42.433335
 20
77.816701
 30
0.0
 10
42.438495
 20
77.816701
 30
0.0
 10
42.438495
 20
77.816701
 30
0.0
  0
SPLINE
  5
14e
100
AcDbEntity
  8
0
 62
7
100
AcDbSpline
 70
8
 71
3
 72
8
 73
4
 74
0
 40
0
 40
0
 40
0
 40
0
 40
1
 40
1
 40
1
 40
1
 10
42.438495
 20
77.816701
 30
0.0
 10
42.436662
 20
77.850112
 30
0.0
 10
42.434942
 20
77.883529
 30
0.0
 10
42.433335
 20
77.916952
 30
0.0
  0
SPLINE
  5
14f
100
AcDbEntity
  8
0
 62
7
100
AcDbSpline
 70
8
 71
3
 72
8
 73
4
 74
0
 40
0
 40
0
 40
0
 40
0
 40
1
 40
1
 40
1
 40
1
 10
42.433335
 20
77.916952
 30
0.0
 10
42.433409
 20
86.145889
 30
0.0
 10
49.104263
 20
92.816743
 30
0.0
 10
57.333200
 20
92.816817
 30
0.0
  0
SPLINE
  5
150
100
AcDbEntity
  8
0
 62
7
100
AcDbSpline
 70
8
 71
3
 72
8
 73
4
 74
0
 40
0
 40
0
 40
0
 40
0
 40
1
 40
1
 40
1
 40
1
 10
57.333200
 20
92.816817
 30
0.0
 10
65.562138
 20
92.816743
 30
0.0
 10
72.232991
 20
86.145889
 30
0.0
 10
72.233065
 20
77.916952
 30
0.0
  0
SPLINE
  5
151
100
AcDbEntity
  8
0
 62
7
100
AcDbSpline
 70
8
 71
3
 72
8
 73
4
 74
0
 40
0
 40
0
 40
0
 40
0
 40
1
 40
1
 40
1
 40
1
 10
72.233065
 20
77.916952
 30
0.0
 10
72.231969
 20
77.883531
 30
0.0
 10
72.230761
 20
77.850114
 30
0.0
 10
72.229440
 20
77.816701
 30
0.0
  0
LINE
  5
152
100
AcDbEntity
  8
0
 62
7
100
AcDbLine
 10
72.229440
 20
77.816701
 30
0.0
 11
72.233065
 21
77.816701
 31
0.0
  0
LINE
  5
153
100
AcDbEntity
  8
0
 62
7
100
AcDbLine
 10
72.233065
 20
77.816701
 30
0.0
 11
72.233065
 21
53.016663
 31
0.0
  0
LINE
  5
154
100
AcDbEntity
  8
0
 62
7
100
AcDbLine
 10
72.233065
 20
53.016663
 30
0.0
 11
42.433335
 21
53.016663
 31
0.0
  0
SPLINE
  5
155
100
AcDbEntity
  8
0
 62
7
100
AcDbSpline
 70
8
 71
3
 72
8
 73
4
 74
0
 40
0
 40
0
 40
0
 40
0
 40
1
 40
1
 40
1
 40
1
 10
99.666414
 20
73.016749
 30
0.0
 10
100.965975
 20
73.016750
 30
0.0
 10
102.212309
 20
73.532999
 30
0.0
 10
103.131237
 20
74.451927
 30
0.0
  0
SPLINE
  5
156
100
AcDbEntity
  8
0
 62
7
100
AcDbSpline
 70
8
 71
3
 72
8
 73
4
 74
0
 40
0
 40
0
 40
0
 40
0
 40
1
 40
1
 40
1
 40
1
 10
103.131237
 20
74.451927
 30
0.0
 10
104.050165
 20
75.370856
 30
0.0
 10
104.566414
 20
76.617190
 30
0.0
 10
104.566413
 20
77.916751
 30
0.0
  0
SPLINE
  5
157
100
AcDbEntity
  8
0
 62
7
100
AcDbSpline
 70
8
 71
3
 72
8
 73
4
 74
0
 40
0
 40
0
 40
0
 40
0
 40
1
 40
1
 40
1
 40
1
 10
104.566413
 20
77.916751
 30
0.0
 10
104.566413
 20
80.622945
 30
0.0
 10
102.372609
 20
82.816749
 30
0.0
 10
99.666414
 20
82.816749
 30
0.0
  0
SPLINE
  5
158
100
AcDbEntity
  8
0
 62
7
100
AcDbSpline
 70
8
 71
3
 72
8
 73
4
 74
0
 40
0
 40
0
 40
0
 40
0
 40
1
 40
1
 40
1
 40
1
 10
99.666414
 20
82.816749
 30
0.0
 10
98.366854
 20
82.816750
 30
0.0
 10
97.120519
 20
82.300502
 30
0.0
 10
96.201591
 20
81.381574
 30
0.0
  0
SPLINE
  5
159
100
AcDbEntity
  8
0
 62
7
100
AcDbSpline
 70
8
 71
3
 72
8
 73
4
 74
0
 40
0
 40
0
 40
0
 40
0
 40
1
 40
1
 40
1
 40
1
 10
96.201591
 20
81.381574
 30
0.0
 10
95.282662
 20
80.462646
 30
0.0
 10
94.766413
 20
79.216312
 30
0.0
 10
94.766413
 20
77.916751
 30
0.0
  0
SPLINE
  5
15a
100
AcDbEntity
  8
0
 62
7
100
AcDbSpline
 70
8
 71
3
 72
8
 73
4
 74
0
 40
0
 40
0
 40
0
 40
0
 40
1
 40
1
 40
1
 40
1
 10
94.766413
 20
77.916751
 30
0.0
 10
94.766413
 20
76.617190
 30
0.0
 10
95.282661
 20
75.370855
 30
0.0
 10
96.201590
 20
74.451926
 30
0.0
  0
SPLINE
  5
15b
100
AcDbEntity
  8
0
 62
7
100
AcDbSpline
 70
8
 71
3
 72
8
 73
4
 74
0
 40
0
 40
0
 40
0
 40
0
 40
1
 40
1
 40
1
 40
1
 10
96.201590
 20
74.451926
 30
0.0
 10
97.120518
 20
73.532998
 30
0.0
 10
98.366853
 20
73.016749
 30
0.0
 10
99.666414
 20
73.016749
 30
0.0
  0
LINE
  5
15c
100
AcDbEntity
  8
0
 62
7
100
AcDbLine
 10
99.666414
 20
73.016749
 30
0.0
 11
99.666414
 21
73.016749
 31
0.0
  0
LINE
  5
15d
100
AcDbEntity
  8
0
 62
7
100
AcDbLine
 10
84.766669
 20
53.016663
 30
0.0
 11
84.766669
 21
77.816701
 31
0.0
  0
SPLINE
  5
15e
100
AcDbEntity
  8
0
 62
7
100
AcDbSpline
 70
8
 71
3
 72
8
 73
4
 74
0
 40
0
 40
0
 40
0
 40
0
 40
1
 40
1
 40
1
 40
1
 10
84.766669
 20
77.816701
 30
0.0
 10
84.766669
 20
77.816701
 30
0.0
 10
84.771828
 20
77.816701
 30
0.0
 10
84.771828
 20
77.816701
 30
0.0
  0
SPLINE
  5
15f
100
AcDbEntity
  8
0
 62
7
100
AcDbSpline
 70
8
 71
3
 72
8
 73
4
 74
0
 40
0
 40
0
 40
0
 40
0
 40
1
 40
1
 40
1
 40
1
 10
84.771828
 20
77.816701
 30
0.0
 10
84.769996
 20
77.850112
 30
0.0
 10
84.768276
 20
77.883529
 30
0.0
 10
84.766669
 20
77.916952
 30
0.0
  0
SPLINE
  5
160
100
AcDbEntity
  8
0
 62
7
100
AcDbSpline
 70
8
 71
3
 72
8
 73
4
 74
0
 40
0
 40
0
 40
0
 40
0
 40
1
 40
1
 40
1
 40
1
 10
84.766669
 20
77.916952
 30
0.0
 10
84.766743
 20
86.145889
 30
0.0
 10
91.437596
 20
92.816743
 30
0.0
 10
99.666533
 20
92.816817
 30
0.0
  0
SPLINE
  5
161
100
AcDbEntity
  8
0
 62
7
100
AcDbSpline
 70
8
 71
3
 72
8
 73
4
 74
0
 40
0
 40
0
 40
0
 40
0
 40
1
 40
1
 40
1
 40
1
 10
99.666533
 20
92.816817
 30
0.0
 10
107.895471
 20
92.816743
 30
0.0
 10
114.566324
 20
86.145889
 30
0.0
 10
114.566398
 20
77.916952
 30
0.0
  0
SPLINE
  5
162
100
AcDbEntity
  8
0
 62
7
100
AcDbSpline
 70
8
 71
3
 72
8
 73
4
 74
0
 40
0
 40
0
 40
0
 40
0
 40
1
 40
1
 40
1
 40
1
 10
114.566398
 20
77.916952
 30
0.0
 10
114.565303
 20
77.883531
 30
0.0
 10
114.564094
 20
77.850114
 30
0.0
 10
114.562774
 20
77.816701
 30
0.0
  0
LINE
  5
163
100
AcDbEntity
  8
0
 62
7
100
AcDbLine
 10
114.562774
 20
77.816701
 30
0.0
 11
114.566398
 21
77.816701
 31
0.0
  0
LINE
  5
164
100
AcDbEntity
  8
0
 62
7
100
AcDbLine
 10
114.566398
 20
77.816701
 30
0.0
 11
114.566398
 21
53.016663
 31
0.0
  0
LINE
  5
165
100
AcDbEntity
  8
0
 62
7
100
AcDbLine
 10
114.566398
 20
53.016663
 30
0.0
 11
84.766669
 21
53.016663
 31
0.0
  0
ENDSEC
  0
SECTION
  2
OBJECTS
  0
DICTIONARY
  5
C
330
0
100
AcDbDictionary
  3
ACAD_GROUP
350
D
  3
ACAD_MLINESTYLE
350
17
  0
DICTIONARY
  5
D
330
C
100
AcDbDictionary
  0
DICTIONARY
  5
1A
330
C
100
AcDbDictionary
  0
DICTIONARY
  5
17
330
C
100
AcDbDictionary
  3
STANDARD
350
18
  0
DICTIONARY
  5
19
330
C
100
AcDbDictionary
  0
ENDSEC
  0
EOF
