  0
SECTION
  2
HEADER
  9
$ACADVER
  1
AC1014
  9
$HANDSEED
  5
FFFF
  9
$MEASUREMENT
 70
     1
  0
ENDSEC
  0
SECTION
  2
TABLES
  0
TABLE
  2
VPORT
  5
8
330
0
100
AcDbSymbolTable
 70
     4
  0
VPORT
  5
2E
330
8
100
AcDbSymbolTableRecord
100
AcDbViewportTableRecord
  2
*ACTIVE
 70
     0
 10
0.0
 20
0.0
 11
1.0
 21
1.0
 12
210.0
 22
148.5
 13
0.0
 23
0.0
 14
10.0
 24
10.0
 15
10.0
 25
10.0
 16
0.0
 26
0.0
 36
1.0
 17
0.0
 27
0.0
 37
0.0
 40
341.0
 41
1.24
 42
50.0
 43
0.0
 44
0.0
 50
0.0
 51
0.0
 71
     0
 72
   100
 73
     1
 74
     3
 75
     0
 76
     0
 77
     0
 78
     0
  0
ENDTAB
  0
TABLE
  2
LTYPE
  5
5
330
0
100
AcDbSymbolTable
 70
     1
  0
LTYPE
  5
14
330
5
100
AcDbSymbolTableRecord
100
AcDbLinetypeTableRecord
  2
BYBLOCK
 70
     0
  3

 72
    65
 73
     0
 40
0.0
  0
LTYPE
  5
15
330
5
100
AcDbSymbolTableRecord
100
AcDbLinetypeTableRecord
  2
BYLAYER
 70
     0
  3

 72
    65
 73
     0
 40
0.0
  0
LTYPE
  5
16
330
5
100
AcDbSymbolTableRecord
100
AcDbLinetypeTableRecord
  2
CONTINUOUS
 70
     0
  3
Solid line
 72
    65
 73
     0
 40
0.0
  0
ENDTAB
  0
TABLE
  2
LAYER
  5
2
100
AcDbSymbolTable
 70
1
  0
LAYER
  5
50
100
AcDbSymbolTableRecord
100
AcDbLayerTableRecord
  2
0
 70
0
  6
CONTINUOUS
  0
ENDTAB
  0
TABLE
  2
STYLE
  5
3
330
0
100
AcDbSymbolTable
 70
     1
  0
STYLE
  5
11
330
3
100
AcDbSymbolTableRecord
100
AcDbTextStyleTableRecord
  2
STANDARD
 70
     0
 40
0.0
 41
1.0
 50
0.0
 71
     0
 42
2.5
  3
txt
  4

  0
ENDTAB
  0
TABLE
  2
VIEW
  5
6
330
0
100
AcDbSymbolTable
 70
     0
  0
ENDTAB
  0
TABLE
  2
UCS
  5
7
330
0
100
AcDbSymbolTable
 70
     0
  0
ENDTAB
  0
TABLE
  2
APPID
  5
9
330
0
100
AcDbSymbolTable
 70
     2
  0
APPID
  5
12
330
9
100
AcDbSymbolTableRecord
100
AcDbRegAppTableRecord
  2
ACAD
 70
     0
  0
ENDTAB
  0
TABLE
  2
DIMSTYLE
  5
A
330
0
100
AcDbSymbolTable
 70
     1
  0
DIMSTYLE
105
27
330
A
100
AcDbSymbolTableRecord
100
AcDbDimStyleTableRecord
  2
ISO-25
 70
     0
  3

  4

  5

  6

  7

 40
1.0
 41
2.5
 42
0.625
 43
3.75
 44
1.25
 45
0.0
 46
0.0
 47
0.0
 48
0.0
140
2.5
141
2.5
142
0.0
143
0.03937007874016
144
1.0
145
0.0
146
1.0
147
0.625
 71
     0
 72
     0
 73
     0
 74
     0
 75
     0
 76
     0
 77
     1
 78
     8
170
     0
171
     3
172
     1
173
     0
174
     0
175
     0
176
     0
177
     0
178
     0
270
     2
271
     2
272
     2
273
     2
274
     3
340
11
275
     0
280
     0
281
     0
282
     0
283
     0
284
     8
285
     0
286
     0
287
     3
288
     0
  0
ENDTAB
  0
TABLE
  2
BLOCK_RECORD
  5
1
330
0
100
AcDbSymbolTable
 70
     1
  0
BLOCK_RECORD
  5
1F
330
1
100
AcDbSymbolTableRecord
100
AcDbBlockTableRecord
  2
*MODEL_SPACE
  0
BLOCK_RECORD
  5
1B
330
1
100
AcDbSymbolTableRecord
100
AcDbBlockTableRecord
  2
*PAPER_SPACE
  0
ENDTAB
  0
ENDSEC
  0
SECTION
  2
BLOCKS
  0
BLOCK
  5
20
330
1F
100
AcDbEntity
  8
0
100
AcDbBlockBegin
  2
*MODEL_SPACE
 70
     0
 10
0.0
 20
0.0
 30
0.0
  3
*MODEL_SPACE
  1

  0
ENDBLK
  5
21
330
1F
100
AcDbEntity
  8
0
100
AcDbBlockEnd
  0
BLOCK
  5
1C
330
1B
100
AcDbEntity
 67
     1
  8
0
100
AcDbBlockBegin
  2
*PAPER_SPACE
  1

  0
ENDBLK
  5
1D
330
1B
100
AcDbEntity
 67
     1
  8
0
100
AcDbBlockEnd
  0
ENDSEC
  0
SECTION
  2
ENTITIES
  0
SPLINE
  5
100
100
AcDbEntity
  8
0
 62
7
100
AcDbSpline
 70
8
 71
3
 72
8
 73
4
 74
0
 40
0
 40
0
 40
0
 40
0
 40
1
 40
1
 40
1
 40
1
 10
143.237794
 20
87.499759
 30
0.0
 10
143.237795
 20
84.211074
 30
0.0
 10
141.931370
 20
81.057084
 30
0.0
 10
139.605918
 20
78.731633
 30
0.0
  0
SPLINE
  5
101
100
AcDbEntity
  8
0
 62
7
100
AcDbSpline
 70
8
 71
3
 72
8
 73
4
 74
0
 40
0
 40
0
 40
0
 40
0
 40
1
 40
1
 40
1
 40
1
 10
139.605918
 20
78.731633
 30
0.0
 10
137.280466
 20
76.406181
 30
0.0
 10
134.126477
 20
75.099756
 30
0.0
 10
130.837792
 20
75.099757
 30
0.0
  0
SPLINE
  5
102
100
AcDbEntity
  8
0
 62
7
100
AcDbSpline
 70
8
 71
3
 72
8
 73
4
 74
0
 40
0
 40
0
 40
0
 40
0
 40
1
 40
1
 40
1
 40
1
 10
130.837792
 20
75.099757
 30
0.0
 10
127.549107
 20
75.099757
 30
0.0
 10
124.395118
 20
76.406182
 30
0.0
 10
122.069667
 20
78.731634
 30
0.0
  0
SPLINE
  5
103
100
AcDbEntity
  8
0
 62
7
100
AcDbSpline
 70
8
 71
3
 72
8
 73
4
 74
0
 40
0
 40
0
 40
0
 40
0
 40
1
 40
1
 40
1
 40
1
 10
122.069667
 20
78.731634
 30
0.0
 10
119.744216
 20
81.057085
 30
0.0
 10
118.437792
 20
84.211074
 30
0.0
 10
118.437792
 20
87.499759
 30
0.0
  0
SPLINE
  5
104
100
AcDbEntity
  8
0
 62
7
100
AcDbSpline
 70
8
 71
3
 72
8
 73
4
 74
0
 40
0
 40
0
 40
0
 40
0
 40
1
 40
1
 40
1
 40
1
 10
118.437792
 20
87.499759
 30
0.0
 10
118.437793
 20
94.348089
 30
0.0
 10
123.989461
 20
99.899758
 30
0.0
 10
130.837792
 20
99.899758
 30
0.0
  0
SPLINE
  5
105
100
AcDbEntity
  8
0
 62
7
100
AcDbSpline
 70
8
 71
3
 72
8
 73
4
 74
0
 40
0
 40
0
 40
0
 40
0
 40
1
 40
1
 40
1
 40
1
 10
130.837792
 20
99.899758
 30
0.0
 10
134.126477
 20
99.899759
 30
0.0
 10
137.280466
 20
98.593334
 30
0.0
 10
139.605917
 20
96.267883
 30
0.0
  0
SPLINE
  5
106
100
AcDbEntity
  8
0
 62
7
100
AcDbSpline
 70
8
 71
3
 72
8
 73
4
 74
0
 40
0
 40
0
 40
0
 40
0
 40
1
 40
1
 40
1
 40
1
 10
139.605917
 20
96.267883
 30
0.0
 10
141.931369
 20
93.942432
 30
0.0
 10
143.237794
 20
90.788444
 30
0.0
 10
143.237794
 20
87.499759
 30
0.0
  0
LINE
  5
107
100
AcDbEntity
  8
0
 62
7
100
AcDbLine
 10
143.237794
 20
87.499759
 30
0.0
 11
143.237794
 21
87.499759
 31
0.0
  0
SPLINE
  5
108
100
AcDbEntity
  8
0
 62
7
100
AcDbSpline
 70
8
 71
3
 72
8
 73
4
 74
0
 40
0
 40
0
 40
0
 40
0
 40
1
 40
1
 40
1
 40
1
 10
130.837710
 20
109.899506
 30
0.0
 10
118.466793
 20
109.899320
 30
0.0
 10
108.438228
 20
99.870755
 30
0.0
 10
108.438042
 20
87.499838
 30
0.0
  0
SPLINE
  5
109
100
AcDbEntity
  8
0
 62
7
100
AcDbSpline
 70
8
 71
3
 72
8
 73
4
 74
0
 40
0
 40
0
 40
0
 40
0
 40
1
 40
1
 40
1
 40
1
 10
108.438042
 20
87.499838
 30
0.0
 10
108.439630
 20
87.447811
 30
0.0
 10
108.441641
 20
87.395791
 30
0.0
 10
108.443731
 20
87.343776
 30
0.0
  0
LINE
  5
10a
100
AcDbEntity
  8
0
 62
7
100
AcDbLine
 10
108.443731
 20
87.343776
 30
0.0
 11
108.438042
 21
87.343776
 31
0.0
  0
LINE
  5
10b
100
AcDbEntity
  8
0
 62
7
100
AcDbLine
 10
108.438042
 20
87.343776
 30
0.0
 11
108.438042
 21
54.942134
 31
0.0
  0
LINE
  5
10c
100
AcDbEntity
  8
0
 62
7
100
AcDbLine
 10
108.438042
 20
54.942134
 30
0.0
 11
108.438042
 21
54.933350
 31
0.0
  0
LINE
  5
10d
100
AcDbEntity
  8
0
 62
7
100
AcDbLine
 10
108.438042
 20
54.933350
 30
0.0
 11
93.822398
 21
46.761755
 31
0.0
  0
LINE
  5
10e
100
AcDbEntity
  8
0
 62
7
100
AcDbLine
 10
93.822398
 20
46.761755
 30
0.0
 11
79.731269
 21
38.731238
 31
0.0
  0
LINE
  5
10f
100
AcDbEntity
  8
0
 62
7
100
AcDbLine
 10
79.731269
 20
38.731238
 30
0.0
 11
94.080264
 21
30.715191
 31
0.0
  0
LINE
  5
110
100
AcDbEntity
  8
0
 62
7
100
AcDbLine
 10
94.080264
 20
30.715191
 30
0.0
 11
108.440112
 21
22.377196
 31
0.0
  0
SPLINE
  5
111
100
AcDbEntity
  8
0
 62
7
100
AcDbSpline
 70
8
 71
3
 72
8
 73
4
 74
0
 40
0
 40
0
 40
0
 40
0
 40
1
 40
1
 40
1
 40
1
 10
108.440112
 20
22.377196
 30
0.0
 10
108.529911
 20
10.082636
 30
0.0
 10
118.522414
 20
0.100190
 30
0.0
 10
130.837710
 20
0.100005
 30
0.0
  0
SPLINE
  5
112
100
AcDbEntity
  8
0
 62
7
100
AcDbSpline
 70
8
 71
3
 72
8
 73
4
 74
0
 40
0
 40
0
 40
0
 40
0
 40
1
 40
1
 40
1
 40
1
 10
130.837710
 20
0.100005
 30
0.0
 10
143.208830
 20
0.099904
 30
0.0
 10
153.237711
 20
10.128552
 30
0.0
 10
153.237893
 20
22.499672
 30
0.0
  0
SPLINE
  5
113
100
AcDbEntity
  8
0
 62
7
100
AcDbSpline
 70
8
 71
3
 72
8
 73
4
 74
0
 40
0
 40
0
 40
0
 40
0
 40
1
 40
1
 40
1
 40
1
 10
153.237893
 20
22.499672
 30
0.0
 10
153.237893
 20
22.499672
 30
0.0
 10
153.237893
 20
22.499672
 30
0.0
 10
167.908288
 20
30.673850
 30
0.0
  0
LINE
  5
114
100
AcDbEntity
  8
0
 62
7
100
AcDbLine
 10
167.908288
 20
30.673850
 30
0.0
 11
182.257282
 21
38.689896
 31
0.0
  0
LINE
  5
115
100
AcDbEntity
  8
0
 62
7
100
AcDbLine
 10
182.257282
 20
38.689896
 30
0.0
 11
168.166153
 21
46.720413
 31
0.0
  0
LINE
  5
116
100
AcDbEntity
  8
0
 62
7
100
AcDbLine
 10
168.166153
 20
46.720413
 30
0.0
 11
153.237864
 21
54.961256
 31
0.0
  0
LINE
  5
117
100
AcDbEntity
  8
0
 62
7
100
AcDbLine
 10
153.237864
 20
54.961256
 30
0.0
 11
153.237864
 21
87.343776
 31
0.0
  0
LINE
  5
118
100
AcDbEntity
  8
0
 62
7
100
AcDbLine
 10
153.237864
 20
87.343776
 30
0.0
 11
153.230112
 21
87.343776
 31
0.0
  0
SPLINE
  5
119
100
AcDbEntity
  8
0
 62
7
100
AcDbSpline
 70
8
 71
3
 72
8
 73
4
 74
0
 40
0
 40
0
 40
0
 40
0
 40
1
 40
1
 40
1
 40
1
 10
153.230112
 20
87.343776
 30
0.0
 10
153.232890
 20
87.395788
 30
0.0
 10
153.235456
 20
87.447811
 30
0.0
 10
153.237864
 20
87.499838
 30
0.0
  0
SPLINE
  5
11a
100
AcDbEntity
  8
0
 62
7
100
AcDbSpline
 70
8
 71
3
 72
8
 73
4
 74
0
 40
0
 40
0
 40
0
 40
0
 40
1
 40
1
 40
1
 40
1
 10
153.237864
 20
87.499838
 30
0.0
 10
153.237708
 20
99.870959
 30
0.0
 10
143.208830
 20
109.899606
 30
0.0
 10
130.837710
 20
109.899506
 30
0.0
  0
LINE
  5
11b
100
AcDbEntity
  8
0
 62
7
100
AcDbLine
 10
130.837710
 20
109.899506
 30
0.0
 11
130.837710
 21
109.899506
 31
0.0
  0
SPLINE
  5
11c
100
AcDbEntity
  8
0
 62
7
100
AcDbSpline
 70
8
 71
3
 72
8
 73
4
 74
0
 40
0
 40
0
 40
0
 40
0
 40
1
 40
1
 40
1
 40
1
 10
133.237793
 20
22.499751
 30
0.0
 10
133.237793
 20
21.863231
 30
0.0
 10
132.984937
 20
21.252782
 30
0.0
 10
132.534849
 20
20.802694
 30
0.0
  0
SPLINE
  5
11d
100
AcDbEntity
  8
0
 62
7
100
AcDbSpline
 70
8
 71
3
 72
8
 73
4
 74
0
 40
0
 40
0
 40
0
 40
0
 40
1
 40
1
 40
1
 40
1
 10
132.534849
 20
20.802694
 30
0.0
 10
132.084762
 20
20.352606
 30
0.0
 10
131.474312
 20
20.099750
 30
0.0
 10
130.837792
 20
20.099750
 30
0.0
  0
SPLINE
  5
11e
100
AcDbEntity
  8
0
 62
7
100
AcDbSpline
 70
8
 71
3
 72
8
 73
4
 74
0
 40
0
 40
0
 40
0
 40
0
 40
1
 40
1
 40
1
 40
1
 10
130.837792
 20
20.099750
 30
0.0
 10
129.512309
 20
20.099751
 30
0.0
 10
128.437793
 20
21.174268
 30
0.0
 10
128.437793
 20
22.499751
 30
0.0
  0
SPLINE
  5
11f
100
AcDbEntity
  8
0
 62
7
100
AcDbSpline
 70
8
 71
3
 72
8
 73
4
 74
0
 40
0
 40
0
 40
0
 40
0
 40
1
 40
1
 40
1
 40
1
 10
128.437793
 20
22.499751
 30
0.0
 10
128.437793
 20
23.825234
 30
0.0
 10
129.512309
 20
24.899751
 30
0.0
 10
130.837792
 20
24.899752
 30
0.0
  0
SPLINE
  5
120
100
AcDbEntity
  8
0
 62
7
100
AcDbSpline
 70
8
 71
3
 72
8
 73
4
 74
0
 40
0
 40
0
 40
0
 40
0
 40
1
 40
1
 40
1
 40
1
 10
130.837792
 20
24.899752
 30
0.0
 10
131.474312
 20
24.899753
 30
0.0
 10
132.084762
 20
24.646896
 30
0.0
 10
132.534849
 20
24.196809
 30
0.0
  0
SPLINE
  5
121
100
AcDbEntity
  8
0
 62
7
100
AcDbSpline
 70
8
 71
3
 72
8
 73
4
 74
0
 40
0
 40
0
 40
0
 40
0
 40
1
 40
1
 40
1
 40
1
 10
132.534849
 20
24.196809
 30
0.0
 10
132.984937
 20
23.746721
 30
0.0
 10
133.237793
 20
23.136271
 30
0.0
 10
133.237793
 20
22.499751
 30
0.0
  0
LINE
  5
122
100
AcDbEntity
  8
0
 62
7
100
AcDbLine
 10
133.237793
 20
22.499751
 30
0.0
 11
133.237793
 21
22.499751
 31
0.0
  0
LINE
  5
123
100
AcDbEntity
  8
0
 62
7
100
AcDbLine
 10
108.337797
 20
54.943666
 30
0.0
 11
153.337794
 21
54.943666
 31
0.0
  0
LINE
  5
124
100
AcDbEntity
  8
0
 62
7
100
AcDbLine
 10
108.440112
 20
54.312743
 30
0.0
 11
108.440112
 21
23.102999
 31
0.0
  0
LINE
  5
125
100
AcDbEntity
  8
0
 62
7
100
AcDbLine
 10
153.439781
 20
54.312743
 30
0.0
 11
153.439781
 21
23.102999
 31
0.0
  0
SPLINE
  5
126
100
AcDbEntity
  8
0
 62
7
100
AcDbSpline
 70
8
 71
3
 72
8
 73
4
 74
0
 40
0
 40
0
 40
0
 40
0
 40
1
 40
1
 40
1
 40
1
 10
222.765572
 20
111.680501
 30
0.0
 10
222.765572
 20
108.391816
 30
0.0
 10
221.459147
 20
105.237827
 30
0.0
 10
219.133696
 20
102.912376
 30
0.0
  0
SPLINE
  5
127
100
AcDbEntity
  8
0
 62
7
100
AcDbSpline
 70
8
 71
3
 72
8
 73
4
 74
0
 40
0
 40
0
 40
0
 40
0
 40
1
 40
1
 40
1
 40
1
 10
219.133696
 20
102.912376
 30
0.0
 10
216.808244
 20
100.586925
 30
0.0
 10
213.654255
 20
99.280501
 30
0.0
 10
210.365570
 20
99.280501
 30
0.0
  0
SPLINE
  5
128
100
AcDbEntity
  8
0
 62
7
100
AcDbSpline
 70
8
 71
3
 72
8
 73
4
 74
0
 40
0
 40
0
 40
0
 40
0
 40
1
 40
1
 40
1
 40
1
 10
210.365570
 20
99.280501
 30
0.0
 10
203.517240
 20
99.280501
 30
0.0
 10
197.965571
 20
104.832170
 30
0.0
 10
197.965571
 20
111.680501
 30
0.0
  0
SPLINE
  5
129
100
AcDbEntity
  8
0
 62
7
100
AcDbSpline
 70
8
 71
3
 72
8
 73
4
 74
0
 40
0
 40
0
 40
0
 40
0
 40
1
 40
1
 40
1
 40
1
 10
197.965571
 20
111.680501
 30
0.0
 10
197.965570
 20
114.969185
 30
0.0
 10
199.271995
 20
118.123174
 30
0.0
 10
201.597446
 20
120.448626
 30
0.0
  0
SPLINE
  5
12a
100
AcDbEntity
  8
0
 62
7
100
AcDbSpline
 70
8
 71
3
 72
8
 73
4
 74
0
 40
0
 40
0
 40
0
 40
0
 40
1
 40
1
 40
1
 40
1
 10
201.597446
 20
120.448626
 30
0.0
 10
203.922897
 20
122.774078
 30
0.0
 10
207.076885
 20
124.080503
 30
0.0
 10
210.365570
 20
124.080503
 30
0.0
  0
SPLINE
  5
12b
100
AcDbEntity
  8
0
 62
7
100
AcDbSpline
 70
8
 71
3
 72
8
 73
4
 74
0
 40
0
 40
0
 40
0
 40
0
 40
1
 40
1
 40
1
 40
1
 10
210.365570
 20
124.080503
 30
0.0
 10
213.654255
 20
124.080503
 30
0.0
 10
216.808245
 20
122.774079
 30
0.0
 10
219.133696
 20
120.448627
 30
0.0
  0
SPLINE
  5
12c
100
AcDbEntity
  8
0
 62
7
100
AcDbSpline
 70
8
 71
3
 72
8
 73
4
 74
0
 40
0
 40
0
 40
0
 40
0
 40
1
 40
1
 40
1
 40
1
 10
219.133696
 20
120.448627
 30
0.0
 10
221.459148
 20
118.123175
 30
0.0
 10
222.765573
 20
114.969186
 30
0.0
 10
222.765572
 20
111.680501
 30
0.0
  0
LINE
  5
12d
100
AcDbEntity
  8
0
 62
7
100
AcDbLine
 10
222.765572
 20
111.680501
 30
0.0
 11
222.765572
 21
111.680501
 31
0.0
  0
SPLINE
  5
12e
100
AcDbEntity
  8
0
 62
7
100
AcDbSpline
 70
8
 71
3
 72
8
 73
4
 74
0
 40
0
 40
0
 40
0
 40
0
 40
1
 40
1
 40
1
 40
1
 10
210.365488
 20
134.080250
 30
0.0
 10
197.994572
 20
134.080065
 30
0.0
 10
187.966006
 20
124.051499
 30
0.0
 10
187.965821
 20
111.680583
 30
0.0
  0
SPLINE
  5
12f
100
AcDbEntity
  8
0
 62
7
100
AcDbSpline
 70
8
 71
3
 72
8
 73
4
 74
0
 40
0
 40
0
 40
0
 40
0
 40
1
 40
1
 40
1
 40
1
 10
187.965821
 20
111.680583
 30
0.0
 10
187.967408
 20
111.628555
 30
0.0
 10
187.969419
 20
111.576535
 30
0.0
 10
187.971509
 20
111.524521
 30
0.0
  0
LINE
  5
130
100
AcDbEntity
  8
0
 62
7
100
AcDbLine
 10
187.971509
 20
111.524521
 30
0.0
 11
187.965821
 21
111.524521
 31
0.0
  0
LINE
  5
131
100
AcDbEntity
  8
0
 62
7
100
AcDbLine
 10
187.965821
 20
111.524521
 30
0.0
 11
187.965821
 21
79.122879
 31
0.0
  0
LINE
  5
132
100
AcDbEntity
  8
0
 62
7
100
AcDbLine
 10
187.965821
 20
79.122879
 30
0.0
 11
187.965821
 21
79.114094
 31
0.0
  0
LINE
  5
133
100
AcDbEntity
  8
0
 62
7
100
AcDbLine
 10
187.965821
 20
79.114094
 30
0.0
 11
173.350177
 21
70.942499
 31
0.0
  0
LINE
  5
134
100
AcDbEntity
  8
0
 62
7
100
AcDbLine
 10
173.350177
 20
70.942499
 30
0.0
 11
159.259048
 21
62.911982
 31
0.0
  0
LINE
  5
135
100
AcDbEntity
  8
0
 62
7
100
AcDbLine
 10
159.259048
 20
62.911982
 30
0.0
 11
173.608042
 21
54.895935
 31
0.0
  0
LINE
  5
136
100
AcDbEntity
  8
0
 62
7
100
AcDbLine
 10
173.608042
 20
54.895935
 30
0.0
 11
187.967890
 21
46.557941
 31
0.0
  0
SPLINE
  5
137
100
AcDbEntity
  8
0
 62
7
100
AcDbSpline
 70
8
 71
3
 72
8
 73
4
 74
0
 40
0
 40
0
 40
0
 40
0
 40
1
 40
1
 40
1
 40
1
 10
187.967890
 20
46.557941
 30
0.0
 10
188.057689
 20
34.263380
 30
0.0
 10
198.050192
 20
24.280934
 30
0.0
 10
210.365488
 20
24.280749
 30
0.0
  0
SPLINE
  5
138
100
AcDbEntity
  8
0
 62
7
100
AcDbSpline
 70
8
 71
3
 72
8
 73
4
 74
0
 40
0
 40
0
 40
0
 40
0
 40
1
 40
1
 40
1
 40
1
 10
210.365488
 20
24.280749
 30
0.0
 10
222.736608
 20
24.280648
 30
0.0
 10
232.765489
 20
34.309296
 30
0.0
 10
232.765671
 20
46.680416
 30
0.0
  0
SPLINE
  5
139
100
AcDbEntity
  8
0
 62
7
100
AcDbSpline
 70
8
 71
3
 72
8
 73
4
 74
0
 40
0
 40
0
 40
0
 40
0
 40
1
 40
1
 40
1
 40
1
 10
232.765671
 20
46.680416
 30
0.0
 10
232.765671
 20
46.680416
 30
0.0
 10
232.765671
 20
46.680416
 30
0.0
 10
247.436066
 20
54.854594
 30
0.0
  0
LINE
  5
13a
100
AcDbEntity
  8
0
 62
7
100
AcDbLine
 10
247.436066
 20
54.854594
 30
0.0
 11
261.785060
 21
62.870641
 31
0.0
  0
LINE
  5
13b
100
AcDbEntity
  8
0
 62
7
100
AcDbLine
 10
261.785060
 20
62.870641
 30
0.0
 11
247.693931
 21
70.901158
 31
0.0
  0
LINE
  5
13c
100
AcDbEntity
  8
0
 62
7
100
AcDbLine
 10
247.693931
 20
70.901158
 30
0.0
 11
232.765642
 21
79.142000
 31
0.0
  0
LINE
  5
13d
100
AcDbEntity
  8
0
 62
7
100
AcDbLine
 10
232.765642
 20
79.142000
 30
0.0
 11
232.765642
 21
111.524521
 31
0.0
  0
LINE
  5
13e
100
AcDbEntity
  8
0
 62
7
100
AcDbLine
 10
232.765642
 20
111.524521
 30
0.0
 11
232.757890
 21
111.524521
 31
0.0
  0
SPLINE
  5
13f
100
AcDbEntity
  8
0
 62
7
100
AcDbSpline
 70
8
 71
3
 72
8
 73
4
 74
0
 40
0
 40
0
 40
0
 40
0
 40
1
 40
1
 40
1
 40
1
 10
232.757890
 20
111.524521
 30
0.0
 10
232.760668
 20
111.576533
 30
0.0
 10
232.763235
 20
111.628552
 30
0.0
 10
232.765642
 20
111.680583
 30
0.0
  0
SPLINE
  5
140
100
AcDbEntity
  8
0
 62
7
100
AcDbSpline
 70
8
 71
3
 72
8
 73
4
 74
0
 40
0
 40
0
 40
0
 40
0
 40
1
 40
1
 40
1
 40
1
 10
232.765642
 20
111.680583
 30
0.0
 10
232.765486
 20
124.051700
 30
0.0
 10
222.736608
 20
134.080351
 30
0.0
 10
210.365488
 20
134.080250
 30
0.0
  0
LINE
  5
141
100
AcDbEntity
  8
0
 62
7
100
AcDbLine
 10
210.365488
 20
134.080250
 30
0.0
 11
210.365488
 21
134.080250
 31
0.0
  0
SPLINE
  5
142
100
AcDbEntity
  8
0
 62
7
100
AcDbSpline
 70
8
 71
3
 72
8
 73
4
 74
0
 40
0
 40
0
 40
0
 40
0
 40
1
 40
1
 40
1
 40
1
 10
212.765571
 20
46.680496
 30
0.0
 10
212.765571
 20
46.043976
 30
0.0
 10
212.512715
 20
45.433526
 30
0.0
 10
212.062627
 20
44.983438
 30
0.0
  0
SPLINE
  5
143
100
AcDbEntity
  8
0
 62
7
100
AcDbSpline
 70
8
 71
3
 72
8
 73
4
 74
0
 40
0
 40
0
 40
0
 40
0
 40
1
 40
1
 40
1
 40
1
 10
212.062627
 20
44.983438
 30
0.0
 10
211.612540
 20
44.533351
 30
0.0
 10
211.002090
 20
44.280494
 30
0.0
 10
210.365570
 20
44.280495
 30
0.0
  0
SPLINE
  5
144
100
AcDbEntity
  8
0
 62
7
100
AcDbSpline
 70
8
 71
3
 72
8
 73
4
 74
0
 40
0
 40
0
 40
0
 40
0
 40
1
 40
1
 40
1
 40
1
 10
210.365570
 20
44.280495
 30
0.0
 10
209.040087
 20
44.280496
 30
0.0
 10
207.965571
 20
45.355013
 30
0.0
 10
207.965572
 20
46.680496
 30
0.0
  0
SPLINE
  5
145
100
AcDbEntity
  8
0
 62
7
100
AcDbSpline
 70
8
 71
3
 72
8
 73
4
 74
0
 40
0
 40
0
 40
0
 40
0
 40
1
 40
1
 40
1
 40
1
 10
207.965572
 20
46.680496
 30
0.0
 10
207.965571
 20
48.005979
 30
0.0
 10
209.040087
 20
49.080496
 30
0.0
 10
210.365570
 20
49.080497
 30
0.0
  0
SPLINE
  5
146
100
AcDbEntity
  8
0
 62
7
100
AcDbSpline
 70
8
 71
3
 72
8
 73
4
 74
0
 40
0
 40
0
 40
0
 40
0
 40
1
 40
1
 40
1
 40
1
 10
210.365570
 20
49.080497
 30
0.0
 10
211.002090
 20
49.080497
 30
0.0
 10
211.612540
 20
48.827641
 30
0.0
 10
212.062627
 20
48.377553
 30
0.0
  0
SPLINE
  5
147
100
AcDbEntity
  8
0
 62
7
100
AcDbSpline
 70
8
 71
3
 72
8
 73
4
 74
0
 40
0
 40
0
 40
0
 40
0
 40
1
 40
1
 40
1
 40
1
 10
212.062627
 20
48.377553
 30
0.0
 10
212.512715
 20
47.927465
 30
0.0
 10
212.765571
 20
47.317016
 30
0.0
 10
212.765571
 20
46.680496
 30
0.0
  0
LINE
  5
148
100
AcDbEntity
  8
0
 62
7
100
AcDbLine
 10
212.765571
 20
46.680496
 30
0.0
 11
212.765571
 21
46.680496
 31
0.0
  0
LINE
  5
149
100
AcDbEntity
  8
0
 62
7
100
AcDbLine
 10
187.865576
 20
79.124410
 30
0.0
 11
232.865573
 21
79.124410
 31
0.0
  0
LINE
  5
14a
100
AcDbEntity
  8
0
 62
7
100
AcDbLine
 10
187.967890
 20
78.493488
 30
0.0
 11
187.967890
 21
47.283743
 31
0.0
  0
LINE
  5
14b
100
AcDbEntity
  8
0
 62
7
100
AcDbLine
 10
232.967559
 20
78.493488
 30
0.0
 11
232.967559
 21
47.283743
 31
0.0
  0
SPLINE
  5
14c
100
AcDbEntity
  8
0
 62
7
100
AcDbSpline
 70
8
 71
3
 72
8
 73
4
 74
0
 40
0
 40
0
 40
0
 40
0
 40
1
 40
1
 40
1
 40
1
 10
63.710013
 20
111.680501
 30
0.0
 10
63.710013
 20
108.391816
 30
0.0
 10
62.403588
 20
105.237827
 30
0.0
 10
60.078136
 20
102.912376
 30
0.0
  0
SPLINE
  5
14d
100
AcDbEntity
  8
0
 62
7
100
AcDbSpline
 70
8
 71
3
 72
8
 73
4
 74
0
 40
0
 40
0
 40
0
 40
0
 40
1
 40
1
 40
1
 40
1
 10
60.078136
 20
102.912376
 30
0.0
 10
57.752685
 20
100.586925
 30
0.0
 10
54.598696
 20
99.280501
 30
0.0
 10
51.310011
 20
99.280501
 30
0.0
  0
SPLINE
  5
14e
100
AcDbEntity
  8
0
 62
7
100
AcDbSpline
 70
8
 71
3
 72
8
 73
4
 74
0
 40
0
 40
0
 40
0
 40
0
 40
1
 40
1
 40
1
 40
1
 10
51.310011
 20
99.280501
 30
0.0
 10
44.461680
 20
99.280501
 30
0.0
 10
38.910012
 20
104.832170
 30
0.0
 10
38.910011
 20
111.680501
 30
0.0
  0
SPLINE
  5
14f
100
AcDbEntity
  8
0
 62
7
100
AcDbSpline
 70
8
 71
3
 72
8
 73
4
 74
0
 40
0
 40
0
 40
0
 40
0
 40
1
 40
1
 40
1
 40
1
 10
38.910011
 20
111.680501
 30
0.0
 10
38.910011
 20
114.969185
 30
0.0
 10
40.216435
 20
118.123174
 30
0.0
 10
42.541886
 20
120.448626
 30
0.0
  0
SPLINE
  5
150
100
AcDbEntity
  8
0
 62
7
100
AcDbSpline
 70
8
 71
3
 72
8
 73
4
 74
0
 40
0
 40
0
 40
0
 40
0
 40
1
 40
1
 40
1
 40
1
 10
42.541886
 20
120.448626
 30
0.0
 10
44.867337
 20
122.774078
 30
0.0
 10
48.021326
 20
124.080503
 30
0.0
 10
51.310011
 20
124.080503
 30
0.0
  0
SPLINE
  5
151
100
AcDbEntity
  8
0
 62
7
100
AcDbSpline
 70
8
 71
3
 72
8
 73
4
 74
0
 40
0
 40
0
 40
0
 40
0
 40
1
 40
1
 40
1
 40
1
 10
51.310011
 20
124.080503
 30
0.0
 10
54.598696
 20
124.080503
 30
0.0
 10
57.752685
 20
122.774079
 30
0.0
 10
60.078137
 20
120.448627
 30
0.0
  0
SPLINE
  5
152
100
AcDbEntity
  8
0
 62
7
100
AcDbSpline
 70
8
 71
3
 72
8
 73
4
 74
0
 40
0
 40
0
 40
0
 40
0
 40
1
 40
1
 40
1
 40
1
 10
60.078137
 20
120.448627
 30
0.0
 10
62.403589
 20
118.123175
 30
0.0
 10
63.710014
 20
114.969186
 30
0.0
 10
63.710013
 20
111.680501
 30
0.0
  0
LINE
  5
153
100
AcDbEntity
  8
0
 62
7
100
AcDbLine
 10
63.710013
 20
111.680501
 30
0.0
 11
63.710013
 21
111.680501
 31
0.0
  0
SPLINE
  5
154
100
AcDbEntity
  8
0
 62
7
100
AcDbSpline
 70
8
 71
3
 72
8
 73
4
 74
0
 40
0
 40
0
 40
0
 40
0
 40
1
 40
1
 40
1
 40
1
 10
51.309929
 20
134.080250
 30
0.0
 10
38.939012
 20
134.080065
 30
0.0
 10
28.910447
 20
124.051499
 30
0.0
 10
28.910261
 20
111.680583
 30
0.0
  0
SPLINE
  5
155
100
AcDbEntity
  8
0
 62
7
100
AcDbSpline
 70
8
 71
3
 72
8
 73
4
 74
0
 40
0
 40
0
 40
0
 40
0
 40
1
 40
1
 40
1
 40
1
 10
28.910261
 20
111.680583
 30
0.0
 10
28.911849
 20
111.628555
 30
0.0
 10
28.913860
 20
111.576535
 30
0.0
 10
28.915950
 20
111.524521
 30
0.0
  0
LINE
  5
156
100
AcDbEntity
  8
0
 62
7
100
AcDbLine
 10
28.915950
 20
111.524521
 30
0.0
 11
28.910261
 21
111.524521
 31
0.0
  0
LINE
  5
157
100
AcDbEntity
  8
0
 62
7
100
AcDbLine
 10
28.910261
 20
111.524521
 30
0.0
 11
28.910261
 21
79.122879
 31
0.0
  0
LINE
  5
158
100
AcDbEntity
  8
0
 62
7
100
AcDbLine
 10
28.910261
 20
79.122879
 30
0.0
 11
28.910261
 21
79.114094
 31
0.0
  0
LINE
  5
159
100
AcDbEntity
  8
0
 62
7
100
AcDbLine
 10
28.910261
 20
79.114094
 30
0.0
 11
14.294617
 21
70.942499
 31
0.0
  0
LINE
  5
15a
100
AcDbEntity
  8
0
 62
7
100
AcDbLine
 10
14.294617
 20
70.942499
 30
0.0
 11
0.203488
 21
62.911982
 31
0.0
  0
LINE
  5
15b
100
AcDbEntity
  8
0
 62
7
100
AcDbLine
 10
0.203488
 20
62.911982
 30
0.0
 11
14.552482
 21
54.895935
 31
0.0
  0
LINE
  5
15c
100
AcDbEntity
  8
0
 62
7
100
AcDbLine
 10
14.552482
 20
54.895935
 30
0.0
 11
28.912331
 21
46.557941
 31
0.0
  0
SPLINE
  5
15d
100
AcDbEntity
  8
0
 62
7
100
AcDbSpline
 70
8
 71
3
 72
8
 73
4
 74
0
 40
0
 40
0
 40
0
 40
0
 40
1
 40
1
 40
1
 40
1
 10
28.912331
 20
46.557941
 30
0.0
 10
29.002130
 20
34.263380
 30
0.0
 10
38.994633
 20
24.280934
 30
0.0
 10
51.309929
 20
24.280749
 30
0.0
  0
SPLINE
  5
15e
100
AcDbEntity
  8
0
 62
7
100
AcDbSpline
 70
8
 71
3
 72
8
 73
4
 74
0
 40
0
 40
0
 40
0
 40
0
 40
1
 40
1
 40
1
 40
1
 10
51.309929
 20
24.280749
 30
0.0
 10
63.681049
 20
24.280648
 30
0.0
 10
73.709930
 20
34.309296
 30
0.0
 10
73.710112
 20
46.680416
 30
0.0
  0
SPLINE
  5
15f
100
AcDbEntity
  8
0
 62
7
100
AcDbSpline
 70
8
 71
3
 72
8
 73
4
 74
0
 40
0
 40
0
 40
0
 40
0
 40
1
 40
1
 40
1
 40
1
 10
73.710112
 20
46.680416
 30
0.0
 10
73.710112
 20
46.680416
 30
0.0
 10
73.710112
 20
46.680416
 30
0.0
 10
88.380506
 20
54.854594
 30
0.0
  0
LINE
  5
160
100
AcDbEntity
  8
0
 62
7
100
AcDbLine
 10
88.380506
 20
54.854594
 30
0.0
 11
102.729501
 21
62.870641
 31
0.0
  0
LINE
  5
161
100
AcDbEntity
  8
0
 62
7
100
AcDbLine
 10
102.729501
 20
62.870641
 30
0.0
 11
88.638372
 21
70.901158
 31
0.0
  0
LINE
  5
162
100
AcDbEntity
  8
0
 62
7
100
AcDbLine
 10
88.638372
 20
70.901158
 30
0.0
 11
73.710083
 21
79.142000
 31
0.0
  0
LINE
  5
163
100
AcDbEntity
  8
0
 62
7
100
AcDbLine
 10
73.710083
 20
79.142000
 30
0.0
 11
73.710083
 21
111.524521
 31
0.0
  0
LINE
  5
164
100
AcDbEntity
  8
0
 62
7
100
AcDbLine
 10
73.710083
 20
111.524521
 30
0.0
 11
73.702331
 21
111.524521
 31
0.0
  0
SPLINE
  5
165
100
AcDbEntity
  8
0
 62
7
100
AcDbSpline
 70
8
 71
3
 72
8
 73
4
 74
0
 40
0
 40
0
 40
0
 40
0
 40
1
 40
1
 40
1
 40
1
 10
73.702331
 20
111.524521
 30
0.0
 10
73.705109
 20
111.576533
 30
0.0
 10
73.707675
 20
111.628552
 30
0.0
 10
73.710083
 20
111.680583
 30
0.0
  0
SPLINE
  5
166
100
AcDbEntity
  8
0
 62
7
100
AcDbSpline
 70
8
 71
3
 72
8
 73
4
 74
0
 40
0
 40
0
 40
0
 40
0
 40
1
 40
1
 40
1
 40
1
 10
73.710083
 20
111.680583
 30
0.0
 10
73.709927
 20
124.051700
 30
0.0
 10
63.681049
 20
134.080351
 30
0.0
 10
51.309929
 20
134.080250
 30
0.0
  0
LINE
  5
167
100
AcDbEntity
  8
0
 62
7
100
AcDbLine
 10
51.309929
 20
134.080250
 30
0.0
 11
51.309929
 21
134.080250
 31
0.0
  0
SPLINE
  5
168
100
AcDbEntity
  8
0
 62
7
100
AcDbSpline
 70
8
 71
3
 72
8
 73
4
 74
0
 40
0
 40
0
 40
0
 40
0
 40
1
 40
1
 40
1
 40
1
 10
53.710012
 20
46.680496
 30
0.0
 10
53.710012
 20
46.043976
 30
0.0
 10
53.457156
 20
45.433526
 30
0.0
 10
53.007068
 20
44.983438
 30
0.0
  0
SPLINE
  5
169
100
AcDbEntity
  8
0
 62
7
100
AcDbSpline
 70
8
 71
3
 72
8
 73
4
 74
0
 40
0
 40
0
 40
0
 40
0
 40
1
 40
1
 40
1
 40
1
 10
53.007068
 20
44.983438
 30
0.0
 10
52.556981
 20
44.533351
 30
0.0
 10
51.946531
 20
44.280494
 30
0.0
 10
51.310011
 20
44.280495
 30
0.0
  0
SPLINE
  5
16a
100
AcDbEntity
  8
0
 62
7
100
AcDbSpline
 70
8
 71
3
 72
8
 73
4
 74
0
 40
0
 40
0
 40
0
 40
0
 40
1
 40
1
 40
1
 40
1
 10
51.310011
 20
44.280495
 30
0.0
 10
49.984528
 20
44.280496
 30
0.0
 10
48.910012
 20
45.355013
 30
0.0
 10
48.910012
 20
46.680496
 30
0.0
  0
SPLINE
  5
16b
100
AcDbEntity
  8
0
 62
7
100
AcDbSpline
 70
8
 71
3
 72
8
 73
4
 74
0
 40
0
 40
0
 40
0
 40
0
 40
1
 40
1
 40
1
 40
1
 10
48.910012
 20
46.680496
 30
0.0
 10
48.910012
 20
48.005979
 30
0.0
 10
49.984528
 20
49.080496
 30
0.0
 10
51.310011
 20
49.080497
 30
0.0
  0
SPLINE
  5
16c
100
AcDbEntity
  8
0
 62
7
100
AcDbSpline
 70
8
 71
3
 72
8
 73
4
 74
0
 40
0
 40
0
 40
0
 40
0
 40
1
 40
1
 40
1
 40
1
 10
51.310011
 20
49.080497
 30
0.0
 10
51.946531
 20
49.080497
 30
0.0
 10
52.556981
 20
48.827641
 30
0.0
 10
53.007068
 20
48.377553
 30
0.0
  0
SPLINE
  5
16d
100
AcDbEntity
  8
0
 62
7
100
AcDbSpline
 70
8
 71
3
 72
8
 73
4
 74
0
 40
0
 40
0
 40
0
 40
0
 40
1
 40
1
 40
1
 40
1
 10
53.007068
 20
48.377553
 30
0.0
 10
53.457156
 20
47.927465
 30
0.0
 10
53.710012
 20
47.317016
 30
0.0
 10
53.710012
 20
46.680496
 30
0.0
  0
LINE
  5
16e
100
AcDbEntity
  8
0
 62
7
100
AcDbLine
 10
53.710012
 20
46.680496
 30
0.0
 11
53.710012
 21
46.680496
 31
0.0
  0
LINE
  5
16f
100
AcDbEntity
  8
0
 62
7
100
AcDbLine
 10
28.810016
 20
79.124410
 30
0.0
 11
73.810013
 21
79.124410
 31
0.0
  0
LINE
  5
170
100
AcDbEntity
  8
0
 62
7
100
AcDbLine
 10
28.912331
 20
78.493488
 30
0.0
 11
28.912331
 21
47.283743
 31
0.0
  0
LINE
  5
171
100
AcDbEntity
  8
0
 62
7
100
AcDbLine
 10
73.912000
 20
78.493488
 30
0.0
 11
73.912000
 21
47.283743
 31
0.0
  0
SPLINE
  5
172
100
AcDbEntity
  8
0
 62
7
100
AcDbSpline
 70
8
 71
3
 72
8
 73
4
 74
0
 40
0
 40
0
 40
0
 40
0
 40
1
 40
1
 40
1
 40
1
 10
114.077419
 20
169.339752
 30
0.0
 10
117.366104
 20
169.339751
 30
0.0
 10
120.520092
 20
168.033325
 30
0.0
 10
122.845543
 20
165.707873
 30
0.0
  0
SPLINE
  5
173
100
AcDbEntity
  8
0
 62
7
100
AcDbSpline
 70
8
 71
3
 72
8
 73
4
 74
0
 40
0
 40
0
 40
0
 40
0
 40
1
 40
1
 40
1
 40
1
 10
122.845543
 20
165.707873
 30
0.0
 10
125.170994
 20
163.382421
 30
0.0
 10
126.477417
 20
160.228432
 30
0.0
 10
126.477416
 20
156.939747
 30
0.0
  0
SPLINE
  5
174
100
AcDbEntity
  8
0
 62
7
100
AcDbSpline
 70
8
 71
3
 72
8
 73
4
 74
0
 40
0
 40
0
 40
0
 40
0
 40
1
 40
1
 40
1
 40
1
 10
126.477416
 20
156.939747
 30
0.0
 10
126.477416
 20
150.091418
 30
0.0
 10
120.925749
 20
144.539750
 30
0.0
 10
114.077419
 20
144.539748
 30
0.0
  0
SPLINE
  5
175
100
AcDbEntity
  8
0
 62
7
100
AcDbSpline
 70
8
 71
3
 72
8
 73
4
 74
0
 40
0
 40
0
 40
0
 40
0
 40
1
 40
1
 40
1
 40
1
 10
114.077419
 20
144.539748
 30
0.0
 10
110.788734
 20
144.539746
 30
0.0
 10
107.634744
 20
145.846171
 30
0.0
 10
105.309292
 20
148.171622
 30
0.0
  0
SPLINE
  5
176
100
AcDbEntity
  8
0
 62
7
100
AcDbSpline
 70
8
 71
3
 72
8
 73
4
 74
0
 40
0
 40
0
 40
0
 40
0
 40
1
 40
1
 40
1
 40
1
 10
105.309292
 20
148.171622
 30
0.0
 10
102.983840
 20
150.497073
 30
0.0
 10
101.677415
 20
153.651062
 30
0.0
 10
101.677414
 20
156.939747
 30
0.0
  0
SPLINE
  5
177
100
AcDbEntity
  8
0
 62
7
100
AcDbSpline
 70
8
 71
3
 72
8
 73
4
 74
0
 40
0
 40
0
 40
0
 40
0
 40
1
 40
1
 40
1
 40
1
 10
101.677414
 20
156.939747
 30
0.0
 10
101.677413
 20
160.228433
 30
0.0
 10
102.983838
 20
163.382424
 30
0.0
 10
105.309290
 20
165.707876
 30
0.0
  0
SPLINE
  5
178
100
AcDbEntity
  8
0
 62
7
100
AcDbSpline
 70
8
 71
3
 72
8
 73
4
 74
0
 40
0
 40
0
 40
0
 40
0
 40
1
 40
1
 40
1
 40
1
 10
105.309290
 20
165.707876
 30
0.0
 10
107.634743
 20
168.033328
 30
0.0
 10
110.788733
 20
169.339753
 30
0.0
 10
114.077419
 20
169.339752
 30
0.0
  0
LINE
  5
179
100
AcDbEntity
  8
0
 62
7
100
AcDbLine
 10
114.077419
 20
169.339752
 30
0.0
 11
114.077419
 21
169.339752
 31
0.0
  0
SPLINE
  5
17a
100
AcDbEntity
  8
0
 62
7
100
AcDbSpline
 70
8
 71
3
 72
8
 73
4
 74
0
 40
0
 40
0
 40
0
 40
0
 40
1
 40
1
 40
1
 40
1
 10
91.677667
 20
156.939665
 30
0.0
 10
91.677855
 20
144.568749
 30
0.0
 10
101.706421
 20
134.540183
 30
0.0
 10
114.077337
 20
134.539998
 30
0.0
  0
SPLINE
  5
17b
100
AcDbEntity
  8
0
 62
7
100
AcDbSpline
 70
8
 71
3
 72
8
 73
4
 74
0
 40
0
 40
0
 40
0
 40
0
 40
1
 40
1
 40
1
 40
1
 10
114.077337
 20
134.539998
 30
0.0
 10
114.129365
 20
134.541585
 30
0.0
 10
114.181387
 20
134.543596
 30
0.0
 10
114.233402
 20
134.545686
 30
0.0
  0
LINE
  5
17c
100
AcDbEntity
  8
0
 62
7
100
AcDbLine
 10
114.233402
 20
134.545686
 30
0.0
 11
114.233402
 21
134.539998
 31
0.0
  0
LINE
  5
17d
100
AcDbEntity
  8
0
 62
7
100
AcDbLine
 10
114.233402
 20
134.539998
 30
0.0
 11
146.635041
 21
134.539998
 31
0.0
  0
LINE
  5
17e
100
AcDbEntity
  8
0
 62
7
100
AcDbLine
 10
146.635041
 20
134.539998
 30
0.0
 11
146.643826
 21
134.539998
 31
0.0
  0
LINE
  5
17f
100
AcDbEntity
  8
0
 62
7
100
AcDbLine
 10
146.643826
 20
134.539998
 30
0.0
 11
154.815424
 21
119.924351
 31
0.0
  0
LINE
  5
180
100
AcDbEntity
  8
0
 62
7
100
AcDbLine
 10
154.815424
 20
119.924351
 30
0.0
 11
162.845940
 21
105.833225
 31
0.0
  0
LINE
  5
181
100
AcDbEntity
  8
0
 62
7
100
AcDbLine
 10
162.845940
 20
105.833225
 30
0.0
 11
170.861985
 21
120.182219
 31
0.0
  0
LINE
  5
182
100
AcDbEntity
  8
0
 62
7
100
AcDbLine
 10
170.861985
 20
120.182219
 30
0.0
 11
179.199982
 21
134.542067
 31
0.0
  0
SPLINE
  5
183
100
AcDbEntity
  8
0
 62
7
100
AcDbSpline
 70
8
 71
3
 72
8
 73
4
 74
0
 40
0
 40
0
 40
0
 40
0
 40
1
 40
1
 40
1
 40
1
 10
179.199982
 20
134.542067
 30
0.0
 10
191.494542
 20
134.631867
 30
0.0
 10
201.476986
 20
144.624369
 30
0.0
 10
201.477174
 20
156.939665
 30
0.0
  0
SPLINE
  5
184
100
AcDbEntity
  8
0
 62
7
100
AcDbSpline
 70
8
 71
3
 72
8
 73
4
 74
0
 40
0
 40
0
 40
0
 40
0
 40
1
 40
1
 40
1
 40
1
 10
201.477174
 20
156.939665
 30
0.0
 10
201.477274
 20
169.310786
 30
0.0
 10
191.448624
 20
179.339666
 30
0.0
 10
179.077435
 20
179.339780
 30
0.0
  0
SPLINE
  5
185
100
AcDbEntity
  8
0
 62
7
100
AcDbSpline
 70
8
 71
3
 72
8
 73
4
 74
0
 40
0
 40
0
 40
0
 40
0
 40
1
 40
1
 40
1
 40
1
 10
179.077435
 20
179.339780
 30
0.0
 10
179.077435
 20
179.339780
 30
0.0
 10
179.077435
 20
179.339780
 30
0.0
 10
170.903260
 20
194.010175
 30
0.0
  0
LINE
  5
186
100
AcDbEntity
  8
0
 62
7
100
AcDbLine
 10
170.903260
 20
194.010175
 30
0.0
 11
162.887213
 21
208.359169
 31
0.0
  0
LINE
  5
187
100
AcDbEntity
  8
0
 62
7
100
AcDbLine
 10
162.887213
 20
208.359169
 30
0.0
 11
154.856693
 21
194.268038
 31
0.0
  0
LINE
  5
188
100
AcDbEntity
  8
0
 62
7
100
AcDbLine
 10
154.856693
 20
194.268038
 30
0.0
 11
146.615854
 21
179.339751
 31
0.0
  0
LINE
  5
189
100
AcDbEntity
  8
0
 62
7
100
AcDbLine
 10
146.615854
 20
179.339751
 30
0.0
 11
114.233344
 21
179.339751
 31
0.0
  0
LINE
  5
18a
100
AcDbEntity
  8
0
 62
7
100
AcDbLine
 10
114.233344
 20
179.339751
 30
0.0
 11
114.233344
 21
179.331998
 31
0.0
  0
SPLINE
  5
18b
100
AcDbEntity
  8
0
 62
7
100
AcDbSpline
 70
8
 71
3
 72
8
 73
4
 74
0
 40
0
 40
0
 40
0
 40
0
 40
1
 40
1
 40
1
 40
1
 10
114.233344
 20
179.331998
 30
0.0
 10
114.181332
 20
179.334776
 30
0.0
 10
114.129309
 20
179.337343
 30
0.0
 10
114.077279
 20
179.339751
 30
0.0
  0
SPLINE
  5
18c
100
AcDbEntity
  8
0
 62
7
100
AcDbSpline
 70
8
 71
3
 72
8
 73
4
 74
0
 40
0
 40
0
 40
0
 40
0
 40
1
 40
1
 40
1
 40
1
 10
114.077279
 20
179.339751
 30
0.0
 10
101.706161
 20
179.339595
 30
0.0
 10
91.677514
 20
169.310717
 30
0.0
 10
91.677554
 20
156.939652
 30
0.0
  0
LINE
  5
18d
100
AcDbEntity
  8
0
 62
7
100
AcDbLine
 10
91.677554
 20
156.939652
 30
0.0
 11
91.677667
 21
156.939665
 31
0.0
  0
SPLINE
  5
18e
100
AcDbEntity
  8
0
 62
7
100
AcDbSpline
 70
8
 71
3
 72
8
 73
4
 74
0
 40
0
 40
0
 40
0
 40
0
 40
1
 40
1
 40
1
 40
1
 10
179.077422
 20
159.339748
 30
0.0
 10
179.713942
 20
159.339749
 30
0.0
 10
180.324392
 20
159.086892
 30
0.0
 10
180.774480
 20
158.636804
 30
0.0
  0
SPLINE
  5
18f
100
AcDbEntity
  8
0
 62
7
100
AcDbSpline
 70
8
 71
3
 72
8
 73
4
 74
0
 40
0
 40
0
 40
0
 40
0
 40
1
 40
1
 40
1
 40
1
 10
180.774480
 20
158.636804
 30
0.0
 10
181.224567
 20
158.186715
 30
0.0
 10
181.477424
 20
157.576265
 30
0.0
 10
181.477423
 20
156.939745
 30
0.0
  0
SPLINE
  5
190
100
AcDbEntity
  8
0
 62
7
100
AcDbSpline
 70
8
 71
3
 72
8
 73
4
 74
0
 40
0
 40
0
 40
0
 40
0
 40
1
 40
1
 40
1
 40
1
 10
181.477423
 20
156.939745
 30
0.0
 10
181.477420
 20
155.614263
 30
0.0
 10
180.402904
 20
154.539748
 30
0.0
 10
179.077422
 20
154.539749
 30
0.0
  0
SPLINE
  5
191
100
AcDbEntity
  8
0
 62
7
100
AcDbSpline
 70
8
 71
3
 72
8
 73
4
 74
0
 40
0
 40
0
 40
0
 40
0
 40
1
 40
1
 40
1
 40
1
 10
179.077422
 20
154.539749
 30
0.0
 10
177.751939
 20
154.539750
 30
0.0
 10
176.677424
 20
155.614265
 30
0.0
 10
176.677423
 20
156.939747
 30
0.0
  0
SPLINE
  5
192
100
AcDbEntity
  8
0
 62
7
100
AcDbSpline
 70
8
 71
3
 72
8
 73
4
 74
0
 40
0
 40
0
 40
0
 40
0
 40
1
 40
1
 40
1
 40
1
 10
176.677423
 20
156.939747
 30
0.0
 10
176.677423
 20
158.265230
 30
0.0
 10
177.751938
 20
159.339747
 30
0.0
 10
179.077422
 20
159.339748
 30
0.0
  0
LINE
  5
193
100
AcDbEntity
  8
0
 62
7
100
AcDbLine
 10
179.077422
 20
159.339748
 30
0.0
 11
179.077422
 21
159.339748
 31
0.0
  0
LINE
  5
194
100
AcDbEntity
  8
0
 62
7
100
AcDbLine
 10
146.633507
 20
134.439753
 30
0.0
 11
146.633507
 21
179.439750
 31
0.0
  0
LINE
  5
195
100
AcDbEntity
  8
0
 62
7
100
AcDbLine
 10
147.264430
 20
134.542067
 30
0.0
 11
178.474174
 21
134.542067
 31
0.0
  0
LINE
  5
196
100
AcDbEntity
  8
0
 62
7
100
AcDbLine
 10
147.264430
 20
179.541736
 30
0.0
 11
178.474174
 21
179.541736
 31
0.0
  0
ENDSEC
  0
SECTION
  2
OBJECTS
  0
DICTIONARY
  5
C
330
0
100
AcDbDictionary
  3
ACAD_GROUP
350
D
  3
ACAD_MLINESTYLE
350
17
  0
DICTIONARY
  5
D
330
C
100
AcDbDictionary
  0
DICTIONARY
  5
1A
330
C
100
AcDbDictionary
  0
DICTIONARY
  5
17
330
C
100
AcDbDictionary
  3
STANDARD
350
18
  0
DICTIONARY
  5
19
330
C
100
AcDbDictionary
  0
ENDSEC
  0
EOF
