  0
SECTION
  2
HEADER
  9
$ACADVER
  1
AC1014
  9
$HANDSEED
  5
FFFF
  9
$MEASUREMENT
 70
     1
  0
ENDSEC
  0
SECTION
  2
TABLES
  0
TABLE
  2
VPORT
  5
8
330
0
100
AcDbSymbolTable
 70
     4
  0
VPORT
  5
2E
330
8
100
AcDbSymbolTableRecord
100
AcDbViewportTableRecord
  2
*ACTIVE
 70
     0
 10
0.0
 20
0.0
 11
1.0
 21
1.0
 12
210.0
 22
148.5
 13
0.0
 23
0.0
 14
10.0
 24
10.0
 15
10.0
 25
10.0
 16
0.0
 26
0.0
 36
1.0
 17
0.0
 27
0.0
 37
0.0
 40
341.0
 41
1.24
 42
50.0
 43
0.0
 44
0.0
 50
0.0
 51
0.0
 71
     0
 72
   100
 73
     1
 74
     3
 75
     0
 76
     0
 77
     0
 78
     0
  0
ENDTAB
  0
TABLE
  2
LTYPE
  5
5
330
0
100
AcDbSymbolTable
 70
     1
  0
LTYPE
  5
14
330
5
100
AcDbSymbolTableRecord
100
AcDbLinetypeTableRecord
  2
BYBLOCK
 70
     0
  3

 72
    65
 73
     0
 40
0.0
  0
LTYPE
  5
15
330
5
100
AcDbSymbolTableRecord
100
AcDbLinetypeTableRecord
  2
BYLAYER
 70
     0
  3

 72
    65
 73
     0
 40
0.0
  0
LTYPE
  5
16
330
5
100
AcDbSymbolTableRecord
100
AcDbLinetypeTableRecord
  2
CONTINUOUS
 70
     0
  3
Solid line
 72
    65
 73
     0
 40
0.0
  0
ENDTAB
  0
TABLE
  2
LAYER
  5
2
100
AcDbSymbolTable
 70
1
  0
LAYER
  5
50
100
AcDbSymbolTableRecord
100
AcDbLayerTableRecord
  2
0
 70
0
  6
CONTINUOUS
  0
ENDTAB
  0
TABLE
  2
STYLE
  5
3
330
0
100
AcDbSymbolTable
 70
     1
  0
STYLE
  5
11
330
3
100
AcDbSymbolTableRecord
100
AcDbTextStyleTableRecord
  2
STANDARD
 70
     0
 40
0.0
 41
1.0
 50
0.0
 71
     0
 42
2.5
  3
txt
  4

  0
ENDTAB
  0
TABLE
  2
VIEW
  5
6
330
0
100
AcDbSymbolTable
 70
     0
  0
ENDTAB
  0
TABLE
  2
UCS
  5
7
330
0
100
AcDbSymbolTable
 70
     0
  0
ENDTAB
  0
TABLE
  2
APPID
  5
9
330
0
100
AcDbSymbolTable
 70
     2
  0
APPID
  5
12
330
9
100
AcDbSymbolTableRecord
100
AcDbRegAppTableRecord
  2
ACAD
 70
     0
  0
ENDTAB
  0
TABLE
  2
DIMSTYLE
  5
A
330
0
100
AcDbSymbolTable
 70
     1
  0
DIMSTYLE
105
27
330
A
100
AcDbSymbolTableRecord
100
AcDbDimStyleTableRecord
  2
ISO-25
 70
     0
  3

  4

  5

  6

  7

 40
1.0
 41
2.5
 42
0.625
 43
3.75
 44
1.25
 45
0.0
 46
0.0
 47
0.0
 48
0.0
140
2.5
141
2.5
142
0.0
143
0.03937007874016
144
1.0
145
0.0
146
1.0
147
0.625
 71
     0
 72
     0
 73
     0
 74
     0
 75
     0
 76
     0
 77
     1
 78
     8
170
     0
171
     3
172
     1
173
     0
174
     0
175
     0
176
     0
177
     0
178
     0
270
     2
271
     2
272
     2
273
     2
274
     3
340
11
275
     0
280
     0
281
     0
282
     0
283
     0
284
     8
285
     0
286
     0
287
     3
288
     0
  0
ENDTAB
  0
TABLE
  2
BLOCK_RECORD
  5
1
330
0
100
AcDbSymbolTable
 70
     1
  0
BLOCK_RECORD
  5
1F
330
1
100
AcDbSymbolTableRecord
100
AcDbBlockTableRecord
  2
*MODEL_SPACE
  0
BLOCK_RECORD
  5
1B
330
1
100
AcDbSymbolTableRecord
100
AcDbBlockTableRecord
  2
*PAPER_SPACE
  0
ENDTAB
  0
ENDSEC
  0
SECTION
  2
BLOCKS
  0
BLOCK
  5
20
330
1F
100
AcDbEntity
  8
0
100
AcDbBlockBegin
  2
*MODEL_SPACE
 70
     0
 10
0.0
 20
0.0
 30
0.0
  3
*MODEL_SPACE
  1

  0
ENDBLK
  5
21
330
1F
100
AcDbEntity
  8
0
100
AcDbBlockEnd
  0
BLOCK
  5
1C
330
1B
100
AcDbEntity
 67
     1
  8
0
100
AcDbBlockBegin
  2
*PAPER_SPACE
  1

  0
ENDBLK
  5
1D
330
1B
100
AcDbEntity
 67
     1
  8
0
100
AcDbBlockEnd
  0
ENDSEC
  0
SECTION
  2
ENTITIES
  0
SPLINE
  5
100
100
AcDbEntity
  8
0
 62
7
100
AcDbSpline
 70
8
 71
3
 72
8
 73
4
 74
0
 40
0
 40
0
 40
0
 40
0
 40
1
 40
1
 40
1
 40
1
 10
108.710108
 20
65.222566
 30
0.0
 10
108.710109
 20
61.933881
 30
0.0
 10
107.403684
 20
58.779892
 30
0.0
 10
105.078232
 20
56.454440
 30
0.0
  0
SPLINE
  5
101
100
AcDbEntity
  8
0
 62
7
100
AcDbSpline
 70
8
 71
3
 72
8
 73
4
 74
0
 40
0
 40
0
 40
0
 40
0
 40
1
 40
1
 40
1
 40
1
 10
105.078232
 20
56.454440
 30
0.0
 10
102.752780
 20
54.128989
 30
0.0
 10
99.598791
 20
52.822564
 30
0.0
 10
96.310106
 20
52.822565
 30
0.0
  0
SPLINE
  5
102
100
AcDbEntity
  8
0
 62
7
100
AcDbSpline
 70
8
 71
3
 72
8
 73
4
 74
0
 40
0
 40
0
 40
0
 40
0
 40
1
 40
1
 40
1
 40
1
 10
96.310106
 20
52.822565
 30
0.0
 10
93.021421
 20
52.822565
 30
0.0
 10
89.867433
 20
54.128990
 30
0.0
 10
87.541982
 20
56.454441
 30
0.0
  0
SPLINE
  5
103
100
AcDbEntity
  8
0
 62
7
100
AcDbSpline
 70
8
 71
3
 72
8
 73
4
 74
0
 40
0
 40
0
 40
0
 40
0
 40
1
 40
1
 40
1
 40
1
 10
87.541982
 20
56.454441
 30
0.0
 10
85.216531
 20
58.779893
 30
0.0
 10
83.910106
 20
61.933882
 30
0.0
 10
83.910106
 20
65.222566
 30
0.0
  0
SPLINE
  5
104
100
AcDbEntity
  8
0
 62
7
100
AcDbSpline
 70
8
 71
3
 72
8
 73
4
 74
0
 40
0
 40
0
 40
0
 40
0
 40
1
 40
1
 40
1
 40
1
 10
83.910106
 20
65.222566
 30
0.0
 10
83.910107
 20
72.070897
 30
0.0
 10
89.461776
 20
77.622565
 30
0.0
 10
96.310106
 20
77.622566
 30
0.0
  0
SPLINE
  5
105
100
AcDbEntity
  8
0
 62
7
100
AcDbSpline
 70
8
 71
3
 72
8
 73
4
 74
0
 40
0
 40
0
 40
0
 40
0
 40
1
 40
1
 40
1
 40
1
 10
96.310106
 20
77.622566
 30
0.0
 10
99.598791
 20
77.622566
 30
0.0
 10
102.752780
 20
76.316142
 30
0.0
 10
105.078231
 20
73.990691
 30
0.0
  0
SPLINE
  5
106
100
AcDbEntity
  8
0
 62
7
100
AcDbSpline
 70
8
 71
3
 72
8
 73
4
 74
0
 40
0
 40
0
 40
0
 40
0
 40
1
 40
1
 40
1
 40
1
 10
105.078231
 20
73.990691
 30
0.0
 10
107.403683
 20
71.665240
 30
0.0
 10
108.710108
 20
68.511251
 30
0.0
 10
108.710108
 20
65.222566
 30
0.0
  0
LINE
  5
107
100
AcDbEntity
  8
0
 62
7
100
AcDbLine
 10
108.710108
 20
65.222566
 30
0.0
 11
108.710108
 21
65.222566
 31
0.0
  0
LINE
  5
108
100
AcDbEntity
  8
0
 62
7
100
AcDbLine
 10
118.710178
 20
65.066584
 30
0.0
 11
118.702426
 21
65.066584
 31
0.0
  0
SPLINE
  5
109
100
AcDbEntity
  8
0
 62
7
100
AcDbSpline
 70
8
 71
3
 72
8
 73
4
 74
0
 40
0
 40
0
 40
0
 40
0
 40
1
 40
1
 40
1
 40
1
 10
118.702426
 20
65.066584
 30
0.0
 10
118.705204
 20
65.118596
 30
0.0
 10
118.707770
 20
65.170618
 30
0.0
 10
118.710178
 20
65.222646
 30
0.0
  0
SPLINE
  5
10a
100
AcDbEntity
  8
0
 62
7
100
AcDbSpline
 70
8
 71
3
 72
8
 73
4
 74
0
 40
0
 40
0
 40
0
 40
0
 40
1
 40
1
 40
1
 40
1
 10
118.710178
 20
65.222646
 30
0.0
 10
118.710022
 20
77.593766
 30
0.0
 10
108.681144
 20
87.622414
 30
0.0
 10
96.310024
 20
87.622313
 30
0.0
  0
SPLINE
  5
10b
100
AcDbEntity
  8
0
 62
7
100
AcDbSpline
 70
8
 71
3
 72
8
 73
4
 74
0
 40
0
 40
0
 40
0
 40
0
 40
1
 40
1
 40
1
 40
1
 10
96.310024
 20
87.622313
 30
0.0
 10
83.939107
 20
87.622128
 30
0.0
 10
73.910542
 20
77.593562
 30
0.0
 10
73.910357
 20
65.222646
 30
0.0
  0
SPLINE
  5
10c
100
AcDbEntity
  8
0
 62
7
100
AcDbSpline
 70
8
 71
3
 72
8
 73
4
 74
0
 40
0
 40
0
 40
0
 40
0
 40
1
 40
1
 40
1
 40
1
 10
73.910357
 20
65.222646
 30
0.0
 10
73.911944
 20
65.170618
 30
0.0
 10
73.913955
 20
65.118598
 30
0.0
 10
73.916045
 20
65.066584
 30
0.0
  0
LINE
  5
10d
100
AcDbEntity
  8
0
 62
7
100
AcDbLine
 10
73.916045
 20
65.066584
 30
0.0
 11
73.910357
 21
65.066584
 31
0.0
  0
LINE
  5
10e
100
AcDbEntity
  8
0
 62
7
100
AcDbLine
 10
73.910357
 20
32.664942
 30
0.0
 11
73.910357
 21
32.656158
 31
0.0
  0
SPLINE
  5
10f
100
AcDbEntity
  8
0
 62
7
100
AcDbSpline
 70
8
 71
3
 72
8
 73
4
 74
0
 40
0
 40
0
 40
0
 40
0
 40
1
 40
1
 40
1
 40
1
 10
63.710013
 20
65.222564
 30
0.0
 10
63.710013
 20
61.933879
 30
0.0
 10
62.403587
 20
58.779890
 30
0.0
 10
60.078136
 20
56.454440
 30
0.0
  0
SPLINE
  5
110
100
AcDbEntity
  8
0
 62
7
100
AcDbSpline
 70
8
 71
3
 72
8
 73
4
 74
0
 40
0
 40
0
 40
0
 40
0
 40
1
 40
1
 40
1
 40
1
 10
60.078136
 20
56.454440
 30
0.0
 10
57.752684
 20
54.128989
 30
0.0
 10
54.598695
 20
52.822564
 30
0.0
 10
51.310011
 20
52.822565
 30
0.0
  0
SPLINE
  5
111
100
AcDbEntity
  8
0
 62
7
100
AcDbSpline
 70
8
 71
3
 72
8
 73
4
 74
0
 40
0
 40
0
 40
0
 40
0
 40
1
 40
1
 40
1
 40
1
 10
51.310011
 20
52.822565
 30
0.0
 10
44.461681
 20
52.822565
 30
0.0
 10
38.910012
 20
58.374233
 30
0.0
 10
38.910011
 20
65.222564
 30
0.0
  0
SPLINE
  5
112
100
AcDbEntity
  8
0
 62
7
100
AcDbSpline
 70
8
 71
3
 72
8
 73
4
 74
0
 40
0
 40
0
 40
0
 40
0
 40
1
 40
1
 40
1
 40
1
 10
38.910011
 20
65.222564
 30
0.0
 10
38.910011
 20
68.511248
 30
0.0
 10
40.216435
 20
71.665237
 30
0.0
 10
42.541886
 20
73.990689
 30
0.0
  0
SPLINE
  5
113
100
AcDbEntity
  8
0
 62
7
100
AcDbSpline
 70
8
 71
3
 72
8
 73
4
 74
0
 40
0
 40
0
 40
0
 40
0
 40
1
 40
1
 40
1
 40
1
 10
42.541886
 20
73.990689
 30
0.0
 10
44.867337
 20
76.316140
 30
0.0
 10
48.021326
 20
77.622566
 30
0.0
 10
51.310011
 20
77.622566
 30
0.0
  0
SPLINE
  5
114
100
AcDbEntity
  8
0
 62
7
100
AcDbSpline
 70
8
 71
3
 72
8
 73
4
 74
0
 40
0
 40
0
 40
0
 40
0
 40
1
 40
1
 40
1
 40
1
 10
51.310011
 20
77.622566
 30
0.0
 10
54.598696
 20
77.622566
 30
0.0
 10
57.752685
 20
76.316141
 30
0.0
 10
60.078137
 20
73.990690
 30
0.0
  0
SPLINE
  5
115
100
AcDbEntity
  8
0
 62
7
100
AcDbSpline
 70
8
 71
3
 72
8
 73
4
 74
0
 40
0
 40
0
 40
0
 40
0
 40
1
 40
1
 40
1
 40
1
 10
60.078137
 20
73.990690
 30
0.0
 10
62.403589
 20
71.665238
 30
0.0
 10
63.710014
 20
68.511249
 30
0.0
 10
63.710013
 20
65.222564
 30
0.0
  0
LINE
  5
116
100
AcDbEntity
  8
0
 62
7
100
AcDbLine
 10
63.710013
 20
65.222564
 30
0.0
 11
63.710013
 21
65.222564
 31
0.0
  0
LINE
  5
117
100
AcDbEntity
  8
0
 62
7
100
AcDbLine
 10
73.710083
 20
65.066584
 30
0.0
 11
73.702331
 21
65.066584
 31
0.0
  0
SPLINE
  5
118
100
AcDbEntity
  8
0
 62
7
100
AcDbSpline
 70
8
 71
3
 72
8
 73
4
 74
0
 40
0
 40
0
 40
0
 40
0
 40
1
 40
1
 40
1
 40
1
 10
73.702331
 20
65.066584
 30
0.0
 10
73.705109
 20
65.118596
 30
0.0
 10
73.707675
 20
65.170615
 30
0.0
 10
73.710083
 20
65.222646
 30
0.0
  0
SPLINE
  5
119
100
AcDbEntity
  8
0
 62
7
100
AcDbSpline
 70
8
 71
3
 72
8
 73
4
 74
0
 40
0
 40
0
 40
0
 40
0
 40
1
 40
1
 40
1
 40
1
 10
73.710083
 20
65.222646
 30
0.0
 10
73.709927
 20
77.593763
 30
0.0
 10
63.681049
 20
87.622414
 30
0.0
 10
51.309929
 20
87.622313
 30
0.0
  0
SPLINE
  5
11a
100
AcDbEntity
  8
0
 62
7
100
AcDbSpline
 70
8
 71
3
 72
8
 73
4
 74
0
 40
0
 40
0
 40
0
 40
0
 40
1
 40
1
 40
1
 40
1
 10
51.309929
 20
87.622313
 30
0.0
 10
38.939012
 20
87.622128
 30
0.0
 10
28.910447
 20
77.593562
 30
0.0
 10
28.910261
 20
65.222646
 30
0.0
  0
SPLINE
  5
11b
100
AcDbEntity
  8
0
 62
7
100
AcDbSpline
 70
8
 71
3
 72
8
 73
4
 74
0
 40
0
 40
0
 40
0
 40
0
 40
1
 40
1
 40
1
 40
1
 10
28.910261
 20
65.222646
 30
0.0
 10
28.911849
 20
65.170618
 30
0.0
 10
28.913860
 20
65.118598
 30
0.0
 10
28.915950
 20
65.066584
 30
0.0
  0
LINE
  5
11c
100
AcDbEntity
  8
0
 62
7
100
AcDbLine
 10
28.915950
 20
65.066584
 30
0.0
 11
28.910261
 21
65.066584
 31
0.0
  0
LINE
  5
11d
100
AcDbEntity
  8
0
 62
7
100
AcDbLine
 10
28.910261
 20
65.066584
 30
0.0
 11
28.910261
 21
32.664942
 31
0.0
  0
LINE
  5
11e
100
AcDbEntity
  8
0
 62
7
100
AcDbLine
 10
28.910261
 20
32.664942
 30
0.0
 11
28.910261
 21
32.656158
 31
0.0
  0
LINE
  5
11f
100
AcDbEntity
  8
0
 62
7
100
AcDbLine
 10
28.910261
 20
32.656158
 30
0.0
 11
14.294617
 21
24.484563
 31
0.0
  0
LINE
  5
120
100
AcDbEntity
  8
0
 62
7
100
AcDbLine
 10
14.294617
 20
24.484563
 30
0.0
 11
0.203488
 21
16.454046
 31
0.0
  0
LINE
  5
121
100
AcDbEntity
  8
0
 62
7
100
AcDbLine
 10
0.203488
 20
16.454046
 30
0.0
 11
14.552482
 21
8.437999
 31
0.0
  0
LINE
  5
122
100
AcDbEntity
  8
0
 62
7
100
AcDbLine
 10
14.552482
 20
8.437999
 30
0.0
 11
28.912331
 21
0.100004
 31
0.0
  0
LINE
  5
123
100
AcDbEntity
  8
0
 62
7
100
AcDbLine
 10
28.810016
 20
32.666464
 30
0.0
 11
162.373971
 21
32.666464
 31
0.0
  0
LINE
  5
124
100
AcDbEntity
  8
0
 62
7
100
AcDbLine
 10
28.912331
 20
32.035551
 30
0.0
 11
28.912331
 21
0.825807
 31
0.0
  0
SPLINE
  5
125
100
AcDbEntity
  8
0
 62
7
100
AcDbSpline
 70
8
 71
3
 72
8
 73
4
 74
0
 40
0
 40
0
 40
0
 40
0
 40
1
 40
1
 40
1
 40
1
 10
153.710203
 20
65.222564
 30
0.0
 10
153.710203
 20
61.933879
 30
0.0
 10
152.403778
 20
58.779890
 30
0.0
 10
150.078326
 20
56.454440
 30
0.0
  0
SPLINE
  5
126
100
AcDbEntity
  8
0
 62
7
100
AcDbSpline
 70
8
 71
3
 72
8
 73
4
 74
0
 40
0
 40
0
 40
0
 40
0
 40
1
 40
1
 40
1
 40
1
 10
150.078326
 20
56.454440
 30
0.0
 10
147.752875
 20
54.128989
 30
0.0
 10
144.598886
 20
52.822564
 30
0.0
 10
141.310201
 20
52.822565
 30
0.0
  0
SPLINE
  5
127
100
AcDbEntity
  8
0
 62
7
100
AcDbSpline
 70
8
 71
3
 72
8
 73
4
 74
0
 40
0
 40
0
 40
0
 40
0
 40
1
 40
1
 40
1
 40
1
 10
141.310201
 20
52.822565
 30
0.0
 10
134.461871
 20
52.822565
 30
0.0
 10
128.910202
 20
58.374233
 30
0.0
 10
128.910202
 20
65.222564
 30
0.0
  0
SPLINE
  5
128
100
AcDbEntity
  8
0
 62
7
100
AcDbSpline
 70
8
 71
3
 72
8
 73
4
 74
0
 40
0
 40
0
 40
0
 40
0
 40
1
 40
1
 40
1
 40
1
 10
128.910202
 20
65.222564
 30
0.0
 10
128.910201
 20
68.511248
 30
0.0
 10
130.216626
 20
71.665237
 30
0.0
 10
132.542077
 20
73.990689
 30
0.0
  0
SPLINE
  5
129
100
AcDbEntity
  8
0
 62
7
100
AcDbSpline
 70
8
 71
3
 72
8
 73
4
 74
0
 40
0
 40
0
 40
0
 40
0
 40
1
 40
1
 40
1
 40
1
 10
132.542077
 20
73.990689
 30
0.0
 10
134.867528
 20
76.316140
 30
0.0
 10
138.021516
 20
77.622566
 30
0.0
 10
141.310201
 20
77.622566
 30
0.0
  0
SPLINE
  5
12a
100
AcDbEntity
  8
0
 62
7
100
AcDbSpline
 70
8
 71
3
 72
8
 73
4
 74
0
 40
0
 40
0
 40
0
 40
0
 40
1
 40
1
 40
1
 40
1
 10
141.310201
 20
77.622566
 30
0.0
 10
144.598886
 20
77.622566
 30
0.0
 10
147.752876
 20
76.316141
 30
0.0
 10
150.078327
 20
73.990690
 30
0.0
  0
SPLINE
  5
12b
100
AcDbEntity
  8
0
 62
7
100
AcDbSpline
 70
8
 71
3
 72
8
 73
4
 74
0
 40
0
 40
0
 40
0
 40
0
 40
1
 40
1
 40
1
 40
1
 10
150.078327
 20
73.990690
 30
0.0
 10
152.403779
 20
71.665238
 30
0.0
 10
153.710204
 20
68.511249
 30
0.0
 10
153.710203
 20
65.222564
 30
0.0
  0
LINE
  5
12c
100
AcDbEntity
  8
0
 62
7
100
AcDbLine
 10
153.710203
 20
65.222564
 30
0.0
 11
153.710203
 21
65.222564
 31
0.0
  0
LINE
  5
12d
100
AcDbEntity
  8
0
 62
7
100
AcDbLine
 10
163.912190
 20
32.035551
 30
0.0
 11
163.912190
 21
0.825807
 31
0.0
  0
LINE
  5
12e
100
AcDbEntity
  8
0
 62
7
100
AcDbLine
 10
119.223097
 20
65.066584
 30
0.0
 11
119.230849
 21
65.066584
 31
0.0
  0
SPLINE
  5
12f
100
AcDbEntity
  8
0
 62
7
100
AcDbSpline
 70
8
 71
3
 72
8
 73
4
 74
0
 40
0
 40
0
 40
0
 40
0
 40
1
 40
1
 40
1
 40
1
 10
119.230849
 20
65.066584
 30
0.0
 10
119.228071
 20
65.118596
 30
0.0
 10
119.225504
 20
65.170615
 30
0.0
 10
119.223097
 20
65.222646
 30
0.0
  0
SPLINE
  5
130
100
AcDbEntity
  8
0
 62
7
100
AcDbSpline
 70
8
 71
3
 72
8
 73
4
 74
0
 40
0
 40
0
 40
0
 40
0
 40
1
 40
1
 40
1
 40
1
 10
119.223097
 20
65.222646
 30
0.0
 10
119.223253
 20
77.593763
 30
0.0
 10
129.252131
 20
87.622414
 30
0.0
 10
141.623251
 20
87.622313
 30
0.0
  0
SPLINE
  5
131
100
AcDbEntity
  8
0
 62
7
100
AcDbSpline
 70
8
 71
3
 72
8
 73
4
 74
0
 40
0
 40
0
 40
0
 40
0
 40
1
 40
1
 40
1
 40
1
 10
141.623251
 20
87.622313
 30
0.0
 10
153.994168
 20
87.622128
 30
0.0
 10
164.022733
 20
77.593562
 30
0.0
 10
164.022918
 20
65.222646
 30
0.0
  0
SPLINE
  5
132
100
AcDbEntity
  8
0
 62
7
100
AcDbSpline
 70
8
 71
3
 72
8
 73
4
 74
0
 40
0
 40
0
 40
0
 40
0
 40
1
 40
1
 40
1
 40
1
 10
164.022918
 20
65.222646
 30
0.0
 10
164.021331
 20
65.170618
 30
0.0
 10
164.019320
 20
65.118598
 30
0.0
 10
164.017230
 20
65.066584
 30
0.0
  0
LINE
  5
133
100
AcDbEntity
  8
0
 62
7
100
AcDbLine
 10
164.017230
 20
65.066584
 30
0.0
 11
164.022918
 21
65.066584
 31
0.0
  0
LINE
  5
134
100
AcDbEntity
  8
0
 62
7
100
AcDbLine
 10
164.022918
 20
65.066584
 30
0.0
 11
164.022918
 21
32.664942
 31
0.0
  0
LINE
  5
135
100
AcDbEntity
  8
0
 62
7
100
AcDbLine
 10
164.022918
 20
32.664942
 30
0.0
 11
164.022918
 21
32.656158
 31
0.0
  0
LINE
  5
136
100
AcDbEntity
  8
0
 62
7
100
AcDbLine
 10
164.022918
 20
32.656158
 30
0.0
 11
178.638562
 21
24.484563
 31
0.0
  0
LINE
  5
137
100
AcDbEntity
  8
0
 62
7
100
AcDbLine
 10
178.638562
 20
24.484563
 30
0.0
 11
192.729691
 21
16.454046
 31
0.0
  0
LINE
  5
138
100
AcDbEntity
  8
0
 62
7
100
AcDbLine
 10
192.729691
 20
16.454046
 30
0.0
 11
178.380697
 21
8.437999
 31
0.0
  0
LINE
  5
139
100
AcDbEntity
  8
0
 62
7
100
AcDbLine
 10
178.380697
 20
8.437999
 30
0.0
 11
164.020849
 21
0.100004
 31
0.0
  0
LINE
  5
13a
100
AcDbEntity
  8
0
 62
7
100
AcDbLine
 10
28.912331
 20
0.100004
 30
0.0
 11
164.020849
 21
0.100004
 31
0.0
  0
LINE
  5
13b
100
AcDbEntity
  8
0
 62
7
100
AcDbLine
 10
164.020849
 20
0.100004
 30
0.0
 11
28.912331
 21
0.100004
 31
0.0
  0
ENDSEC
  0
SECTION
  2
OBJECTS
  0
DICTIONARY
  5
C
330
0
100
AcDbDictionary
  3
ACAD_GROUP
350
D
  3
ACAD_MLINESTYLE
350
17
  0
DICTIONARY
  5
D
330
C
100
AcDbDictionary
  0
DICTIONARY
  5
1A
330
C
100
AcDbDictionary
  0
DICTIONARY
  5
17
330
C
100
AcDbDictionary
  3
STANDARD
350
18
  0
DICTIONARY
  5
19
330
C
100
AcDbDictionary
  0
ENDSEC
  0
EOF
