  0
SECTION
  2
HEADER
  9
$ACADVER
  1
AC1014
  9
$HANDSEED
  5
FFFF
  9
$MEASUREMENT
 70
     1
  0
ENDSEC
  0
SECTION
  2
TABLES
  0
TABLE
  2
VPORT
  5
8
330
0
100
AcDbSymbolTable
 70
     4
  0
VPORT
  5
2E
330
8
100
AcDbSymbolTableRecord
100
AcDbViewportTableRecord
  2
*ACTIVE
 70
     0
 10
0.0
 20
0.0
 11
1.0
 21
1.0
 12
210.0
 22
148.5
 13
0.0
 23
0.0
 14
10.0
 24
10.0
 15
10.0
 25
10.0
 16
0.0
 26
0.0
 36
1.0
 17
0.0
 27
0.0
 37
0.0
 40
341.0
 41
1.24
 42
50.0
 43
0.0
 44
0.0
 50
0.0
 51
0.0
 71
     0
 72
   100
 73
     1
 74
     3
 75
     0
 76
     0
 77
     0
 78
     0
  0
ENDTAB
  0
TABLE
  2
LTYPE
  5
5
330
0
100
AcDbSymbolTable
 70
     1
  0
LTYPE
  5
14
330
5
100
AcDbSymbolTableRecord
100
AcDbLinetypeTableRecord
  2
BYBLOCK
 70
     0
  3

 72
    65
 73
     0
 40
0.0
  0
LTYPE
  5
15
330
5
100
AcDbSymbolTableRecord
100
AcDbLinetypeTableRecord
  2
BYLAYER
 70
     0
  3

 72
    65
 73
     0
 40
0.0
  0
LTYPE
  5
16
330
5
100
AcDbSymbolTableRecord
100
AcDbLinetypeTableRecord
  2
CONTINUOUS
 70
     0
  3
Solid line
 72
    65
 73
     0
 40
0.0
  0
ENDTAB
  0
TABLE
  2
LAYER
  5
2
100
AcDbSymbolTable
 70
5
  0
LAYER
  5
50
100
AcDbSymbolTableRecord
100
AcDbLayerTableRecord
  2
0
 70
0
  6
CONTINUOUS
  0
LAYER
  5
51
100
AcDbSymbolTableRecord
100
AcDbLayerTableRecord
  2
FullStar
 70
0
  6
CONTINUOUS
  0
LAYER
  5
52
100
AcDbSymbolTableRecord
100
AcDbLayerTableRecord
  2
StarFront
 70
0
  6
CONTINUOUS
  0
LAYER
  5
53
100
AcDbSymbolTableRecord
100
AcDbLayerTableRecord
  2
StarSeparator
 70
0
  6
CONTINUOUS
  0
LAYER
  5
54
100
AcDbSymbolTableRecord
100
AcDbLayerTableRecord
  2
StarConstructor
 70
0
  6
CONTINUOUS
  0
ENDTAB
  0
TABLE
  2
STYLE
  5
3
330
0
100
AcDbSymbolTable
 70
     1
  0
STYLE
  5
11
330
3
100
AcDbSymbolTableRecord
100
AcDbTextStyleTableRecord
  2
STANDARD
 70
     0
 40
0.0
 41
1.0
 50
0.0
 71
     0
 42
2.5
  3
txt
  4

  0
ENDTAB
  0
TABLE
  2
VIEW
  5
6
330
0
100
AcDbSymbolTable
 70
     0
  0
ENDTAB
  0
TABLE
  2
UCS
  5
7
330
0
100
AcDbSymbolTable
 70
     0
  0
ENDTAB
  0
TABLE
  2
APPID
  5
9
330
0
100
AcDbSymbolTable
 70
     2
  0
APPID
  5
12
330
9
100
AcDbSymbolTableRecord
100
AcDbRegAppTableRecord
  2
ACAD
 70
     0
  0
ENDTAB
  0
TABLE
  2
DIMSTYLE
  5
A
330
0
100
AcDbSymbolTable
 70
     1
  0
DIMSTYLE
105
27
330
A
100
AcDbSymbolTableRecord
100
AcDbDimStyleTableRecord
  2
ISO-25
 70
     0
  3

  4

  5

  6

  7

 40
1.0
 41
2.5
 42
0.625
 43
3.75
 44
1.25
 45
0.0
 46
0.0
 47
0.0
 48
0.0
140
2.5
141
2.5
142
0.0
143
0.03937007874016
144
1.0
145
0.0
146
1.0
147
0.625
 71
     0
 72
     0
 73
     0
 74
     0
 75
     0
 76
     0
 77
     1
 78
     8
170
     0
171
     3
172
     1
173
     0
174
     0
175
     0
176
     0
177
     0
178
     0
270
     2
271
     2
272
     2
273
     2
274
     3
340
11
275
     0
280
     0
281
     0
282
     0
283
     0
284
     8
285
     0
286
     0
287
     3
288
     0
  0
ENDTAB
  0
TABLE
  2
BLOCK_RECORD
  5
1
330
0
100
AcDbSymbolTable
 70
     1
  0
BLOCK_RECORD
  5
1F
330
1
100
AcDbSymbolTableRecord
100
AcDbBlockTableRecord
  2
*MODEL_SPACE
  0
BLOCK_RECORD
  5
1B
330
1
100
AcDbSymbolTableRecord
100
AcDbBlockTableRecord
  2
*PAPER_SPACE
  0
ENDTAB
  0
ENDSEC
  0
SECTION
  2
BLOCKS
  0
BLOCK
  5
20
330
1F
100
AcDbEntity
  8
0
100
AcDbBlockBegin
  2
*MODEL_SPACE
 70
     0
 10
0.0
 20
0.0
 30
0.0
  3
*MODEL_SPACE
  1

  0
ENDBLK
  5
21
330
1F
100
AcDbEntity
  8
0
100
AcDbBlockEnd
  0
BLOCK
  5
1C
330
1B
100
AcDbEntity
 67
     1
  8
0
100
AcDbBlockBegin
  2
*PAPER_SPACE
  1

  0
ENDBLK
  5
1D
330
1B
100
AcDbEntity
 67
     1
  8
0
100
AcDbBlockEnd
  0
ENDSEC
  0
SECTION
  2
ENTITIES
  0
LINE
  5
100
100
AcDbEntity
  8
StarFront
 62
7
100
AcDbLine
 10
77.396083
 20
33.714215
 30
0.0
 11
80.841816
 21
0.268736
 31
0.0
  0
LINE
  5
101
100
AcDbEntity
  8
StarFront
 62
7
100
AcDbLine
 10
80.841816
 20
0.268736
 30
0.0
 11
50.050668
 21
13.773063
 31
0.0
  0
LINE
  5
102
100
AcDbEntity
  8
StarFront
 62
7
100
AcDbLine
 10
50.050668
 20
13.773063
 30
0.0
 11
19.307223
 21
0.160952
 31
0.0
  0
LINE
  5
103
100
AcDbEntity
  8
StarFront
 62
7
100
AcDbLine
 10
19.307223
 20
0.160952
 30
0.0
 11
22.635299
 21
33.618291
 31
0.0
  0
LINE
  5
104
100
AcDbEntity
  8
StarFront
 62
7
100
AcDbLine
 10
22.635299
 20
33.618291
 30
0.0
 11
0.189071
 21
58.651020
 31
0.0
  0
LINE
  5
105
100
AcDbEntity
  8
StarFront
 62
7
100
AcDbLine
 10
0.189071
 20
58.651020
 30
0.0
 11
33.037068
 21
65.824468
 31
0.0
  0
LINE
  5
106
100
AcDbEntity
  8
StarFront
 62
7
100
AcDbLine
 10
33.037068
 20
65.824468
 30
0.0
 11
49.907987
 21
94.907655
 31
0.0
  0
LINE
  5
107
100
AcDbEntity
  8
StarFront
 62
7
100
AcDbLine
 10
49.907987
 20
94.907655
 30
0.0
 11
66.881092
 21
65.883748
 31
0.0
  0
LINE
  5
108
100
AcDbEntity
  8
StarFront
 62
7
100
AcDbLine
 10
66.881092
 20
65.883748
 30
0.0
 11
99.754127
 21
58.825424
 31
0.0
  0
LINE
  5
109
100
AcDbEntity
  8
StarFront
 62
7
100
AcDbLine
 10
99.754127
 20
58.825424
 30
0.0
 11
77.396083
 21
33.714215
 31
0.0
  0
SPLINE
  5
10a
100
AcDbEntity
  8
StarFront
 62
7
100
AcDbSpline
 70
8
 71
3
 72
8
 73
4
 74
0
 40
0
 40
0
 40
0
 40
0
 40
1
 40
1
 40
1
 40
1
 10
50.199004
 20
65.339687
 30
0.0
 10
46.410996
 20
65.183896
 30
0.0
 10
42.689012
 20
64.099428
 30
0.0
 10
39.374857
 20
62.185875
 30
0.0
  0
LINE
  5
10b
100
AcDbEntity
  8
StarFront
 62
7
100
AcDbLine
 10
39.374857
 20
62.185875
 30
0.0
 11
47.881315
 21
47.451375
 31
0.0
  0
SPLINE
  5
10c
100
AcDbEntity
  8
StarFront
 62
7
100
AcDbSpline
 70
8
 71
3
 72
8
 73
4
 74
0
 40
0
 40
0
 40
0
 40
0
 40
1
 40
1
 40
1
 40
1
 10
47.881315
 20
47.451375
 30
0.0
 10
46.388525
 20
46.598532
 30
0.0
 10
45.451899
 20
45.025723
 30
0.0
 10
45.413247
 20
43.306925
 30
0.0
  0
SPLINE
  5
10d
100
AcDbEntity
  8
StarFront
 62
7
100
AcDbSpline
 70
8
 71
3
 72
8
 73
4
 74
0
 40
0
 40
0
 40
0
 40
0
 40
1
 40
1
 40
1
 40
1
 10
45.413247
 20
43.306925
 30
0.0
 10
45.413247
 20
43.306925
 30
0.0
 10
27.719237
 20
43.626285
 30
0.0
 10
27.719237
 20
43.626285
 30
0.0
  0
SPLINE
  5
10e
100
AcDbEntity
  8
StarFront
 62
7
100
AcDbSpline
 70
8
 71
3
 72
8
 73
4
 74
0
 40
0
 40
0
 40
0
 40
0
 40
1
 40
1
 40
1
 40
1
 10
27.719237
 20
43.626285
 30
0.0
 10
27.864692
 20
35.717545
 30
0.0
 10
32.307783
 20
28.331830
 30
0.0
 10
39.374857
 20
24.251240
 30
0.0
  0
LINE
  5
10f
100
AcDbEntity
  8
StarFront
 62
7
100
AcDbLine
 10
39.374857
 20
24.251240
 30
0.0
 11
47.865813
 21
38.958353
 31
0.0
  0
SPLINE
  5
110
100
AcDbEntity
  8
StarFront
 62
7
100
AcDbSpline
 70
8
 71
3
 72
8
 73
4
 74
0
 40
0
 40
0
 40
0
 40
0
 40
1
 40
1
 40
1
 40
1
 10
47.865813
 20
38.958353
 30
0.0
 10
48.608391
 20
38.529488
 30
0.0
 10
49.450515
 20
38.303009
 30
0.0
 10
50.308038
 20
38.301546
 30
0.0
  0
SPLINE
  5
111
100
AcDbEntity
  8
StarFront
 62
7
100
AcDbSpline
 70
8
 71
3
 72
8
 73
4
 74
0
 40
0
 40
0
 40
0
 40
0
 40
1
 40
1
 40
1
 40
1
 10
50.308038
 20
38.301546
 30
0.0
 10
51.145541
 20
38.303439
 30
0.0
 10
51.968580
 20
38.519963
 30
0.0
 10
52.698591
 20
38.930447
 30
0.0
  0
SPLINE
  5
112
100
AcDbEntity
  8
StarFront
 62
7
100
AcDbSpline
 70
8
 71
3
 72
8
 73
4
 74
0
 40
0
 40
0
 40
0
 40
0
 40
1
 40
1
 40
1
 40
1
 10
52.698591
 20
38.930447
 30
0.0
 10
52.698591
 20
38.930447
 30
0.0
 10
61.275330
 20
23.436302
 30
0.0
 10
61.275330
 20
23.436302
 30
0.0
  0
SPLINE
  5
113
100
AcDbEntity
  8
StarFront
 62
7
100
AcDbSpline
 70
8
 71
3
 72
8
 73
4
 74
0
 40
0
 40
0
 40
0
 40
0
 40
1
 40
1
 40
1
 40
1
 10
61.275330
 20
23.436302
 30
0.0
 10
68.051506
 20
27.516611
 30
0.0
 10
72.225914
 20
35.057573
 30
0.0
 10
72.226082
 20
43.218557
 30
0.0
  0
LINE
  5
114
100
AcDbEntity
  8
StarFront
 62
7
100
AcDbLine
 10
72.226082
 20
43.218557
 30
0.0
 11
55.208000
 21
43.218557
 31
0.0
  0
SPLINE
  5
115
100
AcDbEntity
  8
StarFront
 62
7
100
AcDbSpline
 70
8
 71
3
 72
8
 73
4
 74
0
 40
0
 40
0
 40
0
 40
0
 40
1
 40
1
 40
1
 40
1
 10
55.208000
 20
43.218557
 30
0.0
 10
55.199577
 20
44.928228
 30
0.0
 10
54.300639
 20
46.509888
 30
0.0
 10
52.836050
 20
47.391947
 30
0.0
  0
SPLINE
  5
116
100
AcDbEntity
  8
StarFront
 62
7
100
AcDbSpline
 70
8
 71
3
 72
8
 73
4
 74
0
 40
0
 40
0
 40
0
 40
0
 40
1
 40
1
 40
1
 40
1
 10
52.836050
 20
47.391947
 30
0.0
 10
52.836050
 20
47.391947
 30
0.0
 10
61.981230
 20
62.593603
 30
0.0
 10
61.981230
 20
62.593603
 30
0.0
  0
SPLINE
  5
117
100
AcDbEntity
  8
StarFront
 62
7
100
AcDbSpline
 70
8
 71
3
 72
8
 73
4
 74
0
 40
0
 40
0
 40
0
 40
0
 40
1
 40
1
 40
1
 40
1
 10
61.981230
 20
62.593603
 30
0.0
 10
58.425183
 20
64.560361
 30
0.0
 10
54.348923
 20
65.510415
 30
0.0
 10
50.199004
 20
65.339687
 30
0.0
  0
LINE
  5
118
100
AcDbEntity
  8
StarFront
 62
7
100
AcDbLine
 10
50.199004
 20
65.339687
 30
0.0
 11
50.199004
 21
65.339687
 31
0.0
  0
SPLINE
  5
119
100
AcDbEntity
  8
StarFront
 62
7
100
AcDbSpline
 70
8
 71
3
 72
8
 73
4
 74
0
 40
0
 40
0
 40
0
 40
0
 40
1
 40
1
 40
1
 40
1
 10
29.662808
 20
50.201741
 30
0.0
 10
29.662720
 20
53.808897
 30
0.0
 10
31.510702
 20
57.142003
 30
0.0
 10
34.510638
 20
58.945512
 30
0.0
  0
LINE
  5
11a
100
AcDbEntity
  8
StarFront
 62
7
100
AcDbLine
 10
34.510638
 20
58.945512
 30
0.0
 11
39.358898
 21
50.201509
 31
0.0
  0
LINE
  5
11b
100
AcDbEntity
  8
StarFront
 62
7
100
AcDbLine
 10
39.358898
 20
50.201509
 30
0.0
 11
29.662808
 21
50.201741
 31
0.0
  0
SPLINE
  5
11c
100
AcDbEntity
  8
StarFront
 62
7
100
AcDbSpline
 70
8
 71
3
 72
8
 73
4
 74
0
 40
0
 40
0
 40
0
 40
0
 40
1
 40
1
 40
1
 40
1
 10
65.659066
 20
57.813548
 30
0.0
 10
68.782996
 20
56.010043
 30
0.0
 10
70.745556
 20
52.743090
 30
0.0
 10
70.807470
 20
49.243317
 30
0.0
  0
LINE
  5
11d
100
AcDbEntity
  8
StarFront
 62
7
100
AcDbLine
 10
70.807470
 20
49.243317
 30
0.0
 11
60.810820
 21
49.416604
 31
0.0
  0
LINE
  5
11e
100
AcDbEntity
  8
StarFront
 62
7
100
AcDbLine
 10
60.810820
 20
49.416604
 30
0.0
 11
65.659066
 21
57.813548
 31
0.0
  0
SPLINE
  5
11f
100
AcDbEntity
  8
StarFront
 62
7
100
AcDbSpline
 70
8
 71
3
 72
8
 73
4
 74
0
 40
0
 40
0
 40
0
 40
0
 40
1
 40
1
 40
1
 40
1
 10
55.363198
 20
23.840377
 30
0.0
 10
52.239352
 20
22.036723
 30
0.0
 10
48.428806
 20
21.970569
 30
0.0
 10
45.366955
 20
23.666835
 30
0.0
  0
LINE
  5
120
100
AcDbEntity
  8
StarFront
 62
7
100
AcDbLine
 10
45.366955
 20
23.666835
 30
0.0
 11
50.515354
 21
32.237553
 31
0.0
  0
LINE
  5
121
100
AcDbEntity
  8
StarFront
 62
7
100
AcDbLine
 10
50.515354
 20
32.237553
 30
0.0
 11
55.363198
 21
23.840377
 31
0.0
  0
LINE
  5
122
100
AcDbEntity
  8
StarFront
 62
7
100
AcDbLine
 10
50.021323
 20
84.375451
 30
0.0
 11
46.015863
 21
71.520845
 31
0.0
  0
LINE
  5
123
100
AcDbEntity
  8
StarFront
 62
7
100
AcDbLine
 10
46.015863
 20
71.520845
 30
0.0
 11
50.021323
 21
71.412049
 31
0.0
  0
LINE
  5
124
100
AcDbEntity
  8
StarFront
 62
7
100
AcDbLine
 10
50.021323
 20
71.412049
 30
0.0
 11
54.027013
 21
71.520845
 31
0.0
  0
LINE
  5
125
100
AcDbEntity
  8
StarFront
 62
7
100
AcDbLine
 10
54.027013
 20
71.520845
 30
0.0
 11
50.021323
 21
84.375451
 31
0.0
  0
LINE
  5
126
100
AcDbEntity
  8
StarFront
 62
7
100
AcDbLine
 10
89.170793
 20
55.650417
 30
0.0
 11
75.718243
 21
56.210110
 31
0.0
  0
LINE
  5
127
100
AcDbEntity
  8
StarFront
 62
7
100
AcDbLine
 10
75.718243
 20
56.210110
 30
0.0
 11
76.644703
 21
52.311748
 31
0.0
  0
LINE
  5
128
100
AcDbEntity
  8
StarFront
 62
7
100
AcDbLine
 10
76.644703
 20
52.311748
 30
0.0
 11
77.781483
 21
48.469207
 31
0.0
  0
LINE
  5
129
100
AcDbEntity
  8
StarFront
 62
7
100
AcDbLine
 10
77.781483
 20
48.469207
 30
0.0
 11
89.170793
 21
55.650417
 31
0.0
  0
LINE
  5
12a
100
AcDbEntity
  8
StarFront
 62
7
100
AcDbLine
 10
26.349023
 20
8.263131
 30
0.0
 11
36.852093
 21
16.687501
 31
0.0
  0
LINE
  5
12b
100
AcDbEntity
  8
StarFront
 62
7
100
AcDbLine
 10
36.852093
 20
16.687501
 30
0.0
 11
33.590653
 21
19.015271
 31
0.0
  0
LINE
  5
12c
100
AcDbEntity
  8
StarFront
 62
7
100
AcDbLine
 10
33.590653
 20
19.015271
 30
0.0
 11
30.207473
 21
21.162701
 31
0.0
  0
LINE
  5
12d
100
AcDbEntity
  8
StarFront
 62
7
100
AcDbLine
 10
30.207473
 20
21.162701
 30
0.0
 11
26.349023
 21
8.263131
 31
0.0
  0
LINE
  5
12e
100
AcDbEntity
  8
StarFront
 62
7
100
AcDbLine
 10
11.420432
 20
55.650417
 30
0.0
 11
24.872973
 21
56.210110
 31
0.0
  0
LINE
  5
12f
100
AcDbEntity
  8
StarFront
 62
7
100
AcDbLine
 10
24.872973
 20
56.210110
 30
0.0
 11
23.946513
 21
52.311748
 31
0.0
  0
LINE
  5
130
100
AcDbEntity
  8
StarFront
 62
7
100
AcDbLine
 10
23.946513
 20
52.311748
 30
0.0
 11
22.809733
 21
48.469207
 31
0.0
  0
LINE
  5
131
100
AcDbEntity
  8
StarFront
 62
7
100
AcDbLine
 10
22.809733
 20
48.469207
 30
0.0
 11
11.420432
 21
55.650417
 31
0.0
  0
LINE
  5
132
100
AcDbEntity
  8
StarFront
 62
7
100
AcDbLine
 10
75.485673
 20
8.515391
 30
0.0
 11
64.608663
 21
16.451081
 31
0.0
  0
LINE
  5
133
100
AcDbEntity
  8
StarFront
 62
7
100
AcDbLine
 10
64.608663
 20
16.451081
 30
0.0
 11
67.760333
 21
18.925441
 31
0.0
  0
LINE
  5
134
100
AcDbEntity
  8
StarFront
 62
7
100
AcDbLine
 10
67.760333
 20
18.925441
 30
0.0
 11
71.041863
 21
21.225201
 31
0.0
  0
LINE
  5
135
100
AcDbEntity
  8
StarFront
 62
7
100
AcDbLine
 10
71.041863
 20
21.225201
 30
0.0
 11
75.485673
 21
8.515391
 31
0.0
  0
ENDSEC
  0
SECTION
  2
OBJECTS
  0
DICTIONARY
  5
C
330
0
100
AcDbDictionary
  3
ACAD_GROUP
350
D
  3
ACAD_MLINESTYLE
350
17
  0
DICTIONARY
  5
D
330
C
100
AcDbDictionary
  0
DICTIONARY
  5
1A
330
C
100
AcDbDictionary
  0
DICTIONARY
  5
17
330
C
100
AcDbDictionary
  3
STANDARD
350
18
  0
DICTIONARY
  5
19
330
C
100
AcDbDictionary
  0
ENDSEC
  0
EOF
