  0
SECTION
  2
HEADER
  9
$ACADVER
  1
AC1014
  9
$HANDSEED
  5
FFFF
  9
$MEASUREMENT
 70
     1
  0
ENDSEC
  0
SECTION
  2
TABLES
  0
TABLE
  2
VPORT
  5
8
330
0
100
AcDbSymbolTable
 70
     4
  0
VPORT
  5
2E
330
8
100
AcDbSymbolTableRecord
100
AcDbViewportTableRecord
  2
*ACTIVE
 70
     0
 10
0.0
 20
0.0
 11
1.0
 21
1.0
 12
210.0
 22
148.5
 13
0.0
 23
0.0
 14
10.0
 24
10.0
 15
10.0
 25
10.0
 16
0.0
 26
0.0
 36
1.0
 17
0.0
 27
0.0
 37
0.0
 40
341.0
 41
1.24
 42
50.0
 43
0.0
 44
0.0
 50
0.0
 51
0.0
 71
     0
 72
   100
 73
     1
 74
     3
 75
     0
 76
     0
 77
     0
 78
     0
  0
ENDTAB
  0
TABLE
  2
LTYPE
  5
5
330
0
100
AcDbSymbolTable
 70
     1
  0
LTYPE
  5
14
330
5
100
AcDbSymbolTableRecord
100
AcDbLinetypeTableRecord
  2
BYBLOCK
 70
     0
  3

 72
    65
 73
     0
 40
0.0
  0
LTYPE
  5
15
330
5
100
AcDbSymbolTableRecord
100
AcDbLinetypeTableRecord
  2
BYLAYER
 70
     0
  3

 72
    65
 73
     0
 40
0.0
  0
LTYPE
  5
16
330
5
100
AcDbSymbolTableRecord
100
AcDbLinetypeTableRecord
  2
CONTINUOUS
 70
     0
  3
Solid line
 72
    65
 73
     0
 40
0.0
  0
ENDTAB
  0
TABLE
  2
LAYER
  5
2
100
AcDbSymbolTable
 70
4
  0
LAYER
  5
50
100
AcDbSymbolTableRecord
100
AcDbLayerTableRecord
  2
0
 70
0
  6
CONTINUOUS
  0
LAYER
  5
51
100
AcDbSymbolTableRecord
100
AcDbLayerTableRecord
  2
FullStar
 70
0
  6
CONTINUOUS
  0
LAYER
  5
52
100
AcDbSymbolTableRecord
100
AcDbLayerTableRecord
  2
StarSeparator
 70
0
  6
CONTINUOUS
  0
LAYER
  5
53
100
AcDbSymbolTableRecord
100
AcDbLayerTableRecord
  2
StarConstructor
 70
0
  6
CONTINUOUS
  0
ENDTAB
  0
TABLE
  2
STYLE
  5
3
330
0
100
AcDbSymbolTable
 70
     1
  0
STYLE
  5
11
330
3
100
AcDbSymbolTableRecord
100
AcDbTextStyleTableRecord
  2
STANDARD
 70
     0
 40
0.0
 41
1.0
 50
0.0
 71
     0
 42
2.5
  3
txt
  4

  0
ENDTAB
  0
TABLE
  2
VIEW
  5
6
330
0
100
AcDbSymbolTable
 70
     0
  0
ENDTAB
  0
TABLE
  2
UCS
  5
7
330
0
100
AcDbSymbolTable
 70
     0
  0
ENDTAB
  0
TABLE
  2
APPID
  5
9
330
0
100
AcDbSymbolTable
 70
     2
  0
APPID
  5
12
330
9
100
AcDbSymbolTableRecord
100
AcDbRegAppTableRecord
  2
ACAD
 70
     0
  0
ENDTAB
  0
TABLE
  2
DIMSTYLE
  5
A
330
0
100
AcDbSymbolTable
 70
     1
  0
DIMSTYLE
105
27
330
A
100
AcDbSymbolTableRecord
100
AcDbDimStyleTableRecord
  2
ISO-25
 70
     0
  3

  4

  5

  6

  7

 40
1.0
 41
2.5
 42
0.625
 43
3.75
 44
1.25
 45
0.0
 46
0.0
 47
0.0
 48
0.0
140
2.5
141
2.5
142
0.0
143
0.03937007874016
144
1.0
145
0.0
146
1.0
147
0.625
 71
     0
 72
     0
 73
     0
 74
     0
 75
     0
 76
     0
 77
     1
 78
     8
170
     0
171
     3
172
     1
173
     0
174
     0
175
     0
176
     0
177
     0
178
     0
270
     2
271
     2
272
     2
273
     2
274
     3
340
11
275
     0
280
     0
281
     0
282
     0
283
     0
284
     8
285
     0
286
     0
287
     3
288
     0
  0
ENDTAB
  0
TABLE
  2
BLOCK_RECORD
  5
1
330
0
100
AcDbSymbolTable
 70
     1
  0
BLOCK_RECORD
  5
1F
330
1
100
AcDbSymbolTableRecord
100
AcDbBlockTableRecord
  2
*MODEL_SPACE
  0
BLOCK_RECORD
  5
1B
330
1
100
AcDbSymbolTableRecord
100
AcDbBlockTableRecord
  2
*PAPER_SPACE
  0
ENDTAB
  0
ENDSEC
  0
SECTION
  2
BLOCKS
  0
BLOCK
  5
20
330
1F
100
AcDbEntity
  8
0
100
AcDbBlockBegin
  2
*MODEL_SPACE
 70
     0
 10
0.0
 20
0.0
 30
0.0
  3
*MODEL_SPACE
  1

  0
ENDBLK
  5
21
330
1F
100
AcDbEntity
  8
0
100
AcDbBlockEnd
  0
BLOCK
  5
1C
330
1B
100
AcDbEntity
 67
     1
  8
0
100
AcDbBlockBegin
  2
*PAPER_SPACE
  1

  0
ENDBLK
  5
1D
330
1B
100
AcDbEntity
 67
     1
  8
0
100
AcDbBlockEnd
  0
ENDSEC
  0
SECTION
  2
ENTITIES
  0
LINE
  5
100
100
AcDbEntity
  8
StarSeparator
 62
7
100
AcDbLine
 10
37.787842
 20
74.014175
 30
0.0
 11
33.037059
 21
65.824466
 31
0.0
  0
LINE
  5
101
100
AcDbEntity
  8
StarSeparator
 62
7
100
AcDbLine
 10
33.037059
 20
65.824466
 30
0.0
 11
26.445906
 21
64.385070
 31
0.0
  0
LINE
  5
102
100
AcDbEntity
  8
StarSeparator
 62
7
100
AcDbLine
 10
26.445906
 20
64.385070
 30
0.0
 11
27.074229
 21
57.258410
 31
0.0
  0
LINE
  5
103
100
AcDbEntity
  8
StarSeparator
 62
7
100
AcDbLine
 10
27.074229
 20
57.258410
 30
0.0
 11
38.635477
 21
59.782957
 31
0.0
  0
LINE
  5
104
100
AcDbEntity
  8
StarSeparator
 62
7
100
AcDbLine
 10
38.635477
 20
59.782957
 30
0.0
 11
45.085870
 21
70.901529
 31
0.0
  0
LINE
  5
105
100
AcDbEntity
  8
StarSeparator
 62
7
100
AcDbLine
 10
45.085870
 20
70.901529
 30
0.0
 11
37.787842
 21
74.014175
 31
0.0
  0
LINE
  5
106
100
AcDbEntity
  8
StarSeparator
 62
7
100
AcDbLine
 10
73.447766
 20
64.473783
 30
0.0
 11
66.881084
 21
65.883746
 31
0.0
  0
LINE
  5
107
100
AcDbEntity
  8
StarSeparator
 62
7
100
AcDbLine
 10
66.881084
 20
65.883746
 30
0.0
 11
62.015403
 21
74.204022
 31
0.0
  0
LINE
  5
108
100
AcDbEntity
  8
StarSeparator
 62
7
100
AcDbLine
 10
62.015403
 20
74.204022
 30
0.0
 11
54.726456
 21
71.046728
 31
0.0
  0
LINE
  5
109
100
AcDbEntity
  8
StarSeparator
 62
7
100
AcDbLine
 10
54.726456
 20
71.046728
 30
0.0
 11
61.290889
 21
59.822638
 31
0.0
  0
LINE
  5
10a
100
AcDbEntity
  8
StarSeparator
 62
7
100
AcDbLine
 10
61.290889
 20
59.822638
 30
0.0
 11
72.670247
 21
57.379550
 31
0.0
  0
LINE
  5
10b
100
AcDbEntity
  8
StarSeparator
 62
7
100
AcDbLine
 10
72.670247
 20
57.379550
 30
0.0
 11
73.447766
 21
64.473783
 31
0.0
  0
LINE
  5
10c
100
AcDbEntity
  8
StarSeparator
 62
7
100
AcDbLine
 10
44.909990
 20
11.496960
 30
0.0
 11
50.050659
 21
13.773062
 31
0.0
  0
LINE
  5
10d
100
AcDbEntity
  8
StarSeparator
 62
7
100
AcDbLine
 10
50.050659
 20
13.773062
 30
0.0
 11
55.152158
 21
11.535657
 31
0.0
  0
LINE
  5
10e
100
AcDbEntity
  8
StarSeparator
 62
7
100
AcDbLine
 10
55.152158
 20
11.535657
 30
0.0
 11
60.388054
 21
20.397843
 31
0.0
  0
LINE
  5
10f
100
AcDbEntity
  8
StarSeparator
 62
7
100
AcDbLine
 10
60.388054
 20
20.397843
 30
0.0
 11
50.024498
 21
24.942653
 31
0.0
  0
LINE
  5
110
100
AcDbEntity
  8
StarSeparator
 62
7
100
AcDbLine
 10
50.024498
 20
24.942653
 30
0.0
 11
39.561789
 21
20.310569
 31
0.0
  0
LINE
  5
111
100
AcDbEntity
  8
StarSeparator
 62
7
100
AcDbLine
 10
39.561789
 20
20.310569
 30
0.0
 11
44.909990
 21
11.496960
 31
0.0
  0
LINE
  5
112
100
AcDbEntity
  8
StarSeparator
 62
7
100
AcDbLine
 10
69.439266
 20
27.521191
 30
0.0
 11
68.329688
 21
38.290147
 31
0.0
  0
LINE
  5
113
100
AcDbEntity
  8
StarSeparator
 62
7
100
AcDbLine
 10
68.329688
 20
38.290147
 30
0.0
 11
76.680379
 21
47.668275
 31
0.0
  0
LINE
  5
114
100
AcDbEntity
  8
StarSeparator
 62
7
100
AcDbLine
 10
76.680379
 20
47.668275
 30
0.0
 11
83.226014
 21
40.262050
 31
0.0
  0
LINE
  5
115
100
AcDbEntity
  8
StarSeparator
 62
7
100
AcDbLine
 10
83.226014
 20
40.262050
 30
0.0
 11
77.396074
 21
33.714213
 31
0.0
  0
LINE
  5
116
100
AcDbEntity
  8
StarSeparator
 62
7
100
AcDbLine
 10
77.396074
 20
33.714213
 30
0.0
 11
77.842240
 21
29.383543
 31
0.0
  0
LINE
  5
117
100
AcDbEntity
  8
StarSeparator
 62
7
100
AcDbLine
 10
77.842240
 20
29.383543
 30
0.0
 11
69.439266
 21
27.521191
 31
0.0
  0
LINE
  5
118
100
AcDbEntity
  8
StarSeparator
 62
7
100
AcDbLine
 10
23.074401
 20
47.813875
 30
0.0
 11
31.672468
 21
38.225942
 31
0.0
  0
LINE
  5
119
100
AcDbEntity
  8
StarSeparator
 62
7
100
AcDbLine
 10
31.672468
 20
38.225942
 30
0.0
 11
30.610823
 21
27.554152
 31
0.0
  0
LINE
  5
11a
100
AcDbEntity
  8
StarSeparator
 62
7
100
AcDbLine
 10
30.610823
 20
27.554152
 30
0.0
 11
22.201707
 21
29.259423
 31
0.0
  0
LINE
  5
11b
100
AcDbEntity
  8
StarSeparator
 62
7
100
AcDbLine
 10
22.201707
 20
29.259423
 30
0.0
 11
22.635290
 21
33.618290
 31
0.0
  0
LINE
  5
11c
100
AcDbEntity
  8
StarSeparator
 62
7
100
AcDbLine
 10
22.635290
 20
33.618290
 30
0.0
 11
16.619647
 21
40.327115
 31
0.0
  0
LINE
  5
11d
100
AcDbEntity
  8
StarSeparator
 62
7
100
AcDbLine
 10
16.619647
 20
40.327115
 30
0.0
 11
23.074401
 21
47.813875
 31
0.0
  0
ENDSEC
  0
SECTION
  2
OBJECTS
  0
DICTIONARY
  5
C
330
0
100
AcDbDictionary
  3
ACAD_GROUP
350
D
  3
ACAD_MLINESTYLE
350
17
  0
DICTIONARY
  5
D
330
C
100
AcDbDictionary
  0
DICTIONARY
  5
1A
330
C
100
AcDbDictionary
  0
DICTIONARY
  5
17
330
C
100
AcDbDictionary
  3
STANDARD
350
18
  0
DICTIONARY
  5
19
330
C
100
AcDbDictionary
  0
ENDSEC
  0
EOF
