  0
SECTION
  2
HEADER
  9
$ACADVER
  1
AC1014
  9
$HANDSEED
  5
FFFF
  9
$MEASUREMENT
 70
     1
  0
ENDSEC
  0
SECTION
  2
TABLES
  0
TABLE
  2
VPORT
  5
8
330
0
100
AcDbSymbolTable
 70
     4
  0
VPORT
  5
2E
330
8
100
AcDbSymbolTableRecord
100
AcDbViewportTableRecord
  2
*ACTIVE
 70
     0
 10
0.0
 20
0.0
 11
1.0
 21
1.0
 12
210.0
 22
148.5
 13
0.0
 23
0.0
 14
10.0
 24
10.0
 15
10.0
 25
10.0
 16
0.0
 26
0.0
 36
1.0
 17
0.0
 27
0.0
 37
0.0
 40
341.0
 41
1.24
 42
50.0
 43
0.0
 44
0.0
 50
0.0
 51
0.0
 71
     0
 72
   100
 73
     1
 74
     3
 75
     0
 76
     0
 77
     0
 78
     0
  0
ENDTAB
  0
TABLE
  2
LTYPE
  5
5
330
0
100
AcDbSymbolTable
 70
     1
  0
LTYPE
  5
14
330
5
100
AcDbSymbolTableRecord
100
AcDbLinetypeTableRecord
  2
BYBLOCK
 70
     0
  3

 72
    65
 73
     0
 40
0.0
  0
LTYPE
  5
15
330
5
100
AcDbSymbolTableRecord
100
AcDbLinetypeTableRecord
  2
BYLAYER
 70
     0
  3

 72
    65
 73
     0
 40
0.0
  0
LTYPE
  5
16
330
5
100
AcDbSymbolTableRecord
100
AcDbLinetypeTableRecord
  2
CONTINUOUS
 70
     0
  3
Solid line
 72
    65
 73
     0
 40
0.0
  0
ENDTAB
  0
TABLE
  2
LAYER
  5
2
100
AcDbSymbolTable
 70
6
  0
LAYER
  5
50
100
AcDbSymbolTableRecord
100
AcDbLayerTableRecord
  2
0
 70
0
  6
CONTINUOUS
  0
LAYER
  5
51
100
AcDbSymbolTableRecord
100
AcDbLayerTableRecord
  2
SupportFront
 70
0
  6
CONTINUOUS
  0
LAYER
  5
52
100
AcDbSymbolTableRecord
100
AcDbLayerTableRecord
  2
SupportFront_V2
 70
0
  6
CONTINUOUS
  0
LAYER
  5
53
100
AcDbSymbolTableRecord
100
AcDbLayerTableRecord
  2
SupportBack
 70
0
  6
CONTINUOUS
  0
LAYER
  5
54
100
AcDbSymbolTableRecord
100
AcDbLayerTableRecord
  2
Circles
 70
0
  6
CONTINUOUS
  0
LAYER
  5
55
100
AcDbSymbolTableRecord
100
AcDbLayerTableRecord
  2
Construction
 70
0
  6
CONTINUOUS
  0
ENDTAB
  0
TABLE
  2
STYLE
  5
3
330
0
100
AcDbSymbolTable
 70
     1
  0
STYLE
  5
11
330
3
100
AcDbSymbolTableRecord
100
AcDbTextStyleTableRecord
  2
STANDARD
 70
     0
 40
0.0
 41
1.0
 50
0.0
 71
     0
 42
2.5
  3
txt
  4

  0
ENDTAB
  0
TABLE
  2
VIEW
  5
6
330
0
100
AcDbSymbolTable
 70
     0
  0
ENDTAB
  0
TABLE
  2
UCS
  5
7
330
0
100
AcDbSymbolTable
 70
     0
  0
ENDTAB
  0
TABLE
  2
APPID
  5
9
330
0
100
AcDbSymbolTable
 70
     2
  0
APPID
  5
12
330
9
100
AcDbSymbolTableRecord
100
AcDbRegAppTableRecord
  2
ACAD
 70
     0
  0
ENDTAB
  0
TABLE
  2
DIMSTYLE
  5
A
330
0
100
AcDbSymbolTable
 70
     1
  0
DIMSTYLE
105
27
330
A
100
AcDbSymbolTableRecord
100
AcDbDimStyleTableRecord
  2
ISO-25
 70
     0
  3

  4

  5

  6

  7

 40
1.0
 41
2.5
 42
0.625
 43
3.75
 44
1.25
 45
0.0
 46
0.0
 47
0.0
 48
0.0
140
2.5
141
2.5
142
0.0
143
0.03937007874016
144
1.0
145
0.0
146
1.0
147
0.625
 71
     0
 72
     0
 73
     0
 74
     0
 75
     0
 76
     0
 77
     1
 78
     8
170
     0
171
     3
172
     1
173
     0
174
     0
175
     0
176
     0
177
     0
178
     0
270
     2
271
     2
272
     2
273
     2
274
     3
340
11
275
     0
280
     0
281
     0
282
     0
283
     0
284
     8
285
     0
286
     0
287
     3
288
     0
  0
ENDTAB
  0
TABLE
  2
BLOCK_RECORD
  5
1
330
0
100
AcDbSymbolTable
 70
     1
  0
BLOCK_RECORD
  5
1F
330
1
100
AcDbSymbolTableRecord
100
AcDbBlockTableRecord
  2
*MODEL_SPACE
  0
BLOCK_RECORD
  5
1B
330
1
100
AcDbSymbolTableRecord
100
AcDbBlockTableRecord
  2
*PAPER_SPACE
  0
ENDTAB
  0
ENDSEC
  0
SECTION
  2
BLOCKS
  0
BLOCK
  5
20
330
1F
100
AcDbEntity
  8
0
100
AcDbBlockBegin
  2
*MODEL_SPACE
 70
     0
 10
0.0
 20
0.0
 30
0.0
  3
*MODEL_SPACE
  1

  0
ENDBLK
  5
21
330
1F
100
AcDbEntity
  8
0
100
AcDbBlockEnd
  0
BLOCK
  5
1C
330
1B
100
AcDbEntity
 67
     1
  8
0
100
AcDbBlockBegin
  2
*PAPER_SPACE
  1

  0
ENDBLK
  5
1D
330
1B
100
AcDbEntity
 67
     1
  8
0
100
AcDbBlockEnd
  0
ENDSEC
  0
SECTION
  2
ENTITIES
  0
SPLINE
  5
100
100
AcDbEntity
  8
SupportFront_V2
 62
7
100
AcDbSpline
 70
8
 71
3
 72
8
 73
4
 74
0
 40
0
 40
0
 40
0
 40
0
 40
1
 40
1
 40
1
 40
1
 10
28.220985
 20
49.293062
 30
0.0
 10
26.805896
 20
49.293062
 30
0.0
 10
25.656532
 20
48.143692
 30
0.0
 10
25.656532
 20
46.728602
 30
0.0
  0
SPLINE
  5
101
100
AcDbEntity
  8
SupportFront_V2
 62
7
100
AcDbSpline
 70
8
 71
3
 72
8
 73
4
 74
0
 40
0
 40
0
 40
0
 40
0
 40
1
 40
1
 40
1
 40
1
 10
25.656532
 20
46.728602
 30
0.0
 10
25.656532
 20
45.313522
 30
0.0
 10
26.805896
 20
44.164152
 30
0.0
 10
28.220985
 20
44.164152
 30
0.0
  0
SPLINE
  5
102
100
AcDbEntity
  8
SupportFront_V2
 62
7
100
AcDbSpline
 70
8
 71
3
 72
8
 73
4
 74
0
 40
0
 40
0
 40
0
 40
0
 40
1
 40
1
 40
1
 40
1
 10
28.220985
 20
44.164152
 30
0.0
 10
29.636074
 20
44.164152
 30
0.0
 10
30.785438
 20
45.313522
 30
0.0
 10
30.785438
 20
46.728602
 30
0.0
  0
SPLINE
  5
103
100
AcDbEntity
  8
SupportFront_V2
 62
7
100
AcDbSpline
 70
8
 71
3
 72
8
 73
4
 74
0
 40
0
 40
0
 40
0
 40
0
 40
1
 40
1
 40
1
 40
1
 10
30.785438
 20
46.728602
 30
0.0
 10
30.785438
 20
48.143692
 30
0.0
 10
29.636074
 20
49.293062
 30
0.0
 10
28.220985
 20
49.293062
 30
0.0
  0
LINE
  5
104
100
AcDbEntity
  8
SupportFront_V2
 62
7
100
AcDbLine
 10
28.220985
 20
49.293062
 30
0.0
 11
28.220985
 21
49.293062
 31
0.0
  0
LINE
  5
105
100
AcDbEntity
  8
SupportFront_V2
 62
7
100
AcDbLine
 10
137.189735
 20
253.421966
 30
0.0
 11
114.008094
 21
217.291107
 31
0.0
  0
LINE
  5
106
100
AcDbEntity
  8
SupportFront_V2
 62
7
100
AcDbLine
 10
114.008094
 20
217.291107
 30
0.0
 11
182.324505
 21
217.310638
 31
0.0
  0
LINE
  5
107
100
AcDbEntity
  8
SupportFront_V2
 62
7
100
AcDbLine
 10
182.324505
 20
217.310638
 30
0.0
 11
182.226845
 21
217.462982
 31
0.0
  0
LINE
  5
108
100
AcDbEntity
  8
SupportFront_V2
 62
7
100
AcDbLine
 10
182.226845
 20
217.462982
 30
0.0
 11
159.428015
 21
253.144623
 31
0.0
  0
LINE
  5
109
100
AcDbEntity
  8
SupportFront_V2
 62
7
100
AcDbLine
 10
159.428015
 20
253.144623
 30
0.0
 11
159.342115
 21
253.084076
 31
0.0
  0
SPLINE
  5
10a
100
AcDbEntity
  8
SupportFront_V2
 62
7
100
AcDbSpline
 70
8
 71
3
 72
8
 73
4
 74
0
 40
0
 40
0
 40
0
 40
0
 40
1
 40
1
 40
1
 40
1
 10
159.342115
 20
253.084076
 30
0.0
 10
156.178695
 20
250.897017
 30
0.0
 10
152.342515
 20
249.616150
 30
0.0
 10
148.205405
 20
249.615326
 30
0.0
  0
SPLINE
  5
10b
100
AcDbEntity
  8
SupportFront_V2
 62
7
100
AcDbSpline
 70
8
 71
3
 72
8
 73
4
 74
0
 40
0
 40
0
 40
0
 40
0
 40
1
 40
1
 40
1
 40
1
 10
148.205405
 20
249.615326
 30
0.0
 10
143.993935
 20
249.785557
 30
0.0
 10
140.289045
 20
251.176956
 30
0.0
 10
137.275715
 20
253.359466
 30
0.0
  0
LINE
  5
10c
100
AcDbEntity
  8
SupportFront_V2
 62
7
100
AcDbLine
 10
137.275715
 20
253.359466
 30
0.0
 11
137.189735
 21
253.421966
 31
0.0
  0
LINE
  5
10d
100
AcDbEntity
  8
SupportFront_V2
 62
7
100
AcDbLine
 10
148.197545
 20
249.416107
 30
0.0
 11
148.199545
 21
249.416107
 31
0.0
  0
LINE
  5
10e
100
AcDbEntity
  8
SupportFront_V2
 62
7
100
AcDbLine
 10
257.654015
 20
72.528742
 30
0.0
 11
232.555015
 21
138.634872
 31
0.0
  0
LINE
  5
10f
100
AcDbEntity
  8
SupportFront_V2
 62
7
100
AcDbLine
 10
232.555015
 20
138.634872
 30
0.0
 11
232.549015
 21
138.642872
 31
0.0
  0
LINE
  5
110
100
AcDbEntity
  8
SupportFront_V2
 62
7
100
AcDbLine
 10
232.549015
 20
138.642872
 30
0.0
 11
198.134955
 21
192.498338
 31
0.0
  0
LINE
  5
111
100
AcDbEntity
  8
SupportFront_V2
 62
7
100
AcDbLine
 10
198.134955
 20
192.498338
 30
0.0
 11
98.246376
 21
192.605560
 31
0.0
  0
LINE
  5
112
100
AcDbEntity
  8
SupportFront_V2
 62
7
100
AcDbLine
 10
98.246376
 20
192.605560
 30
0.0
 11
63.887001
 21
138.634862
 31
0.0
  0
LINE
  5
113
100
AcDbEntity
  8
SupportFront_V2
 62
7
100
AcDbLine
 10
63.887001
 20
138.634862
 30
0.0
 11
34.047157
 21
60.431732
 31
0.0
  0
LINE
  5
114
100
AcDbEntity
  8
SupportFront_V2
 62
7
100
AcDbLine
 10
34.047157
 20
60.431732
 30
0.0
 11
34.045207
 21
60.431732
 31
0.0
  0
LINE
  5
115
100
AcDbEntity
  8
SupportFront_V2
 62
7
100
AcDbLine
 10
34.045207
 20
60.431732
 30
0.0
 11
33.945598
 21
60.259862
 31
0.0
  0
LINE
  5
116
100
AcDbEntity
  8
SupportFront_V2
 62
7
100
AcDbLine
 10
33.945598
 20
60.259862
 30
0.0
 11
34.140910
 21
60.117282
 31
0.0
  0
LINE
  5
117
100
AcDbEntity
  8
SupportFront_V2
 62
7
100
AcDbLine
 10
34.140910
 20
60.117282
 30
0.0
 11
34.148720
 21
60.136782
 31
0.0
  0
SPLINE
  5
118
100
AcDbEntity
  8
SupportFront_V2
 62
7
100
AcDbSpline
 70
8
 71
3
 72
8
 73
4
 74
0
 40
0
 40
0
 40
0
 40
0
 40
1
 40
1
 40
1
 40
1
 10
34.148720
 20
60.136782
 30
0.0
 10
39.298839
 20
57.855112
 30
0.0
 10
42.906534
 20
52.725252
 30
0.0
 10
42.906533
 20
46.728572
 30
0.0
  0
SPLINE
  5
119
100
AcDbEntity
  8
SupportFront_V2
 62
7
100
AcDbSpline
 70
8
 71
3
 72
8
 73
4
 74
0
 40
0
 40
0
 40
0
 40
0
 40
1
 40
1
 40
1
 40
1
 10
42.906533
 20
46.728572
 30
0.0
 10
42.906532
 20
38.616352
 30
0.0
 10
36.332969
 20
32.041692
 30
0.0
 10
28.240517
 20
31.974672
 30
0.0
  0
LINE
  5
11a
100
AcDbEntity
  8
SupportFront_V2
 62
7
100
AcDbLine
 10
28.240517
 20
31.974672
 30
0.0
 11
28.224892
 21
31.775452
 31
0.0
  0
LINE
  5
11b
100
AcDbEntity
  8
SupportFront_V2
 62
7
100
AcDbLine
 10
28.224892
 20
31.775452
 30
0.0
 11
133.193645
 21
14.072332
 31
0.0
  0
LINE
  5
11c
100
AcDbEntity
  8
SupportFront_V2
 62
7
100
AcDbLine
 10
133.193645
 20
14.072332
 30
0.0
 11
163.209265
 21
14.072332
 31
0.0
  0
LINE
  5
11d
100
AcDbEntity
  8
SupportFront_V2
 62
7
100
AcDbLine
 10
163.209265
 20
14.072332
 30
0.0
 11
235.385385
 21
26.244302
 31
0.0
  0
LINE
  5
11e
100
AcDbEntity
  8
SupportFront_V2
 62
7
100
AcDbLine
 10
0.000000
 20
2.666392
 30
0.0
 11
0.000000
 21
0.002072
 31
0.0
  0
LINE
  5
11f
100
AcDbEntity
  8
SupportFront_V2
 62
7
100
AcDbLine
 10
0.000000
 20
0.002072
 30
0.0
 11
19.999812
 21
0.002072
 31
0.0
  0
LINE
  5
120
100
AcDbEntity
  8
SupportFront_V2
 62
7
100
AcDbLine
 10
19.999812
 20
0.002072
 30
0.0
 11
19.999812
 21
2.637162
 31
0.0
  0
LINE
  5
121
100
AcDbEntity
  8
SupportFront_V2
 62
7
100
AcDbLine
 10
19.999812
 20
2.637162
 30
0.0
 11
74.898268
 21
2.625562
 31
0.0
  0
LINE
  5
122
100
AcDbEntity
  8
SupportFront_V2
 62
7
100
AcDbLine
 10
74.898268
 20
2.625562
 30
0.0
 11
74.898268
 21
0.001982
 31
0.0
  0
LINE
  5
123
100
AcDbEntity
  8
SupportFront_V2
 62
7
100
AcDbLine
 10
74.898268
 20
0.001982
 30
0.0
 11
94.898085
 21
0.001982
 31
0.0
  0
LINE
  5
124
100
AcDbEntity
  8
SupportFront_V2
 62
7
100
AcDbLine
 10
94.898085
 20
0.001982
 30
0.0
 11
94.898085
 21
2.621322
 31
0.0
  0
LINE
  5
125
100
AcDbEntity
  8
SupportFront_V2
 62
7
100
AcDbLine
 10
94.898085
 20
2.621322
 30
0.0
 11
138.365195
 21
2.611222
 31
0.0
  0
LINE
  5
126
100
AcDbEntity
  8
SupportFront_V2
 62
7
100
AcDbLine
 10
138.365195
 20
2.611222
 30
0.0
 11
138.365195
 21
0.000692
 31
0.0
  0
LINE
  5
127
100
AcDbEntity
  8
SupportFront_V2
 62
7
100
AcDbLine
 10
138.365195
 20
0.000692
 30
0.0
 11
158.364495
 21
0.000692
 31
0.0
  0
LINE
  5
128
100
AcDbEntity
  8
SupportFront_V2
 62
7
100
AcDbLine
 10
158.364495
 20
0.000692
 30
0.0
 11
158.364495
 21
2.607042
 31
0.0
  0
LINE
  5
129
100
AcDbEntity
  8
SupportFront_V2
 62
7
100
AcDbLine
 10
158.364495
 20
2.607042
 30
0.0
 11
212.496075
 21
2.596042
 31
0.0
  0
LINE
  5
12a
100
AcDbEntity
  8
SupportFront_V2
 62
7
100
AcDbLine
 10
212.496075
 20
2.596042
 30
0.0
 11
212.496075
 21
0.000792
 31
0.0
  0
LINE
  5
12b
100
AcDbEntity
  8
SupportFront_V2
 62
7
100
AcDbLine
 10
212.496075
 20
0.000792
 30
0.0
 11
232.495365
 21
0.000792
 31
0.0
  0
LINE
  5
12c
100
AcDbEntity
  8
SupportFront_V2
 62
7
100
AcDbLine
 10
232.495365
 20
0.000792
 30
0.0
 11
232.495365
 21
2.591882
 31
0.0
  0
LINE
  5
12d
100
AcDbEntity
  8
SupportFront_V2
 62
7
100
AcDbLine
 10
232.495365
 20
2.591882
 30
0.0
 11
276.442545
 21
2.581782
 31
0.0
  0
LINE
  5
12e
100
AcDbEntity
  8
SupportFront_V2
 62
7
100
AcDbLine
 10
276.442545
 20
2.581782
 30
0.0
 11
276.442545
 21
-0.000008
 31
0.0
  0
LINE
  5
12f
100
AcDbEntity
  8
SupportFront_V2
 62
7
100
AcDbLine
 10
276.442545
 20
-0.000008
 30
0.0
 11
296.441845
 21
-0.000008
 31
0.0
  0
LINE
  5
130
100
AcDbEntity
  8
SupportFront_V2
 62
7
100
AcDbLine
 10
296.441845
 20
-0.000008
 30
0.0
 11
296.441845
 21
2.604982
 31
0.0
  0
LINE
  5
131
100
AcDbEntity
  8
SupportFront_V2
 62
7
100
AcDbLine
 10
296.441845
 20
2.604982
 30
0.0
 11
296.441845
 21
2.664382
 31
0.0
  0
LINE
  5
132
100
AcDbEntity
  8
SupportFront_V2
 62
7
100
AcDbLine
 10
296.441845
 20
2.664382
 30
0.0
 11
296.441845
 21
47.676362
 31
0.0
  0
LINE
  5
133
100
AcDbEntity
  8
SupportFront_V2
 62
7
100
AcDbLine
 10
296.441845
 20
47.676362
 30
0.0
 11
295.562845
 21
62.254062
 31
0.0
  0
LINE
  5
134
100
AcDbEntity
  8
SupportFront_V2
 62
7
100
AcDbLine
 10
295.562845
 20
62.254062
 30
0.0
 11
268.248745
 21
137.444352
 31
0.0
  0
LINE
  5
135
100
AcDbEntity
  8
SupportFront_V2
 62
7
100
AcDbLine
 10
268.248745
 20
137.444352
 30
0.0
 11
164.679355
 21
271.612131
 31
0.0
  0
LINE
  5
136
100
AcDbEntity
  8
SupportFront_V2
 62
7
100
AcDbLine
 10
0.879018
 20
62.253922
 30
0.0
 11
0.000002
 21
47.676222
 31
0.0
  0
LINE
  5
137
100
AcDbEntity
  8
SupportFront_V2
 62
7
100
AcDbLine
 10
0.000002
 20
47.676222
 30
0.0
 11
0.000002
 21
2.666532
 31
0.0
  0
LINE
  5
138
100
AcDbEntity
  8
SupportFront_V2
 62
7
100
AcDbLine
 10
0.939996
 20
62.243712
 30
0.0
 11
28.248922
 21
137.419172
 31
0.0
  0
LINE
  5
139
100
AcDbEntity
  8
SupportFront_V2
 62
7
100
AcDbLine
 10
28.248922
 20
137.419172
 30
0.0
 11
131.790745
 21
270.861298
 31
0.0
  0
LINE
  5
13a
100
AcDbEntity
  8
SupportFront_V2
 62
7
100
AcDbLine
 10
131.790745
 20
270.861298
 30
0.0
 11
131.790745
 21
270.861298
 31
0.0
  0
SPLINE
  5
13b
100
AcDbEntity
  8
SupportFront_V2
 62
7
100
AcDbSpline
 70
8
 71
3
 72
8
 73
4
 74
0
 40
0
 40
0
 40
0
 40
0
 40
1
 40
1
 40
1
 40
1
 10
131.790745
 20
270.861298
 30
0.0
 10
134.843515
 20
275.405309
 30
0.0
 10
139.750715
 20
278.764830
 30
0.0
 10
145.810585
 20
279.470765
 30
0.0
  0
SPLINE
  5
13c
100
AcDbEntity
  8
SupportFront_V2
 62
7
100
AcDbSpline
 70
8
 71
3
 72
8
 73
4
 74
0
 40
0
 40
0
 40
0
 40
0
 40
1
 40
1
 40
1
 40
1
 10
150.598955
 20
279.478665
 30
0.0
 10
156.489195
 20
278.836844
 30
0.0
 10
161.576855
 20
275.860606
 30
0.0
 10
164.678835
 20
271.612170
 30
0.0
  0
LINE
  5
13d
100
AcDbEntity
  8
SupportFront_V2
 62
7
100
AcDbLine
 10
164.678835
 20
271.612170
 30
0.0
 11
164.679355
 21
271.612170
 31
0.0
  0
LINE
  5
13e
100
AcDbEntity
  8
SupportFront_V2
 62
7
100
AcDbLine
 10
145.801435
 20
279.487005
 30
0.0
 11
145.801435
 21
272.534416
 31
0.0
  0
SPLINE
  5
13f
100
AcDbEntity
  8
SupportFront_V2
 62
7
100
AcDbSpline
 70
8
 71
3
 72
8
 73
4
 74
0
 40
0
 40
0
 40
0
 40
0
 40
1
 40
1
 40
1
 40
1
 10
145.801435
 20
272.534416
 30
0.0
 10
145.750892
 20
272.368972
 30
0.0
 10
145.720819
 20
272.196518
 30
0.0
 10
145.720819
 20
272.017652
 30
0.0
  0
LINE
  5
140
100
AcDbEntity
  8
SupportFront_V2
 62
7
100
AcDbLine
 10
145.720819
 20
272.017652
 30
0.0
 11
145.720819
 21
266.170980
 31
0.0
  0
SPLINE
  5
141
100
AcDbEntity
  8
SupportFront_V2
 62
7
100
AcDbSpline
 70
8
 71
3
 72
8
 73
4
 74
0
 40
0
 40
0
 40
0
 40
0
 40
1
 40
1
 40
1
 40
1
 10
145.720819
 20
266.170980
 30
0.0
 10
145.720819
 20
265.022088
 30
0.0
 10
146.829178
 20
264.093071
 30
0.0
 10
148.201288
 20
264.093071
 30
0.0
  0
SPLINE
  5
142
100
AcDbEntity
  8
SupportFront_V2
 62
7
100
AcDbSpline
 70
8
 71
3
 72
8
 73
4
 74
0
 40
0
 40
0
 40
0
 40
0
 40
1
 40
1
 40
1
 40
1
 10
148.201288
 20
264.093071
 30
0.0
 10
149.573407
 20
264.093071
 30
0.0
 10
150.681757
 20
265.022088
 30
0.0
 10
150.681757
 20
266.170980
 30
0.0
  0
LINE
  5
143
100
AcDbEntity
  8
SupportFront_V2
 62
7
100
AcDbLine
 10
150.681757
 20
266.170980
 30
0.0
 11
150.681757
 21
272.017652
 31
0.0
  0
SPLINE
  5
144
100
AcDbEntity
  8
SupportFront_V2
 62
7
100
AcDbSpline
 70
8
 71
3
 72
8
 73
4
 74
0
 40
0
 40
0
 40
0
 40
0
 40
1
 40
1
 40
1
 40
1
 10
150.681757
 20
272.017652
 30
0.0
 10
150.681757
 20
272.196518
 30
0.0
 10
150.652200
 20
272.368972
 30
0.0
 10
150.601657
 20
272.534416
 30
0.0
  0
LINE
  5
145
100
AcDbEntity
  8
SupportFront_V2
 62
7
100
AcDbLine
 10
150.601657
 20
272.534416
 30
0.0
 11
150.601657
 21
279.511324
 31
0.0
  0
SPLINE
  5
146
100
AcDbEntity
  8
SupportFront_V2
 62
7
100
AcDbSpline
 70
8
 71
3
 72
8
 73
4
 74
0
 40
0
 40
0
 40
0
 40
0
 40
1
 40
1
 40
1
 40
1
 10
168.071905
 20
180.441285
 30
0.0
 10
159.973235
 20
180.441285
 30
0.0
 10
153.395335
 20
173.863345
 30
0.0
 10
153.395335
 20
165.764685
 30
0.0
  0
SPLINE
  5
147
100
AcDbEntity
  8
SupportFront_V2
 62
7
100
AcDbSpline
 70
8
 71
3
 72
8
 73
4
 74
0
 40
0
 40
0
 40
0
 40
0
 40
1
 40
1
 40
1
 40
1
 10
153.395335
 20
165.764685
 30
0.0
 10
153.395335
 20
157.666065
 30
0.0
 10
159.973235
 20
151.088125
 30
0.0
 10
168.071905
 20
151.088125
 30
0.0
  0
SPLINE
  5
148
100
AcDbEntity
  8
SupportFront_V2
 62
7
100
AcDbSpline
 70
8
 71
3
 72
8
 73
4
 74
0
 40
0
 40
0
 40
0
 40
0
 40
1
 40
1
 40
1
 40
1
 10
168.071905
 20
151.088125
 30
0.0
 10
176.170575
 20
151.088125
 30
0.0
 10
182.748475
 20
157.666065
 30
0.0
 10
182.748475
 20
165.764685
 30
0.0
  0
SPLINE
  5
149
100
AcDbEntity
  8
SupportFront_V2
 62
7
100
AcDbSpline
 70
8
 71
3
 72
8
 73
4
 74
0
 40
0
 40
0
 40
0
 40
0
 40
1
 40
1
 40
1
 40
1
 10
182.748475
 20
165.764685
 30
0.0
 10
182.748475
 20
173.863345
 30
0.0
 10
176.170575
 20
180.441285
 30
0.0
 10
168.071905
 20
180.441285
 30
0.0
  0
LINE
  5
14a
100
AcDbEntity
  8
SupportFront_V2
 62
7
100
AcDbLine
 10
168.071905
 20
180.441285
 30
0.0
 11
168.071905
 21
180.441285
 31
0.0
  0
SPLINE
  5
14b
100
AcDbEntity
  8
SupportFront_V2
 62
7
100
AcDbSpline
 70
8
 71
3
 72
8
 73
4
 74
0
 40
0
 40
0
 40
0
 40
0
 40
1
 40
1
 40
1
 40
1
 10
168.071905
 20
168.329160
 30
0.0
 10
166.656815
 20
168.329160
 30
0.0
 10
165.507455
 20
167.179790
 30
0.0
 10
165.507455
 20
165.764700
 30
0.0
  0
SPLINE
  5
14c
100
AcDbEntity
  8
SupportFront_V2
 62
7
100
AcDbSpline
 70
8
 71
3
 72
8
 73
4
 74
0
 40
0
 40
0
 40
0
 40
0
 40
1
 40
1
 40
1
 40
1
 10
165.507455
 20
165.764700
 30
0.0
 10
165.507455
 20
164.349620
 30
0.0
 10
166.656815
 20
163.200250
 30
0.0
 10
168.071905
 20
163.200250
 30
0.0
  0
SPLINE
  5
14d
100
AcDbEntity
  8
SupportFront_V2
 62
7
100
AcDbSpline
 70
8
 71
3
 72
8
 73
4
 74
0
 40
0
 40
0
 40
0
 40
0
 40
1
 40
1
 40
1
 40
1
 10
168.071905
 20
163.200250
 30
0.0
 10
169.486995
 20
163.200250
 30
0.0
 10
170.636355
 20
164.349620
 30
0.0
 10
170.636355
 20
165.764700
 30
0.0
  0
SPLINE
  5
14e
100
AcDbEntity
  8
SupportFront_V2
 62
7
100
AcDbSpline
 70
8
 71
3
 72
8
 73
4
 74
0
 40
0
 40
0
 40
0
 40
0
 40
1
 40
1
 40
1
 40
1
 10
170.636355
 20
165.764700
 30
0.0
 10
170.636355
 20
167.179790
 30
0.0
 10
169.486995
 20
168.329160
 30
0.0
 10
168.071905
 20
168.329160
 30
0.0
  0
LINE
  5
14f
100
AcDbEntity
  8
SupportFront_V2
 62
7
100
AcDbLine
 10
168.071905
 20
168.329160
 30
0.0
 11
168.071905
 21
168.329160
 31
0.0
  0
SPLINE
  5
150
100
AcDbEntity
  8
SupportFront_V2
 62
7
100
AcDbSpline
 70
8
 71
3
 72
8
 73
4
 74
0
 40
0
 40
0
 40
0
 40
0
 40
1
 40
1
 40
1
 40
1
 10
123.050839
 20
180.441285
 30
0.0
 10
114.952169
 20
180.441285
 30
0.0
 10
108.374269
 20
173.863345
 30
0.0
 10
108.374269
 20
165.764685
 30
0.0
  0
SPLINE
  5
151
100
AcDbEntity
  8
SupportFront_V2
 62
7
100
AcDbSpline
 70
8
 71
3
 72
8
 73
4
 74
0
 40
0
 40
0
 40
0
 40
0
 40
1
 40
1
 40
1
 40
1
 10
108.374269
 20
165.764685
 30
0.0
 10
108.374269
 20
157.666065
 30
0.0
 10
114.952169
 20
151.088125
 30
0.0
 10
123.050839
 20
151.088125
 30
0.0
  0
SPLINE
  5
152
100
AcDbEntity
  8
SupportFront_V2
 62
7
100
AcDbSpline
 70
8
 71
3
 72
8
 73
4
 74
0
 40
0
 40
0
 40
0
 40
0
 40
1
 40
1
 40
1
 40
1
 10
123.050839
 20
151.088125
 30
0.0
 10
131.149505
 20
151.088125
 30
0.0
 10
137.727405
 20
157.666065
 30
0.0
 10
137.727405
 20
165.764685
 30
0.0
  0
SPLINE
  5
153
100
AcDbEntity
  8
SupportFront_V2
 62
7
100
AcDbSpline
 70
8
 71
3
 72
8
 73
4
 74
0
 40
0
 40
0
 40
0
 40
0
 40
1
 40
1
 40
1
 40
1
 10
137.727405
 20
165.764685
 30
0.0
 10
137.727405
 20
173.863345
 30
0.0
 10
131.149505
 20
180.441285
 30
0.0
 10
123.050839
 20
180.441285
 30
0.0
  0
LINE
  5
154
100
AcDbEntity
  8
SupportFront_V2
 62
7
100
AcDbLine
 10
123.050839
 20
180.441285
 30
0.0
 11
123.050839
 21
180.441285
 31
0.0
  0
SPLINE
  5
155
100
AcDbEntity
  8
SupportFront_V2
 62
7
100
AcDbSpline
 70
8
 71
3
 72
8
 73
4
 74
0
 40
0
 40
0
 40
0
 40
0
 40
1
 40
1
 40
1
 40
1
 10
123.050839
 20
168.329160
 30
0.0
 10
121.635749
 20
168.329160
 30
0.0
 10
120.486389
 20
167.179790
 30
0.0
 10
120.486389
 20
165.764700
 30
0.0
  0
SPLINE
  5
156
100
AcDbEntity
  8
SupportFront_V2
 62
7
100
AcDbSpline
 70
8
 71
3
 72
8
 73
4
 74
0
 40
0
 40
0
 40
0
 40
0
 40
1
 40
1
 40
1
 40
1
 10
120.486389
 20
165.764700
 30
0.0
 10
120.486389
 20
164.349620
 30
0.0
 10
121.635749
 20
163.200250
 30
0.0
 10
123.050839
 20
163.200250
 30
0.0
  0
SPLINE
  5
157
100
AcDbEntity
  8
SupportFront_V2
 62
7
100
AcDbSpline
 70
8
 71
3
 72
8
 73
4
 74
0
 40
0
 40
0
 40
0
 40
0
 40
1
 40
1
 40
1
 40
1
 10
123.050839
 20
163.200250
 30
0.0
 10
124.465929
 20
163.200250
 30
0.0
 10
125.615289
 20
164.349620
 30
0.0
 10
125.615289
 20
165.764700
 30
0.0
  0
SPLINE
  5
158
100
AcDbEntity
  8
SupportFront_V2
 62
7
100
AcDbSpline
 70
8
 71
3
 72
8
 73
4
 74
0
 40
0
 40
0
 40
0
 40
0
 40
1
 40
1
 40
1
 40
1
 10
125.615289
 20
165.764700
 30
0.0
 10
125.615289
 20
167.179790
 30
0.0
 10
124.465929
 20
168.329160
 30
0.0
 10
123.050839
 20
168.329160
 30
0.0
  0
LINE
  5
159
100
AcDbEntity
  8
SupportFront_V2
 62
7
100
AcDbLine
 10
123.050839
 20
168.329160
 30
0.0
 11
123.050839
 21
168.329160
 31
0.0
  0
SPLINE
  5
15a
100
AcDbEntity
  8
SupportFront_V2
 62
7
100
AcDbSpline
 70
8
 71
3
 72
8
 73
4
 74
0
 40
0
 40
0
 40
0
 40
0
 40
1
 40
1
 40
1
 40
1
 10
167.587805
 20
134.936122
 30
0.0
 10
159.489135
 20
134.936122
 30
0.0
 10
152.911235
 20
128.358182
 30
0.0
 10
152.911235
 20
120.259522
 30
0.0
  0
SPLINE
  5
15b
100
AcDbEntity
  8
SupportFront_V2
 62
7
100
AcDbSpline
 70
8
 71
3
 72
8
 73
4
 74
0
 40
0
 40
0
 40
0
 40
0
 40
1
 40
1
 40
1
 40
1
 10
152.911235
 20
120.259522
 30
0.0
 10
152.911235
 20
112.160902
 30
0.0
 10
159.489135
 20
105.582962
 30
0.0
 10
167.587805
 20
105.582962
 30
0.0
  0
SPLINE
  5
15c
100
AcDbEntity
  8
SupportFront_V2
 62
7
100
AcDbSpline
 70
8
 71
3
 72
8
 73
4
 74
0
 40
0
 40
0
 40
0
 40
0
 40
1
 40
1
 40
1
 40
1
 10
167.587805
 20
105.582962
 30
0.0
 10
175.686475
 20
105.582962
 30
0.0
 10
182.264375
 20
112.160902
 30
0.0
 10
182.264375
 20
120.259522
 30
0.0
  0
SPLINE
  5
15d
100
AcDbEntity
  8
SupportFront_V2
 62
7
100
AcDbSpline
 70
8
 71
3
 72
8
 73
4
 74
0
 40
0
 40
0
 40
0
 40
0
 40
1
 40
1
 40
1
 40
1
 10
182.264375
 20
120.259522
 30
0.0
 10
182.264375
 20
128.358182
 30
0.0
 10
175.686475
 20
134.936122
 30
0.0
 10
167.587805
 20
134.936122
 30
0.0
  0
LINE
  5
15e
100
AcDbEntity
  8
SupportFront_V2
 62
7
100
AcDbLine
 10
167.587805
 20
134.936122
 30
0.0
 11
167.587805
 21
134.936122
 31
0.0
  0
SPLINE
  5
15f
100
AcDbEntity
  8
SupportFront_V2
 62
7
100
AcDbSpline
 70
8
 71
3
 72
8
 73
4
 74
0
 40
0
 40
0
 40
0
 40
0
 40
1
 40
1
 40
1
 40
1
 10
167.587805
 20
122.823992
 30
0.0
 10
166.172715
 20
122.823992
 30
0.0
 10
165.023355
 20
121.674622
 30
0.0
 10
165.023355
 20
120.259532
 30
0.0
  0
SPLINE
  5
160
100
AcDbEntity
  8
SupportFront_V2
 62
7
100
AcDbSpline
 70
8
 71
3
 72
8
 73
4
 74
0
 40
0
 40
0
 40
0
 40
0
 40
1
 40
1
 40
1
 40
1
 10
165.023355
 20
120.259532
 30
0.0
 10
165.023355
 20
118.844452
 30
0.0
 10
166.172715
 20
117.695082
 30
0.0
 10
167.587805
 20
117.695082
 30
0.0
  0
SPLINE
  5
161
100
AcDbEntity
  8
SupportFront_V2
 62
7
100
AcDbSpline
 70
8
 71
3
 72
8
 73
4
 74
0
 40
0
 40
0
 40
0
 40
0
 40
1
 40
1
 40
1
 40
1
 10
167.587805
 20
117.695082
 30
0.0
 10
169.002895
 20
117.695082
 30
0.0
 10
170.152255
 20
118.844452
 30
0.0
 10
170.152255
 20
120.259532
 30
0.0
  0
SPLINE
  5
162
100
AcDbEntity
  8
SupportFront_V2
 62
7
100
AcDbSpline
 70
8
 71
3
 72
8
 73
4
 74
0
 40
0
 40
0
 40
0
 40
0
 40
1
 40
1
 40
1
 40
1
 10
170.152255
 20
120.259532
 30
0.0
 10
170.152255
 20
121.674622
 30
0.0
 10
169.002895
 20
122.823992
 30
0.0
 10
167.587805
 20
122.823992
 30
0.0
  0
LINE
  5
163
100
AcDbEntity
  8
SupportFront_V2
 62
7
100
AcDbLine
 10
167.587805
 20
122.823992
 30
0.0
 11
167.587805
 21
122.823992
 31
0.0
  0
SPLINE
  5
164
100
AcDbEntity
  8
SupportFront_V2
 62
7
100
AcDbSpline
 70
8
 71
3
 72
8
 73
4
 74
0
 40
0
 40
0
 40
0
 40
0
 40
1
 40
1
 40
1
 40
1
 10
122.566742
 20
134.936122
 30
0.0
 10
114.468072
 20
134.936122
 30
0.0
 10
107.890172
 20
128.358182
 30
0.0
 10
107.890172
 20
120.259522
 30
0.0
  0
SPLINE
  5
165
100
AcDbEntity
  8
SupportFront_V2
 62
7
100
AcDbSpline
 70
8
 71
3
 72
8
 73
4
 74
0
 40
0
 40
0
 40
0
 40
0
 40
1
 40
1
 40
1
 40
1
 10
107.890172
 20
120.259522
 30
0.0
 10
107.890172
 20
112.160902
 30
0.0
 10
114.468072
 20
105.582962
 30
0.0
 10
122.566742
 20
105.582962
 30
0.0
  0
SPLINE
  5
166
100
AcDbEntity
  8
SupportFront_V2
 62
7
100
AcDbSpline
 70
8
 71
3
 72
8
 73
4
 74
0
 40
0
 40
0
 40
0
 40
0
 40
1
 40
1
 40
1
 40
1
 10
122.566742
 20
105.582962
 30
0.0
 10
130.665405
 20
105.582962
 30
0.0
 10
137.243305
 20
112.160902
 30
0.0
 10
137.243305
 20
120.259522
 30
0.0
  0
SPLINE
  5
167
100
AcDbEntity
  8
SupportFront_V2
 62
7
100
AcDbSpline
 70
8
 71
3
 72
8
 73
4
 74
0
 40
0
 40
0
 40
0
 40
0
 40
1
 40
1
 40
1
 40
1
 10
137.243305
 20
120.259522
 30
0.0
 10
137.243305
 20
128.358182
 30
0.0
 10
130.665405
 20
134.936122
 30
0.0
 10
122.566742
 20
134.936122
 30
0.0
  0
LINE
  5
168
100
AcDbEntity
  8
SupportFront_V2
 62
7
100
AcDbLine
 10
122.566742
 20
134.936122
 30
0.0
 11
122.566742
 21
134.936122
 31
0.0
  0
SPLINE
  5
169
100
AcDbEntity
  8
SupportFront_V2
 62
7
100
AcDbSpline
 70
8
 71
3
 72
8
 73
4
 74
0
 40
0
 40
0
 40
0
 40
0
 40
1
 40
1
 40
1
 40
1
 10
122.566742
 20
122.823992
 30
0.0
 10
121.151652
 20
122.823992
 30
0.0
 10
120.002292
 20
121.674622
 30
0.0
 10
120.002292
 20
120.259532
 30
0.0
  0
SPLINE
  5
16a
100
AcDbEntity
  8
SupportFront_V2
 62
7
100
AcDbSpline
 70
8
 71
3
 72
8
 73
4
 74
0
 40
0
 40
0
 40
0
 40
0
 40
1
 40
1
 40
1
 40
1
 10
120.002292
 20
120.259532
 30
0.0
 10
120.002292
 20
118.844452
 30
0.0
 10
121.151652
 20
117.695082
 30
0.0
 10
122.566742
 20
117.695082
 30
0.0
  0
SPLINE
  5
16b
100
AcDbEntity
  8
SupportFront_V2
 62
7
100
AcDbSpline
 70
8
 71
3
 72
8
 73
4
 74
0
 40
0
 40
0
 40
0
 40
0
 40
1
 40
1
 40
1
 40
1
 10
122.566742
 20
117.695082
 30
0.0
 10
123.981832
 20
117.695082
 30
0.0
 10
125.131192
 20
118.844452
 30
0.0
 10
125.131192
 20
120.259532
 30
0.0
  0
SPLINE
  5
16c
100
AcDbEntity
  8
SupportFront_V2
 62
7
100
AcDbSpline
 70
8
 71
3
 72
8
 73
4
 74
0
 40
0
 40
0
 40
0
 40
0
 40
1
 40
1
 40
1
 40
1
 10
125.131192
 20
120.259532
 30
0.0
 10
125.131192
 20
121.674622
 30
0.0
 10
123.981832
 20
122.823992
 30
0.0
 10
122.566742
 20
122.823992
 30
0.0
  0
LINE
  5
16d
100
AcDbEntity
  8
SupportFront_V2
 62
7
100
AcDbLine
 10
122.566742
 20
122.823992
 30
0.0
 11
122.566742
 21
122.823992
 31
0.0
  0
LINE
  5
16e
100
AcDbEntity
  8
SupportFront_V2
 62
7
100
AcDbLine
 10
252.632315
 20
52.552872
 30
0.0
 11
274.121095
 21
52.552872
 31
0.0
  0
LINE
  5
16f
100
AcDbEntity
  8
SupportFront_V2
 62
7
100
AcDbLine
 10
274.121095
 20
52.552872
 30
0.0
 11
274.121095
 21
40.973422
 31
0.0
  0
LINE
  5
170
100
AcDbEntity
  8
SupportFront_V2
 62
7
100
AcDbLine
 10
274.121095
 20
40.973422
 30
0.0
 11
252.632315
 21
40.973422
 31
0.0
  0
LINE
  5
171
100
AcDbEntity
  8
SupportFront_V2
 62
7
100
AcDbLine
 10
252.632315
 20
40.973422
 30
0.0
 11
252.632315
 21
52.552872
 31
0.0
  0
LINE
  5
172
100
AcDbEntity
  8
SupportFront_V2
 62
7
100
AcDbLine
 10
235.385385
 20
26.244302
 30
0.0
 11
235.385385
 21
59.901362
 31
0.0
  0
SPLINE
  5
173
100
AcDbEntity
  8
SupportFront_V2
 62
7
100
AcDbSpline
 70
8
 71
3
 72
8
 73
4
 74
0
 40
0
 40
0
 40
0
 40
0
 40
1
 40
1
 40
1
 40
1
 10
235.385385
 20
59.901362
 30
0.0
 10
235.385385
 20
59.901362
 30
0.0
 10
257.482745
 20
72.554562
 30
0.0
 10
257.653045
 20
72.528892
 30
0.0
  0
LINE
  5
174
100
AcDbEntity
  8
SupportFront_V2
 62
7
100
AcDbLine
 10
257.653045
 20
72.528892
 30
0.0
 11
257.654015
 21
72.528742
 31
0.0
  0
ENDSEC
  0
SECTION
  2
OBJECTS
  0
DICTIONARY
  5
C
330
0
100
AcDbDictionary
  3
ACAD_GROUP
350
D
  3
ACAD_MLINESTYLE
350
17
  0
DICTIONARY
  5
D
330
C
100
AcDbDictionary
  0
DICTIONARY
  5
1A
330
C
100
AcDbDictionary
  0
DICTIONARY
  5
17
330
C
100
AcDbDictionary
  3
STANDARD
350
18
  0
DICTIONARY
  5
19
330
C
100
AcDbDictionary
  0
ENDSEC
  0
EOF
