  0
SECTION
  2
HEADER
  9
$ACADVER
  1
AC1014
  9
$HANDSEED
  5
FFFF
  9
$MEASUREMENT
 70
     1
  0
ENDSEC
  0
SECTION
  2
TABLES
  0
TABLE
  2
VPORT
  5
8
330
0
100
AcDbSymbolTable
 70
     4
  0
VPORT
  5
2E
330
8
100
AcDbSymbolTableRecord
100
AcDbViewportTableRecord
  2
*ACTIVE
 70
     0
 10
0.0
 20
0.0
 11
1.0
 21
1.0
 12
210.0
 22
148.5
 13
0.0
 23
0.0
 14
10.0
 24
10.0
 15
10.0
 25
10.0
 16
0.0
 26
0.0
 36
1.0
 17
0.0
 27
0.0
 37
0.0
 40
341.0
 41
1.24
 42
50.0
 43
0.0
 44
0.0
 50
0.0
 51
0.0
 71
     0
 72
   100
 73
     1
 74
     3
 75
     0
 76
     0
 77
     0
 78
     0
  0
ENDTAB
  0
TABLE
  2
LTYPE
  5
5
330
0
100
AcDbSymbolTable
 70
     1
  0
LTYPE
  5
14
330
5
100
AcDbSymbolTableRecord
100
AcDbLinetypeTableRecord
  2
BYBLOCK
 70
     0
  3

 72
    65
 73
     0
 40
0.0
  0
LTYPE
  5
15
330
5
100
AcDbSymbolTableRecord
100
AcDbLinetypeTableRecord
  2
BYLAYER
 70
     0
  3

 72
    65
 73
     0
 40
0.0
  0
LTYPE
  5
16
330
5
100
AcDbSymbolTableRecord
100
AcDbLinetypeTableRecord
  2
CONTINUOUS
 70
     0
  3
Solid line
 72
    65
 73
     0
 40
0.0
  0
ENDTAB
  0
TABLE
  2
LAYER
  5
2
100
AcDbSymbolTable
 70
4
  0
LAYER
  5
50
100
AcDbSymbolTableRecord
100
AcDbLayerTableRecord
  2
0
 70
0
  6
CONTINUOUS
  0
LAYER
  5
51
100
AcDbSymbolTableRecord
100
AcDbLayerTableRecord
  2
Support
 70
0
  6
CONTINUOUS
  0
LAYER
  5
52
100
AcDbSymbolTableRecord
100
AcDbLayerTableRecord
  2
Circles
 70
0
  6
CONTINUOUS
  0
LAYER
  5
53
100
AcDbSymbolTableRecord
100
AcDbLayerTableRecord
  2
Construction
 70
0
  6
CONTINUOUS
  0
ENDTAB
  0
TABLE
  2
STYLE
  5
3
330
0
100
AcDbSymbolTable
 70
     1
  0
STYLE
  5
11
330
3
100
AcDbSymbolTableRecord
100
AcDbTextStyleTableRecord
  2
STANDARD
 70
     0
 40
0.0
 41
1.0
 50
0.0
 71
     0
 42
2.5
  3
txt
  4

  0
ENDTAB
  0
TABLE
  2
VIEW
  5
6
330
0
100
AcDbSymbolTable
 70
     0
  0
ENDTAB
  0
TABLE
  2
UCS
  5
7
330
0
100
AcDbSymbolTable
 70
     0
  0
ENDTAB
  0
TABLE
  2
APPID
  5
9
330
0
100
AcDbSymbolTable
 70
     2
  0
APPID
  5
12
330
9
100
AcDbSymbolTableRecord
100
AcDbRegAppTableRecord
  2
ACAD
 70
     0
  0
ENDTAB
  0
TABLE
  2
DIMSTYLE
  5
A
330
0
100
AcDbSymbolTable
 70
     1
  0
DIMSTYLE
105
27
330
A
100
AcDbSymbolTableRecord
100
AcDbDimStyleTableRecord
  2
ISO-25
 70
     0
  3

  4

  5

  6

  7

 40
1.0
 41
2.5
 42
0.625
 43
3.75
 44
1.25
 45
0.0
 46
0.0
 47
0.0
 48
0.0
140
2.5
141
2.5
142
0.0
143
0.03937007874016
144
1.0
145
0.0
146
1.0
147
0.625
 71
     0
 72
     0
 73
     0
 74
     0
 75
     0
 76
     0
 77
     1
 78
     8
170
     0
171
     3
172
     1
173
     0
174
     0
175
     0
176
     0
177
     0
178
     0
270
     2
271
     2
272
     2
273
     2
274
     3
340
11
275
     0
280
     0
281
     0
282
     0
283
     0
284
     8
285
     0
286
     0
287
     3
288
     0
  0
ENDTAB
  0
TABLE
  2
BLOCK_RECORD
  5
1
330
0
100
AcDbSymbolTable
 70
     1
  0
BLOCK_RECORD
  5
1F
330
1
100
AcDbSymbolTableRecord
100
AcDbBlockTableRecord
  2
*MODEL_SPACE
  0
BLOCK_RECORD
  5
1B
330
1
100
AcDbSymbolTableRecord
100
AcDbBlockTableRecord
  2
*PAPER_SPACE
  0
ENDTAB
  0
ENDSEC
  0
SECTION
  2
BLOCKS
  0
BLOCK
  5
20
330
1F
100
AcDbEntity
  8
0
100
AcDbBlockBegin
  2
*MODEL_SPACE
 70
     0
 10
0.0
 20
0.0
 30
0.0
  3
*MODEL_SPACE
  1

  0
ENDBLK
  5
21
330
1F
100
AcDbEntity
  8
0
100
AcDbBlockEnd
  0
BLOCK
  5
1C
330
1B
100
AcDbEntity
 67
     1
  8
0
100
AcDbBlockBegin
  2
*PAPER_SPACE
  1

  0
ENDBLK
  5
1D
330
1B
100
AcDbEntity
 67
     1
  8
0
100
AcDbBlockEnd
  0
ENDSEC
  0
SECTION
  2
ENTITIES
  0
SPLINE
  5
100
100
AcDbEntity
  8
Support
 62
7
100
AcDbSpline
 70
8
 71
3
 72
8
 73
4
 74
0
 40
0
 40
0
 40
0
 40
0
 40
1
 40
1
 40
1
 40
1
 10
28.220985
 20
49.293062
 30
0.0
 10
26.805896
 20
49.293062
 30
0.0
 10
25.656532
 20
48.143692
 30
0.0
 10
25.656532
 20
46.728602
 30
0.0
  0
SPLINE
  5
101
100
AcDbEntity
  8
Support
 62
7
100
AcDbSpline
 70
8
 71
3
 72
8
 73
4
 74
0
 40
0
 40
0
 40
0
 40
0
 40
1
 40
1
 40
1
 40
1
 10
25.656532
 20
46.728602
 30
0.0
 10
25.656532
 20
45.313522
 30
0.0
 10
26.805896
 20
44.164152
 30
0.0
 10
28.220985
 20
44.164152
 30
0.0
  0
SPLINE
  5
102
100
AcDbEntity
  8
Support
 62
7
100
AcDbSpline
 70
8
 71
3
 72
8
 73
4
 74
0
 40
0
 40
0
 40
0
 40
0
 40
1
 40
1
 40
1
 40
1
 10
28.220985
 20
44.164152
 30
0.0
 10
29.636074
 20
44.164152
 30
0.0
 10
30.785438
 20
45.313522
 30
0.0
 10
30.785438
 20
46.728602
 30
0.0
  0
SPLINE
  5
103
100
AcDbEntity
  8
Support
 62
7
100
AcDbSpline
 70
8
 71
3
 72
8
 73
4
 74
0
 40
0
 40
0
 40
0
 40
0
 40
1
 40
1
 40
1
 40
1
 10
30.785438
 20
46.728602
 30
0.0
 10
30.785438
 20
48.143692
 30
0.0
 10
29.636074
 20
49.293062
 30
0.0
 10
28.220985
 20
49.293062
 30
0.0
  0
LINE
  5
104
100
AcDbEntity
  8
Support
 62
7
100
AcDbLine
 10
28.220985
 20
49.293062
 30
0.0
 11
28.220985
 21
49.293062
 31
0.0
  0
SPLINE
  5
105
100
AcDbEntity
  8
Support
 62
7
100
AcDbSpline
 70
8
 71
3
 72
8
 73
4
 74
0
 40
0
 40
0
 40
0
 40
0
 40
1
 40
1
 40
1
 40
1
 10
28.220985
 20
49.091892
 30
0.0
 10
29.527986
 20
49.091892
 30
0.0
 10
30.586220
 20
48.035612
 30
0.0
 10
30.586219
 20
46.728602
 30
0.0
  0
SPLINE
  5
106
100
AcDbEntity
  8
Support
 62
7
100
AcDbSpline
 70
8
 71
3
 72
8
 73
4
 74
0
 40
0
 40
0
 40
0
 40
0
 40
1
 40
1
 40
1
 40
1
 10
30.586219
 20
46.728602
 30
0.0
 10
30.586220
 20
45.421602
 30
0.0
 10
29.527986
 20
44.363372
 30
0.0
 10
28.220985
 20
44.363372
 30
0.0
  0
SPLINE
  5
107
100
AcDbEntity
  8
Support
 62
7
100
AcDbSpline
 70
8
 71
3
 72
8
 73
4
 74
0
 40
0
 40
0
 40
0
 40
0
 40
1
 40
1
 40
1
 40
1
 10
28.220985
 20
44.363372
 30
0.0
 10
26.913984
 20
44.363372
 30
0.0
 10
25.855750
 20
45.421602
 30
0.0
 10
25.855751
 20
46.728602
 30
0.0
  0
SPLINE
  5
108
100
AcDbEntity
  8
Support
 62
7
100
AcDbSpline
 70
8
 71
3
 72
8
 73
4
 74
0
 40
0
 40
0
 40
0
 40
0
 40
1
 40
1
 40
1
 40
1
 10
25.855751
 20
46.728602
 30
0.0
 10
25.855750
 20
48.035612
 30
0.0
 10
26.913984
 20
49.091892
 30
0.0
 10
28.220985
 20
49.091892
 30
0.0
  0
LINE
  5
109
100
AcDbEntity
  8
Support
 62
7
100
AcDbLine
 10
28.220985
 20
49.091892
 30
0.0
 11
28.220985
 21
49.091892
 31
0.0
  0
SPLINE
  5
10a
100
AcDbEntity
  8
Support
 62
7
100
AcDbSpline
 70
8
 71
3
 72
8
 73
4
 74
0
 40
0
 40
0
 40
0
 40
0
 40
1
 40
1
 40
1
 40
1
 10
268.220985
 20
49.293062
 30
0.0
 10
266.805895
 20
49.293062
 30
0.0
 10
265.656535
 20
48.143692
 30
0.0
 10
265.656535
 20
46.728602
 30
0.0
  0
SPLINE
  5
10b
100
AcDbEntity
  8
Support
 62
7
100
AcDbSpline
 70
8
 71
3
 72
8
 73
4
 74
0
 40
0
 40
0
 40
0
 40
0
 40
1
 40
1
 40
1
 40
1
 10
265.656535
 20
46.728602
 30
0.0
 10
265.656535
 20
45.313522
 30
0.0
 10
266.805895
 20
44.164152
 30
0.0
 10
268.220985
 20
44.164152
 30
0.0
  0
SPLINE
  5
10c
100
AcDbEntity
  8
Support
 62
7
100
AcDbSpline
 70
8
 71
3
 72
8
 73
4
 74
0
 40
0
 40
0
 40
0
 40
0
 40
1
 40
1
 40
1
 40
1
 10
268.220985
 20
44.164152
 30
0.0
 10
269.636075
 20
44.164162
 30
0.0
 10
270.785435
 20
45.313522
 30
0.0
 10
270.785435
 20
46.728602
 30
0.0
  0
SPLINE
  5
10d
100
AcDbEntity
  8
Support
 62
7
100
AcDbSpline
 70
8
 71
3
 72
8
 73
4
 74
0
 40
0
 40
0
 40
0
 40
0
 40
1
 40
1
 40
1
 40
1
 10
270.785435
 20
46.728602
 30
0.0
 10
270.785435
 20
48.143692
 30
0.0
 10
269.636075
 20
49.293052
 30
0.0
 10
268.220985
 20
49.293062
 30
0.0
  0
LINE
  5
10e
100
AcDbEntity
  8
Support
 62
7
100
AcDbLine
 10
268.220985
 20
49.293062
 30
0.0
 11
268.220985
 21
49.293062
 31
0.0
  0
SPLINE
  5
10f
100
AcDbEntity
  8
Support
 62
7
100
AcDbSpline
 70
8
 71
3
 72
8
 73
4
 74
0
 40
0
 40
0
 40
0
 40
0
 40
1
 40
1
 40
1
 40
1
 10
268.220985
 20
49.091892
 30
0.0
 10
269.527985
 20
49.091882
 30
0.0
 10
270.586215
 20
48.035602
 30
0.0
 10
270.586215
 20
46.728602
 30
0.0
  0
SPLINE
  5
110
100
AcDbEntity
  8
Support
 62
7
100
AcDbSpline
 70
8
 71
3
 72
8
 73
4
 74
0
 40
0
 40
0
 40
0
 40
0
 40
1
 40
1
 40
1
 40
1
 10
270.586215
 20
46.728602
 30
0.0
 10
270.586215
 20
45.421612
 30
0.0
 10
269.527985
 20
44.363382
 30
0.0
 10
268.220985
 20
44.363372
 30
0.0
  0
SPLINE
  5
111
100
AcDbEntity
  8
Support
 62
7
100
AcDbSpline
 70
8
 71
3
 72
8
 73
4
 74
0
 40
0
 40
0
 40
0
 40
0
 40
1
 40
1
 40
1
 40
1
 10
268.220985
 20
44.363372
 30
0.0
 10
266.913985
 20
44.363372
 30
0.0
 10
265.855755
 20
45.421602
 30
0.0
 10
265.855755
 20
46.728602
 30
0.0
  0
SPLINE
  5
112
100
AcDbEntity
  8
Support
 62
7
100
AcDbSpline
 70
8
 71
3
 72
8
 73
4
 74
0
 40
0
 40
0
 40
0
 40
0
 40
1
 40
1
 40
1
 40
1
 10
265.855755
 20
46.728602
 30
0.0
 10
265.855755
 20
48.035612
 30
0.0
 10
266.913985
 20
49.091892
 30
0.0
 10
268.220985
 20
49.091892
 30
0.0
  0
LINE
  5
113
100
AcDbEntity
  8
Support
 62
7
100
AcDbLine
 10
268.220985
 20
49.091892
 30
0.0
 11
268.220985
 21
49.091892
 31
0.0
  0
LINE
  5
114
100
AcDbEntity
  8
Support
 62
7
100
AcDbLine
 10
137.189735
 20
253.421966
 30
0.0
 11
114.008094
 21
217.291107
 31
0.0
  0
LINE
  5
115
100
AcDbEntity
  8
Support
 62
7
100
AcDbLine
 10
114.008094
 20
217.291107
 30
0.0
 11
182.324505
 21
217.310638
 31
0.0
  0
LINE
  5
116
100
AcDbEntity
  8
Support
 62
7
100
AcDbLine
 10
182.324505
 20
217.310638
 30
0.0
 11
182.226845
 21
217.462982
 31
0.0
  0
LINE
  5
117
100
AcDbEntity
  8
Support
 62
7
100
AcDbLine
 10
182.226845
 20
217.462982
 30
0.0
 11
159.428015
 21
253.144623
 31
0.0
  0
LINE
  5
118
100
AcDbEntity
  8
Support
 62
7
100
AcDbLine
 10
159.428015
 20
253.144623
 30
0.0
 11
159.342115
 21
253.084076
 31
0.0
  0
SPLINE
  5
119
100
AcDbEntity
  8
Support
 62
7
100
AcDbSpline
 70
8
 71
3
 72
8
 73
4
 74
0
 40
0
 40
0
 40
0
 40
0
 40
1
 40
1
 40
1
 40
1
 10
159.342115
 20
253.084076
 30
0.0
 10
156.178695
 20
250.897017
 30
0.0
 10
152.342515
 20
249.616150
 30
0.0
 10
148.205405
 20
249.615326
 30
0.0
  0
SPLINE
  5
11a
100
AcDbEntity
  8
Support
 62
7
100
AcDbSpline
 70
8
 71
3
 72
8
 73
4
 74
0
 40
0
 40
0
 40
0
 40
0
 40
1
 40
1
 40
1
 40
1
 10
148.205405
 20
249.615326
 30
0.0
 10
143.993935
 20
249.785557
 30
0.0
 10
140.289045
 20
251.176956
 30
0.0
 10
137.275715
 20
253.359466
 30
0.0
  0
LINE
  5
11b
100
AcDbEntity
  8
Support
 62
7
100
AcDbLine
 10
137.275715
 20
253.359466
 30
0.0
 11
137.189735
 21
253.421966
 31
0.0
  0
SPLINE
  5
11c
100
AcDbEntity
  8
Support
 62
7
100
AcDbSpline
 70
8
 71
3
 72
8
 73
4
 74
0
 40
0
 40
0
 40
0
 40
0
 40
1
 40
1
 40
1
 40
1
 10
137.252235
 20
253.148529
 30
0.0
 10
140.280615
 20
250.979058
 30
0.0
 10
143.986125
 20
249.586337
 30
0.0
 10
148.197545
 20
249.416107
 30
0.0
  0
LINE
  5
11d
100
AcDbEntity
  8
Support
 62
7
100
AcDbLine
 10
148.197545
 20
249.416107
 30
0.0
 11
148.199545
 21
249.416107
 31
0.0
  0
LINE
  5
11e
100
AcDbEntity
  8
Support
 62
7
100
AcDbLine
 10
148.199545
 20
249.416107
 30
0.0
 11
148.201545
 21
249.416107
 31
0.0
  0
SPLINE
  5
11f
100
AcDbEntity
  8
Support
 62
7
100
AcDbSpline
 70
8
 71
3
 72
8
 73
4
 74
0
 40
0
 40
0
 40
0
 40
0
 40
1
 40
1
 40
1
 40
1
 10
148.201545
 20
249.416107
 30
0.0
 10
152.344075
 20
249.416108
 30
0.0
 10
156.183565
 20
250.699153
 30
0.0
 10
159.363655
 20
252.873138
 30
0.0
  0
LINE
  5
120
100
AcDbEntity
  8
Support
 62
7
100
AcDbLine
 10
159.363655
 20
252.873138
 30
0.0
 11
181.959355
 21
217.509857
 31
0.0
  0
LINE
  5
121
100
AcDbEntity
  8
Support
 62
7
100
AcDbLine
 10
181.959355
 20
217.509857
 30
0.0
 11
114.375372
 21
217.492277
 31
0.0
  0
LINE
  5
122
100
AcDbEntity
  8
Support
 62
7
100
AcDbLine
 10
114.375372
 20
217.492277
 30
0.0
 11
137.252235
 21
253.148529
 31
0.0
  0
LINE
  5
123
100
AcDbEntity
  8
Support
 62
7
100
AcDbLine
 10
98.246376
 20
192.605560
 30
0.0
 11
63.887001
 21
138.634862
 31
0.0
  0
LINE
  5
124
100
AcDbEntity
  8
Support
 62
7
100
AcDbLine
 10
63.887001
 20
138.634862
 30
0.0
 11
34.047157
 21
60.431732
 31
0.0
  0
LINE
  5
125
100
AcDbEntity
  8
Support
 62
7
100
AcDbLine
 10
34.047157
 20
60.431732
 30
0.0
 11
34.045207
 21
60.431732
 31
0.0
  0
LINE
  5
126
100
AcDbEntity
  8
Support
 62
7
100
AcDbLine
 10
34.045207
 20
60.431732
 30
0.0
 11
33.945598
 21
60.259862
 31
0.0
  0
LINE
  5
127
100
AcDbEntity
  8
Support
 62
7
100
AcDbLine
 10
33.945598
 20
60.259862
 30
0.0
 11
34.140910
 21
60.117282
 31
0.0
  0
LINE
  5
128
100
AcDbEntity
  8
Support
 62
7
100
AcDbLine
 10
34.140910
 20
60.117282
 30
0.0
 11
34.148720
 21
60.136782
 31
0.0
  0
SPLINE
  5
129
100
AcDbEntity
  8
Support
 62
7
100
AcDbSpline
 70
8
 71
3
 72
8
 73
4
 74
0
 40
0
 40
0
 40
0
 40
0
 40
1
 40
1
 40
1
 40
1
 10
34.148720
 20
60.136782
 30
0.0
 10
39.298839
 20
57.855112
 30
0.0
 10
42.906534
 20
52.725252
 30
0.0
 10
42.906533
 20
46.728572
 30
0.0
  0
SPLINE
  5
12a
100
AcDbEntity
  8
Support
 62
7
100
AcDbSpline
 70
8
 71
3
 72
8
 73
4
 74
0
 40
0
 40
0
 40
0
 40
0
 40
1
 40
1
 40
1
 40
1
 10
42.906533
 20
46.728572
 30
0.0
 10
42.906532
 20
38.616352
 30
0.0
 10
36.332969
 20
32.041692
 30
0.0
 10
28.240517
 20
31.974672
 30
0.0
  0
LINE
  5
12b
100
AcDbEntity
  8
Support
 62
7
100
AcDbLine
 10
28.240517
 20
31.974672
 30
0.0
 11
28.224892
 21
31.775452
 31
0.0
  0
LINE
  5
12c
100
AcDbEntity
  8
Support
 62
7
100
AcDbLine
 10
28.224892
 20
31.775452
 30
0.0
 11
133.193645
 21
14.072332
 31
0.0
  0
LINE
  5
12d
100
AcDbEntity
  8
Support
 62
7
100
AcDbLine
 10
133.193645
 20
14.072332
 30
0.0
 11
163.209265
 21
14.072332
 31
0.0
  0
LINE
  5
12e
100
AcDbEntity
  8
Support
 62
7
100
AcDbLine
 10
163.209265
 20
14.072332
 30
0.0
 11
268.148715
 21
31.769592
 31
0.0
  0
LINE
  5
12f
100
AcDbEntity
  8
Support
 62
7
100
AcDbLine
 10
268.148715
 20
31.769592
 30
0.0
 11
268.166315
 21
31.771592
 31
0.0
  0
LINE
  5
130
100
AcDbEntity
  8
Support
 62
7
100
AcDbLine
 10
268.166315
 20
31.771592
 30
0.0
 11
268.150715
 21
31.968862
 31
0.0
  0
SPLINE
  5
131
100
AcDbEntity
  8
Support
 62
7
100
AcDbSpline
 70
8
 71
3
 72
8
 73
4
 74
0
 40
0
 40
0
 40
0
 40
0
 40
1
 40
1
 40
1
 40
1
 10
268.150715
 20
31.968862
 30
0.0
 10
260.109455
 20
32.041062
 30
0.0
 10
253.535475
 20
38.616402
 30
0.0
 10
253.535475
 20
46.728622
 30
0.0
  0
SPLINE
  5
132
100
AcDbEntity
  8
Support
 62
7
100
AcDbSpline
 70
8
 71
3
 72
8
 73
4
 74
0
 40
0
 40
0
 40
0
 40
0
 40
1
 40
1
 40
1
 40
1
 10
253.535475
 20
46.728622
 30
0.0
 10
253.535475
 20
52.665932
 30
0.0
 10
257.056315
 20
57.777732
 30
0.0
 10
262.293295
 20
60.041122
 30
0.0
  0
LINE
  5
133
100
AcDbEntity
  8
Support
 62
7
100
AcDbLine
 10
262.293295
 20
60.041122
 30
0.0
 11
262.381195
 21
60.078222
 31
0.0
  0
LINE
  5
134
100
AcDbEntity
  8
Support
 62
7
100
AcDbLine
 10
262.381195
 20
60.078222
 30
0.0
 11
232.555015
 21
138.634872
 31
0.0
  0
LINE
  5
135
100
AcDbEntity
  8
Support
 62
7
100
AcDbLine
 10
232.555015
 20
138.634872
 30
0.0
 11
232.549015
 21
138.642872
 31
0.0
  0
LINE
  5
136
100
AcDbEntity
  8
Support
 62
7
100
AcDbLine
 10
232.549015
 20
138.642872
 30
0.0
 11
198.134955
 21
192.498338
 31
0.0
  0
LINE
  5
137
100
AcDbEntity
  8
Support
 62
7
100
AcDbLine
 10
198.134955
 20
192.498338
 30
0.0
 11
98.246376
 21
192.605560
 31
0.0
  0
LINE
  5
138
100
AcDbEntity
  8
Support
 62
7
100
AcDbLine
 10
98.355751
 20
192.404388
 30
0.0
 11
198.025675
 21
192.298920
 31
0.0
  0
LINE
  5
139
100
AcDbEntity
  8
Support
 62
7
100
AcDbLine
 10
198.025675
 20
192.298920
 30
0.0
 11
232.373325
 21
138.546962
 31
0.0
  0
LINE
  5
13a
100
AcDbEntity
  8
Support
 62
7
100
AcDbLine
 10
232.373325
 20
138.546962
 30
0.0
 11
262.131145
 21
60.173922
 31
0.0
  0
SPLINE
  5
13b
100
AcDbEntity
  8
Support
 62
7
100
AcDbSpline
 70
8
 71
3
 72
8
 73
4
 74
0
 40
0
 40
0
 40
0
 40
0
 40
1
 40
1
 40
1
 40
1
 10
262.131145
 20
60.173922
 30
0.0
 10
256.873125
 20
57.860442
 30
0.0
 10
253.334265
 20
52.710942
 30
0.0
 10
253.334265
 20
46.728602
 30
0.0
  0
SPLINE
  5
13c
100
AcDbEntity
  8
Support
 62
7
100
AcDbSpline
 70
8
 71
3
 72
8
 73
4
 74
0
 40
0
 40
0
 40
0
 40
0
 40
1
 40
1
 40
1
 40
1
 10
253.334265
 20
46.728602
 30
0.0
 10
253.334265
 20
38.758462
 30
0.0
 10
259.615055
 20
32.305172
 30
0.0
 10
267.424105
 20
31.849702
 30
0.0
  0
LINE
  5
13d
100
AcDbEntity
  8
Support
 62
7
100
AcDbLine
 10
267.424105
 20
31.849702
 30
0.0
 11
163.193645
 21
14.271572
 31
0.0
  0
LINE
  5
13e
100
AcDbEntity
  8
Support
 62
7
100
AcDbLine
 10
163.193645
 20
14.271572
 30
0.0
 11
133.209265
 21
14.271572
 31
0.0
  0
LINE
  5
13f
100
AcDbEntity
  8
Support
 62
7
100
AcDbLine
 10
133.209265
 20
14.271572
 30
0.0
 11
28.963173
 21
31.853602
 31
0.0
  0
SPLINE
  5
140
100
AcDbEntity
  8
Support
 62
7
100
AcDbSpline
 70
8
 71
3
 72
8
 73
4
 74
0
 40
0
 40
0
 40
0
 40
0
 40
1
 40
1
 40
1
 40
1
 10
28.963173
 20
31.853602
 30
0.0
 10
36.822066
 20
32.300362
 30
0.0
 10
43.107703
 20
38.755792
 30
0.0
 10
43.107704
 20
46.728602
 30
0.0
  0
SPLINE
  5
141
100
AcDbEntity
  8
Support
 62
7
100
AcDbSpline
 70
8
 71
3
 72
8
 73
4
 74
0
 40
0
 40
0
 40
0
 40
0
 40
1
 40
1
 40
1
 40
1
 10
43.107704
 20
46.728602
 30
0.0
 10
43.107705
 20
52.808732
 30
0.0
 10
39.446552
 20
58.013412
 30
0.0
 10
34.220985
 20
60.324312
 30
0.0
  0
LINE
  5
142
100
AcDbEntity
  8
Support
 62
7
100
AcDbLine
 10
34.220985
 20
60.324312
 30
0.0
 11
64.066688
 21
138.543062
 31
0.0
  0
LINE
  5
143
100
AcDbEntity
  8
Support
 62
7
100
AcDbLine
 10
64.066688
 20
138.543062
 30
0.0
 11
98.355751
 21
192.404388
 31
0.0
  0
SPLINE
  5
144
100
AcDbEntity
  8
Support
 62
7
100
AcDbSpline
 70
8
 71
3
 72
8
 73
4
 74
0
 40
0
 40
0
 40
0
 40
0
 40
1
 40
1
 40
1
 40
1
 10
148.201285
 20
279.663049
 30
0.0
 10
141.020125
 20
279.663050
 30
0.0
 10
134.733925
 20
276.223484
 30
0.0
 10
131.278295
 20
271.079823
 30
0.0
  0
LINE
  5
145
100
AcDbEntity
  8
Support
 62
7
100
AcDbLine
 10
131.278295
 20
271.079823
 30
0.0
 11
28.193113
 21
137.444222
 31
0.0
  0
LINE
  5
146
100
AcDbEntity
  8
Support
 62
7
100
AcDbLine
 10
28.193113
 20
137.444222
 30
0.0
 11
0.879018
 21
62.253922
 31
0.0
  0
LINE
  5
147
100
AcDbEntity
  8
Support
 62
7
100
AcDbLine
 10
0.879018
 20
62.253922
 30
0.0
 11
0.000002
 21
47.676222
 31
0.0
  0
LINE
  5
148
100
AcDbEntity
  8
Support
 62
7
100
AcDbLine
 10
0.000002
 20
47.676222
 30
0.0
 11
0.000002
 21
2.666532
 31
0.0
  0
LINE
  5
149
100
AcDbEntity
  8
Support
 62
7
100
AcDbLine
 10
0.000002
 20
2.666532
 30
0.0
 11
0.060982
 21
2.666532
 31
0.0
  0
LINE
  5
14a
100
AcDbEntity
  8
Support
 62
7
100
AcDbLine
 10
0.060982
 20
2.666532
 30
0.0
 11
0.060982
 21
47.674362
 31
0.0
  0
LINE
  5
14b
100
AcDbEntity
  8
Support
 62
7
100
AcDbLine
 10
0.060982
 20
47.674362
 30
0.0
 11
0.939996
 21
62.243712
 31
0.0
  0
LINE
  5
14c
100
AcDbEntity
  8
Support
 62
7
100
AcDbLine
 10
0.939996
 20
62.243712
 30
0.0
 11
28.248922
 21
137.419172
 31
0.0
  0
LINE
  5
14d
100
AcDbEntity
  8
Support
 62
7
100
AcDbLine
 10
28.248922
 20
137.419172
 30
0.0
 11
131.330485
 21
271.050613
 31
0.0
  0
LINE
  5
14e
100
AcDbEntity
  8
Support
 62
7
100
AcDbLine
 10
131.330485
 20
271.050613
 30
0.0
 11
131.331005
 21
271.051074
 31
0.0
  0
SPLINE
  5
14f
100
AcDbEntity
  8
Support
 62
7
100
AcDbSpline
 70
8
 71
3
 72
8
 73
4
 74
0
 40
0
 40
0
 40
0
 40
0
 40
1
 40
1
 40
1
 40
1
 10
131.331005
 20
271.051074
 30
0.0
 10
134.775895
 20
276.178754
 30
0.0
 10
141.041955
 20
279.608336
 30
0.0
 10
148.201285
 20
279.608335
 30
0.0
  0
SPLINE
  5
150
100
AcDbEntity
  8
Support
 62
7
100
AcDbSpline
 70
8
 71
3
 72
8
 73
4
 74
0
 40
0
 40
0
 40
0
 40
0
 40
1
 40
1
 40
1
 40
1
 10
148.201285
 20
279.608335
 30
0.0
 10
155.096265
 20
279.608334
 30
0.0
 10
161.162995
 20
276.427390
 30
0.0
 10
164.678835
 20
271.612131
 30
0.0
  0
LINE
  5
151
100
AcDbEntity
  8
Support
 62
7
100
AcDbLine
 10
164.678835
 20
271.612131
 30
0.0
 11
164.679355
 21
271.612131
 31
0.0
  0
LINE
  5
152
100
AcDbEntity
  8
Support
 62
7
100
AcDbLine
 10
164.679355
 20
271.612131
 30
0.0
 11
268.192915
 21
137.419172
 31
0.0
  0
LINE
  5
153
100
AcDbEntity
  8
Support
 62
7
100
AcDbLine
 10
268.192915
 20
137.419172
 30
0.0
 11
295.501865
 21
62.243712
 31
0.0
  0
LINE
  5
154
100
AcDbEntity
  8
Support
 62
7
100
AcDbLine
 10
295.501865
 20
62.243712
 30
0.0
 11
296.380885
 21
47.674362
 31
0.0
  0
LINE
  5
155
100
AcDbEntity
  8
Support
 62
7
100
AcDbLine
 10
296.380885
 20
47.674362
 30
0.0
 11
296.380885
 21
2.664252
 31
0.0
  0
LINE
  5
156
100
AcDbEntity
  8
Support
 62
7
100
AcDbLine
 10
296.380885
 20
2.664252
 30
0.0
 11
296.380885
 21
2.604952
 31
0.0
  0
LINE
  5
157
100
AcDbEntity
  8
Support
 62
7
100
AcDbLine
 10
296.380885
 20
2.604952
 30
0.0
 11
296.380885
 21
0.054672
 31
0.0
  0
LINE
  5
158
100
AcDbEntity
  8
Support
 62
7
100
AcDbLine
 10
296.380885
 20
0.054672
 30
0.0
 11
276.503535
 21
0.054672
 31
0.0
  0
LINE
  5
159
100
AcDbEntity
  8
Support
 62
7
100
AcDbLine
 10
276.503535
 20
0.054672
 30
0.0
 11
276.503535
 21
2.636462
 31
0.0
  0
LINE
  5
15a
100
AcDbEntity
  8
Support
 62
7
100
AcDbLine
 10
276.503535
 20
2.636462
 30
0.0
 11
232.434385
 21
2.646562
 31
0.0
  0
LINE
  5
15b
100
AcDbEntity
  8
Support
 62
7
100
AcDbLine
 10
232.434385
 20
2.646562
 30
0.0
 11
232.434385
 21
0.055512
 31
0.0
  0
LINE
  5
15c
100
AcDbEntity
  8
Support
 62
7
100
AcDbLine
 10
232.434385
 20
0.055512
 30
0.0
 11
212.557055
 21
0.055512
 31
0.0
  0
LINE
  5
15d
100
AcDbEntity
  8
Support
 62
7
100
AcDbLine
 10
212.557055
 20
0.055512
 30
0.0
 11
212.557055
 21
2.650742
 31
0.0
  0
LINE
  5
15e
100
AcDbEntity
  8
Support
 62
7
100
AcDbLine
 10
212.557055
 20
2.650742
 30
0.0
 11
158.303515
 21
2.661842
 31
0.0
  0
LINE
  5
15f
100
AcDbEntity
  8
Support
 62
7
100
AcDbLine
 10
158.303515
 20
2.661842
 30
0.0
 11
158.303515
 21
0.055472
 31
0.0
  0
LINE
  5
160
100
AcDbEntity
  8
Support
 62
7
100
AcDbLine
 10
158.303515
 20
0.055472
 30
0.0
 11
138.426175
 21
0.055472
 31
0.0
  0
LINE
  5
161
100
AcDbEntity
  8
Support
 62
7
100
AcDbLine
 10
138.426175
 20
0.055472
 30
0.0
 11
138.426175
 21
2.666022
 31
0.0
  0
LINE
  5
162
100
AcDbEntity
  8
Support
 62
7
100
AcDbLine
 10
138.426175
 20
2.666022
 30
0.0
 11
94.837106
 21
2.676122
 31
0.0
  0
LINE
  5
163
100
AcDbEntity
  8
Support
 62
7
100
AcDbLine
 10
94.837106
 20
2.676122
 30
0.0
 11
94.837106
 21
0.056772
 31
0.0
  0
LINE
  5
164
100
AcDbEntity
  8
Support
 62
7
100
AcDbLine
 10
94.837106
 20
0.056772
 30
0.0
 11
74.959249
 21
0.056772
 31
0.0
  0
LINE
  5
165
100
AcDbEntity
  8
Support
 62
7
100
AcDbLine
 10
74.959249
 20
0.056772
 30
0.0
 11
74.959249
 21
2.680292
 31
0.0
  0
LINE
  5
166
100
AcDbEntity
  8
Support
 62
7
100
AcDbLine
 10
74.959249
 20
2.680292
 30
0.0
 11
19.938836
 21
2.691892
 31
0.0
  0
LINE
  5
167
100
AcDbEntity
  8
Support
 62
7
100
AcDbLine
 10
19.938836
 20
2.691892
 30
0.0
 11
19.938836
 21
0.056782
 31
0.0
  0
LINE
  5
168
100
AcDbEntity
  8
Support
 62
7
100
AcDbLine
 10
19.938836
 20
0.056782
 30
0.0
 11
0.060980
 21
0.056782
 31
0.0
  0
LINE
  5
169
100
AcDbEntity
  8
Support
 62
7
100
AcDbLine
 10
0.060980
 20
0.056782
 30
0.0
 11
0.060980
 21
2.666392
 31
0.0
  0
LINE
  5
16a
100
AcDbEntity
  8
Support
 62
7
100
AcDbLine
 10
0.060980
 20
2.666392
 30
0.0
 11
-0.000000
 21
2.666392
 31
0.0
  0
LINE
  5
16b
100
AcDbEntity
  8
Support
 62
7
100
AcDbLine
 10
-0.000000
 20
2.666392
 30
0.0
 11
-0.000000
 21
0.002072
 31
0.0
  0
LINE
  5
16c
100
AcDbEntity
  8
Support
 62
7
100
AcDbLine
 10
-0.000000
 20
0.002072
 30
0.0
 11
19.999812
 21
0.002072
 31
0.0
  0
LINE
  5
16d
100
AcDbEntity
  8
Support
 62
7
100
AcDbLine
 10
19.999812
 20
0.002072
 30
0.0
 11
19.999812
 21
2.637162
 31
0.0
  0
LINE
  5
16e
100
AcDbEntity
  8
Support
 62
7
100
AcDbLine
 10
19.999812
 20
2.637162
 30
0.0
 11
74.898268
 21
2.625562
 31
0.0
  0
LINE
  5
16f
100
AcDbEntity
  8
Support
 62
7
100
AcDbLine
 10
74.898268
 20
2.625562
 30
0.0
 11
74.898268
 21
0.001982
 31
0.0
  0
LINE
  5
170
100
AcDbEntity
  8
Support
 62
7
100
AcDbLine
 10
74.898268
 20
0.001982
 30
0.0
 11
94.898085
 21
0.001982
 31
0.0
  0
LINE
  5
171
100
AcDbEntity
  8
Support
 62
7
100
AcDbLine
 10
94.898085
 20
0.001982
 30
0.0
 11
94.898085
 21
2.621322
 31
0.0
  0
LINE
  5
172
100
AcDbEntity
  8
Support
 62
7
100
AcDbLine
 10
94.898085
 20
2.621322
 30
0.0
 11
138.365195
 21
2.611222
 31
0.0
  0
LINE
  5
173
100
AcDbEntity
  8
Support
 62
7
100
AcDbLine
 10
138.365195
 20
2.611222
 30
0.0
 11
138.365195
 21
0.000692
 31
0.0
  0
LINE
  5
174
100
AcDbEntity
  8
Support
 62
7
100
AcDbLine
 10
138.365195
 20
0.000692
 30
0.0
 11
158.364495
 21
0.000692
 31
0.0
  0
LINE
  5
175
100
AcDbEntity
  8
Support
 62
7
100
AcDbLine
 10
158.364495
 20
0.000692
 30
0.0
 11
158.364495
 21
2.607042
 31
0.0
  0
LINE
  5
176
100
AcDbEntity
  8
Support
 62
7
100
AcDbLine
 10
158.364495
 20
2.607042
 30
0.0
 11
212.496075
 21
2.596042
 31
0.0
  0
LINE
  5
177
100
AcDbEntity
  8
Support
 62
7
100
AcDbLine
 10
212.496075
 20
2.596042
 30
0.0
 11
212.496075
 21
0.000792
 31
0.0
  0
LINE
  5
178
100
AcDbEntity
  8
Support
 62
7
100
AcDbLine
 10
212.496075
 20
0.000792
 30
0.0
 11
232.495365
 21
0.000792
 31
0.0
  0
LINE
  5
179
100
AcDbEntity
  8
Support
 62
7
100
AcDbLine
 10
232.495365
 20
0.000792
 30
0.0
 11
232.495365
 21
2.591882
 31
0.0
  0
LINE
  5
17a
100
AcDbEntity
  8
Support
 62
7
100
AcDbLine
 10
232.495365
 20
2.591882
 30
0.0
 11
276.442545
 21
2.581782
 31
0.0
  0
LINE
  5
17b
100
AcDbEntity
  8
Support
 62
7
100
AcDbLine
 10
276.442545
 20
2.581782
 30
0.0
 11
276.442545
 21
-0.000008
 31
0.0
  0
LINE
  5
17c
100
AcDbEntity
  8
Support
 62
7
100
AcDbLine
 10
276.442545
 20
-0.000008
 30
0.0
 11
296.441845
 21
-0.000008
 31
0.0
  0
LINE
  5
17d
100
AcDbEntity
  8
Support
 62
7
100
AcDbLine
 10
296.441845
 20
-0.000008
 30
0.0
 11
296.441845
 21
2.604982
 31
0.0
  0
LINE
  5
17e
100
AcDbEntity
  8
Support
 62
7
100
AcDbLine
 10
296.441845
 20
2.604982
 30
0.0
 11
296.441845
 21
2.664382
 31
0.0
  0
LINE
  5
17f
100
AcDbEntity
  8
Support
 62
7
100
AcDbLine
 10
296.441845
 20
2.664382
 30
0.0
 11
296.441845
 21
47.676362
 31
0.0
  0
LINE
  5
180
100
AcDbEntity
  8
Support
 62
7
100
AcDbLine
 10
296.441845
 20
47.676362
 30
0.0
 11
295.562845
 21
62.254062
 31
0.0
  0
LINE
  5
181
100
AcDbEntity
  8
Support
 62
7
100
AcDbLine
 10
295.562845
 20
62.254062
 30
0.0
 11
268.248745
 21
137.444352
 31
0.0
  0
LINE
  5
182
100
AcDbEntity
  8
Support
 62
7
100
AcDbLine
 10
268.248745
 20
137.444352
 30
0.0
 11
164.730515
 21
271.642862
 31
0.0
  0
LINE
  5
183
100
AcDbEntity
  8
Support
 62
7
100
AcDbLine
 10
164.730515
 20
271.642862
 30
0.0
 11
164.729995
 21
271.643329
 31
0.0
  0
SPLINE
  5
184
100
AcDbEntity
  8
Support
 62
7
100
AcDbSpline
 70
8
 71
3
 72
8
 73
4
 74
0
 40
0
 40
0
 40
0
 40
0
 40
1
 40
1
 40
1
 40
1
 10
164.729995
 20
271.643329
 30
0.0
 10
161.203155
 20
276.473266
 30
0.0
 10
155.117025
 20
279.663179
 30
0.0
 10
148.201285
 20
279.663180
 30
0.0
  0
LINE
  5
185
100
AcDbEntity
  8
Support
 62
7
100
AcDbLine
 10
148.201285
 20
279.663180
 30
0.0
 11
148.201285
 21
279.663049
 31
0.0
  0
SPLINE
  5
186
100
AcDbEntity
  8
Support
 62
7
100
AcDbSpline
 70
8
 71
3
 72
8
 73
4
 74
0
 40
0
 40
0
 40
0
 40
0
 40
1
 40
1
 40
1
 40
1
 10
148.201455
 20
274.093322
 30
0.0
 10
146.829345
 20
274.093322
 30
0.0
 10
145.720985
 20
273.166435
 30
0.0
 10
145.720985
 20
272.017542
 30
0.0
  0
LINE
  5
187
100
AcDbEntity
  8
Support
 62
7
100
AcDbLine
 10
145.720985
 20
272.017542
 30
0.0
 11
145.720985
 21
266.170735
 31
0.0
  0
SPLINE
  5
188
100
AcDbEntity
  8
Support
 62
7
100
AcDbSpline
 70
8
 71
3
 72
8
 73
4
 74
0
 40
0
 40
0
 40
0
 40
0
 40
1
 40
1
 40
1
 40
1
 10
145.720985
 20
266.170735
 30
0.0
 10
145.720985
 20
265.021843
 30
0.0
 10
146.829345
 20
264.093322
 30
0.0
 10
148.201455
 20
264.093322
 30
0.0
  0
SPLINE
  5
189
100
AcDbEntity
  8
Support
 62
7
100
AcDbSpline
 70
8
 71
3
 72
8
 73
4
 74
0
 40
0
 40
0
 40
0
 40
0
 40
1
 40
1
 40
1
 40
1
 10
148.201455
 20
264.093322
 30
0.0
 10
149.573575
 20
264.093322
 30
0.0
 10
150.681925
 20
265.021843
 30
0.0
 10
150.681925
 20
266.170735
 30
0.0
  0
LINE
  5
18a
100
AcDbEntity
  8
Support
 62
7
100
AcDbLine
 10
150.681925
 20
266.170735
 30
0.0
 11
150.681925
 21
272.017542
 31
0.0
  0
SPLINE
  5
18b
100
AcDbEntity
  8
Support
 62
7
100
AcDbSpline
 70
8
 71
3
 72
8
 73
4
 74
0
 40
0
 40
0
 40
0
 40
0
 40
1
 40
1
 40
1
 40
1
 10
150.681925
 20
272.017542
 30
0.0
 10
150.681925
 20
273.166435
 30
0.0
 10
149.573575
 20
274.093322
 30
0.0
 10
148.201455
 20
274.093322
 30
0.0
  0
LINE
  5
18c
100
AcDbEntity
  8
Support
 62
7
100
AcDbLine
 10
148.201455
 20
274.093322
 30
0.0
 11
148.201455
 21
274.093322
 31
0.0
  0
SPLINE
  5
18d
100
AcDbEntity
  8
Support
 62
7
100
AcDbSpline
 70
8
 71
3
 72
8
 73
4
 74
0
 40
0
 40
0
 40
0
 40
0
 40
1
 40
1
 40
1
 40
1
 10
148.201455
 20
273.926738
 30
0.0
 10
149.466075
 20
273.926738
 30
0.0
 10
150.480755
 20
273.076814
 30
0.0
 10
150.480755
 20
272.017542
 30
0.0
  0
LINE
  5
18e
100
AcDbEntity
  8
Support
 62
7
100
AcDbLine
 10
150.480755
 20
272.017542
 30
0.0
 11
150.480755
 21
266.170735
 31
0.0
  0
SPLINE
  5
18f
100
AcDbEntity
  8
Support
 62
7
100
AcDbSpline
 70
8
 71
3
 72
8
 73
4
 74
0
 40
0
 40
0
 40
0
 40
0
 40
1
 40
1
 40
1
 40
1
 10
150.480755
 20
266.170735
 30
0.0
 10
150.480755
 20
265.111463
 30
0.0
 10
149.466075
 20
264.261540
 30
0.0
 10
148.201455
 20
264.261540
 30
0.0
  0
SPLINE
  5
190
100
AcDbEntity
  8
Support
 62
7
100
AcDbSpline
 70
8
 71
3
 72
8
 73
4
 74
0
 40
0
 40
0
 40
0
 40
0
 40
1
 40
1
 40
1
 40
1
 10
148.201455
 20
264.261540
 30
0.0
 10
146.936845
 20
264.261540
 30
0.0
 10
145.922155
 20
265.111463
 30
0.0
 10
145.922155
 20
266.170735
 30
0.0
  0
LINE
  5
191
100
AcDbEntity
  8
Support
 62
7
100
AcDbLine
 10
145.922155
 20
266.170735
 30
0.0
 11
145.922155
 21
272.017542
 31
0.0
  0
SPLINE
  5
192
100
AcDbEntity
  8
Support
 62
7
100
AcDbSpline
 70
8
 71
3
 72
8
 73
4
 74
0
 40
0
 40
0
 40
0
 40
0
 40
1
 40
1
 40
1
 40
1
 10
145.922155
 20
272.017542
 30
0.0
 10
145.922155
 20
273.076814
 30
0.0
 10
146.936845
 20
273.926737
 30
0.0
 10
148.201455
 20
273.926738
 30
0.0
  0
LINE
  5
193
100
AcDbEntity
  8
Support
 62
7
100
AcDbLine
 10
148.201455
 20
273.926738
 30
0.0
 11
148.201455
 21
273.926738
 31
0.0
  0
LINE
  5
194
100
AcDbEntity
  8
Support
 62
7
100
AcDbLine
 10
128.203669
 20
256.832158
 30
0.0
 11
130.618734
 21
255.226711
 31
0.0
  0
LINE
  5
195
100
AcDbEntity
  8
Support
 62
7
100
AcDbLine
 10
130.618734
 20
255.226711
 30
0.0
 11
125.138071
 21
246.982178
 31
0.0
  0
LINE
  5
196
100
AcDbEntity
  8
Support
 62
7
100
AcDbLine
 10
125.138071
 20
246.982178
 30
0.0
 11
122.723005
 21
248.587625
 31
0.0
  0
LINE
  5
197
100
AcDbEntity
  8
Support
 62
7
100
AcDbLine
 10
122.723005
 20
248.587625
 30
0.0
 11
128.203669
 21
256.832158
 31
0.0
  0
LINE
  5
198
100
AcDbEntity
  8
Support
 62
7
100
AcDbLine
 10
168.529733
 20
256.832161
 30
0.0
 11
166.114668
 21
255.226715
 31
0.0
  0
LINE
  5
199
100
AcDbEntity
  8
Support
 62
7
100
AcDbLine
 10
166.114668
 20
255.226715
 30
0.0
 11
171.595331
 21
246.982182
 31
0.0
  0
LINE
  5
19a
100
AcDbEntity
  8
Support
 62
7
100
AcDbLine
 10
171.595331
 20
246.982182
 30
0.0
 11
174.010396
 21
248.587629
 31
0.0
  0
LINE
  5
19b
100
AcDbEntity
  8
Support
 62
7
100
AcDbLine
 10
174.010396
 20
248.587629
 30
0.0
 11
168.529733
 21
256.832161
 31
0.0
  0
ENDSEC
  0
SECTION
  2
OBJECTS
  0
DICTIONARY
  5
C
330
0
100
AcDbDictionary
  3
ACAD_GROUP
350
D
  3
ACAD_MLINESTYLE
350
17
  0
DICTIONARY
  5
D
330
C
100
AcDbDictionary
  0
DICTIONARY
  5
1A
330
C
100
AcDbDictionary
  0
DICTIONARY
  5
17
330
C
100
AcDbDictionary
  3
STANDARD
350
18
  0
DICTIONARY
  5
19
330
C
100
AcDbDictionary
  0
ENDSEC
  0
EOF
